M48
;DRILL file {KiCad (5.0.1-3-g963ef8bb5)} date Friday, December 21, 2018 at 01:17:33 AM
;FORMAT={-:-/ absolute / inch / decimal}
FMAT,2
INCH,TZ
T1C0.0157
T2C0.0276
T3C0.0433
T4C0.0590
%
G90
G05
M72
T1
X7.0347Y-3.2721
T2
X9.4665Y-3.365
X9.7735Y-3.365
X7.9415Y-3.355
X8.2485Y-3.355
X5.9115Y-1.87
X6.2185Y-1.87
X2.7165Y-3.37
X3.0235Y-3.37
X8.3215Y-2.63
X8.6285Y-2.63
X1.4915Y-2.615
X1.7985Y-2.615
X7.3915Y-1.87
X7.6985Y-1.87
X8.7115Y-4.12
X9.0185Y-4.12
X6.4365Y-3.345
X6.7435Y-3.345
X6.8265Y-2.63
X7.1335Y-2.63
X1.6765Y-3.365
X1.9835Y-3.365
X2.1765Y-1.875
X2.4835Y-1.875
X4.5865Y-2.62
X4.8935Y-2.62
X2.9415Y-1.875
X3.2485Y-1.875
X7.7615Y-4.12
X8.0685Y-4.12
X1.5065Y-4.1
X1.8135Y-4.1
X4.2065Y-4.005
X4.5135Y-4.005
X10.1965Y-3.365
X10.5035Y-3.365
X5.7065Y-3.36
X6.0135Y-3.36
X8.1315Y-1.875
X8.4385Y-1.875
X3.0815Y-2.62
X3.3885Y-2.62
X2.5265Y-4.105
X2.8335Y-4.105
X3.5565Y-4.12
X3.8635Y-4.12
X1.4065Y-1.875
X1.7135Y-1.875
X5.1565Y-1.875
X5.4635Y-1.875
X4.9665Y-3.355
X5.2735Y-3.355
X4.365Y-3.5565
X4.365Y-3.8635
X8.7165Y-3.35
X9.0235Y-3.35
X6.0815Y-2.63
X6.3885Y-2.63
X9.9265Y-1.875
X10.2335Y-1.875
X5.3215Y-2.615
X5.6285Y-2.615
X9.4515Y-4.115
X9.7585Y-4.115
X8.8715Y-1.875
X9.1785Y-1.875
X2.3365Y-2.615
X2.6435Y-2.615
X7.2165Y-3.355
X7.5235Y-3.355
X10.2115Y-4.12
X10.5185Y-4.12
X4.2265Y-3.365
X4.5335Y-3.365
X6.6715Y-1.875
X6.9785Y-1.875
X3.4715Y-3.365
X3.7785Y-3.365
X9.0765Y-2.635
X9.3835Y-2.635
X10.0215Y-2.62
X10.3285Y-2.62
X3.8315Y-2.625
X4.1385Y-2.625
X7.5715Y-2.625
X7.8785Y-2.625
X3.6365Y-1.88
X3.9435Y-1.88
X4.4115Y-1.875
X4.7185Y-1.875
T3
X6.005Y-3.505
X6.005Y-4.105
X6.105Y-3.505
X6.105Y-4.105
X6.205Y-3.505
X6.205Y-4.105
X6.305Y-3.505
X6.305Y-4.105
X6.405Y-3.505
X6.405Y-4.105
X6.505Y-3.505
X6.505Y-4.105
X6.605Y-3.505
X6.605Y-4.105
X6.705Y-3.505
X6.705Y-4.105
X6.805Y-3.505
X6.805Y-4.105
X6.905Y-3.505
X6.905Y-4.105
X7.005Y-3.505
X7.005Y-4.105
X7.105Y-3.505
X7.105Y-4.105
X7.205Y-3.505
X7.205Y-4.105
X7.305Y-3.505
X7.305Y-3.605
X7.305Y-3.705
X7.305Y-3.805
X7.305Y-3.905
X7.305Y-4.005
X7.305Y-4.105
T4
X3.08Y-2.15
X3.33Y-2.05
X6.07Y-2.15
X6.32Y-2.05
X6.45Y-2.895
X6.7Y-2.795
X9.445Y-2.895
X9.695Y-2.795
X1.68Y-2.9
X1.93Y-2.8
X2.9Y-1.4
X3.15Y-1.3
X8.89Y-1.4
X9.14Y-1.3
X4.205Y-2.895
X4.455Y-2.795
X8.32Y-2.15
X8.57Y-2.05
X2.525Y-3.645
X2.775Y-3.545
X7.57Y-2.15
X7.82Y-2.05
X1.5Y-2.15
X1.75Y-2.05
X4.58Y-2.15
X4.83Y-2.05
X4.955Y-2.895
X5.205Y-2.795
X7.95Y-2.895
X8.2Y-2.795
X9.07Y-2.15
X9.32Y-2.05
X3.55Y-3.645
X3.8Y-3.545
X5.89Y-1.4
X6.14Y-1.3
X10.19Y-3.645
X10.44Y-3.545
X1.4Y-1.4
X1.65Y-1.3
X3.83Y-2.15
X4.08Y-2.05
X6.82Y-2.15
X7.07Y-2.05
X7.2Y-2.895
X7.45Y-2.795
X10.19Y-2.895
X10.44Y-2.795
X3.65Y-1.4
X3.9Y-1.3
X9.91Y-1.4
X10.16Y-1.3
X2.15Y-1.4
X2.4Y-1.3
X2.71Y-2.895
X2.96Y-2.795
X7.76Y-3.645
X8.01Y-3.545
X8.14Y-1.4
X8.39Y-1.3
X1.495Y-3.64
X1.745Y-3.54
X8.695Y-3.645
X8.945Y-3.545
X3.46Y-2.895
X3.71Y-2.795
X4.4Y-1.4
X4.65Y-1.3
X5.14Y-1.4
X5.39Y-1.3
X10.01Y-2.15
X10.26Y-2.05
X4.81Y-3.645
X4.91Y-3.895
X9.445Y-3.645
X9.695Y-3.545
X7.39Y-1.4
X7.64Y-1.3
X2.33Y-2.15
X2.58Y-2.05
X5.32Y-2.15
X5.57Y-2.05
X5.75Y-3.195
X6.Y-3.095
X8.695Y-2.895
X8.945Y-2.795
X6.64Y-1.4
X6.89Y-1.3
X6.4Y-3.645
X6.5Y-3.895
T0
M30
