M48
;DRILL file {KiCad (5.0.1-3-g963ef8bb5)} date Saturday, December 22, 2018 at 11:57:13 PM
;FORMAT={-:-/ absolute / inch / decimal}
FMAT,2
INCH,TZ
T1C0.0670
T2C0.1570
%
G90
G05
M72
T1
X10.28Y-3.225
X10.68Y-3.225
X7.1Y-2.475
X7.5Y-2.475
X6.915Y-3.97
X7.315Y-3.97
X5.42Y-3.97
X5.82Y-3.97
X4.485Y-4.72
X4.885Y-4.72
X4.11Y-2.475
X4.51Y-2.475
X10.655Y-3.97
X11.055Y-3.97
X10.655Y-4.72
X11.055Y-4.72
X9.53Y-3.225
X9.93Y-3.225
X6.36Y-2.475
X6.76Y-2.475
X4.67Y-3.97
X5.07Y-3.97
X10.1Y-2.475
X10.5Y-2.475
X11.97Y-3.225
X12.37Y-3.225
X9.91Y-3.97
X10.31Y-3.97
X3.36Y-2.475
X3.76Y-2.475
X9.72Y-4.72
X10.12Y-4.72
X5.61Y-2.475
X6.01Y-2.475
X3.64Y-3.975
X4.04Y-3.975
X9.35Y-2.475
X9.75Y-2.475
X11.03Y-3.225
X11.43Y-3.225
X9.16Y-3.97
X9.56Y-3.97
X5.79Y-3.225
X6.19Y-3.225
X12.15Y-4.72
X12.55Y-4.72
X4.29Y-3.225
X4.69Y-3.225
X8.41Y-4.72
X8.81Y-4.72
X5.51Y-4.72
X5.91Y-4.72
X8.03Y-3.225
X8.43Y-3.225
X4.86Y-2.475
X5.26Y-2.475
X3.455Y-4.715
X3.855Y-4.715
X8.6Y-2.475
X9.Y-2.475
X8.41Y-3.97
X8.81Y-3.97
X5.04Y-3.225
X5.44Y-3.225
X3.46Y-3.225
X3.86Y-3.225
X10.85Y-2.475
X11.25Y-2.475
X6.82Y-4.72
X7.22Y-4.72
X8.78Y-3.225
X9.18Y-3.225
X7.28Y-3.225
X7.68Y-3.225
X12.15Y-3.97
X12.55Y-3.97
X7.85Y-2.475
X8.25Y-2.475
X7.66Y-3.97
X8.06Y-3.97
X6.165Y-3.97
X6.565Y-3.97
X11.87Y-2.475
X12.27Y-2.475
X6.54Y-3.225
X6.94Y-3.225
X11.405Y-3.97
X11.805Y-3.97
X11.405Y-4.72
X11.805Y-4.72
T2
X4.49Y-3.225
X8.61Y-4.72
X5.71Y-4.72
X8.23Y-3.225
X5.06Y-2.475
X3.655Y-4.715
X8.8Y-2.475
X8.61Y-3.97
X5.24Y-3.225
X3.66Y-3.225
X11.05Y-2.475
X7.02Y-4.72
X8.98Y-3.225
X7.48Y-3.225
X12.35Y-3.97
X8.05Y-2.475
X7.86Y-3.97
X6.365Y-3.97
X12.07Y-2.475
X6.74Y-3.225
X11.605Y-3.97
X11.605Y-4.72
X10.48Y-3.225
X7.3Y-2.475
X7.115Y-3.97
X5.62Y-3.97
X4.685Y-4.72
X4.31Y-2.475
X10.855Y-3.97
X10.855Y-4.72
X9.73Y-3.225
X6.56Y-2.475
X4.87Y-3.97
X10.3Y-2.475
X12.17Y-3.225
X10.11Y-3.97
X3.56Y-2.475
X9.92Y-4.72
X5.81Y-2.475
X3.84Y-3.975
X9.55Y-2.475
X11.23Y-3.225
X9.36Y-3.97
X5.99Y-3.225
X12.35Y-4.72
T0
M30
