G04 #@! TF.GenerationSoftware,KiCad,Pcbnew,(5.0.1-3-g963ef8bb5)*
G04 #@! TF.CreationDate,2018-12-21T01:17:29-08:00*
G04 #@! TF.ProjectId,snackymini-keyboard,736E61636B796D696E692D6B6579626F,rev?*
G04 #@! TF.SameCoordinates,Original*
G04 #@! TF.FileFunction,Soldermask,Bot*
G04 #@! TF.FilePolarity,Negative*
%FSLAX46Y46*%
G04 Gerber Fmt 4.6, Leading zero omitted, Abs format (unit mm)*
G04 Created by KiCad (PCBNEW (5.0.1-3-g963ef8bb5)) date Friday, December 21, 2018 at 01:17:29 AM*
%MOMM*%
%LPD*%
G01*
G04 APERTURE LIST*
%ADD10C,0.100000*%
G04 APERTURE END LIST*
D10*
G36*
X267419228Y-103829703D02*
X267574100Y-103893853D01*
X267713481Y-103986985D01*
X267832015Y-104105519D01*
X267925147Y-104244900D01*
X267989297Y-104399772D01*
X268022000Y-104564184D01*
X268022000Y-104731816D01*
X267989297Y-104896228D01*
X267925147Y-105051100D01*
X267832015Y-105190481D01*
X267713481Y-105309015D01*
X267574100Y-105402147D01*
X267419228Y-105466297D01*
X267254816Y-105499000D01*
X267087184Y-105499000D01*
X266922772Y-105466297D01*
X266767900Y-105402147D01*
X266628519Y-105309015D01*
X266509985Y-105190481D01*
X266416853Y-105051100D01*
X266352703Y-104896228D01*
X266320000Y-104731816D01*
X266320000Y-104564184D01*
X266352703Y-104399772D01*
X266416853Y-104244900D01*
X266509985Y-104105519D01*
X266628519Y-103986985D01*
X266767900Y-103893853D01*
X266922772Y-103829703D01*
X267087184Y-103797000D01*
X267254816Y-103797000D01*
X267419228Y-103829703D01*
X267419228Y-103829703D01*
G37*
G36*
X260222000Y-105499000D02*
X258520000Y-105499000D01*
X258520000Y-103797000D01*
X260222000Y-103797000D01*
X260222000Y-105499000D01*
X260222000Y-105499000D01*
G37*
G36*
X229319228Y-103829703D02*
X229474100Y-103893853D01*
X229613481Y-103986985D01*
X229732015Y-104105519D01*
X229825147Y-104244900D01*
X229889297Y-104399772D01*
X229922000Y-104564184D01*
X229922000Y-104731816D01*
X229889297Y-104896228D01*
X229825147Y-105051100D01*
X229732015Y-105190481D01*
X229613481Y-105309015D01*
X229474100Y-105402147D01*
X229319228Y-105466297D01*
X229154816Y-105499000D01*
X228987184Y-105499000D01*
X228822772Y-105466297D01*
X228667900Y-105402147D01*
X228528519Y-105309015D01*
X228409985Y-105190481D01*
X228316853Y-105051100D01*
X228252703Y-104896228D01*
X228220000Y-104731816D01*
X228220000Y-104564184D01*
X228252703Y-104399772D01*
X228316853Y-104244900D01*
X228409985Y-104105519D01*
X228528519Y-103986985D01*
X228667900Y-103893853D01*
X228822772Y-103829703D01*
X228987184Y-103797000D01*
X229154816Y-103797000D01*
X229319228Y-103829703D01*
X229319228Y-103829703D01*
G37*
G36*
X222122000Y-105499000D02*
X220420000Y-105499000D01*
X220420000Y-103797000D01*
X222122000Y-103797000D01*
X222122000Y-105499000D01*
X222122000Y-105499000D01*
G37*
G36*
X205189228Y-103829703D02*
X205344100Y-103893853D01*
X205483481Y-103986985D01*
X205602015Y-104105519D01*
X205695147Y-104244900D01*
X205759297Y-104399772D01*
X205792000Y-104564184D01*
X205792000Y-104731816D01*
X205759297Y-104896228D01*
X205695147Y-105051100D01*
X205602015Y-105190481D01*
X205483481Y-105309015D01*
X205344100Y-105402147D01*
X205189228Y-105466297D01*
X205024816Y-105499000D01*
X204857184Y-105499000D01*
X204692772Y-105466297D01*
X204537900Y-105402147D01*
X204398519Y-105309015D01*
X204279985Y-105190481D01*
X204186853Y-105051100D01*
X204122703Y-104896228D01*
X204090000Y-104731816D01*
X204090000Y-104564184D01*
X204122703Y-104399772D01*
X204186853Y-104244900D01*
X204279985Y-104105519D01*
X204398519Y-103986985D01*
X204537900Y-103893853D01*
X204692772Y-103829703D01*
X204857184Y-103797000D01*
X205024816Y-103797000D01*
X205189228Y-103829703D01*
X205189228Y-103829703D01*
G37*
G36*
X197992000Y-105499000D02*
X196290000Y-105499000D01*
X196290000Y-103797000D01*
X197992000Y-103797000D01*
X197992000Y-105499000D01*
X197992000Y-105499000D01*
G37*
G36*
X98382228Y-103829703D02*
X98537100Y-103893853D01*
X98676481Y-103986985D01*
X98795015Y-104105519D01*
X98888147Y-104244900D01*
X98952297Y-104399772D01*
X98985000Y-104564184D01*
X98985000Y-104731816D01*
X98952297Y-104896228D01*
X98888147Y-105051100D01*
X98795015Y-105190481D01*
X98676481Y-105309015D01*
X98537100Y-105402147D01*
X98382228Y-105466297D01*
X98217816Y-105499000D01*
X98050184Y-105499000D01*
X97885772Y-105466297D01*
X97730900Y-105402147D01*
X97591519Y-105309015D01*
X97472985Y-105190481D01*
X97379853Y-105051100D01*
X97315703Y-104896228D01*
X97283000Y-104731816D01*
X97283000Y-104564184D01*
X97315703Y-104399772D01*
X97379853Y-104244900D01*
X97472985Y-104105519D01*
X97591519Y-103986985D01*
X97730900Y-103893853D01*
X97885772Y-103829703D01*
X98050184Y-103797000D01*
X98217816Y-103797000D01*
X98382228Y-103829703D01*
X98382228Y-103829703D01*
G37*
G36*
X91185000Y-105499000D02*
X89483000Y-105499000D01*
X89483000Y-103797000D01*
X91185000Y-103797000D01*
X91185000Y-105499000D01*
X91185000Y-105499000D01*
G37*
G36*
X248115228Y-103702703D02*
X248270100Y-103766853D01*
X248409481Y-103859985D01*
X248528015Y-103978519D01*
X248621147Y-104117900D01*
X248685297Y-104272772D01*
X248718000Y-104437184D01*
X248718000Y-104604816D01*
X248685297Y-104769228D01*
X248621147Y-104924100D01*
X248528015Y-105063481D01*
X248409481Y-105182015D01*
X248270100Y-105275147D01*
X248115228Y-105339297D01*
X247950816Y-105372000D01*
X247783184Y-105372000D01*
X247618772Y-105339297D01*
X247463900Y-105275147D01*
X247324519Y-105182015D01*
X247205985Y-105063481D01*
X247112853Y-104924100D01*
X247048703Y-104769228D01*
X247016000Y-104604816D01*
X247016000Y-104437184D01*
X247048703Y-104272772D01*
X247112853Y-104117900D01*
X247205985Y-103978519D01*
X247324519Y-103859985D01*
X247463900Y-103766853D01*
X247618772Y-103702703D01*
X247783184Y-103670000D01*
X247950816Y-103670000D01*
X248115228Y-103702703D01*
X248115228Y-103702703D01*
G37*
G36*
X240918000Y-105372000D02*
X239216000Y-105372000D01*
X239216000Y-103670000D01*
X240918000Y-103670000D01*
X240918000Y-105372000D01*
X240918000Y-105372000D01*
G37*
G36*
X160395228Y-103448703D02*
X160550100Y-103512853D01*
X160689481Y-103605985D01*
X160808015Y-103724519D01*
X160901147Y-103863900D01*
X160965297Y-104018772D01*
X160998000Y-104183184D01*
X160998000Y-104350816D01*
X160965297Y-104515228D01*
X160901147Y-104670100D01*
X160808015Y-104809481D01*
X160689481Y-104928015D01*
X160550100Y-105021147D01*
X160395228Y-105085297D01*
X160230816Y-105118000D01*
X160063184Y-105118000D01*
X159898772Y-105085297D01*
X159743900Y-105021147D01*
X159604519Y-104928015D01*
X159485985Y-104809481D01*
X159392853Y-104670100D01*
X159328703Y-104515228D01*
X159296000Y-104350816D01*
X159296000Y-104183184D01*
X159328703Y-104018772D01*
X159392853Y-103863900D01*
X159485985Y-103724519D01*
X159604519Y-103605985D01*
X159743900Y-103512853D01*
X159898772Y-103448703D01*
X160063184Y-103416000D01*
X160230816Y-103416000D01*
X160395228Y-103448703D01*
X160395228Y-103448703D01*
G37*
G36*
X157855228Y-103448703D02*
X158010100Y-103512853D01*
X158149481Y-103605985D01*
X158268015Y-103724519D01*
X158361147Y-103863900D01*
X158425297Y-104018772D01*
X158458000Y-104183184D01*
X158458000Y-104350816D01*
X158425297Y-104515228D01*
X158361147Y-104670100D01*
X158268015Y-104809481D01*
X158149481Y-104928015D01*
X158010100Y-105021147D01*
X157855228Y-105085297D01*
X157690816Y-105118000D01*
X157523184Y-105118000D01*
X157358772Y-105085297D01*
X157203900Y-105021147D01*
X157064519Y-104928015D01*
X156945985Y-104809481D01*
X156852853Y-104670100D01*
X156788703Y-104515228D01*
X156756000Y-104350816D01*
X156756000Y-104183184D01*
X156788703Y-104018772D01*
X156852853Y-103863900D01*
X156945985Y-103724519D01*
X157064519Y-103605985D01*
X157203900Y-103512853D01*
X157358772Y-103448703D01*
X157523184Y-103416000D01*
X157690816Y-103416000D01*
X157855228Y-103448703D01*
X157855228Y-103448703D01*
G37*
G36*
X155315228Y-103448703D02*
X155470100Y-103512853D01*
X155609481Y-103605985D01*
X155728015Y-103724519D01*
X155821147Y-103863900D01*
X155885297Y-104018772D01*
X155918000Y-104183184D01*
X155918000Y-104350816D01*
X155885297Y-104515228D01*
X155821147Y-104670100D01*
X155728015Y-104809481D01*
X155609481Y-104928015D01*
X155470100Y-105021147D01*
X155315228Y-105085297D01*
X155150816Y-105118000D01*
X154983184Y-105118000D01*
X154818772Y-105085297D01*
X154663900Y-105021147D01*
X154524519Y-104928015D01*
X154405985Y-104809481D01*
X154312853Y-104670100D01*
X154248703Y-104515228D01*
X154216000Y-104350816D01*
X154216000Y-104183184D01*
X154248703Y-104018772D01*
X154312853Y-103863900D01*
X154405985Y-103724519D01*
X154524519Y-103605985D01*
X154663900Y-103512853D01*
X154818772Y-103448703D01*
X154983184Y-103416000D01*
X155150816Y-103416000D01*
X155315228Y-103448703D01*
X155315228Y-103448703D01*
G37*
G36*
X153378000Y-105118000D02*
X151676000Y-105118000D01*
X151676000Y-103416000D01*
X153378000Y-103416000D01*
X153378000Y-105118000D01*
X153378000Y-105118000D01*
G37*
G36*
X72220228Y-103448703D02*
X72375100Y-103512853D01*
X72514481Y-103605985D01*
X72633015Y-103724519D01*
X72726147Y-103863900D01*
X72790297Y-104018772D01*
X72823000Y-104183184D01*
X72823000Y-104350816D01*
X72790297Y-104515228D01*
X72726147Y-104670100D01*
X72633015Y-104809481D01*
X72514481Y-104928015D01*
X72375100Y-105021147D01*
X72220228Y-105085297D01*
X72055816Y-105118000D01*
X71888184Y-105118000D01*
X71723772Y-105085297D01*
X71568900Y-105021147D01*
X71429519Y-104928015D01*
X71310985Y-104809481D01*
X71217853Y-104670100D01*
X71153703Y-104515228D01*
X71121000Y-104350816D01*
X71121000Y-104183184D01*
X71153703Y-104018772D01*
X71217853Y-103863900D01*
X71310985Y-103724519D01*
X71429519Y-103605985D01*
X71568900Y-103512853D01*
X71723772Y-103448703D01*
X71888184Y-103416000D01*
X72055816Y-103416000D01*
X72220228Y-103448703D01*
X72220228Y-103448703D01*
G37*
G36*
X65023000Y-105118000D02*
X63321000Y-105118000D01*
X63321000Y-103416000D01*
X65023000Y-103416000D01*
X65023000Y-105118000D01*
X65023000Y-105118000D01*
G37*
G36*
X173095228Y-103448703D02*
X173250100Y-103512853D01*
X173389481Y-103605985D01*
X173508015Y-103724519D01*
X173601147Y-103863900D01*
X173665297Y-104018772D01*
X173698000Y-104183184D01*
X173698000Y-104350816D01*
X173665297Y-104515228D01*
X173601147Y-104670100D01*
X173508015Y-104809481D01*
X173389481Y-104928015D01*
X173250100Y-105021147D01*
X173095228Y-105085297D01*
X172930816Y-105118000D01*
X172763184Y-105118000D01*
X172598772Y-105085297D01*
X172443900Y-105021147D01*
X172304519Y-104928015D01*
X172185985Y-104809481D01*
X172092853Y-104670100D01*
X172028703Y-104515228D01*
X171996000Y-104350816D01*
X171996000Y-104183184D01*
X172028703Y-104018772D01*
X172092853Y-103863900D01*
X172185985Y-103724519D01*
X172304519Y-103605985D01*
X172443900Y-103512853D01*
X172598772Y-103448703D01*
X172763184Y-103416000D01*
X172930816Y-103416000D01*
X173095228Y-103448703D01*
X173095228Y-103448703D01*
G37*
G36*
X175635228Y-103448703D02*
X175790100Y-103512853D01*
X175929481Y-103605985D01*
X176048015Y-103724519D01*
X176141147Y-103863900D01*
X176205297Y-104018772D01*
X176238000Y-104183184D01*
X176238000Y-104350816D01*
X176205297Y-104515228D01*
X176141147Y-104670100D01*
X176048015Y-104809481D01*
X175929481Y-104928015D01*
X175790100Y-105021147D01*
X175635228Y-105085297D01*
X175470816Y-105118000D01*
X175303184Y-105118000D01*
X175138772Y-105085297D01*
X174983900Y-105021147D01*
X174844519Y-104928015D01*
X174725985Y-104809481D01*
X174632853Y-104670100D01*
X174568703Y-104515228D01*
X174536000Y-104350816D01*
X174536000Y-104183184D01*
X174568703Y-104018772D01*
X174632853Y-103863900D01*
X174725985Y-103724519D01*
X174844519Y-103605985D01*
X174983900Y-103512853D01*
X175138772Y-103448703D01*
X175303184Y-103416000D01*
X175470816Y-103416000D01*
X175635228Y-103448703D01*
X175635228Y-103448703D01*
G37*
G36*
X178175228Y-103448703D02*
X178330100Y-103512853D01*
X178469481Y-103605985D01*
X178588015Y-103724519D01*
X178681147Y-103863900D01*
X178745297Y-104018772D01*
X178778000Y-104183184D01*
X178778000Y-104350816D01*
X178745297Y-104515228D01*
X178681147Y-104670100D01*
X178588015Y-104809481D01*
X178469481Y-104928015D01*
X178330100Y-105021147D01*
X178175228Y-105085297D01*
X178010816Y-105118000D01*
X177843184Y-105118000D01*
X177678772Y-105085297D01*
X177523900Y-105021147D01*
X177384519Y-104928015D01*
X177265985Y-104809481D01*
X177172853Y-104670100D01*
X177108703Y-104515228D01*
X177076000Y-104350816D01*
X177076000Y-104183184D01*
X177108703Y-104018772D01*
X177172853Y-103863900D01*
X177265985Y-103724519D01*
X177384519Y-103605985D01*
X177523900Y-103512853D01*
X177678772Y-103448703D01*
X177843184Y-103416000D01*
X178010816Y-103416000D01*
X178175228Y-103448703D01*
X178175228Y-103448703D01*
G37*
G36*
X180715228Y-103448703D02*
X180870100Y-103512853D01*
X181009481Y-103605985D01*
X181128015Y-103724519D01*
X181221147Y-103863900D01*
X181285297Y-104018772D01*
X181318000Y-104183184D01*
X181318000Y-104350816D01*
X181285297Y-104515228D01*
X181221147Y-104670100D01*
X181128015Y-104809481D01*
X181009481Y-104928015D01*
X180870100Y-105021147D01*
X180715228Y-105085297D01*
X180550816Y-105118000D01*
X180383184Y-105118000D01*
X180218772Y-105085297D01*
X180063900Y-105021147D01*
X179924519Y-104928015D01*
X179805985Y-104809481D01*
X179712853Y-104670100D01*
X179648703Y-104515228D01*
X179616000Y-104350816D01*
X179616000Y-104183184D01*
X179648703Y-104018772D01*
X179712853Y-103863900D01*
X179805985Y-103724519D01*
X179924519Y-103605985D01*
X180063900Y-103512853D01*
X180218772Y-103448703D01*
X180383184Y-103416000D01*
X180550816Y-103416000D01*
X180715228Y-103448703D01*
X180715228Y-103448703D01*
G37*
G36*
X183255228Y-103448703D02*
X183410100Y-103512853D01*
X183549481Y-103605985D01*
X183668015Y-103724519D01*
X183761147Y-103863900D01*
X183825297Y-104018772D01*
X183858000Y-104183184D01*
X183858000Y-104350816D01*
X183825297Y-104515228D01*
X183761147Y-104670100D01*
X183668015Y-104809481D01*
X183549481Y-104928015D01*
X183410100Y-105021147D01*
X183255228Y-105085297D01*
X183090816Y-105118000D01*
X182923184Y-105118000D01*
X182758772Y-105085297D01*
X182603900Y-105021147D01*
X182464519Y-104928015D01*
X182345985Y-104809481D01*
X182252853Y-104670100D01*
X182188703Y-104515228D01*
X182156000Y-104350816D01*
X182156000Y-104183184D01*
X182188703Y-104018772D01*
X182252853Y-103863900D01*
X182345985Y-103724519D01*
X182464519Y-103605985D01*
X182603900Y-103512853D01*
X182758772Y-103448703D01*
X182923184Y-103416000D01*
X183090816Y-103416000D01*
X183255228Y-103448703D01*
X183255228Y-103448703D01*
G37*
G36*
X185795228Y-103448703D02*
X185950100Y-103512853D01*
X186089481Y-103605985D01*
X186208015Y-103724519D01*
X186301147Y-103863900D01*
X186365297Y-104018772D01*
X186398000Y-104183184D01*
X186398000Y-104350816D01*
X186365297Y-104515228D01*
X186301147Y-104670100D01*
X186208015Y-104809481D01*
X186089481Y-104928015D01*
X185950100Y-105021147D01*
X185795228Y-105085297D01*
X185630816Y-105118000D01*
X185463184Y-105118000D01*
X185298772Y-105085297D01*
X185143900Y-105021147D01*
X185004519Y-104928015D01*
X184885985Y-104809481D01*
X184792853Y-104670100D01*
X184728703Y-104515228D01*
X184696000Y-104350816D01*
X184696000Y-104183184D01*
X184728703Y-104018772D01*
X184792853Y-103863900D01*
X184885985Y-103724519D01*
X185004519Y-103605985D01*
X185143900Y-103512853D01*
X185298772Y-103448703D01*
X185463184Y-103416000D01*
X185630816Y-103416000D01*
X185795228Y-103448703D01*
X185795228Y-103448703D01*
G37*
G36*
X162935228Y-103448703D02*
X163090100Y-103512853D01*
X163229481Y-103605985D01*
X163348015Y-103724519D01*
X163441147Y-103863900D01*
X163505297Y-104018772D01*
X163538000Y-104183184D01*
X163538000Y-104350816D01*
X163505297Y-104515228D01*
X163441147Y-104670100D01*
X163348015Y-104809481D01*
X163229481Y-104928015D01*
X163090100Y-105021147D01*
X162935228Y-105085297D01*
X162770816Y-105118000D01*
X162603184Y-105118000D01*
X162438772Y-105085297D01*
X162283900Y-105021147D01*
X162144519Y-104928015D01*
X162025985Y-104809481D01*
X161932853Y-104670100D01*
X161868703Y-104515228D01*
X161836000Y-104350816D01*
X161836000Y-104183184D01*
X161868703Y-104018772D01*
X161932853Y-103863900D01*
X162025985Y-103724519D01*
X162144519Y-103605985D01*
X162283900Y-103512853D01*
X162438772Y-103448703D01*
X162603184Y-103416000D01*
X162770816Y-103416000D01*
X162935228Y-103448703D01*
X162935228Y-103448703D01*
G37*
G36*
X170555228Y-103448703D02*
X170710100Y-103512853D01*
X170849481Y-103605985D01*
X170968015Y-103724519D01*
X171061147Y-103863900D01*
X171125297Y-104018772D01*
X171158000Y-104183184D01*
X171158000Y-104350816D01*
X171125297Y-104515228D01*
X171061147Y-104670100D01*
X170968015Y-104809481D01*
X170849481Y-104928015D01*
X170710100Y-105021147D01*
X170555228Y-105085297D01*
X170390816Y-105118000D01*
X170223184Y-105118000D01*
X170058772Y-105085297D01*
X169903900Y-105021147D01*
X169764519Y-104928015D01*
X169645985Y-104809481D01*
X169552853Y-104670100D01*
X169488703Y-104515228D01*
X169456000Y-104350816D01*
X169456000Y-104183184D01*
X169488703Y-104018772D01*
X169552853Y-103863900D01*
X169645985Y-103724519D01*
X169764519Y-103605985D01*
X169903900Y-103512853D01*
X170058772Y-103448703D01*
X170223184Y-103416000D01*
X170390816Y-103416000D01*
X170555228Y-103448703D01*
X170555228Y-103448703D01*
G37*
G36*
X165475228Y-103448703D02*
X165630100Y-103512853D01*
X165769481Y-103605985D01*
X165888015Y-103724519D01*
X165981147Y-103863900D01*
X166045297Y-104018772D01*
X166078000Y-104183184D01*
X166078000Y-104350816D01*
X166045297Y-104515228D01*
X165981147Y-104670100D01*
X165888015Y-104809481D01*
X165769481Y-104928015D01*
X165630100Y-105021147D01*
X165475228Y-105085297D01*
X165310816Y-105118000D01*
X165143184Y-105118000D01*
X164978772Y-105085297D01*
X164823900Y-105021147D01*
X164684519Y-104928015D01*
X164565985Y-104809481D01*
X164472853Y-104670100D01*
X164408703Y-104515228D01*
X164376000Y-104350816D01*
X164376000Y-104183184D01*
X164408703Y-104018772D01*
X164472853Y-103863900D01*
X164565985Y-103724519D01*
X164684519Y-103605985D01*
X164823900Y-103512853D01*
X164978772Y-103448703D01*
X165143184Y-103416000D01*
X165310816Y-103416000D01*
X165475228Y-103448703D01*
X165475228Y-103448703D01*
G37*
G36*
X168015228Y-103448703D02*
X168170100Y-103512853D01*
X168309481Y-103605985D01*
X168428015Y-103724519D01*
X168521147Y-103863900D01*
X168585297Y-104018772D01*
X168618000Y-104183184D01*
X168618000Y-104350816D01*
X168585297Y-104515228D01*
X168521147Y-104670100D01*
X168428015Y-104809481D01*
X168309481Y-104928015D01*
X168170100Y-105021147D01*
X168015228Y-105085297D01*
X167850816Y-105118000D01*
X167683184Y-105118000D01*
X167518772Y-105085297D01*
X167363900Y-105021147D01*
X167224519Y-104928015D01*
X167105985Y-104809481D01*
X167012853Y-104670100D01*
X166948703Y-104515228D01*
X166916000Y-104350816D01*
X166916000Y-104183184D01*
X166948703Y-104018772D01*
X167012853Y-103863900D01*
X167105985Y-103724519D01*
X167224519Y-103605985D01*
X167363900Y-103512853D01*
X167518772Y-103448703D01*
X167683184Y-103416000D01*
X167850816Y-103416000D01*
X168015228Y-103448703D01*
X168015228Y-103448703D01*
G37*
G36*
X46312228Y-103321703D02*
X46467100Y-103385853D01*
X46606481Y-103478985D01*
X46725015Y-103597519D01*
X46818147Y-103736900D01*
X46882297Y-103891772D01*
X46915000Y-104056184D01*
X46915000Y-104223816D01*
X46882297Y-104388228D01*
X46818147Y-104543100D01*
X46725015Y-104682481D01*
X46606481Y-104801015D01*
X46467100Y-104894147D01*
X46312228Y-104958297D01*
X46147816Y-104991000D01*
X45980184Y-104991000D01*
X45815772Y-104958297D01*
X45660900Y-104894147D01*
X45521519Y-104801015D01*
X45402985Y-104682481D01*
X45309853Y-104543100D01*
X45245703Y-104388228D01*
X45213000Y-104223816D01*
X45213000Y-104056184D01*
X45245703Y-103891772D01*
X45309853Y-103736900D01*
X45402985Y-103597519D01*
X45521519Y-103478985D01*
X45660900Y-103385853D01*
X45815772Y-103321703D01*
X45980184Y-103289000D01*
X46147816Y-103289000D01*
X46312228Y-103321703D01*
X46312228Y-103321703D01*
G37*
G36*
X39115000Y-104991000D02*
X37413000Y-104991000D01*
X37413000Y-103289000D01*
X39115000Y-103289000D01*
X39115000Y-104991000D01*
X39115000Y-104991000D01*
G37*
G36*
X185795228Y-100908703D02*
X185950100Y-100972853D01*
X186089481Y-101065985D01*
X186208015Y-101184519D01*
X186301147Y-101323900D01*
X186365297Y-101478772D01*
X186398000Y-101643184D01*
X186398000Y-101810816D01*
X186365297Y-101975228D01*
X186301147Y-102130100D01*
X186208015Y-102269481D01*
X186089481Y-102388015D01*
X185950100Y-102481147D01*
X185795228Y-102545297D01*
X185630816Y-102578000D01*
X185463184Y-102578000D01*
X185298772Y-102545297D01*
X185143900Y-102481147D01*
X185004519Y-102388015D01*
X184885985Y-102269481D01*
X184792853Y-102130100D01*
X184728703Y-101975228D01*
X184696000Y-101810816D01*
X184696000Y-101643184D01*
X184728703Y-101478772D01*
X184792853Y-101323900D01*
X184885985Y-101184519D01*
X185004519Y-101065985D01*
X185143900Y-100972853D01*
X185298772Y-100908703D01*
X185463184Y-100876000D01*
X185630816Y-100876000D01*
X185795228Y-100908703D01*
X185795228Y-100908703D01*
G37*
G36*
X107695000Y-102578000D02*
X105993000Y-102578000D01*
X105993000Y-100876000D01*
X107695000Y-100876000D01*
X107695000Y-102578000D01*
X107695000Y-102578000D01*
G37*
G36*
X114892228Y-100908703D02*
X115047100Y-100972853D01*
X115186481Y-101065985D01*
X115305015Y-101184519D01*
X115398147Y-101323900D01*
X115462297Y-101478772D01*
X115495000Y-101643184D01*
X115495000Y-101810816D01*
X115462297Y-101975228D01*
X115398147Y-102130100D01*
X115305015Y-102269481D01*
X115186481Y-102388015D01*
X115047100Y-102481147D01*
X114892228Y-102545297D01*
X114727816Y-102578000D01*
X114560184Y-102578000D01*
X114395772Y-102545297D01*
X114240900Y-102481147D01*
X114101519Y-102388015D01*
X113982985Y-102269481D01*
X113889853Y-102130100D01*
X113825703Y-101975228D01*
X113793000Y-101810816D01*
X113793000Y-101643184D01*
X113825703Y-101478772D01*
X113889853Y-101323900D01*
X113982985Y-101184519D01*
X114101519Y-101065985D01*
X114240900Y-100972853D01*
X114395772Y-100908703D01*
X114560184Y-100876000D01*
X114727816Y-100876000D01*
X114892228Y-100908703D01*
X114892228Y-100908703D01*
G37*
G36*
X165448277Y-97784885D02*
X165665572Y-97874891D01*
X165861131Y-98005560D01*
X166027440Y-98171869D01*
X166158109Y-98367428D01*
X166248115Y-98584723D01*
X166294000Y-98815401D01*
X166294000Y-99050599D01*
X166248115Y-99281277D01*
X166158109Y-99498572D01*
X166027440Y-99694131D01*
X165861131Y-99860440D01*
X165665572Y-99991109D01*
X165552366Y-100038000D01*
X165448277Y-100081115D01*
X165217599Y-100127000D01*
X164982401Y-100127000D01*
X164751723Y-100081115D01*
X164647634Y-100038000D01*
X164534428Y-99991109D01*
X164338869Y-99860440D01*
X164172560Y-99694131D01*
X164041891Y-99498572D01*
X163951885Y-99281277D01*
X163906000Y-99050599D01*
X163906000Y-98815401D01*
X163951885Y-98584723D01*
X164041891Y-98367428D01*
X164172560Y-98171869D01*
X164338869Y-98005560D01*
X164534428Y-97874891D01*
X164751723Y-97784885D01*
X164982401Y-97739000D01*
X165217599Y-97739000D01*
X165448277Y-97784885D01*
X165448277Y-97784885D01*
G37*
G36*
X125062277Y-97784885D02*
X125279572Y-97874891D01*
X125475131Y-98005560D01*
X125641440Y-98171869D01*
X125772109Y-98367428D01*
X125862115Y-98584723D01*
X125908000Y-98815401D01*
X125908000Y-99050599D01*
X125862115Y-99281277D01*
X125772109Y-99498572D01*
X125641440Y-99694131D01*
X125475131Y-99860440D01*
X125279572Y-99991109D01*
X125166366Y-100038000D01*
X125062277Y-100081115D01*
X124831599Y-100127000D01*
X124596401Y-100127000D01*
X124365723Y-100081115D01*
X124261634Y-100038000D01*
X124148428Y-99991109D01*
X123952869Y-99860440D01*
X123786560Y-99694131D01*
X123655891Y-99498572D01*
X123565885Y-99281277D01*
X123520000Y-99050599D01*
X123520000Y-98815401D01*
X123565885Y-98584723D01*
X123655891Y-98367428D01*
X123786560Y-98171869D01*
X123952869Y-98005560D01*
X124148428Y-97874891D01*
X124365723Y-97784885D01*
X124596401Y-97739000D01*
X124831599Y-97739000D01*
X125062277Y-97784885D01*
X125062277Y-97784885D01*
G37*
G36*
X185795228Y-98368703D02*
X185950100Y-98432853D01*
X186089481Y-98525985D01*
X186208015Y-98644519D01*
X186301147Y-98783900D01*
X186365297Y-98938772D01*
X186398000Y-99103184D01*
X186398000Y-99270816D01*
X186365297Y-99435228D01*
X186301147Y-99590100D01*
X186208015Y-99729481D01*
X186089481Y-99848015D01*
X185950100Y-99941147D01*
X185795228Y-100005297D01*
X185630816Y-100038000D01*
X185463184Y-100038000D01*
X185298772Y-100005297D01*
X185143900Y-99941147D01*
X185004519Y-99848015D01*
X184885985Y-99729481D01*
X184792853Y-99590100D01*
X184728703Y-99435228D01*
X184696000Y-99270816D01*
X184696000Y-99103184D01*
X184728703Y-98938772D01*
X184792853Y-98783900D01*
X184885985Y-98644519D01*
X185004519Y-98525985D01*
X185143900Y-98432853D01*
X185298772Y-98368703D01*
X185463184Y-98336000D01*
X185630816Y-98336000D01*
X185795228Y-98368703D01*
X185795228Y-98368703D01*
G37*
G36*
X111119228Y-97315703D02*
X111274100Y-97379853D01*
X111413481Y-97472985D01*
X111532015Y-97591519D01*
X111625147Y-97730900D01*
X111689297Y-97885772D01*
X111722000Y-98050184D01*
X111722000Y-98217816D01*
X111689297Y-98382228D01*
X111625147Y-98537100D01*
X111532015Y-98676481D01*
X111413481Y-98795015D01*
X111274100Y-98888147D01*
X111119228Y-98952297D01*
X110954816Y-98985000D01*
X110787184Y-98985000D01*
X110622772Y-98952297D01*
X110467900Y-98888147D01*
X110328519Y-98795015D01*
X110209985Y-98676481D01*
X110116853Y-98537100D01*
X110052703Y-98382228D01*
X110020000Y-98217816D01*
X110020000Y-98050184D01*
X110052703Y-97885772D01*
X110116853Y-97730900D01*
X110209985Y-97591519D01*
X110328519Y-97472985D01*
X110467900Y-97379853D01*
X110622772Y-97315703D01*
X110787184Y-97283000D01*
X110954816Y-97283000D01*
X111119228Y-97315703D01*
X111119228Y-97315703D01*
G37*
G36*
X185795228Y-95828703D02*
X185950100Y-95892853D01*
X186089481Y-95985985D01*
X186208015Y-96104519D01*
X186301147Y-96243900D01*
X186365297Y-96398772D01*
X186398000Y-96563184D01*
X186398000Y-96730816D01*
X186365297Y-96895228D01*
X186301147Y-97050100D01*
X186208015Y-97189481D01*
X186089481Y-97308015D01*
X185950100Y-97401147D01*
X185795228Y-97465297D01*
X185630816Y-97498000D01*
X185463184Y-97498000D01*
X185298772Y-97465297D01*
X185143900Y-97401147D01*
X185004519Y-97308015D01*
X184885985Y-97189481D01*
X184792853Y-97050100D01*
X184728703Y-96895228D01*
X184696000Y-96730816D01*
X184696000Y-96563184D01*
X184728703Y-96398772D01*
X184792853Y-96243900D01*
X184885985Y-96104519D01*
X185004519Y-95985985D01*
X185143900Y-95892853D01*
X185298772Y-95828703D01*
X185463184Y-95796000D01*
X185630816Y-95796000D01*
X185795228Y-95828703D01*
X185795228Y-95828703D01*
G37*
G36*
X185795228Y-93288703D02*
X185950100Y-93352853D01*
X186089481Y-93445985D01*
X186208015Y-93564519D01*
X186301147Y-93703900D01*
X186365297Y-93858772D01*
X186398000Y-94023184D01*
X186398000Y-94190816D01*
X186365297Y-94355228D01*
X186301147Y-94510100D01*
X186208015Y-94649481D01*
X186089481Y-94768015D01*
X185950100Y-94861147D01*
X185795228Y-94925297D01*
X185630816Y-94958000D01*
X185463184Y-94958000D01*
X185298772Y-94925297D01*
X185143900Y-94861147D01*
X185004519Y-94768015D01*
X184885985Y-94649481D01*
X184792853Y-94510100D01*
X184728703Y-94355228D01*
X184696000Y-94190816D01*
X184696000Y-94023184D01*
X184728703Y-93858772D01*
X184792853Y-93703900D01*
X184885985Y-93564519D01*
X185004519Y-93445985D01*
X185143900Y-93352853D01*
X185298772Y-93288703D01*
X185463184Y-93256000D01*
X185630816Y-93256000D01*
X185795228Y-93288703D01*
X185795228Y-93288703D01*
G37*
G36*
X221201277Y-91434885D02*
X221418572Y-91524891D01*
X221614131Y-91655560D01*
X221780440Y-91821869D01*
X221911109Y-92017428D01*
X222001115Y-92234723D01*
X222047000Y-92465401D01*
X222047000Y-92700599D01*
X222001115Y-92931277D01*
X221911109Y-93148572D01*
X221780440Y-93344131D01*
X221614131Y-93510440D01*
X221418572Y-93641109D01*
X221266980Y-93703900D01*
X221201277Y-93731115D01*
X220970599Y-93777000D01*
X220735401Y-93777000D01*
X220504723Y-93731115D01*
X220439020Y-93703900D01*
X220287428Y-93641109D01*
X220091869Y-93510440D01*
X219925560Y-93344131D01*
X219794891Y-93148572D01*
X219704885Y-92931277D01*
X219659000Y-92700599D01*
X219659000Y-92465401D01*
X219704885Y-92234723D01*
X219794891Y-92017428D01*
X219925560Y-91821869D01*
X220091869Y-91655560D01*
X220287428Y-91524891D01*
X220504723Y-91434885D01*
X220735401Y-91389000D01*
X220970599Y-91389000D01*
X221201277Y-91434885D01*
X221201277Y-91434885D01*
G37*
G36*
X259174277Y-91434885D02*
X259391572Y-91524891D01*
X259587131Y-91655560D01*
X259753440Y-91821869D01*
X259884109Y-92017428D01*
X259974115Y-92234723D01*
X260020000Y-92465401D01*
X260020000Y-92700599D01*
X259974115Y-92931277D01*
X259884109Y-93148572D01*
X259753440Y-93344131D01*
X259587131Y-93510440D01*
X259391572Y-93641109D01*
X259174277Y-93731115D01*
X258943599Y-93777000D01*
X258708401Y-93777000D01*
X258477723Y-93731115D01*
X258260428Y-93641109D01*
X258064869Y-93510440D01*
X257898560Y-93344131D01*
X257767891Y-93148572D01*
X257677885Y-92931277D01*
X257632000Y-92700599D01*
X257632000Y-92465401D01*
X257677885Y-92234723D01*
X257767891Y-92017428D01*
X257898560Y-91821869D01*
X258064869Y-91655560D01*
X258260428Y-91524891D01*
X258477723Y-91434885D01*
X258708401Y-91389000D01*
X258943599Y-91389000D01*
X259174277Y-91434885D01*
X259174277Y-91434885D01*
G37*
G36*
X240251277Y-91434885D02*
X240468572Y-91524891D01*
X240664131Y-91655560D01*
X240830440Y-91821869D01*
X240961109Y-92017428D01*
X241051115Y-92234723D01*
X241097000Y-92465401D01*
X241097000Y-92700599D01*
X241051115Y-92931277D01*
X240961109Y-93148572D01*
X240830440Y-93344131D01*
X240664131Y-93510440D01*
X240468572Y-93641109D01*
X240251277Y-93731115D01*
X240020599Y-93777000D01*
X239785401Y-93777000D01*
X239554723Y-93731115D01*
X239337428Y-93641109D01*
X239141869Y-93510440D01*
X238975560Y-93344131D01*
X238844891Y-93148572D01*
X238754885Y-92931277D01*
X238709000Y-92700599D01*
X238709000Y-92465401D01*
X238754885Y-92234723D01*
X238844891Y-92017428D01*
X238975560Y-91821869D01*
X239141869Y-91655560D01*
X239337428Y-91524891D01*
X239554723Y-91434885D01*
X239785401Y-91389000D01*
X240020599Y-91389000D01*
X240251277Y-91434885D01*
X240251277Y-91434885D01*
G37*
G36*
X197452277Y-91434885D02*
X197669572Y-91524891D01*
X197865131Y-91655560D01*
X198031440Y-91821869D01*
X198162109Y-92017428D01*
X198252115Y-92234723D01*
X198298000Y-92465401D01*
X198298000Y-92700599D01*
X198252115Y-92931277D01*
X198162109Y-93148572D01*
X198031440Y-93344131D01*
X197865131Y-93510440D01*
X197669572Y-93641109D01*
X197452277Y-93731115D01*
X197221599Y-93777000D01*
X196986401Y-93777000D01*
X196755723Y-93731115D01*
X196538428Y-93641109D01*
X196342869Y-93510440D01*
X196176560Y-93344131D01*
X196045891Y-93148572D01*
X195955885Y-92931277D01*
X195910000Y-92700599D01*
X195910000Y-92465401D01*
X195955885Y-92234723D01*
X196045891Y-92017428D01*
X196176560Y-91821869D01*
X196342869Y-91655560D01*
X196538428Y-91524891D01*
X196755723Y-91434885D01*
X196986401Y-91389000D01*
X197221599Y-91389000D01*
X197452277Y-91434885D01*
X197452277Y-91434885D01*
G37*
G36*
X162908277Y-91434885D02*
X163125572Y-91524891D01*
X163321131Y-91655560D01*
X163487440Y-91821869D01*
X163618109Y-92017428D01*
X163708115Y-92234723D01*
X163754000Y-92465401D01*
X163754000Y-92700599D01*
X163708115Y-92931277D01*
X163618109Y-93148572D01*
X163487440Y-93344131D01*
X163321131Y-93510440D01*
X163125572Y-93641109D01*
X162908277Y-93731115D01*
X162677599Y-93777000D01*
X162442401Y-93777000D01*
X162211723Y-93731115D01*
X161994428Y-93641109D01*
X161798869Y-93510440D01*
X161632560Y-93344131D01*
X161501891Y-93148572D01*
X161411885Y-92931277D01*
X161366000Y-92700599D01*
X161366000Y-92465401D01*
X161411885Y-92234723D01*
X161501891Y-92017428D01*
X161632560Y-91821869D01*
X161798869Y-91655560D01*
X161994428Y-91524891D01*
X162211723Y-91434885D01*
X162442401Y-91389000D01*
X162677599Y-91389000D01*
X162908277Y-91434885D01*
X162908277Y-91434885D01*
G37*
G36*
X122522277Y-91434885D02*
X122739572Y-91524891D01*
X122935131Y-91655560D01*
X123101440Y-91821869D01*
X123232109Y-92017428D01*
X123322115Y-92234723D01*
X123368000Y-92465401D01*
X123368000Y-92700599D01*
X123322115Y-92931277D01*
X123232109Y-93148572D01*
X123101440Y-93344131D01*
X122935131Y-93510440D01*
X122739572Y-93641109D01*
X122522277Y-93731115D01*
X122291599Y-93777000D01*
X122056401Y-93777000D01*
X121825723Y-93731115D01*
X121608428Y-93641109D01*
X121412869Y-93510440D01*
X121246560Y-93344131D01*
X121115891Y-93148572D01*
X121025885Y-92931277D01*
X120980000Y-92700599D01*
X120980000Y-92465401D01*
X121025885Y-92234723D01*
X121115891Y-92017428D01*
X121246560Y-91821869D01*
X121412869Y-91655560D01*
X121608428Y-91524891D01*
X121825723Y-91434885D01*
X122056401Y-91389000D01*
X122291599Y-91389000D01*
X122522277Y-91434885D01*
X122522277Y-91434885D01*
G37*
G36*
X90518277Y-91434885D02*
X90735572Y-91524891D01*
X90931131Y-91655560D01*
X91097440Y-91821869D01*
X91228109Y-92017428D01*
X91318115Y-92234723D01*
X91364000Y-92465401D01*
X91364000Y-92700599D01*
X91318115Y-92931277D01*
X91228109Y-93148572D01*
X91097440Y-93344131D01*
X90931131Y-93510440D01*
X90735572Y-93641109D01*
X90518277Y-93731115D01*
X90287599Y-93777000D01*
X90052401Y-93777000D01*
X89821723Y-93731115D01*
X89604428Y-93641109D01*
X89408869Y-93510440D01*
X89242560Y-93344131D01*
X89111891Y-93148572D01*
X89021885Y-92931277D01*
X88976000Y-92700599D01*
X88976000Y-92465401D01*
X89021885Y-92234723D01*
X89111891Y-92017428D01*
X89242560Y-91821869D01*
X89408869Y-91655560D01*
X89604428Y-91524891D01*
X89821723Y-91434885D01*
X90052401Y-91389000D01*
X90287599Y-91389000D01*
X90518277Y-91434885D01*
X90518277Y-91434885D01*
G37*
G36*
X64483277Y-91434885D02*
X64700572Y-91524891D01*
X64896131Y-91655560D01*
X65062440Y-91821869D01*
X65193109Y-92017428D01*
X65283115Y-92234723D01*
X65329000Y-92465401D01*
X65329000Y-92700599D01*
X65283115Y-92931277D01*
X65193109Y-93148572D01*
X65062440Y-93344131D01*
X64896131Y-93510440D01*
X64700572Y-93641109D01*
X64483277Y-93731115D01*
X64252599Y-93777000D01*
X64017401Y-93777000D01*
X63786723Y-93731115D01*
X63569428Y-93641109D01*
X63373869Y-93510440D01*
X63207560Y-93344131D01*
X63076891Y-93148572D01*
X62986885Y-92931277D01*
X62941000Y-92700599D01*
X62941000Y-92465401D01*
X62986885Y-92234723D01*
X63076891Y-92017428D01*
X63207560Y-91821869D01*
X63373869Y-91655560D01*
X63569428Y-91524891D01*
X63786723Y-91434885D01*
X64017401Y-91389000D01*
X64252599Y-91389000D01*
X64483277Y-91434885D01*
X64483277Y-91434885D01*
G37*
G36*
X38321277Y-91307885D02*
X38538572Y-91397891D01*
X38734131Y-91528560D01*
X38900440Y-91694869D01*
X39031109Y-91890428D01*
X39121115Y-92107723D01*
X39167000Y-92338401D01*
X39167000Y-92573599D01*
X39121115Y-92804277D01*
X39031109Y-93021572D01*
X38900440Y-93217131D01*
X38734131Y-93383440D01*
X38538572Y-93514109D01*
X38321277Y-93604115D01*
X38090599Y-93650000D01*
X37855401Y-93650000D01*
X37624723Y-93604115D01*
X37407428Y-93514109D01*
X37211869Y-93383440D01*
X37045560Y-93217131D01*
X36914891Y-93021572D01*
X36824885Y-92804277D01*
X36779000Y-92573599D01*
X36779000Y-92338401D01*
X36824885Y-92107723D01*
X36914891Y-91890428D01*
X37045560Y-91694869D01*
X37211869Y-91528560D01*
X37407428Y-91397891D01*
X37624723Y-91307885D01*
X37855401Y-91262000D01*
X38090599Y-91262000D01*
X38321277Y-91307885D01*
X38321277Y-91307885D01*
G37*
G36*
X185795228Y-90748703D02*
X185950100Y-90812853D01*
X186089481Y-90905985D01*
X186208015Y-91024519D01*
X186301147Y-91163900D01*
X186365297Y-91318772D01*
X186398000Y-91483184D01*
X186398000Y-91650816D01*
X186365297Y-91815228D01*
X186301147Y-91970100D01*
X186208015Y-92109481D01*
X186089481Y-92228015D01*
X185950100Y-92321147D01*
X185795228Y-92385297D01*
X185630816Y-92418000D01*
X185463184Y-92418000D01*
X185298772Y-92385297D01*
X185143900Y-92321147D01*
X185004519Y-92228015D01*
X184885985Y-92109481D01*
X184792853Y-91970100D01*
X184728703Y-91815228D01*
X184696000Y-91650816D01*
X184696000Y-91483184D01*
X184728703Y-91318772D01*
X184792853Y-91163900D01*
X184885985Y-91024519D01*
X185004519Y-90905985D01*
X185143900Y-90812853D01*
X185298772Y-90748703D01*
X185463184Y-90716000D01*
X185630816Y-90716000D01*
X185795228Y-90748703D01*
X185795228Y-90748703D01*
G37*
G36*
X246601277Y-88894885D02*
X246818572Y-88984891D01*
X247014131Y-89115560D01*
X247180440Y-89281869D01*
X247311109Y-89477428D01*
X247401115Y-89694723D01*
X247447000Y-89925401D01*
X247447000Y-90160599D01*
X247401115Y-90391277D01*
X247311109Y-90608572D01*
X247180440Y-90804131D01*
X247014131Y-90970440D01*
X246818572Y-91101109D01*
X246666980Y-91163900D01*
X246601277Y-91191115D01*
X246370599Y-91237000D01*
X246135401Y-91237000D01*
X245904723Y-91191115D01*
X245839020Y-91163900D01*
X245687428Y-91101109D01*
X245491869Y-90970440D01*
X245325560Y-90804131D01*
X245194891Y-90608572D01*
X245104885Y-90391277D01*
X245059000Y-90160599D01*
X245059000Y-89925401D01*
X245104885Y-89694723D01*
X245194891Y-89477428D01*
X245325560Y-89281869D01*
X245491869Y-89115560D01*
X245687428Y-88984891D01*
X245904723Y-88894885D01*
X246135401Y-88849000D01*
X246370599Y-88849000D01*
X246601277Y-88894885D01*
X246601277Y-88894885D01*
G37*
G36*
X265524277Y-88894885D02*
X265741572Y-88984891D01*
X265937131Y-89115560D01*
X266103440Y-89281869D01*
X266234109Y-89477428D01*
X266324115Y-89694723D01*
X266370000Y-89925401D01*
X266370000Y-90160599D01*
X266324115Y-90391277D01*
X266234109Y-90608572D01*
X266103440Y-90804131D01*
X265937131Y-90970440D01*
X265741572Y-91101109D01*
X265524277Y-91191115D01*
X265293599Y-91237000D01*
X265058401Y-91237000D01*
X264827723Y-91191115D01*
X264610428Y-91101109D01*
X264414869Y-90970440D01*
X264248560Y-90804131D01*
X264117891Y-90608572D01*
X264027885Y-90391277D01*
X263982000Y-90160599D01*
X263982000Y-89925401D01*
X264027885Y-89694723D01*
X264117891Y-89477428D01*
X264248560Y-89281869D01*
X264414869Y-89115560D01*
X264610428Y-88984891D01*
X264827723Y-88894885D01*
X265058401Y-88849000D01*
X265293599Y-88849000D01*
X265524277Y-88894885D01*
X265524277Y-88894885D01*
G37*
G36*
X70833277Y-88894885D02*
X71050572Y-88984891D01*
X71246131Y-89115560D01*
X71412440Y-89281869D01*
X71543109Y-89477428D01*
X71633115Y-89694723D01*
X71679000Y-89925401D01*
X71679000Y-90160599D01*
X71633115Y-90391277D01*
X71543109Y-90608572D01*
X71412440Y-90804131D01*
X71246131Y-90970440D01*
X71050572Y-91101109D01*
X70898980Y-91163900D01*
X70833277Y-91191115D01*
X70602599Y-91237000D01*
X70367401Y-91237000D01*
X70136723Y-91191115D01*
X70071020Y-91163900D01*
X69919428Y-91101109D01*
X69723869Y-90970440D01*
X69557560Y-90804131D01*
X69426891Y-90608572D01*
X69336885Y-90391277D01*
X69291000Y-90160599D01*
X69291000Y-89925401D01*
X69336885Y-89694723D01*
X69426891Y-89477428D01*
X69557560Y-89281869D01*
X69723869Y-89115560D01*
X69919428Y-88984891D01*
X70136723Y-88894885D01*
X70367401Y-88849000D01*
X70602599Y-88849000D01*
X70833277Y-88894885D01*
X70833277Y-88894885D01*
G37*
G36*
X96868277Y-88894885D02*
X97085572Y-88984891D01*
X97281131Y-89115560D01*
X97447440Y-89281869D01*
X97578109Y-89477428D01*
X97668115Y-89694723D01*
X97714000Y-89925401D01*
X97714000Y-90160599D01*
X97668115Y-90391277D01*
X97578109Y-90608572D01*
X97447440Y-90804131D01*
X97281131Y-90970440D01*
X97085572Y-91101109D01*
X96933980Y-91163900D01*
X96868277Y-91191115D01*
X96637599Y-91237000D01*
X96402401Y-91237000D01*
X96171723Y-91191115D01*
X96106020Y-91163900D01*
X95954428Y-91101109D01*
X95758869Y-90970440D01*
X95592560Y-90804131D01*
X95461891Y-90608572D01*
X95371885Y-90391277D01*
X95326000Y-90160599D01*
X95326000Y-89925401D01*
X95371885Y-89694723D01*
X95461891Y-89477428D01*
X95592560Y-89281869D01*
X95758869Y-89115560D01*
X95954428Y-88984891D01*
X96171723Y-88894885D01*
X96402401Y-88849000D01*
X96637599Y-88849000D01*
X96868277Y-88894885D01*
X96868277Y-88894885D01*
G37*
G36*
X227551277Y-88894885D02*
X227768572Y-88984891D01*
X227964131Y-89115560D01*
X228130440Y-89281869D01*
X228261109Y-89477428D01*
X228351115Y-89694723D01*
X228397000Y-89925401D01*
X228397000Y-90160599D01*
X228351115Y-90391277D01*
X228261109Y-90608572D01*
X228130440Y-90804131D01*
X227964131Y-90970440D01*
X227768572Y-91101109D01*
X227551277Y-91191115D01*
X227320599Y-91237000D01*
X227085401Y-91237000D01*
X226854723Y-91191115D01*
X226637428Y-91101109D01*
X226441869Y-90970440D01*
X226275560Y-90804131D01*
X226144891Y-90608572D01*
X226054885Y-90391277D01*
X226009000Y-90160599D01*
X226009000Y-89925401D01*
X226054885Y-89694723D01*
X226144891Y-89477428D01*
X226275560Y-89281869D01*
X226441869Y-89115560D01*
X226637428Y-88984891D01*
X226854723Y-88894885D01*
X227085401Y-88849000D01*
X227320599Y-88849000D01*
X227551277Y-88894885D01*
X227551277Y-88894885D01*
G37*
G36*
X203802277Y-88894885D02*
X204019572Y-88984891D01*
X204215131Y-89115560D01*
X204381440Y-89281869D01*
X204512109Y-89477428D01*
X204602115Y-89694723D01*
X204648000Y-89925401D01*
X204648000Y-90160599D01*
X204602115Y-90391277D01*
X204512109Y-90608572D01*
X204381440Y-90804131D01*
X204215131Y-90970440D01*
X204019572Y-91101109D01*
X203802277Y-91191115D01*
X203571599Y-91237000D01*
X203336401Y-91237000D01*
X203105723Y-91191115D01*
X202888428Y-91101109D01*
X202692869Y-90970440D01*
X202526560Y-90804131D01*
X202395891Y-90608572D01*
X202305885Y-90391277D01*
X202260000Y-90160599D01*
X202260000Y-89925401D01*
X202305885Y-89694723D01*
X202395891Y-89477428D01*
X202526560Y-89281869D01*
X202692869Y-89115560D01*
X202888428Y-88984891D01*
X203105723Y-88894885D01*
X203336401Y-88849000D01*
X203571599Y-88849000D01*
X203802277Y-88894885D01*
X203802277Y-88894885D01*
G37*
G36*
X111722000Y-91185000D02*
X110020000Y-91185000D01*
X110020000Y-89483000D01*
X111722000Y-89483000D01*
X111722000Y-91185000D01*
X111722000Y-91185000D01*
G37*
G36*
X44671277Y-88767885D02*
X44888572Y-88857891D01*
X45084131Y-88988560D01*
X45250440Y-89154869D01*
X45381109Y-89350428D01*
X45471115Y-89567723D01*
X45517000Y-89798401D01*
X45517000Y-90033599D01*
X45471115Y-90264277D01*
X45381109Y-90481572D01*
X45250440Y-90677131D01*
X45084131Y-90843440D01*
X44888572Y-90974109D01*
X44671277Y-91064115D01*
X44440599Y-91110000D01*
X44205401Y-91110000D01*
X43974723Y-91064115D01*
X43757428Y-90974109D01*
X43561869Y-90843440D01*
X43395560Y-90677131D01*
X43264891Y-90481572D01*
X43174885Y-90264277D01*
X43129000Y-90033599D01*
X43129000Y-89798401D01*
X43174885Y-89567723D01*
X43264891Y-89350428D01*
X43395560Y-89154869D01*
X43561869Y-88988560D01*
X43757428Y-88857891D01*
X43974723Y-88767885D01*
X44205401Y-88722000D01*
X44440599Y-88722000D01*
X44671277Y-88767885D01*
X44671277Y-88767885D01*
G37*
G36*
X183255228Y-88208703D02*
X183410100Y-88272853D01*
X183549481Y-88365985D01*
X183668015Y-88484519D01*
X183761147Y-88623900D01*
X183825297Y-88778772D01*
X183858000Y-88943184D01*
X183858000Y-89110816D01*
X183825297Y-89275228D01*
X183761147Y-89430100D01*
X183668015Y-89569481D01*
X183549481Y-89688015D01*
X183410100Y-89781147D01*
X183255228Y-89845297D01*
X183090816Y-89878000D01*
X182923184Y-89878000D01*
X182758772Y-89845297D01*
X182603900Y-89781147D01*
X182464519Y-89688015D01*
X182345985Y-89569481D01*
X182252853Y-89430100D01*
X182188703Y-89275228D01*
X182156000Y-89110816D01*
X182156000Y-88943184D01*
X182188703Y-88778772D01*
X182252853Y-88623900D01*
X182345985Y-88484519D01*
X182464519Y-88365985D01*
X182603900Y-88272853D01*
X182758772Y-88208703D01*
X182923184Y-88176000D01*
X183090816Y-88176000D01*
X183255228Y-88208703D01*
X183255228Y-88208703D01*
G37*
G36*
X185795228Y-88208703D02*
X185950100Y-88272853D01*
X186089481Y-88365985D01*
X186208015Y-88484519D01*
X186301147Y-88623900D01*
X186365297Y-88778772D01*
X186398000Y-88943184D01*
X186398000Y-89110816D01*
X186365297Y-89275228D01*
X186301147Y-89430100D01*
X186208015Y-89569481D01*
X186089481Y-89688015D01*
X185950100Y-89781147D01*
X185795228Y-89845297D01*
X185630816Y-89878000D01*
X185463184Y-89878000D01*
X185298772Y-89845297D01*
X185143900Y-89781147D01*
X185004519Y-89688015D01*
X184885985Y-89569481D01*
X184792853Y-89430100D01*
X184728703Y-89275228D01*
X184696000Y-89110816D01*
X184696000Y-88943184D01*
X184728703Y-88778772D01*
X184792853Y-88623900D01*
X184885985Y-88484519D01*
X185004519Y-88365985D01*
X185143900Y-88272853D01*
X185298772Y-88208703D01*
X185463184Y-88176000D01*
X185630816Y-88176000D01*
X185795228Y-88208703D01*
X185795228Y-88208703D01*
G37*
G36*
X178175228Y-88208703D02*
X178330100Y-88272853D01*
X178469481Y-88365985D01*
X178588015Y-88484519D01*
X178681147Y-88623900D01*
X178745297Y-88778772D01*
X178778000Y-88943184D01*
X178778000Y-89110816D01*
X178745297Y-89275228D01*
X178681147Y-89430100D01*
X178588015Y-89569481D01*
X178469481Y-89688015D01*
X178330100Y-89781147D01*
X178175228Y-89845297D01*
X178010816Y-89878000D01*
X177843184Y-89878000D01*
X177678772Y-89845297D01*
X177523900Y-89781147D01*
X177384519Y-89688015D01*
X177265985Y-89569481D01*
X177172853Y-89430100D01*
X177108703Y-89275228D01*
X177076000Y-89110816D01*
X177076000Y-88943184D01*
X177108703Y-88778772D01*
X177172853Y-88623900D01*
X177265985Y-88484519D01*
X177384519Y-88365985D01*
X177523900Y-88272853D01*
X177678772Y-88208703D01*
X177843184Y-88176000D01*
X178010816Y-88176000D01*
X178175228Y-88208703D01*
X178175228Y-88208703D01*
G37*
G36*
X175635228Y-88208703D02*
X175790100Y-88272853D01*
X175929481Y-88365985D01*
X176048015Y-88484519D01*
X176141147Y-88623900D01*
X176205297Y-88778772D01*
X176238000Y-88943184D01*
X176238000Y-89110816D01*
X176205297Y-89275228D01*
X176141147Y-89430100D01*
X176048015Y-89569481D01*
X175929481Y-89688015D01*
X175790100Y-89781147D01*
X175635228Y-89845297D01*
X175470816Y-89878000D01*
X175303184Y-89878000D01*
X175138772Y-89845297D01*
X174983900Y-89781147D01*
X174844519Y-89688015D01*
X174725985Y-89569481D01*
X174632853Y-89430100D01*
X174568703Y-89275228D01*
X174536000Y-89110816D01*
X174536000Y-88943184D01*
X174568703Y-88778772D01*
X174632853Y-88623900D01*
X174725985Y-88484519D01*
X174844519Y-88365985D01*
X174983900Y-88272853D01*
X175138772Y-88208703D01*
X175303184Y-88176000D01*
X175470816Y-88176000D01*
X175635228Y-88208703D01*
X175635228Y-88208703D01*
G37*
G36*
X173095228Y-88208703D02*
X173250100Y-88272853D01*
X173389481Y-88365985D01*
X173508015Y-88484519D01*
X173601147Y-88623900D01*
X173665297Y-88778772D01*
X173698000Y-88943184D01*
X173698000Y-89110816D01*
X173665297Y-89275228D01*
X173601147Y-89430100D01*
X173508015Y-89569481D01*
X173389481Y-89688015D01*
X173250100Y-89781147D01*
X173095228Y-89845297D01*
X172930816Y-89878000D01*
X172763184Y-89878000D01*
X172598772Y-89845297D01*
X172443900Y-89781147D01*
X172304519Y-89688015D01*
X172185985Y-89569481D01*
X172092853Y-89430100D01*
X172028703Y-89275228D01*
X171996000Y-89110816D01*
X171996000Y-88943184D01*
X172028703Y-88778772D01*
X172092853Y-88623900D01*
X172185985Y-88484519D01*
X172304519Y-88365985D01*
X172443900Y-88272853D01*
X172598772Y-88208703D01*
X172763184Y-88176000D01*
X172930816Y-88176000D01*
X173095228Y-88208703D01*
X173095228Y-88208703D01*
G37*
G36*
X170555228Y-88208703D02*
X170710100Y-88272853D01*
X170849481Y-88365985D01*
X170968015Y-88484519D01*
X171061147Y-88623900D01*
X171125297Y-88778772D01*
X171158000Y-88943184D01*
X171158000Y-89110816D01*
X171125297Y-89275228D01*
X171061147Y-89430100D01*
X170968015Y-89569481D01*
X170849481Y-89688015D01*
X170710100Y-89781147D01*
X170555228Y-89845297D01*
X170390816Y-89878000D01*
X170223184Y-89878000D01*
X170058772Y-89845297D01*
X169903900Y-89781147D01*
X169764519Y-89688015D01*
X169645985Y-89569481D01*
X169552853Y-89430100D01*
X169488703Y-89275228D01*
X169456000Y-89110816D01*
X169456000Y-88943184D01*
X169488703Y-88778772D01*
X169552853Y-88623900D01*
X169645985Y-88484519D01*
X169764519Y-88365985D01*
X169903900Y-88272853D01*
X170058772Y-88208703D01*
X170223184Y-88176000D01*
X170390816Y-88176000D01*
X170555228Y-88208703D01*
X170555228Y-88208703D01*
G37*
G36*
X168015228Y-88208703D02*
X168170100Y-88272853D01*
X168309481Y-88365985D01*
X168428015Y-88484519D01*
X168521147Y-88623900D01*
X168585297Y-88778772D01*
X168618000Y-88943184D01*
X168618000Y-89110816D01*
X168585297Y-89275228D01*
X168521147Y-89430100D01*
X168428015Y-89569481D01*
X168309481Y-89688015D01*
X168170100Y-89781147D01*
X168015228Y-89845297D01*
X167850816Y-89878000D01*
X167683184Y-89878000D01*
X167518772Y-89845297D01*
X167363900Y-89781147D01*
X167224519Y-89688015D01*
X167105985Y-89569481D01*
X167012853Y-89430100D01*
X166948703Y-89275228D01*
X166916000Y-89110816D01*
X166916000Y-88943184D01*
X166948703Y-88778772D01*
X167012853Y-88623900D01*
X167105985Y-88484519D01*
X167224519Y-88365985D01*
X167363900Y-88272853D01*
X167518772Y-88208703D01*
X167683184Y-88176000D01*
X167850816Y-88176000D01*
X168015228Y-88208703D01*
X168015228Y-88208703D01*
G37*
G36*
X180715228Y-88208703D02*
X180870100Y-88272853D01*
X181009481Y-88365985D01*
X181128015Y-88484519D01*
X181221147Y-88623900D01*
X181285297Y-88778772D01*
X181318000Y-88943184D01*
X181318000Y-89110816D01*
X181285297Y-89275228D01*
X181221147Y-89430100D01*
X181128015Y-89569481D01*
X181009481Y-89688015D01*
X180870100Y-89781147D01*
X180715228Y-89845297D01*
X180550816Y-89878000D01*
X180383184Y-89878000D01*
X180218772Y-89845297D01*
X180063900Y-89781147D01*
X179924519Y-89688015D01*
X179805985Y-89569481D01*
X179712853Y-89430100D01*
X179648703Y-89275228D01*
X179616000Y-89110816D01*
X179616000Y-88943184D01*
X179648703Y-88778772D01*
X179712853Y-88623900D01*
X179805985Y-88484519D01*
X179924519Y-88365985D01*
X180063900Y-88272853D01*
X180218772Y-88208703D01*
X180383184Y-88176000D01*
X180550816Y-88176000D01*
X180715228Y-88208703D01*
X180715228Y-88208703D01*
G37*
G36*
X165475228Y-88208703D02*
X165630100Y-88272853D01*
X165769481Y-88365985D01*
X165888015Y-88484519D01*
X165981147Y-88623900D01*
X166045297Y-88778772D01*
X166078000Y-88943184D01*
X166078000Y-89110816D01*
X166045297Y-89275228D01*
X165981147Y-89430100D01*
X165888015Y-89569481D01*
X165769481Y-89688015D01*
X165630100Y-89781147D01*
X165475228Y-89845297D01*
X165310816Y-89878000D01*
X165143184Y-89878000D01*
X164978772Y-89845297D01*
X164823900Y-89781147D01*
X164684519Y-89688015D01*
X164565985Y-89569481D01*
X164472853Y-89430100D01*
X164408703Y-89275228D01*
X164376000Y-89110816D01*
X164376000Y-88943184D01*
X164408703Y-88778772D01*
X164472853Y-88623900D01*
X164565985Y-88484519D01*
X164684519Y-88365985D01*
X164823900Y-88272853D01*
X164978772Y-88208703D01*
X165143184Y-88176000D01*
X165310816Y-88176000D01*
X165475228Y-88208703D01*
X165475228Y-88208703D01*
G37*
G36*
X162935228Y-88208703D02*
X163090100Y-88272853D01*
X163229481Y-88365985D01*
X163348015Y-88484519D01*
X163441147Y-88623900D01*
X163505297Y-88778772D01*
X163538000Y-88943184D01*
X163538000Y-89110816D01*
X163505297Y-89275228D01*
X163441147Y-89430100D01*
X163348015Y-89569481D01*
X163229481Y-89688015D01*
X163090100Y-89781147D01*
X162935228Y-89845297D01*
X162770816Y-89878000D01*
X162603184Y-89878000D01*
X162438772Y-89845297D01*
X162283900Y-89781147D01*
X162144519Y-89688015D01*
X162025985Y-89569481D01*
X161932853Y-89430100D01*
X161868703Y-89275228D01*
X161836000Y-89110816D01*
X161836000Y-88943184D01*
X161868703Y-88778772D01*
X161932853Y-88623900D01*
X162025985Y-88484519D01*
X162144519Y-88365985D01*
X162283900Y-88272853D01*
X162438772Y-88208703D01*
X162603184Y-88176000D01*
X162770816Y-88176000D01*
X162935228Y-88208703D01*
X162935228Y-88208703D01*
G37*
G36*
X160395228Y-88208703D02*
X160550100Y-88272853D01*
X160689481Y-88365985D01*
X160808015Y-88484519D01*
X160901147Y-88623900D01*
X160965297Y-88778772D01*
X160998000Y-88943184D01*
X160998000Y-89110816D01*
X160965297Y-89275228D01*
X160901147Y-89430100D01*
X160808015Y-89569481D01*
X160689481Y-89688015D01*
X160550100Y-89781147D01*
X160395228Y-89845297D01*
X160230816Y-89878000D01*
X160063184Y-89878000D01*
X159898772Y-89845297D01*
X159743900Y-89781147D01*
X159604519Y-89688015D01*
X159485985Y-89569481D01*
X159392853Y-89430100D01*
X159328703Y-89275228D01*
X159296000Y-89110816D01*
X159296000Y-88943184D01*
X159328703Y-88778772D01*
X159392853Y-88623900D01*
X159485985Y-88484519D01*
X159604519Y-88365985D01*
X159743900Y-88272853D01*
X159898772Y-88208703D01*
X160063184Y-88176000D01*
X160230816Y-88176000D01*
X160395228Y-88208703D01*
X160395228Y-88208703D01*
G37*
G36*
X157855228Y-88208703D02*
X158010100Y-88272853D01*
X158149481Y-88365985D01*
X158268015Y-88484519D01*
X158361147Y-88623900D01*
X158425297Y-88778772D01*
X158458000Y-88943184D01*
X158458000Y-89110816D01*
X158425297Y-89275228D01*
X158361147Y-89430100D01*
X158268015Y-89569481D01*
X158149481Y-89688015D01*
X158010100Y-89781147D01*
X157855228Y-89845297D01*
X157690816Y-89878000D01*
X157523184Y-89878000D01*
X157358772Y-89845297D01*
X157203900Y-89781147D01*
X157064519Y-89688015D01*
X156945985Y-89569481D01*
X156852853Y-89430100D01*
X156788703Y-89275228D01*
X156756000Y-89110816D01*
X156756000Y-88943184D01*
X156788703Y-88778772D01*
X156852853Y-88623900D01*
X156945985Y-88484519D01*
X157064519Y-88365985D01*
X157203900Y-88272853D01*
X157358772Y-88208703D01*
X157523184Y-88176000D01*
X157690816Y-88176000D01*
X157855228Y-88208703D01*
X157855228Y-88208703D01*
G37*
G36*
X152775228Y-88208703D02*
X152930100Y-88272853D01*
X153069481Y-88365985D01*
X153188015Y-88484519D01*
X153281147Y-88623900D01*
X153345297Y-88778772D01*
X153378000Y-88943184D01*
X153378000Y-89110816D01*
X153345297Y-89275228D01*
X153281147Y-89430100D01*
X153188015Y-89569481D01*
X153069481Y-89688015D01*
X152930100Y-89781147D01*
X152775228Y-89845297D01*
X152610816Y-89878000D01*
X152443184Y-89878000D01*
X152278772Y-89845297D01*
X152123900Y-89781147D01*
X151984519Y-89688015D01*
X151865985Y-89569481D01*
X151772853Y-89430100D01*
X151708703Y-89275228D01*
X151676000Y-89110816D01*
X151676000Y-88943184D01*
X151708703Y-88778772D01*
X151772853Y-88623900D01*
X151865985Y-88484519D01*
X151984519Y-88365985D01*
X152123900Y-88272853D01*
X152278772Y-88208703D01*
X152443184Y-88176000D01*
X152610816Y-88176000D01*
X152775228Y-88208703D01*
X152775228Y-88208703D01*
G37*
G36*
X155315228Y-88208703D02*
X155470100Y-88272853D01*
X155609481Y-88365985D01*
X155728015Y-88484519D01*
X155821147Y-88623900D01*
X155885297Y-88778772D01*
X155918000Y-88943184D01*
X155918000Y-89110816D01*
X155885297Y-89275228D01*
X155821147Y-89430100D01*
X155728015Y-89569481D01*
X155609481Y-89688015D01*
X155470100Y-89781147D01*
X155315228Y-89845297D01*
X155150816Y-89878000D01*
X154983184Y-89878000D01*
X154818772Y-89845297D01*
X154663900Y-89781147D01*
X154524519Y-89688015D01*
X154405985Y-89569481D01*
X154312853Y-89430100D01*
X154248703Y-89275228D01*
X154216000Y-89110816D01*
X154216000Y-88943184D01*
X154248703Y-88778772D01*
X154312853Y-88623900D01*
X154405985Y-88484519D01*
X154524519Y-88365985D01*
X154663900Y-88272853D01*
X154818772Y-88208703D01*
X154983184Y-88176000D01*
X155150816Y-88176000D01*
X155315228Y-88208703D01*
X155315228Y-88208703D01*
G37*
G36*
X77046228Y-84779703D02*
X77201100Y-84843853D01*
X77340481Y-84936985D01*
X77459015Y-85055519D01*
X77552147Y-85194900D01*
X77616297Y-85349772D01*
X77649000Y-85514184D01*
X77649000Y-85681816D01*
X77616297Y-85846228D01*
X77552147Y-86001100D01*
X77459015Y-86140481D01*
X77340481Y-86259015D01*
X77201100Y-86352147D01*
X77046228Y-86416297D01*
X76881816Y-86449000D01*
X76714184Y-86449000D01*
X76549772Y-86416297D01*
X76394900Y-86352147D01*
X76255519Y-86259015D01*
X76136985Y-86140481D01*
X76043853Y-86001100D01*
X75979703Y-85846228D01*
X75947000Y-85681816D01*
X75947000Y-85514184D01*
X75979703Y-85349772D01*
X76043853Y-85194900D01*
X76136985Y-85055519D01*
X76255519Y-84936985D01*
X76394900Y-84843853D01*
X76549772Y-84779703D01*
X76714184Y-84747000D01*
X76881816Y-84747000D01*
X77046228Y-84779703D01*
X77046228Y-84779703D01*
G37*
G36*
X69849000Y-86449000D02*
X68147000Y-86449000D01*
X68147000Y-84747000D01*
X69849000Y-84747000D01*
X69849000Y-86449000D01*
X69849000Y-86449000D01*
G37*
G36*
X267038228Y-84652703D02*
X267193100Y-84716853D01*
X267332481Y-84809985D01*
X267451015Y-84928519D01*
X267544147Y-85067900D01*
X267608297Y-85222772D01*
X267641000Y-85387184D01*
X267641000Y-85554816D01*
X267608297Y-85719228D01*
X267544147Y-85874100D01*
X267451015Y-86013481D01*
X267332481Y-86132015D01*
X267193100Y-86225147D01*
X267038228Y-86289297D01*
X266873816Y-86322000D01*
X266706184Y-86322000D01*
X266541772Y-86289297D01*
X266386900Y-86225147D01*
X266247519Y-86132015D01*
X266128985Y-86013481D01*
X266035853Y-85874100D01*
X265971703Y-85719228D01*
X265939000Y-85554816D01*
X265939000Y-85387184D01*
X265971703Y-85222772D01*
X266035853Y-85067900D01*
X266128985Y-84928519D01*
X266247519Y-84809985D01*
X266386900Y-84716853D01*
X266541772Y-84652703D01*
X266706184Y-84620000D01*
X266873816Y-84620000D01*
X267038228Y-84652703D01*
X267038228Y-84652703D01*
G37*
G36*
X115400228Y-84652703D02*
X115555100Y-84716853D01*
X115694481Y-84809985D01*
X115813015Y-84928519D01*
X115906147Y-85067900D01*
X115970297Y-85222772D01*
X116003000Y-85387184D01*
X116003000Y-85554816D01*
X115970297Y-85719228D01*
X115906147Y-85874100D01*
X115813015Y-86013481D01*
X115694481Y-86132015D01*
X115555100Y-86225147D01*
X115400228Y-86289297D01*
X115235816Y-86322000D01*
X115068184Y-86322000D01*
X114903772Y-86289297D01*
X114748900Y-86225147D01*
X114609519Y-86132015D01*
X114490985Y-86013481D01*
X114397853Y-85874100D01*
X114333703Y-85719228D01*
X114301000Y-85554816D01*
X114301000Y-85387184D01*
X114333703Y-85222772D01*
X114397853Y-85067900D01*
X114490985Y-84928519D01*
X114609519Y-84809985D01*
X114748900Y-84716853D01*
X114903772Y-84652703D01*
X115068184Y-84620000D01*
X115235816Y-84620000D01*
X115400228Y-84652703D01*
X115400228Y-84652703D01*
G37*
G36*
X108203000Y-86322000D02*
X106501000Y-86322000D01*
X106501000Y-84620000D01*
X108203000Y-84620000D01*
X108203000Y-86322000D01*
X108203000Y-86322000D01*
G37*
G36*
X96223228Y-84652703D02*
X96378100Y-84716853D01*
X96517481Y-84809985D01*
X96636015Y-84928519D01*
X96729147Y-85067900D01*
X96793297Y-85222772D01*
X96826000Y-85387184D01*
X96826000Y-85554816D01*
X96793297Y-85719228D01*
X96729147Y-85874100D01*
X96636015Y-86013481D01*
X96517481Y-86132015D01*
X96378100Y-86225147D01*
X96223228Y-86289297D01*
X96058816Y-86322000D01*
X95891184Y-86322000D01*
X95726772Y-86289297D01*
X95571900Y-86225147D01*
X95432519Y-86132015D01*
X95313985Y-86013481D01*
X95220853Y-85874100D01*
X95156703Y-85719228D01*
X95124000Y-85554816D01*
X95124000Y-85387184D01*
X95156703Y-85222772D01*
X95220853Y-85067900D01*
X95313985Y-84928519D01*
X95432519Y-84809985D01*
X95571900Y-84716853D01*
X95726772Y-84652703D01*
X95891184Y-84620000D01*
X96058816Y-84620000D01*
X96223228Y-84652703D01*
X96223228Y-84652703D01*
G37*
G36*
X89026000Y-86322000D02*
X87324000Y-86322000D01*
X87324000Y-84620000D01*
X89026000Y-84620000D01*
X89026000Y-86322000D01*
X89026000Y-86322000D01*
G37*
G36*
X259841000Y-86322000D02*
X258139000Y-86322000D01*
X258139000Y-84620000D01*
X259841000Y-84620000D01*
X259841000Y-86322000D01*
X259841000Y-86322000D01*
G37*
G36*
X248496228Y-84652703D02*
X248651100Y-84716853D01*
X248790481Y-84809985D01*
X248909015Y-84928519D01*
X249002147Y-85067900D01*
X249066297Y-85222772D01*
X249099000Y-85387184D01*
X249099000Y-85554816D01*
X249066297Y-85719228D01*
X249002147Y-85874100D01*
X248909015Y-86013481D01*
X248790481Y-86132015D01*
X248651100Y-86225147D01*
X248496228Y-86289297D01*
X248331816Y-86322000D01*
X248164184Y-86322000D01*
X247999772Y-86289297D01*
X247844900Y-86225147D01*
X247705519Y-86132015D01*
X247586985Y-86013481D01*
X247493853Y-85874100D01*
X247429703Y-85719228D01*
X247397000Y-85554816D01*
X247397000Y-85387184D01*
X247429703Y-85222772D01*
X247493853Y-85067900D01*
X247586985Y-84928519D01*
X247705519Y-84809985D01*
X247844900Y-84716853D01*
X247999772Y-84652703D01*
X248164184Y-84620000D01*
X248331816Y-84620000D01*
X248496228Y-84652703D01*
X248496228Y-84652703D01*
G37*
G36*
X43433000Y-86322000D02*
X41731000Y-86322000D01*
X41731000Y-84620000D01*
X43433000Y-84620000D01*
X43433000Y-86322000D01*
X43433000Y-86322000D01*
G37*
G36*
X50630228Y-84652703D02*
X50785100Y-84716853D01*
X50924481Y-84809985D01*
X51043015Y-84928519D01*
X51136147Y-85067900D01*
X51200297Y-85222772D01*
X51233000Y-85387184D01*
X51233000Y-85554816D01*
X51200297Y-85719228D01*
X51136147Y-85874100D01*
X51043015Y-86013481D01*
X50924481Y-86132015D01*
X50785100Y-86225147D01*
X50630228Y-86289297D01*
X50465816Y-86322000D01*
X50298184Y-86322000D01*
X50133772Y-86289297D01*
X49978900Y-86225147D01*
X49839519Y-86132015D01*
X49720985Y-86013481D01*
X49627853Y-85874100D01*
X49563703Y-85719228D01*
X49531000Y-85554816D01*
X49531000Y-85387184D01*
X49563703Y-85222772D01*
X49627853Y-85067900D01*
X49720985Y-84928519D01*
X49839519Y-84809985D01*
X49978900Y-84716853D01*
X50133772Y-84652703D01*
X50298184Y-84620000D01*
X50465816Y-84620000D01*
X50630228Y-84652703D01*
X50630228Y-84652703D01*
G37*
G36*
X241299000Y-86322000D02*
X239597000Y-86322000D01*
X239597000Y-84620000D01*
X241299000Y-84620000D01*
X241299000Y-86322000D01*
X241299000Y-86322000D01*
G37*
G36*
X145795000Y-86195000D02*
X144093000Y-86195000D01*
X144093000Y-84493000D01*
X145795000Y-84493000D01*
X145795000Y-86195000D01*
X145795000Y-86195000D01*
G37*
G36*
X152992228Y-84525703D02*
X153147100Y-84589853D01*
X153286481Y-84682985D01*
X153405015Y-84801519D01*
X153498147Y-84940900D01*
X153562297Y-85095772D01*
X153595000Y-85260184D01*
X153595000Y-85427816D01*
X153562297Y-85592228D01*
X153498147Y-85747100D01*
X153405015Y-85886481D01*
X153286481Y-86005015D01*
X153147100Y-86098147D01*
X152992228Y-86162297D01*
X152827816Y-86195000D01*
X152660184Y-86195000D01*
X152495772Y-86162297D01*
X152340900Y-86098147D01*
X152201519Y-86005015D01*
X152082985Y-85886481D01*
X151989853Y-85747100D01*
X151925703Y-85592228D01*
X151893000Y-85427816D01*
X151893000Y-85260184D01*
X151925703Y-85095772D01*
X151989853Y-84940900D01*
X152082985Y-84801519D01*
X152201519Y-84682985D01*
X152340900Y-84589853D01*
X152495772Y-84525703D01*
X152660184Y-84493000D01*
X152827816Y-84493000D01*
X152992228Y-84525703D01*
X152992228Y-84525703D01*
G37*
G36*
X126999000Y-86068000D02*
X125297000Y-86068000D01*
X125297000Y-84366000D01*
X126999000Y-84366000D01*
X126999000Y-86068000D01*
X126999000Y-86068000D01*
G37*
G36*
X202564000Y-86068000D02*
X200862000Y-86068000D01*
X200862000Y-84366000D01*
X202564000Y-84366000D01*
X202564000Y-86068000D01*
X202564000Y-86068000D01*
G37*
G36*
X209761228Y-84398703D02*
X209916100Y-84462853D01*
X210055481Y-84555985D01*
X210174015Y-84674519D01*
X210267147Y-84813900D01*
X210331297Y-84968772D01*
X210364000Y-85133184D01*
X210364000Y-85300816D01*
X210331297Y-85465228D01*
X210267147Y-85620100D01*
X210174015Y-85759481D01*
X210055481Y-85878015D01*
X209916100Y-85971147D01*
X209761228Y-86035297D01*
X209596816Y-86068000D01*
X209429184Y-86068000D01*
X209264772Y-86035297D01*
X209109900Y-85971147D01*
X208970519Y-85878015D01*
X208851985Y-85759481D01*
X208758853Y-85620100D01*
X208694703Y-85465228D01*
X208662000Y-85300816D01*
X208662000Y-85133184D01*
X208694703Y-84968772D01*
X208758853Y-84813900D01*
X208851985Y-84674519D01*
X208970519Y-84555985D01*
X209109900Y-84462853D01*
X209264772Y-84398703D01*
X209429184Y-84366000D01*
X209596816Y-84366000D01*
X209761228Y-84398703D01*
X209761228Y-84398703D01*
G37*
G36*
X184149000Y-86068000D02*
X182447000Y-86068000D01*
X182447000Y-84366000D01*
X184149000Y-84366000D01*
X184149000Y-86068000D01*
X184149000Y-86068000D01*
G37*
G36*
X134196228Y-84398703D02*
X134351100Y-84462853D01*
X134490481Y-84555985D01*
X134609015Y-84674519D01*
X134702147Y-84813900D01*
X134766297Y-84968772D01*
X134799000Y-85133184D01*
X134799000Y-85300816D01*
X134766297Y-85465228D01*
X134702147Y-85620100D01*
X134609015Y-85759481D01*
X134490481Y-85878015D01*
X134351100Y-85971147D01*
X134196228Y-86035297D01*
X134031816Y-86068000D01*
X133864184Y-86068000D01*
X133699772Y-86035297D01*
X133544900Y-85971147D01*
X133405519Y-85878015D01*
X133286985Y-85759481D01*
X133193853Y-85620100D01*
X133129703Y-85465228D01*
X133097000Y-85300816D01*
X133097000Y-85133184D01*
X133129703Y-84968772D01*
X133193853Y-84813900D01*
X133286985Y-84674519D01*
X133405519Y-84555985D01*
X133544900Y-84462853D01*
X133699772Y-84398703D01*
X133864184Y-84366000D01*
X134031816Y-84366000D01*
X134196228Y-84398703D01*
X134196228Y-84398703D01*
G37*
G36*
X191346228Y-84398703D02*
X191501100Y-84462853D01*
X191640481Y-84555985D01*
X191759015Y-84674519D01*
X191852147Y-84813900D01*
X191916297Y-84968772D01*
X191949000Y-85133184D01*
X191949000Y-85300816D01*
X191916297Y-85465228D01*
X191852147Y-85620100D01*
X191759015Y-85759481D01*
X191640481Y-85878015D01*
X191501100Y-85971147D01*
X191346228Y-86035297D01*
X191181816Y-86068000D01*
X191014184Y-86068000D01*
X190849772Y-86035297D01*
X190694900Y-85971147D01*
X190555519Y-85878015D01*
X190436985Y-85759481D01*
X190343853Y-85620100D01*
X190279703Y-85465228D01*
X190247000Y-85300816D01*
X190247000Y-85133184D01*
X190279703Y-84968772D01*
X190343853Y-84813900D01*
X190436985Y-84674519D01*
X190555519Y-84555985D01*
X190694900Y-84462853D01*
X190849772Y-84398703D01*
X191014184Y-84366000D01*
X191181816Y-84366000D01*
X191346228Y-84398703D01*
X191346228Y-84398703D01*
G37*
G36*
X222249000Y-85941000D02*
X220547000Y-85941000D01*
X220547000Y-84239000D01*
X222249000Y-84239000D01*
X222249000Y-85941000D01*
X222249000Y-85941000D01*
G37*
G36*
X229446228Y-84271703D02*
X229601100Y-84335853D01*
X229740481Y-84428985D01*
X229859015Y-84547519D01*
X229952147Y-84686900D01*
X230016297Y-84841772D01*
X230049000Y-85006184D01*
X230049000Y-85173816D01*
X230016297Y-85338228D01*
X229952147Y-85493100D01*
X229859015Y-85632481D01*
X229740481Y-85751015D01*
X229601100Y-85844147D01*
X229446228Y-85908297D01*
X229281816Y-85941000D01*
X229114184Y-85941000D01*
X228949772Y-85908297D01*
X228794900Y-85844147D01*
X228655519Y-85751015D01*
X228536985Y-85632481D01*
X228443853Y-85493100D01*
X228379703Y-85338228D01*
X228347000Y-85173816D01*
X228347000Y-85006184D01*
X228379703Y-84841772D01*
X228443853Y-84686900D01*
X228536985Y-84547519D01*
X228655519Y-84428985D01*
X228794900Y-84335853D01*
X228949772Y-84271703D01*
X229114184Y-84239000D01*
X229281816Y-84239000D01*
X229446228Y-84271703D01*
X229446228Y-84271703D01*
G37*
G36*
X171534228Y-84144703D02*
X171689100Y-84208853D01*
X171828481Y-84301985D01*
X171947015Y-84420519D01*
X172040147Y-84559900D01*
X172104297Y-84714772D01*
X172137000Y-84879184D01*
X172137000Y-85046816D01*
X172104297Y-85211228D01*
X172040147Y-85366100D01*
X171947015Y-85505481D01*
X171828481Y-85624015D01*
X171689100Y-85717147D01*
X171534228Y-85781297D01*
X171369816Y-85814000D01*
X171202184Y-85814000D01*
X171037772Y-85781297D01*
X170882900Y-85717147D01*
X170743519Y-85624015D01*
X170624985Y-85505481D01*
X170531853Y-85366100D01*
X170467703Y-85211228D01*
X170435000Y-85046816D01*
X170435000Y-84879184D01*
X170467703Y-84714772D01*
X170531853Y-84559900D01*
X170624985Y-84420519D01*
X170743519Y-84301985D01*
X170882900Y-84208853D01*
X171037772Y-84144703D01*
X171202184Y-84112000D01*
X171369816Y-84112000D01*
X171534228Y-84144703D01*
X171534228Y-84144703D01*
G37*
G36*
X164337000Y-85814000D02*
X162635000Y-85814000D01*
X162635000Y-84112000D01*
X164337000Y-84112000D01*
X164337000Y-85814000D01*
X164337000Y-85814000D01*
G37*
G36*
X146398277Y-80004885D02*
X146615572Y-80094891D01*
X146811131Y-80225560D01*
X146977440Y-80391869D01*
X147108109Y-80587428D01*
X147198115Y-80804723D01*
X147244000Y-81035401D01*
X147244000Y-81270599D01*
X147198115Y-81501277D01*
X147108109Y-81718572D01*
X146977440Y-81914131D01*
X146811131Y-82080440D01*
X146615572Y-82211109D01*
X146398277Y-82301115D01*
X146167599Y-82347000D01*
X145932401Y-82347000D01*
X145701723Y-82301115D01*
X145484428Y-82211109D01*
X145288869Y-82080440D01*
X145122560Y-81914131D01*
X144991891Y-81718572D01*
X144901885Y-81501277D01*
X144856000Y-81270599D01*
X144856000Y-81035401D01*
X144901885Y-80804723D01*
X144991891Y-80587428D01*
X145122560Y-80391869D01*
X145288869Y-80225560D01*
X145484428Y-80094891D01*
X145701723Y-80004885D01*
X145932401Y-79959000D01*
X146167599Y-79959000D01*
X146398277Y-80004885D01*
X146398277Y-80004885D01*
G37*
G36*
X152748277Y-77464885D02*
X152965572Y-77554891D01*
X153161131Y-77685560D01*
X153327440Y-77851869D01*
X153458109Y-78047428D01*
X153548115Y-78264723D01*
X153594000Y-78495401D01*
X153594000Y-78730599D01*
X153548115Y-78961277D01*
X153458109Y-79178572D01*
X153327440Y-79374131D01*
X153161131Y-79540440D01*
X152965572Y-79671109D01*
X152748277Y-79761115D01*
X152517599Y-79807000D01*
X152282401Y-79807000D01*
X152051723Y-79761115D01*
X151834428Y-79671109D01*
X151638869Y-79540440D01*
X151472560Y-79374131D01*
X151341891Y-79178572D01*
X151251885Y-78961277D01*
X151206000Y-78730599D01*
X151206000Y-78495401D01*
X151251885Y-78264723D01*
X151341891Y-78047428D01*
X151472560Y-77851869D01*
X151638869Y-77685560D01*
X151834428Y-77554891D01*
X152051723Y-77464885D01*
X152282401Y-77419000D01*
X152517599Y-77419000D01*
X152748277Y-77464885D01*
X152748277Y-77464885D01*
G37*
G36*
X43020277Y-72511885D02*
X43237572Y-72601891D01*
X43433131Y-72732560D01*
X43599440Y-72898869D01*
X43730109Y-73094428D01*
X43820115Y-73311723D01*
X43866000Y-73542401D01*
X43866000Y-73777599D01*
X43820115Y-74008277D01*
X43730109Y-74225572D01*
X43599440Y-74421131D01*
X43433131Y-74587440D01*
X43237572Y-74718109D01*
X43020277Y-74808115D01*
X42789599Y-74854000D01*
X42554401Y-74854000D01*
X42323723Y-74808115D01*
X42106428Y-74718109D01*
X41910869Y-74587440D01*
X41744560Y-74421131D01*
X41613891Y-74225572D01*
X41523885Y-74008277D01*
X41478000Y-73777599D01*
X41478000Y-73542401D01*
X41523885Y-73311723D01*
X41613891Y-73094428D01*
X41744560Y-72898869D01*
X41910869Y-72732560D01*
X42106428Y-72601891D01*
X42323723Y-72511885D01*
X42554401Y-72466000D01*
X42789599Y-72466000D01*
X43020277Y-72511885D01*
X43020277Y-72511885D01*
G37*
G36*
X202278277Y-72384885D02*
X202495572Y-72474891D01*
X202691131Y-72605560D01*
X202857440Y-72771869D01*
X202988109Y-72967428D01*
X203078115Y-73184723D01*
X203124000Y-73415401D01*
X203124000Y-73650599D01*
X203078115Y-73881277D01*
X202988109Y-74098572D01*
X202857440Y-74294131D01*
X202691131Y-74460440D01*
X202495572Y-74591109D01*
X202278277Y-74681115D01*
X202047599Y-74727000D01*
X201812401Y-74727000D01*
X201581723Y-74681115D01*
X201364428Y-74591109D01*
X201168869Y-74460440D01*
X201002560Y-74294131D01*
X200871891Y-74098572D01*
X200781885Y-73881277D01*
X200736000Y-73650599D01*
X200736000Y-73415401D01*
X200781885Y-73184723D01*
X200871891Y-72967428D01*
X201002560Y-72771869D01*
X201168869Y-72605560D01*
X201364428Y-72474891D01*
X201581723Y-72384885D01*
X201812401Y-72339000D01*
X202047599Y-72339000D01*
X202278277Y-72384885D01*
X202278277Y-72384885D01*
G37*
G36*
X183228277Y-72384885D02*
X183445572Y-72474891D01*
X183641131Y-72605560D01*
X183807440Y-72771869D01*
X183938109Y-72967428D01*
X184028115Y-73184723D01*
X184074000Y-73415401D01*
X184074000Y-73650599D01*
X184028115Y-73881277D01*
X183938109Y-74098572D01*
X183807440Y-74294131D01*
X183641131Y-74460440D01*
X183445572Y-74591109D01*
X183228277Y-74681115D01*
X182997599Y-74727000D01*
X182762401Y-74727000D01*
X182531723Y-74681115D01*
X182314428Y-74591109D01*
X182118869Y-74460440D01*
X181952560Y-74294131D01*
X181821891Y-74098572D01*
X181731885Y-73881277D01*
X181686000Y-73650599D01*
X181686000Y-73415401D01*
X181731885Y-73184723D01*
X181821891Y-72967428D01*
X181952560Y-72771869D01*
X182118869Y-72605560D01*
X182314428Y-72474891D01*
X182531723Y-72384885D01*
X182762401Y-72339000D01*
X182997599Y-72339000D01*
X183228277Y-72384885D01*
X183228277Y-72384885D01*
G37*
G36*
X221201277Y-72384885D02*
X221418572Y-72474891D01*
X221614131Y-72605560D01*
X221780440Y-72771869D01*
X221911109Y-72967428D01*
X222001115Y-73184723D01*
X222047000Y-73415401D01*
X222047000Y-73650599D01*
X222001115Y-73881277D01*
X221911109Y-74098572D01*
X221780440Y-74294131D01*
X221614131Y-74460440D01*
X221418572Y-74591109D01*
X221201277Y-74681115D01*
X220970599Y-74727000D01*
X220735401Y-74727000D01*
X220504723Y-74681115D01*
X220287428Y-74591109D01*
X220091869Y-74460440D01*
X219925560Y-74294131D01*
X219794891Y-74098572D01*
X219704885Y-73881277D01*
X219659000Y-73650599D01*
X219659000Y-73415401D01*
X219704885Y-73184723D01*
X219794891Y-72967428D01*
X219925560Y-72771869D01*
X220091869Y-72605560D01*
X220287428Y-72474891D01*
X220504723Y-72384885D01*
X220735401Y-72339000D01*
X220970599Y-72339000D01*
X221201277Y-72384885D01*
X221201277Y-72384885D01*
G37*
G36*
X240251277Y-72384885D02*
X240468572Y-72474891D01*
X240664131Y-72605560D01*
X240830440Y-72771869D01*
X240961109Y-72967428D01*
X241051115Y-73184723D01*
X241097000Y-73415401D01*
X241097000Y-73650599D01*
X241051115Y-73881277D01*
X240961109Y-74098572D01*
X240830440Y-74294131D01*
X240664131Y-74460440D01*
X240468572Y-74591109D01*
X240251277Y-74681115D01*
X240020599Y-74727000D01*
X239785401Y-74727000D01*
X239554723Y-74681115D01*
X239337428Y-74591109D01*
X239141869Y-74460440D01*
X238975560Y-74294131D01*
X238844891Y-74098572D01*
X238754885Y-73881277D01*
X238709000Y-73650599D01*
X238709000Y-73415401D01*
X238754885Y-73184723D01*
X238844891Y-72967428D01*
X238975560Y-72771869D01*
X239141869Y-72605560D01*
X239337428Y-72474891D01*
X239554723Y-72384885D01*
X239785401Y-72339000D01*
X240020599Y-72339000D01*
X240251277Y-72384885D01*
X240251277Y-72384885D01*
G37*
G36*
X164178277Y-72384885D02*
X164395572Y-72474891D01*
X164591131Y-72605560D01*
X164757440Y-72771869D01*
X164888109Y-72967428D01*
X164978115Y-73184723D01*
X165024000Y-73415401D01*
X165024000Y-73650599D01*
X164978115Y-73881277D01*
X164888109Y-74098572D01*
X164757440Y-74294131D01*
X164591131Y-74460440D01*
X164395572Y-74591109D01*
X164178277Y-74681115D01*
X163947599Y-74727000D01*
X163712401Y-74727000D01*
X163481723Y-74681115D01*
X163264428Y-74591109D01*
X163068869Y-74460440D01*
X162902560Y-74294131D01*
X162771891Y-74098572D01*
X162681885Y-73881277D01*
X162636000Y-73650599D01*
X162636000Y-73415401D01*
X162681885Y-73184723D01*
X162771891Y-72967428D01*
X162902560Y-72771869D01*
X163068869Y-72605560D01*
X163264428Y-72474891D01*
X163481723Y-72384885D01*
X163712401Y-72339000D01*
X163947599Y-72339000D01*
X164178277Y-72384885D01*
X164178277Y-72384885D01*
G37*
G36*
X259174277Y-72384885D02*
X259391572Y-72474891D01*
X259587131Y-72605560D01*
X259753440Y-72771869D01*
X259884109Y-72967428D01*
X259974115Y-73184723D01*
X260020000Y-73415401D01*
X260020000Y-73650599D01*
X259974115Y-73881277D01*
X259884109Y-74098572D01*
X259753440Y-74294131D01*
X259587131Y-74460440D01*
X259391572Y-74591109D01*
X259174277Y-74681115D01*
X258943599Y-74727000D01*
X258708401Y-74727000D01*
X258477723Y-74681115D01*
X258260428Y-74591109D01*
X258064869Y-74460440D01*
X257898560Y-74294131D01*
X257767891Y-74098572D01*
X257677885Y-73881277D01*
X257632000Y-73650599D01*
X257632000Y-73415401D01*
X257677885Y-73184723D01*
X257767891Y-72967428D01*
X257898560Y-72771869D01*
X258064869Y-72605560D01*
X258260428Y-72474891D01*
X258477723Y-72384885D01*
X258708401Y-72339000D01*
X258943599Y-72339000D01*
X259174277Y-72384885D01*
X259174277Y-72384885D01*
G37*
G36*
X126205277Y-72384885D02*
X126422572Y-72474891D01*
X126618131Y-72605560D01*
X126784440Y-72771869D01*
X126915109Y-72967428D01*
X127005115Y-73184723D01*
X127051000Y-73415401D01*
X127051000Y-73650599D01*
X127005115Y-73881277D01*
X126915109Y-74098572D01*
X126784440Y-74294131D01*
X126618131Y-74460440D01*
X126422572Y-74591109D01*
X126205277Y-74681115D01*
X125974599Y-74727000D01*
X125739401Y-74727000D01*
X125508723Y-74681115D01*
X125291428Y-74591109D01*
X125095869Y-74460440D01*
X124929560Y-74294131D01*
X124798891Y-74098572D01*
X124708885Y-73881277D01*
X124663000Y-73650599D01*
X124663000Y-73415401D01*
X124708885Y-73184723D01*
X124798891Y-72967428D01*
X124929560Y-72771869D01*
X125095869Y-72605560D01*
X125291428Y-72474891D01*
X125508723Y-72384885D01*
X125739401Y-72339000D01*
X125974599Y-72339000D01*
X126205277Y-72384885D01*
X126205277Y-72384885D01*
G37*
G36*
X107155277Y-72384885D02*
X107372572Y-72474891D01*
X107568131Y-72605560D01*
X107734440Y-72771869D01*
X107865109Y-72967428D01*
X107955115Y-73184723D01*
X108001000Y-73415401D01*
X108001000Y-73650599D01*
X107955115Y-73881277D01*
X107865109Y-74098572D01*
X107734440Y-74294131D01*
X107568131Y-74460440D01*
X107372572Y-74591109D01*
X107155277Y-74681115D01*
X106924599Y-74727000D01*
X106689401Y-74727000D01*
X106458723Y-74681115D01*
X106241428Y-74591109D01*
X106045869Y-74460440D01*
X105879560Y-74294131D01*
X105748891Y-74098572D01*
X105658885Y-73881277D01*
X105613000Y-73650599D01*
X105613000Y-73415401D01*
X105658885Y-73184723D01*
X105748891Y-72967428D01*
X105879560Y-72771869D01*
X106045869Y-72605560D01*
X106241428Y-72474891D01*
X106458723Y-72384885D01*
X106689401Y-72339000D01*
X106924599Y-72339000D01*
X107155277Y-72384885D01*
X107155277Y-72384885D01*
G37*
G36*
X88232277Y-72384885D02*
X88449572Y-72474891D01*
X88645131Y-72605560D01*
X88811440Y-72771869D01*
X88942109Y-72967428D01*
X89032115Y-73184723D01*
X89078000Y-73415401D01*
X89078000Y-73650599D01*
X89032115Y-73881277D01*
X88942109Y-74098572D01*
X88811440Y-74294131D01*
X88645131Y-74460440D01*
X88449572Y-74591109D01*
X88232277Y-74681115D01*
X88001599Y-74727000D01*
X87766401Y-74727000D01*
X87535723Y-74681115D01*
X87318428Y-74591109D01*
X87122869Y-74460440D01*
X86956560Y-74294131D01*
X86825891Y-74098572D01*
X86735885Y-73881277D01*
X86690000Y-73650599D01*
X86690000Y-73415401D01*
X86735885Y-73184723D01*
X86825891Y-72967428D01*
X86956560Y-72771869D01*
X87122869Y-72605560D01*
X87318428Y-72474891D01*
X87535723Y-72384885D01*
X87766401Y-72339000D01*
X88001599Y-72339000D01*
X88232277Y-72384885D01*
X88232277Y-72384885D01*
G37*
G36*
X69182277Y-72384885D02*
X69399572Y-72474891D01*
X69595131Y-72605560D01*
X69761440Y-72771869D01*
X69892109Y-72967428D01*
X69982115Y-73184723D01*
X70028000Y-73415401D01*
X70028000Y-73650599D01*
X69982115Y-73881277D01*
X69892109Y-74098572D01*
X69761440Y-74294131D01*
X69595131Y-74460440D01*
X69399572Y-74591109D01*
X69182277Y-74681115D01*
X68951599Y-74727000D01*
X68716401Y-74727000D01*
X68485723Y-74681115D01*
X68268428Y-74591109D01*
X68072869Y-74460440D01*
X67906560Y-74294131D01*
X67775891Y-74098572D01*
X67685885Y-73881277D01*
X67640000Y-73650599D01*
X67640000Y-73415401D01*
X67685885Y-73184723D01*
X67775891Y-72967428D01*
X67906560Y-72771869D01*
X68072869Y-72605560D01*
X68268428Y-72474891D01*
X68485723Y-72384885D01*
X68716401Y-72339000D01*
X68951599Y-72339000D01*
X69182277Y-72384885D01*
X69182277Y-72384885D01*
G37*
G36*
X49370277Y-69971885D02*
X49587572Y-70061891D01*
X49783131Y-70192560D01*
X49949440Y-70358869D01*
X50080109Y-70554428D01*
X50170115Y-70771723D01*
X50216000Y-71002401D01*
X50216000Y-71237599D01*
X50170115Y-71468277D01*
X50080109Y-71685572D01*
X49949440Y-71881131D01*
X49783131Y-72047440D01*
X49587572Y-72178109D01*
X49370277Y-72268115D01*
X49139599Y-72314000D01*
X48904401Y-72314000D01*
X48673723Y-72268115D01*
X48456428Y-72178109D01*
X48260869Y-72047440D01*
X48094560Y-71881131D01*
X47963891Y-71685572D01*
X47873885Y-71468277D01*
X47828000Y-71237599D01*
X47828000Y-71002401D01*
X47873885Y-70771723D01*
X47963891Y-70554428D01*
X48094560Y-70358869D01*
X48260869Y-70192560D01*
X48456428Y-70061891D01*
X48673723Y-69971885D01*
X48904401Y-69926000D01*
X49139599Y-69926000D01*
X49370277Y-69971885D01*
X49370277Y-69971885D01*
G37*
G36*
X75532277Y-69844885D02*
X75749572Y-69934891D01*
X75945131Y-70065560D01*
X76111440Y-70231869D01*
X76242109Y-70427428D01*
X76332115Y-70644723D01*
X76378000Y-70875401D01*
X76378000Y-71110599D01*
X76332115Y-71341277D01*
X76242109Y-71558572D01*
X76111440Y-71754131D01*
X75945131Y-71920440D01*
X75749572Y-72051109D01*
X75532277Y-72141115D01*
X75301599Y-72187000D01*
X75066401Y-72187000D01*
X74835723Y-72141115D01*
X74618428Y-72051109D01*
X74422869Y-71920440D01*
X74256560Y-71754131D01*
X74125891Y-71558572D01*
X74035885Y-71341277D01*
X73990000Y-71110599D01*
X73990000Y-70875401D01*
X74035885Y-70644723D01*
X74125891Y-70427428D01*
X74256560Y-70231869D01*
X74422869Y-70065560D01*
X74618428Y-69934891D01*
X74835723Y-69844885D01*
X75066401Y-69799000D01*
X75301599Y-69799000D01*
X75532277Y-69844885D01*
X75532277Y-69844885D01*
G37*
G36*
X94582277Y-69844885D02*
X94799572Y-69934891D01*
X94995131Y-70065560D01*
X95161440Y-70231869D01*
X95292109Y-70427428D01*
X95382115Y-70644723D01*
X95428000Y-70875401D01*
X95428000Y-71110599D01*
X95382115Y-71341277D01*
X95292109Y-71558572D01*
X95161440Y-71754131D01*
X94995131Y-71920440D01*
X94799572Y-72051109D01*
X94582277Y-72141115D01*
X94351599Y-72187000D01*
X94116401Y-72187000D01*
X93885723Y-72141115D01*
X93668428Y-72051109D01*
X93472869Y-71920440D01*
X93306560Y-71754131D01*
X93175891Y-71558572D01*
X93085885Y-71341277D01*
X93040000Y-71110599D01*
X93040000Y-70875401D01*
X93085885Y-70644723D01*
X93175891Y-70427428D01*
X93306560Y-70231869D01*
X93472869Y-70065560D01*
X93668428Y-69934891D01*
X93885723Y-69844885D01*
X94116401Y-69799000D01*
X94351599Y-69799000D01*
X94582277Y-69844885D01*
X94582277Y-69844885D01*
G37*
G36*
X113505277Y-69844885D02*
X113722572Y-69934891D01*
X113918131Y-70065560D01*
X114084440Y-70231869D01*
X114215109Y-70427428D01*
X114305115Y-70644723D01*
X114351000Y-70875401D01*
X114351000Y-71110599D01*
X114305115Y-71341277D01*
X114215109Y-71558572D01*
X114084440Y-71754131D01*
X113918131Y-71920440D01*
X113722572Y-72051109D01*
X113505277Y-72141115D01*
X113274599Y-72187000D01*
X113039401Y-72187000D01*
X112808723Y-72141115D01*
X112591428Y-72051109D01*
X112395869Y-71920440D01*
X112229560Y-71754131D01*
X112098891Y-71558572D01*
X112008885Y-71341277D01*
X111963000Y-71110599D01*
X111963000Y-70875401D01*
X112008885Y-70644723D01*
X112098891Y-70427428D01*
X112229560Y-70231869D01*
X112395869Y-70065560D01*
X112591428Y-69934891D01*
X112808723Y-69844885D01*
X113039401Y-69799000D01*
X113274599Y-69799000D01*
X113505277Y-69844885D01*
X113505277Y-69844885D01*
G37*
G36*
X132555277Y-69844885D02*
X132772572Y-69934891D01*
X132968131Y-70065560D01*
X133134440Y-70231869D01*
X133265109Y-70427428D01*
X133355115Y-70644723D01*
X133401000Y-70875401D01*
X133401000Y-71110599D01*
X133355115Y-71341277D01*
X133265109Y-71558572D01*
X133134440Y-71754131D01*
X132968131Y-71920440D01*
X132772572Y-72051109D01*
X132555277Y-72141115D01*
X132324599Y-72187000D01*
X132089401Y-72187000D01*
X131858723Y-72141115D01*
X131641428Y-72051109D01*
X131445869Y-71920440D01*
X131279560Y-71754131D01*
X131148891Y-71558572D01*
X131058885Y-71341277D01*
X131013000Y-71110599D01*
X131013000Y-70875401D01*
X131058885Y-70644723D01*
X131148891Y-70427428D01*
X131279560Y-70231869D01*
X131445869Y-70065560D01*
X131641428Y-69934891D01*
X131858723Y-69844885D01*
X132089401Y-69799000D01*
X132324599Y-69799000D01*
X132555277Y-69844885D01*
X132555277Y-69844885D01*
G37*
G36*
X170528277Y-69844885D02*
X170745572Y-69934891D01*
X170941131Y-70065560D01*
X171107440Y-70231869D01*
X171238109Y-70427428D01*
X171328115Y-70644723D01*
X171374000Y-70875401D01*
X171374000Y-71110599D01*
X171328115Y-71341277D01*
X171238109Y-71558572D01*
X171107440Y-71754131D01*
X170941131Y-71920440D01*
X170745572Y-72051109D01*
X170528277Y-72141115D01*
X170297599Y-72187000D01*
X170062401Y-72187000D01*
X169831723Y-72141115D01*
X169614428Y-72051109D01*
X169418869Y-71920440D01*
X169252560Y-71754131D01*
X169121891Y-71558572D01*
X169031885Y-71341277D01*
X168986000Y-71110599D01*
X168986000Y-70875401D01*
X169031885Y-70644723D01*
X169121891Y-70427428D01*
X169252560Y-70231869D01*
X169418869Y-70065560D01*
X169614428Y-69934891D01*
X169831723Y-69844885D01*
X170062401Y-69799000D01*
X170297599Y-69799000D01*
X170528277Y-69844885D01*
X170528277Y-69844885D01*
G37*
G36*
X189578277Y-69844885D02*
X189795572Y-69934891D01*
X189991131Y-70065560D01*
X190157440Y-70231869D01*
X190288109Y-70427428D01*
X190378115Y-70644723D01*
X190424000Y-70875401D01*
X190424000Y-71110599D01*
X190378115Y-71341277D01*
X190288109Y-71558572D01*
X190157440Y-71754131D01*
X189991131Y-71920440D01*
X189795572Y-72051109D01*
X189578277Y-72141115D01*
X189347599Y-72187000D01*
X189112401Y-72187000D01*
X188881723Y-72141115D01*
X188664428Y-72051109D01*
X188468869Y-71920440D01*
X188302560Y-71754131D01*
X188171891Y-71558572D01*
X188081885Y-71341277D01*
X188036000Y-71110599D01*
X188036000Y-70875401D01*
X188081885Y-70644723D01*
X188171891Y-70427428D01*
X188302560Y-70231869D01*
X188468869Y-70065560D01*
X188664428Y-69934891D01*
X188881723Y-69844885D01*
X189112401Y-69799000D01*
X189347599Y-69799000D01*
X189578277Y-69844885D01*
X189578277Y-69844885D01*
G37*
G36*
X208628277Y-69844885D02*
X208845572Y-69934891D01*
X209041131Y-70065560D01*
X209207440Y-70231869D01*
X209338109Y-70427428D01*
X209428115Y-70644723D01*
X209474000Y-70875401D01*
X209474000Y-71110599D01*
X209428115Y-71341277D01*
X209338109Y-71558572D01*
X209207440Y-71754131D01*
X209041131Y-71920440D01*
X208845572Y-72051109D01*
X208628277Y-72141115D01*
X208397599Y-72187000D01*
X208162401Y-72187000D01*
X207931723Y-72141115D01*
X207714428Y-72051109D01*
X207518869Y-71920440D01*
X207352560Y-71754131D01*
X207221891Y-71558572D01*
X207131885Y-71341277D01*
X207086000Y-71110599D01*
X207086000Y-70875401D01*
X207131885Y-70644723D01*
X207221891Y-70427428D01*
X207352560Y-70231869D01*
X207518869Y-70065560D01*
X207714428Y-69934891D01*
X207931723Y-69844885D01*
X208162401Y-69799000D01*
X208397599Y-69799000D01*
X208628277Y-69844885D01*
X208628277Y-69844885D01*
G37*
G36*
X227551277Y-69844885D02*
X227768572Y-69934891D01*
X227964131Y-70065560D01*
X228130440Y-70231869D01*
X228261109Y-70427428D01*
X228351115Y-70644723D01*
X228397000Y-70875401D01*
X228397000Y-71110599D01*
X228351115Y-71341277D01*
X228261109Y-71558572D01*
X228130440Y-71754131D01*
X227964131Y-71920440D01*
X227768572Y-72051109D01*
X227551277Y-72141115D01*
X227320599Y-72187000D01*
X227085401Y-72187000D01*
X226854723Y-72141115D01*
X226637428Y-72051109D01*
X226441869Y-71920440D01*
X226275560Y-71754131D01*
X226144891Y-71558572D01*
X226054885Y-71341277D01*
X226009000Y-71110599D01*
X226009000Y-70875401D01*
X226054885Y-70644723D01*
X226144891Y-70427428D01*
X226275560Y-70231869D01*
X226441869Y-70065560D01*
X226637428Y-69934891D01*
X226854723Y-69844885D01*
X227085401Y-69799000D01*
X227320599Y-69799000D01*
X227551277Y-69844885D01*
X227551277Y-69844885D01*
G37*
G36*
X246601277Y-69844885D02*
X246818572Y-69934891D01*
X247014131Y-70065560D01*
X247180440Y-70231869D01*
X247311109Y-70427428D01*
X247401115Y-70644723D01*
X247447000Y-70875401D01*
X247447000Y-71110599D01*
X247401115Y-71341277D01*
X247311109Y-71558572D01*
X247180440Y-71754131D01*
X247014131Y-71920440D01*
X246818572Y-72051109D01*
X246601277Y-72141115D01*
X246370599Y-72187000D01*
X246135401Y-72187000D01*
X245904723Y-72141115D01*
X245687428Y-72051109D01*
X245491869Y-71920440D01*
X245325560Y-71754131D01*
X245194891Y-71558572D01*
X245104885Y-71341277D01*
X245059000Y-71110599D01*
X245059000Y-70875401D01*
X245104885Y-70644723D01*
X245194891Y-70427428D01*
X245325560Y-70231869D01*
X245491869Y-70065560D01*
X245687428Y-69934891D01*
X245904723Y-69844885D01*
X246135401Y-69799000D01*
X246370599Y-69799000D01*
X246601277Y-69844885D01*
X246601277Y-69844885D01*
G37*
G36*
X265524277Y-69844885D02*
X265741572Y-69934891D01*
X265937131Y-70065560D01*
X266103440Y-70231869D01*
X266234109Y-70427428D01*
X266324115Y-70644723D01*
X266370000Y-70875401D01*
X266370000Y-71110599D01*
X266324115Y-71341277D01*
X266234109Y-71558572D01*
X266103440Y-71754131D01*
X265937131Y-71920440D01*
X265741572Y-72051109D01*
X265524277Y-72141115D01*
X265293599Y-72187000D01*
X265058401Y-72187000D01*
X264827723Y-72141115D01*
X264610428Y-72051109D01*
X264414869Y-71920440D01*
X264248560Y-71754131D01*
X264117891Y-71558572D01*
X264027885Y-71341277D01*
X263982000Y-71110599D01*
X263982000Y-70875401D01*
X264027885Y-70644723D01*
X264117891Y-70427428D01*
X264248560Y-70231869D01*
X264414869Y-70065560D01*
X264610428Y-69934891D01*
X264827723Y-69844885D01*
X265058401Y-69799000D01*
X265293599Y-69799000D01*
X265524277Y-69844885D01*
X265524277Y-69844885D01*
G37*
G36*
X231393000Y-67780000D02*
X229691000Y-67780000D01*
X229691000Y-66078000D01*
X231393000Y-66078000D01*
X231393000Y-67780000D01*
X231393000Y-67780000D01*
G37*
G36*
X238590228Y-66110703D02*
X238745100Y-66174853D01*
X238884481Y-66267985D01*
X239003015Y-66386519D01*
X239096147Y-66525900D01*
X239160297Y-66680772D01*
X239193000Y-66845184D01*
X239193000Y-67012816D01*
X239160297Y-67177228D01*
X239096147Y-67332100D01*
X239003015Y-67471481D01*
X238884481Y-67590015D01*
X238745100Y-67683147D01*
X238590228Y-67747297D01*
X238425816Y-67780000D01*
X238258184Y-67780000D01*
X238093772Y-67747297D01*
X237938900Y-67683147D01*
X237799519Y-67590015D01*
X237680985Y-67471481D01*
X237587853Y-67332100D01*
X237523703Y-67177228D01*
X237491000Y-67012816D01*
X237491000Y-66845184D01*
X237523703Y-66680772D01*
X237587853Y-66525900D01*
X237680985Y-66386519D01*
X237799519Y-66267985D01*
X237938900Y-66174853D01*
X238093772Y-66110703D01*
X238258184Y-66078000D01*
X238425816Y-66078000D01*
X238590228Y-66110703D01*
X238590228Y-66110703D01*
G37*
G36*
X219413228Y-65983703D02*
X219568100Y-66047853D01*
X219707481Y-66140985D01*
X219826015Y-66259519D01*
X219919147Y-66398900D01*
X219983297Y-66553772D01*
X220016000Y-66718184D01*
X220016000Y-66885816D01*
X219983297Y-67050228D01*
X219919147Y-67205100D01*
X219826015Y-67344481D01*
X219707481Y-67463015D01*
X219568100Y-67556147D01*
X219413228Y-67620297D01*
X219248816Y-67653000D01*
X219081184Y-67653000D01*
X218916772Y-67620297D01*
X218761900Y-67556147D01*
X218622519Y-67463015D01*
X218503985Y-67344481D01*
X218410853Y-67205100D01*
X218346703Y-67050228D01*
X218314000Y-66885816D01*
X218314000Y-66718184D01*
X218346703Y-66553772D01*
X218410853Y-66398900D01*
X218503985Y-66259519D01*
X218622519Y-66140985D01*
X218761900Y-66047853D01*
X218916772Y-65983703D01*
X219081184Y-65951000D01*
X219248816Y-65951000D01*
X219413228Y-65983703D01*
X219413228Y-65983703D01*
G37*
G36*
X212216000Y-67653000D02*
X210514000Y-67653000D01*
X210514000Y-65951000D01*
X212216000Y-65951000D01*
X212216000Y-67653000D01*
X212216000Y-67653000D01*
G37*
G36*
X181440228Y-65983703D02*
X181595100Y-66047853D01*
X181734481Y-66140985D01*
X181853015Y-66259519D01*
X181946147Y-66398900D01*
X182010297Y-66553772D01*
X182043000Y-66718184D01*
X182043000Y-66885816D01*
X182010297Y-67050228D01*
X181946147Y-67205100D01*
X181853015Y-67344481D01*
X181734481Y-67463015D01*
X181595100Y-67556147D01*
X181440228Y-67620297D01*
X181275816Y-67653000D01*
X181108184Y-67653000D01*
X180943772Y-67620297D01*
X180788900Y-67556147D01*
X180649519Y-67463015D01*
X180530985Y-67344481D01*
X180437853Y-67205100D01*
X180373703Y-67050228D01*
X180341000Y-66885816D01*
X180341000Y-66718184D01*
X180373703Y-66553772D01*
X180437853Y-66398900D01*
X180530985Y-66259519D01*
X180649519Y-66140985D01*
X180788900Y-66047853D01*
X180943772Y-65983703D01*
X181108184Y-65951000D01*
X181275816Y-65951000D01*
X181440228Y-65983703D01*
X181440228Y-65983703D01*
G37*
G36*
X174243000Y-67653000D02*
X172541000Y-67653000D01*
X172541000Y-65951000D01*
X174243000Y-65951000D01*
X174243000Y-67653000D01*
X174243000Y-67653000D01*
G37*
G36*
X162517228Y-65983703D02*
X162672100Y-66047853D01*
X162811481Y-66140985D01*
X162930015Y-66259519D01*
X163023147Y-66398900D01*
X163087297Y-66553772D01*
X163120000Y-66718184D01*
X163120000Y-66885816D01*
X163087297Y-67050228D01*
X163023147Y-67205100D01*
X162930015Y-67344481D01*
X162811481Y-67463015D01*
X162672100Y-67556147D01*
X162517228Y-67620297D01*
X162352816Y-67653000D01*
X162185184Y-67653000D01*
X162020772Y-67620297D01*
X161865900Y-67556147D01*
X161726519Y-67463015D01*
X161607985Y-67344481D01*
X161514853Y-67205100D01*
X161450703Y-67050228D01*
X161418000Y-66885816D01*
X161418000Y-66718184D01*
X161450703Y-66553772D01*
X161514853Y-66398900D01*
X161607985Y-66259519D01*
X161726519Y-66140985D01*
X161865900Y-66047853D01*
X162020772Y-65983703D01*
X162185184Y-65951000D01*
X162352816Y-65951000D01*
X162517228Y-65983703D01*
X162517228Y-65983703D01*
G37*
G36*
X155320000Y-67653000D02*
X153618000Y-67653000D01*
X153618000Y-65951000D01*
X155320000Y-65951000D01*
X155320000Y-67653000D01*
X155320000Y-67653000D01*
G37*
G36*
X98170000Y-67526000D02*
X96468000Y-67526000D01*
X96468000Y-65824000D01*
X98170000Y-65824000D01*
X98170000Y-67526000D01*
X98170000Y-67526000D01*
G37*
G36*
X105367228Y-65856703D02*
X105522100Y-65920853D01*
X105661481Y-66013985D01*
X105780015Y-66132519D01*
X105873147Y-66271900D01*
X105937297Y-66426772D01*
X105970000Y-66591184D01*
X105970000Y-66758816D01*
X105937297Y-66923228D01*
X105873147Y-67078100D01*
X105780015Y-67217481D01*
X105661481Y-67336015D01*
X105522100Y-67429147D01*
X105367228Y-67493297D01*
X105202816Y-67526000D01*
X105035184Y-67526000D01*
X104870772Y-67493297D01*
X104715900Y-67429147D01*
X104576519Y-67336015D01*
X104457985Y-67217481D01*
X104364853Y-67078100D01*
X104300703Y-66923228D01*
X104268000Y-66758816D01*
X104268000Y-66591184D01*
X104300703Y-66426772D01*
X104364853Y-66271900D01*
X104457985Y-66132519D01*
X104576519Y-66013985D01*
X104715900Y-65920853D01*
X104870772Y-65856703D01*
X105035184Y-65824000D01*
X105202816Y-65824000D01*
X105367228Y-65856703D01*
X105367228Y-65856703D01*
G37*
G36*
X193166000Y-67526000D02*
X191464000Y-67526000D01*
X191464000Y-65824000D01*
X193166000Y-65824000D01*
X193166000Y-67526000D01*
X193166000Y-67526000D01*
G37*
G36*
X200363228Y-65856703D02*
X200518100Y-65920853D01*
X200657481Y-66013985D01*
X200776015Y-66132519D01*
X200869147Y-66271900D01*
X200933297Y-66426772D01*
X200966000Y-66591184D01*
X200966000Y-66758816D01*
X200933297Y-66923228D01*
X200869147Y-67078100D01*
X200776015Y-67217481D01*
X200657481Y-67336015D01*
X200518100Y-67429147D01*
X200363228Y-67493297D01*
X200198816Y-67526000D01*
X200031184Y-67526000D01*
X199866772Y-67493297D01*
X199711900Y-67429147D01*
X199572519Y-67336015D01*
X199453985Y-67217481D01*
X199360853Y-67078100D01*
X199296703Y-66923228D01*
X199264000Y-66758816D01*
X199264000Y-66591184D01*
X199296703Y-66426772D01*
X199360853Y-66271900D01*
X199453985Y-66132519D01*
X199572519Y-66013985D01*
X199711900Y-65920853D01*
X199866772Y-65856703D01*
X200031184Y-65824000D01*
X200198816Y-65824000D01*
X200363228Y-65856703D01*
X200363228Y-65856703D01*
G37*
G36*
X124544228Y-65729703D02*
X124699100Y-65793853D01*
X124838481Y-65886985D01*
X124957015Y-66005519D01*
X125050147Y-66144900D01*
X125114297Y-66299772D01*
X125147000Y-66464184D01*
X125147000Y-66631816D01*
X125114297Y-66796228D01*
X125050147Y-66951100D01*
X124957015Y-67090481D01*
X124838481Y-67209015D01*
X124699100Y-67302147D01*
X124544228Y-67366297D01*
X124379816Y-67399000D01*
X124212184Y-67399000D01*
X124047772Y-67366297D01*
X123892900Y-67302147D01*
X123753519Y-67209015D01*
X123634985Y-67090481D01*
X123541853Y-66951100D01*
X123477703Y-66796228D01*
X123445000Y-66631816D01*
X123445000Y-66464184D01*
X123477703Y-66299772D01*
X123541853Y-66144900D01*
X123634985Y-66005519D01*
X123753519Y-65886985D01*
X123892900Y-65793853D01*
X124047772Y-65729703D01*
X124212184Y-65697000D01*
X124379816Y-65697000D01*
X124544228Y-65729703D01*
X124544228Y-65729703D01*
G37*
G36*
X255396000Y-67399000D02*
X253694000Y-67399000D01*
X253694000Y-65697000D01*
X255396000Y-65697000D01*
X255396000Y-67399000D01*
X255396000Y-67399000D01*
G37*
G36*
X262593228Y-65729703D02*
X262748100Y-65793853D01*
X262887481Y-65886985D01*
X263006015Y-66005519D01*
X263099147Y-66144900D01*
X263163297Y-66299772D01*
X263196000Y-66464184D01*
X263196000Y-66631816D01*
X263163297Y-66796228D01*
X263099147Y-66951100D01*
X263006015Y-67090481D01*
X262887481Y-67209015D01*
X262748100Y-67302147D01*
X262593228Y-67366297D01*
X262428816Y-67399000D01*
X262261184Y-67399000D01*
X262096772Y-67366297D01*
X261941900Y-67302147D01*
X261802519Y-67209015D01*
X261683985Y-67090481D01*
X261590853Y-66951100D01*
X261526703Y-66796228D01*
X261494000Y-66631816D01*
X261494000Y-66464184D01*
X261526703Y-66299772D01*
X261590853Y-66144900D01*
X261683985Y-66005519D01*
X261802519Y-65886985D01*
X261941900Y-65793853D01*
X262096772Y-65729703D01*
X262261184Y-65697000D01*
X262428816Y-65697000D01*
X262593228Y-65729703D01*
X262593228Y-65729703D01*
G37*
G36*
X117347000Y-67399000D02*
X115645000Y-67399000D01*
X115645000Y-65697000D01*
X117347000Y-65697000D01*
X117347000Y-67399000D01*
X117347000Y-67399000D01*
G37*
G36*
X79120000Y-67399000D02*
X77418000Y-67399000D01*
X77418000Y-65697000D01*
X79120000Y-65697000D01*
X79120000Y-67399000D01*
X79120000Y-67399000D01*
G37*
G36*
X86317228Y-65729703D02*
X86472100Y-65793853D01*
X86611481Y-65886985D01*
X86730015Y-66005519D01*
X86823147Y-66144900D01*
X86887297Y-66299772D01*
X86920000Y-66464184D01*
X86920000Y-66631816D01*
X86887297Y-66796228D01*
X86823147Y-66951100D01*
X86730015Y-67090481D01*
X86611481Y-67209015D01*
X86472100Y-67302147D01*
X86317228Y-67366297D01*
X86152816Y-67399000D01*
X85985184Y-67399000D01*
X85820772Y-67366297D01*
X85665900Y-67302147D01*
X85526519Y-67209015D01*
X85407985Y-67090481D01*
X85314853Y-66951100D01*
X85250703Y-66796228D01*
X85218000Y-66631816D01*
X85218000Y-66464184D01*
X85250703Y-66299772D01*
X85314853Y-66144900D01*
X85407985Y-66005519D01*
X85526519Y-65886985D01*
X85665900Y-65793853D01*
X85820772Y-65729703D01*
X85985184Y-65697000D01*
X86152816Y-65697000D01*
X86317228Y-65729703D01*
X86317228Y-65729703D01*
G37*
G36*
X136016000Y-67272000D02*
X134314000Y-67272000D01*
X134314000Y-65570000D01*
X136016000Y-65570000D01*
X136016000Y-67272000D01*
X136016000Y-67272000D01*
G37*
G36*
X143213228Y-65602703D02*
X143368100Y-65666853D01*
X143507481Y-65759985D01*
X143626015Y-65878519D01*
X143719147Y-66017900D01*
X143783297Y-66172772D01*
X143816000Y-66337184D01*
X143816000Y-66504816D01*
X143783297Y-66669228D01*
X143719147Y-66824100D01*
X143626015Y-66963481D01*
X143507481Y-67082015D01*
X143368100Y-67175147D01*
X143213228Y-67239297D01*
X143048816Y-67272000D01*
X142881184Y-67272000D01*
X142716772Y-67239297D01*
X142561900Y-67175147D01*
X142422519Y-67082015D01*
X142303985Y-66963481D01*
X142210853Y-66824100D01*
X142146703Y-66669228D01*
X142114000Y-66504816D01*
X142114000Y-66337184D01*
X142146703Y-66172772D01*
X142210853Y-66017900D01*
X142303985Y-65878519D01*
X142422519Y-65759985D01*
X142561900Y-65666853D01*
X142716772Y-65602703D01*
X142881184Y-65570000D01*
X143048816Y-65570000D01*
X143213228Y-65602703D01*
X143213228Y-65602703D01*
G37*
G36*
X67394228Y-65602703D02*
X67549100Y-65666853D01*
X67688481Y-65759985D01*
X67807015Y-65878519D01*
X67900147Y-66017900D01*
X67964297Y-66172772D01*
X67997000Y-66337184D01*
X67997000Y-66504816D01*
X67964297Y-66669228D01*
X67900147Y-66824100D01*
X67807015Y-66963481D01*
X67688481Y-67082015D01*
X67549100Y-67175147D01*
X67394228Y-67239297D01*
X67229816Y-67272000D01*
X67062184Y-67272000D01*
X66897772Y-67239297D01*
X66742900Y-67175147D01*
X66603519Y-67082015D01*
X66484985Y-66963481D01*
X66391853Y-66824100D01*
X66327703Y-66669228D01*
X66295000Y-66504816D01*
X66295000Y-66337184D01*
X66327703Y-66172772D01*
X66391853Y-66017900D01*
X66484985Y-65878519D01*
X66603519Y-65759985D01*
X66742900Y-65666853D01*
X66897772Y-65602703D01*
X67062184Y-65570000D01*
X67229816Y-65570000D01*
X67394228Y-65602703D01*
X67394228Y-65602703D01*
G37*
G36*
X60197000Y-67272000D02*
X58495000Y-67272000D01*
X58495000Y-65570000D01*
X60197000Y-65570000D01*
X60197000Y-67272000D01*
X60197000Y-67272000D01*
G37*
G36*
X45931228Y-65602703D02*
X46086100Y-65666853D01*
X46225481Y-65759985D01*
X46344015Y-65878519D01*
X46437147Y-66017900D01*
X46501297Y-66172772D01*
X46534000Y-66337184D01*
X46534000Y-66504816D01*
X46501297Y-66669228D01*
X46437147Y-66824100D01*
X46344015Y-66963481D01*
X46225481Y-67082015D01*
X46086100Y-67175147D01*
X45931228Y-67239297D01*
X45766816Y-67272000D01*
X45599184Y-67272000D01*
X45434772Y-67239297D01*
X45279900Y-67175147D01*
X45140519Y-67082015D01*
X45021985Y-66963481D01*
X44928853Y-66824100D01*
X44864703Y-66669228D01*
X44832000Y-66504816D01*
X44832000Y-66337184D01*
X44864703Y-66172772D01*
X44928853Y-66017900D01*
X45021985Y-65878519D01*
X45140519Y-65759985D01*
X45279900Y-65666853D01*
X45434772Y-65602703D01*
X45599184Y-65570000D01*
X45766816Y-65570000D01*
X45931228Y-65602703D01*
X45931228Y-65602703D01*
G37*
G36*
X38734000Y-67272000D02*
X37032000Y-67272000D01*
X37032000Y-65570000D01*
X38734000Y-65570000D01*
X38734000Y-67272000D01*
X38734000Y-67272000D01*
G37*
G36*
X254602277Y-53461885D02*
X254819572Y-53551891D01*
X255015131Y-53682560D01*
X255181440Y-53848869D01*
X255312109Y-54044428D01*
X255402115Y-54261723D01*
X255448000Y-54492401D01*
X255448000Y-54727599D01*
X255402115Y-54958277D01*
X255312109Y-55175572D01*
X255181440Y-55371131D01*
X255015131Y-55537440D01*
X254819572Y-55668109D01*
X254602277Y-55758115D01*
X254371599Y-55804000D01*
X254136401Y-55804000D01*
X253905723Y-55758115D01*
X253688428Y-55668109D01*
X253492869Y-55537440D01*
X253326560Y-55371131D01*
X253195891Y-55175572D01*
X253105885Y-54958277D01*
X253060000Y-54727599D01*
X253060000Y-54492401D01*
X253105885Y-54261723D01*
X253195891Y-54044428D01*
X253326560Y-53848869D01*
X253492869Y-53682560D01*
X253688428Y-53551891D01*
X253905723Y-53461885D01*
X254136401Y-53416000D01*
X254371599Y-53416000D01*
X254602277Y-53461885D01*
X254602277Y-53461885D01*
G37*
G36*
X230726277Y-53461885D02*
X230943572Y-53551891D01*
X231139131Y-53682560D01*
X231305440Y-53848869D01*
X231436109Y-54044428D01*
X231526115Y-54261723D01*
X231572000Y-54492401D01*
X231572000Y-54727599D01*
X231526115Y-54958277D01*
X231436109Y-55175572D01*
X231305440Y-55371131D01*
X231139131Y-55537440D01*
X230943572Y-55668109D01*
X230726277Y-55758115D01*
X230495599Y-55804000D01*
X230260401Y-55804000D01*
X230029723Y-55758115D01*
X229812428Y-55668109D01*
X229616869Y-55537440D01*
X229450560Y-55371131D01*
X229319891Y-55175572D01*
X229229885Y-54958277D01*
X229184000Y-54727599D01*
X229184000Y-54492401D01*
X229229885Y-54261723D01*
X229319891Y-54044428D01*
X229450560Y-53848869D01*
X229616869Y-53682560D01*
X229812428Y-53551891D01*
X230029723Y-53461885D01*
X230260401Y-53416000D01*
X230495599Y-53416000D01*
X230726277Y-53461885D01*
X230726277Y-53461885D01*
G37*
G36*
X211676277Y-53461885D02*
X211893572Y-53551891D01*
X212089131Y-53682560D01*
X212255440Y-53848869D01*
X212386109Y-54044428D01*
X212476115Y-54261723D01*
X212522000Y-54492401D01*
X212522000Y-54727599D01*
X212476115Y-54958277D01*
X212386109Y-55175572D01*
X212255440Y-55371131D01*
X212089131Y-55537440D01*
X211893572Y-55668109D01*
X211676277Y-55758115D01*
X211445599Y-55804000D01*
X211210401Y-55804000D01*
X210979723Y-55758115D01*
X210762428Y-55668109D01*
X210566869Y-55537440D01*
X210400560Y-55371131D01*
X210269891Y-55175572D01*
X210179885Y-54958277D01*
X210134000Y-54727599D01*
X210134000Y-54492401D01*
X210179885Y-54261723D01*
X210269891Y-54044428D01*
X210400560Y-53848869D01*
X210566869Y-53682560D01*
X210762428Y-53551891D01*
X210979723Y-53461885D01*
X211210401Y-53416000D01*
X211445599Y-53416000D01*
X211676277Y-53461885D01*
X211676277Y-53461885D01*
G37*
G36*
X192626277Y-53461885D02*
X192843572Y-53551891D01*
X193039131Y-53682560D01*
X193205440Y-53848869D01*
X193336109Y-54044428D01*
X193426115Y-54261723D01*
X193472000Y-54492401D01*
X193472000Y-54727599D01*
X193426115Y-54958277D01*
X193336109Y-55175572D01*
X193205440Y-55371131D01*
X193039131Y-55537440D01*
X192843572Y-55668109D01*
X192626277Y-55758115D01*
X192395599Y-55804000D01*
X192160401Y-55804000D01*
X191929723Y-55758115D01*
X191712428Y-55668109D01*
X191516869Y-55537440D01*
X191350560Y-55371131D01*
X191219891Y-55175572D01*
X191129885Y-54958277D01*
X191084000Y-54727599D01*
X191084000Y-54492401D01*
X191129885Y-54261723D01*
X191219891Y-54044428D01*
X191350560Y-53848869D01*
X191516869Y-53682560D01*
X191712428Y-53551891D01*
X191929723Y-53461885D01*
X192160401Y-53416000D01*
X192395599Y-53416000D01*
X192626277Y-53461885D01*
X192626277Y-53461885D01*
G37*
G36*
X173576277Y-53461885D02*
X173793572Y-53551891D01*
X173989131Y-53682560D01*
X174155440Y-53848869D01*
X174286109Y-54044428D01*
X174376115Y-54261723D01*
X174422000Y-54492401D01*
X174422000Y-54727599D01*
X174376115Y-54958277D01*
X174286109Y-55175572D01*
X174155440Y-55371131D01*
X173989131Y-55537440D01*
X173793572Y-55668109D01*
X173576277Y-55758115D01*
X173345599Y-55804000D01*
X173110401Y-55804000D01*
X172879723Y-55758115D01*
X172662428Y-55668109D01*
X172466869Y-55537440D01*
X172300560Y-55371131D01*
X172169891Y-55175572D01*
X172079885Y-54958277D01*
X172034000Y-54727599D01*
X172034000Y-54492401D01*
X172079885Y-54261723D01*
X172169891Y-54044428D01*
X172300560Y-53848869D01*
X172466869Y-53682560D01*
X172662428Y-53551891D01*
X172879723Y-53461885D01*
X173110401Y-53416000D01*
X173345599Y-53416000D01*
X173576277Y-53461885D01*
X173576277Y-53461885D01*
G37*
G36*
X154526277Y-53461885D02*
X154743572Y-53551891D01*
X154939131Y-53682560D01*
X155105440Y-53848869D01*
X155236109Y-54044428D01*
X155326115Y-54261723D01*
X155372000Y-54492401D01*
X155372000Y-54727599D01*
X155326115Y-54958277D01*
X155236109Y-55175572D01*
X155105440Y-55371131D01*
X154939131Y-55537440D01*
X154743572Y-55668109D01*
X154526277Y-55758115D01*
X154295599Y-55804000D01*
X154060401Y-55804000D01*
X153829723Y-55758115D01*
X153612428Y-55668109D01*
X153416869Y-55537440D01*
X153250560Y-55371131D01*
X153119891Y-55175572D01*
X153029885Y-54958277D01*
X152984000Y-54727599D01*
X152984000Y-54492401D01*
X153029885Y-54261723D01*
X153119891Y-54044428D01*
X153250560Y-53848869D01*
X153416869Y-53682560D01*
X153612428Y-53551891D01*
X153829723Y-53461885D01*
X154060401Y-53416000D01*
X154295599Y-53416000D01*
X154526277Y-53461885D01*
X154526277Y-53461885D01*
G37*
G36*
X135476277Y-53461885D02*
X135693572Y-53551891D01*
X135889131Y-53682560D01*
X136055440Y-53848869D01*
X136186109Y-54044428D01*
X136276115Y-54261723D01*
X136322000Y-54492401D01*
X136322000Y-54727599D01*
X136276115Y-54958277D01*
X136186109Y-55175572D01*
X136055440Y-55371131D01*
X135889131Y-55537440D01*
X135693572Y-55668109D01*
X135476277Y-55758115D01*
X135245599Y-55804000D01*
X135010401Y-55804000D01*
X134779723Y-55758115D01*
X134562428Y-55668109D01*
X134366869Y-55537440D01*
X134200560Y-55371131D01*
X134069891Y-55175572D01*
X133979885Y-54958277D01*
X133934000Y-54727599D01*
X133934000Y-54492401D01*
X133979885Y-54261723D01*
X134069891Y-54044428D01*
X134200560Y-53848869D01*
X134366869Y-53682560D01*
X134562428Y-53551891D01*
X134779723Y-53461885D01*
X135010401Y-53416000D01*
X135245599Y-53416000D01*
X135476277Y-53461885D01*
X135476277Y-53461885D01*
G37*
G36*
X116680277Y-53461885D02*
X116897572Y-53551891D01*
X117093131Y-53682560D01*
X117259440Y-53848869D01*
X117390109Y-54044428D01*
X117480115Y-54261723D01*
X117526000Y-54492401D01*
X117526000Y-54727599D01*
X117480115Y-54958277D01*
X117390109Y-55175572D01*
X117259440Y-55371131D01*
X117093131Y-55537440D01*
X116897572Y-55668109D01*
X116680277Y-55758115D01*
X116449599Y-55804000D01*
X116214401Y-55804000D01*
X115983723Y-55758115D01*
X115766428Y-55668109D01*
X115570869Y-55537440D01*
X115404560Y-55371131D01*
X115273891Y-55175572D01*
X115183885Y-54958277D01*
X115138000Y-54727599D01*
X115138000Y-54492401D01*
X115183885Y-54261723D01*
X115273891Y-54044428D01*
X115404560Y-53848869D01*
X115570869Y-53682560D01*
X115766428Y-53551891D01*
X115983723Y-53461885D01*
X116214401Y-53416000D01*
X116449599Y-53416000D01*
X116680277Y-53461885D01*
X116680277Y-53461885D01*
G37*
G36*
X97630277Y-53461885D02*
X97847572Y-53551891D01*
X98043131Y-53682560D01*
X98209440Y-53848869D01*
X98340109Y-54044428D01*
X98430115Y-54261723D01*
X98476000Y-54492401D01*
X98476000Y-54727599D01*
X98430115Y-54958277D01*
X98340109Y-55175572D01*
X98209440Y-55371131D01*
X98043131Y-55537440D01*
X97847572Y-55668109D01*
X97630277Y-55758115D01*
X97399599Y-55804000D01*
X97164401Y-55804000D01*
X96933723Y-55758115D01*
X96716428Y-55668109D01*
X96520869Y-55537440D01*
X96354560Y-55371131D01*
X96223891Y-55175572D01*
X96133885Y-54958277D01*
X96088000Y-54727599D01*
X96088000Y-54492401D01*
X96133885Y-54261723D01*
X96223891Y-54044428D01*
X96354560Y-53848869D01*
X96520869Y-53682560D01*
X96716428Y-53551891D01*
X96933723Y-53461885D01*
X97164401Y-53416000D01*
X97399599Y-53416000D01*
X97630277Y-53461885D01*
X97630277Y-53461885D01*
G37*
G36*
X78580277Y-53461885D02*
X78797572Y-53551891D01*
X78993131Y-53682560D01*
X79159440Y-53848869D01*
X79290109Y-54044428D01*
X79380115Y-54261723D01*
X79426000Y-54492401D01*
X79426000Y-54727599D01*
X79380115Y-54958277D01*
X79290109Y-55175572D01*
X79159440Y-55371131D01*
X78993131Y-55537440D01*
X78797572Y-55668109D01*
X78580277Y-55758115D01*
X78349599Y-55804000D01*
X78114401Y-55804000D01*
X77883723Y-55758115D01*
X77666428Y-55668109D01*
X77470869Y-55537440D01*
X77304560Y-55371131D01*
X77173891Y-55175572D01*
X77083885Y-54958277D01*
X77038000Y-54727599D01*
X77038000Y-54492401D01*
X77083885Y-54261723D01*
X77173891Y-54044428D01*
X77304560Y-53848869D01*
X77470869Y-53682560D01*
X77666428Y-53551891D01*
X77883723Y-53461885D01*
X78114401Y-53416000D01*
X78349599Y-53416000D01*
X78580277Y-53461885D01*
X78580277Y-53461885D01*
G37*
G36*
X59530277Y-53461885D02*
X59747572Y-53551891D01*
X59943131Y-53682560D01*
X60109440Y-53848869D01*
X60240109Y-54044428D01*
X60330115Y-54261723D01*
X60376000Y-54492401D01*
X60376000Y-54727599D01*
X60330115Y-54958277D01*
X60240109Y-55175572D01*
X60109440Y-55371131D01*
X59943131Y-55537440D01*
X59747572Y-55668109D01*
X59530277Y-55758115D01*
X59299599Y-55804000D01*
X59064401Y-55804000D01*
X58833723Y-55758115D01*
X58616428Y-55668109D01*
X58420869Y-55537440D01*
X58254560Y-55371131D01*
X58123891Y-55175572D01*
X58033885Y-54958277D01*
X57988000Y-54727599D01*
X57988000Y-54492401D01*
X58033885Y-54261723D01*
X58123891Y-54044428D01*
X58254560Y-53848869D01*
X58420869Y-53682560D01*
X58616428Y-53551891D01*
X58833723Y-53461885D01*
X59064401Y-53416000D01*
X59299599Y-53416000D01*
X59530277Y-53461885D01*
X59530277Y-53461885D01*
G37*
G36*
X38448277Y-53461885D02*
X38665572Y-53551891D01*
X38861131Y-53682560D01*
X39027440Y-53848869D01*
X39158109Y-54044428D01*
X39248115Y-54261723D01*
X39294000Y-54492401D01*
X39294000Y-54727599D01*
X39248115Y-54958277D01*
X39158109Y-55175572D01*
X39027440Y-55371131D01*
X38861131Y-55537440D01*
X38665572Y-55668109D01*
X38448277Y-55758115D01*
X38217599Y-55804000D01*
X37982401Y-55804000D01*
X37751723Y-55758115D01*
X37534428Y-55668109D01*
X37338869Y-55537440D01*
X37172560Y-55371131D01*
X37041891Y-55175572D01*
X36951885Y-54958277D01*
X36906000Y-54727599D01*
X36906000Y-54492401D01*
X36951885Y-54261723D01*
X37041891Y-54044428D01*
X37172560Y-53848869D01*
X37338869Y-53682560D01*
X37534428Y-53551891D01*
X37751723Y-53461885D01*
X37982401Y-53416000D01*
X38217599Y-53416000D01*
X38448277Y-53461885D01*
X38448277Y-53461885D01*
G37*
G36*
X237076277Y-50921885D02*
X237293572Y-51011891D01*
X237489131Y-51142560D01*
X237655440Y-51308869D01*
X237786109Y-51504428D01*
X237876115Y-51721723D01*
X237922000Y-51952401D01*
X237922000Y-52187599D01*
X237876115Y-52418277D01*
X237786109Y-52635572D01*
X237655440Y-52831131D01*
X237489131Y-52997440D01*
X237293572Y-53128109D01*
X237076277Y-53218115D01*
X236845599Y-53264000D01*
X236610401Y-53264000D01*
X236379723Y-53218115D01*
X236162428Y-53128109D01*
X235966869Y-52997440D01*
X235800560Y-52831131D01*
X235669891Y-52635572D01*
X235579885Y-52418277D01*
X235534000Y-52187599D01*
X235534000Y-51952401D01*
X235579885Y-51721723D01*
X235669891Y-51504428D01*
X235800560Y-51308869D01*
X235966869Y-51142560D01*
X236162428Y-51011891D01*
X236379723Y-50921885D01*
X236610401Y-50876000D01*
X236845599Y-50876000D01*
X237076277Y-50921885D01*
X237076277Y-50921885D01*
G37*
G36*
X179926277Y-50921885D02*
X180143572Y-51011891D01*
X180339131Y-51142560D01*
X180505440Y-51308869D01*
X180636109Y-51504428D01*
X180726115Y-51721723D01*
X180772000Y-51952401D01*
X180772000Y-52187599D01*
X180726115Y-52418277D01*
X180636109Y-52635572D01*
X180505440Y-52831131D01*
X180339131Y-52997440D01*
X180143572Y-53128109D01*
X179926277Y-53218115D01*
X179695599Y-53264000D01*
X179460401Y-53264000D01*
X179229723Y-53218115D01*
X179012428Y-53128109D01*
X178816869Y-52997440D01*
X178650560Y-52831131D01*
X178519891Y-52635572D01*
X178429885Y-52418277D01*
X178384000Y-52187599D01*
X178384000Y-51952401D01*
X178429885Y-51721723D01*
X178519891Y-51504428D01*
X178650560Y-51308869D01*
X178816869Y-51142560D01*
X179012428Y-51011891D01*
X179229723Y-50921885D01*
X179460401Y-50876000D01*
X179695599Y-50876000D01*
X179926277Y-50921885D01*
X179926277Y-50921885D01*
G37*
G36*
X44798277Y-50921885D02*
X45015572Y-51011891D01*
X45211131Y-51142560D01*
X45377440Y-51308869D01*
X45508109Y-51504428D01*
X45598115Y-51721723D01*
X45644000Y-51952401D01*
X45644000Y-52187599D01*
X45598115Y-52418277D01*
X45508109Y-52635572D01*
X45377440Y-52831131D01*
X45211131Y-52997440D01*
X45015572Y-53128109D01*
X44798277Y-53218115D01*
X44567599Y-53264000D01*
X44332401Y-53264000D01*
X44101723Y-53218115D01*
X43884428Y-53128109D01*
X43688869Y-52997440D01*
X43522560Y-52831131D01*
X43391891Y-52635572D01*
X43301885Y-52418277D01*
X43256000Y-52187599D01*
X43256000Y-51952401D01*
X43301885Y-51721723D01*
X43391891Y-51504428D01*
X43522560Y-51308869D01*
X43688869Y-51142560D01*
X43884428Y-51011891D01*
X44101723Y-50921885D01*
X44332401Y-50876000D01*
X44567599Y-50876000D01*
X44798277Y-50921885D01*
X44798277Y-50921885D01*
G37*
G36*
X65880277Y-50921885D02*
X66097572Y-51011891D01*
X66293131Y-51142560D01*
X66459440Y-51308869D01*
X66590109Y-51504428D01*
X66680115Y-51721723D01*
X66726000Y-51952401D01*
X66726000Y-52187599D01*
X66680115Y-52418277D01*
X66590109Y-52635572D01*
X66459440Y-52831131D01*
X66293131Y-52997440D01*
X66097572Y-53128109D01*
X65880277Y-53218115D01*
X65649599Y-53264000D01*
X65414401Y-53264000D01*
X65183723Y-53218115D01*
X64966428Y-53128109D01*
X64770869Y-52997440D01*
X64604560Y-52831131D01*
X64473891Y-52635572D01*
X64383885Y-52418277D01*
X64338000Y-52187599D01*
X64338000Y-51952401D01*
X64383885Y-51721723D01*
X64473891Y-51504428D01*
X64604560Y-51308869D01*
X64770869Y-51142560D01*
X64966428Y-51011891D01*
X65183723Y-50921885D01*
X65414401Y-50876000D01*
X65649599Y-50876000D01*
X65880277Y-50921885D01*
X65880277Y-50921885D01*
G37*
G36*
X84930277Y-50921885D02*
X85147572Y-51011891D01*
X85343131Y-51142560D01*
X85509440Y-51308869D01*
X85640109Y-51504428D01*
X85730115Y-51721723D01*
X85776000Y-51952401D01*
X85776000Y-52187599D01*
X85730115Y-52418277D01*
X85640109Y-52635572D01*
X85509440Y-52831131D01*
X85343131Y-52997440D01*
X85147572Y-53128109D01*
X84930277Y-53218115D01*
X84699599Y-53264000D01*
X84464401Y-53264000D01*
X84233723Y-53218115D01*
X84016428Y-53128109D01*
X83820869Y-52997440D01*
X83654560Y-52831131D01*
X83523891Y-52635572D01*
X83433885Y-52418277D01*
X83388000Y-52187599D01*
X83388000Y-51952401D01*
X83433885Y-51721723D01*
X83523891Y-51504428D01*
X83654560Y-51308869D01*
X83820869Y-51142560D01*
X84016428Y-51011891D01*
X84233723Y-50921885D01*
X84464401Y-50876000D01*
X84699599Y-50876000D01*
X84930277Y-50921885D01*
X84930277Y-50921885D01*
G37*
G36*
X260952277Y-50921885D02*
X261169572Y-51011891D01*
X261365131Y-51142560D01*
X261531440Y-51308869D01*
X261662109Y-51504428D01*
X261752115Y-51721723D01*
X261798000Y-51952401D01*
X261798000Y-52187599D01*
X261752115Y-52418277D01*
X261662109Y-52635572D01*
X261531440Y-52831131D01*
X261365131Y-52997440D01*
X261169572Y-53128109D01*
X260952277Y-53218115D01*
X260721599Y-53264000D01*
X260486401Y-53264000D01*
X260255723Y-53218115D01*
X260038428Y-53128109D01*
X259842869Y-52997440D01*
X259676560Y-52831131D01*
X259545891Y-52635572D01*
X259455885Y-52418277D01*
X259410000Y-52187599D01*
X259410000Y-51952401D01*
X259455885Y-51721723D01*
X259545891Y-51504428D01*
X259676560Y-51308869D01*
X259842869Y-51142560D01*
X260038428Y-51011891D01*
X260255723Y-50921885D01*
X260486401Y-50876000D01*
X260721599Y-50876000D01*
X260952277Y-50921885D01*
X260952277Y-50921885D01*
G37*
G36*
X103980277Y-50921885D02*
X104197572Y-51011891D01*
X104393131Y-51142560D01*
X104559440Y-51308869D01*
X104690109Y-51504428D01*
X104780115Y-51721723D01*
X104826000Y-51952401D01*
X104826000Y-52187599D01*
X104780115Y-52418277D01*
X104690109Y-52635572D01*
X104559440Y-52831131D01*
X104393131Y-52997440D01*
X104197572Y-53128109D01*
X103980277Y-53218115D01*
X103749599Y-53264000D01*
X103514401Y-53264000D01*
X103283723Y-53218115D01*
X103066428Y-53128109D01*
X102870869Y-52997440D01*
X102704560Y-52831131D01*
X102573891Y-52635572D01*
X102483885Y-52418277D01*
X102438000Y-52187599D01*
X102438000Y-51952401D01*
X102483885Y-51721723D01*
X102573891Y-51504428D01*
X102704560Y-51308869D01*
X102870869Y-51142560D01*
X103066428Y-51011891D01*
X103283723Y-50921885D01*
X103514401Y-50876000D01*
X103749599Y-50876000D01*
X103980277Y-50921885D01*
X103980277Y-50921885D01*
G37*
G36*
X218026277Y-50921885D02*
X218243572Y-51011891D01*
X218439131Y-51142560D01*
X218605440Y-51308869D01*
X218736109Y-51504428D01*
X218826115Y-51721723D01*
X218872000Y-51952401D01*
X218872000Y-52187599D01*
X218826115Y-52418277D01*
X218736109Y-52635572D01*
X218605440Y-52831131D01*
X218439131Y-52997440D01*
X218243572Y-53128109D01*
X218026277Y-53218115D01*
X217795599Y-53264000D01*
X217560401Y-53264000D01*
X217329723Y-53218115D01*
X217112428Y-53128109D01*
X216916869Y-52997440D01*
X216750560Y-52831131D01*
X216619891Y-52635572D01*
X216529885Y-52418277D01*
X216484000Y-52187599D01*
X216484000Y-51952401D01*
X216529885Y-51721723D01*
X216619891Y-51504428D01*
X216750560Y-51308869D01*
X216916869Y-51142560D01*
X217112428Y-51011891D01*
X217329723Y-50921885D01*
X217560401Y-50876000D01*
X217795599Y-50876000D01*
X218026277Y-50921885D01*
X218026277Y-50921885D01*
G37*
G36*
X198976277Y-50921885D02*
X199193572Y-51011891D01*
X199389131Y-51142560D01*
X199555440Y-51308869D01*
X199686109Y-51504428D01*
X199776115Y-51721723D01*
X199822000Y-51952401D01*
X199822000Y-52187599D01*
X199776115Y-52418277D01*
X199686109Y-52635572D01*
X199555440Y-52831131D01*
X199389131Y-52997440D01*
X199193572Y-53128109D01*
X198976277Y-53218115D01*
X198745599Y-53264000D01*
X198510401Y-53264000D01*
X198279723Y-53218115D01*
X198062428Y-53128109D01*
X197866869Y-52997440D01*
X197700560Y-52831131D01*
X197569891Y-52635572D01*
X197479885Y-52418277D01*
X197434000Y-52187599D01*
X197434000Y-51952401D01*
X197479885Y-51721723D01*
X197569891Y-51504428D01*
X197700560Y-51308869D01*
X197866869Y-51142560D01*
X198062428Y-51011891D01*
X198279723Y-50921885D01*
X198510401Y-50876000D01*
X198745599Y-50876000D01*
X198976277Y-50921885D01*
X198976277Y-50921885D01*
G37*
G36*
X123030277Y-50921885D02*
X123247572Y-51011891D01*
X123443131Y-51142560D01*
X123609440Y-51308869D01*
X123740109Y-51504428D01*
X123830115Y-51721723D01*
X123876000Y-51952401D01*
X123876000Y-52187599D01*
X123830115Y-52418277D01*
X123740109Y-52635572D01*
X123609440Y-52831131D01*
X123443131Y-52997440D01*
X123247572Y-53128109D01*
X123030277Y-53218115D01*
X122799599Y-53264000D01*
X122564401Y-53264000D01*
X122333723Y-53218115D01*
X122116428Y-53128109D01*
X121920869Y-52997440D01*
X121754560Y-52831131D01*
X121623891Y-52635572D01*
X121533885Y-52418277D01*
X121488000Y-52187599D01*
X121488000Y-51952401D01*
X121533885Y-51721723D01*
X121623891Y-51504428D01*
X121754560Y-51308869D01*
X121920869Y-51142560D01*
X122116428Y-51011891D01*
X122333723Y-50921885D01*
X122564401Y-50876000D01*
X122799599Y-50876000D01*
X123030277Y-50921885D01*
X123030277Y-50921885D01*
G37*
G36*
X160876277Y-50921885D02*
X161093572Y-51011891D01*
X161289131Y-51142560D01*
X161455440Y-51308869D01*
X161586109Y-51504428D01*
X161676115Y-51721723D01*
X161722000Y-51952401D01*
X161722000Y-52187599D01*
X161676115Y-52418277D01*
X161586109Y-52635572D01*
X161455440Y-52831131D01*
X161289131Y-52997440D01*
X161093572Y-53128109D01*
X160876277Y-53218115D01*
X160645599Y-53264000D01*
X160410401Y-53264000D01*
X160179723Y-53218115D01*
X159962428Y-53128109D01*
X159766869Y-52997440D01*
X159600560Y-52831131D01*
X159469891Y-52635572D01*
X159379885Y-52418277D01*
X159334000Y-52187599D01*
X159334000Y-51952401D01*
X159379885Y-51721723D01*
X159469891Y-51504428D01*
X159600560Y-51308869D01*
X159766869Y-51142560D01*
X159962428Y-51011891D01*
X160179723Y-50921885D01*
X160410401Y-50876000D01*
X160645599Y-50876000D01*
X160876277Y-50921885D01*
X160876277Y-50921885D01*
G37*
G36*
X141826277Y-50921885D02*
X142043572Y-51011891D01*
X142239131Y-51142560D01*
X142405440Y-51308869D01*
X142536109Y-51504428D01*
X142626115Y-51721723D01*
X142672000Y-51952401D01*
X142672000Y-52187599D01*
X142626115Y-52418277D01*
X142536109Y-52635572D01*
X142405440Y-52831131D01*
X142239131Y-52997440D01*
X142043572Y-53128109D01*
X141826277Y-53218115D01*
X141595599Y-53264000D01*
X141360401Y-53264000D01*
X141129723Y-53218115D01*
X140912428Y-53128109D01*
X140716869Y-52997440D01*
X140550560Y-52831131D01*
X140419891Y-52635572D01*
X140329885Y-52418277D01*
X140284000Y-52187599D01*
X140284000Y-51952401D01*
X140329885Y-51721723D01*
X140419891Y-51504428D01*
X140550560Y-51308869D01*
X140716869Y-51142560D01*
X140912428Y-51011891D01*
X141129723Y-50921885D01*
X141360401Y-50876000D01*
X141595599Y-50876000D01*
X141826277Y-50921885D01*
X141826277Y-50921885D01*
G37*
G36*
X93217000Y-48603000D02*
X91515000Y-48603000D01*
X91515000Y-46901000D01*
X93217000Y-46901000D01*
X93217000Y-48603000D01*
X93217000Y-48603000D01*
G37*
G36*
X100414228Y-46933703D02*
X100569100Y-46997853D01*
X100708481Y-47090985D01*
X100827015Y-47209519D01*
X100920147Y-47348900D01*
X100984297Y-47503772D01*
X101017000Y-47668184D01*
X101017000Y-47835816D01*
X100984297Y-48000228D01*
X100920147Y-48155100D01*
X100827015Y-48294481D01*
X100708481Y-48413015D01*
X100569100Y-48506147D01*
X100414228Y-48570297D01*
X100249816Y-48603000D01*
X100082184Y-48603000D01*
X99917772Y-48570297D01*
X99762900Y-48506147D01*
X99623519Y-48413015D01*
X99504985Y-48294481D01*
X99411853Y-48155100D01*
X99347703Y-48000228D01*
X99315000Y-47835816D01*
X99315000Y-47668184D01*
X99347703Y-47503772D01*
X99411853Y-47348900D01*
X99504985Y-47209519D01*
X99623519Y-47090985D01*
X99762900Y-46997853D01*
X99917772Y-46933703D01*
X100082184Y-46901000D01*
X100249816Y-46901000D01*
X100414228Y-46933703D01*
X100414228Y-46933703D01*
G37*
G36*
X112902000Y-48476000D02*
X111200000Y-48476000D01*
X111200000Y-46774000D01*
X112902000Y-46774000D01*
X112902000Y-48476000D01*
X112902000Y-48476000D01*
G37*
G36*
X120099228Y-46806703D02*
X120254100Y-46870853D01*
X120393481Y-46963985D01*
X120512015Y-47082519D01*
X120605147Y-47221900D01*
X120669297Y-47376772D01*
X120702000Y-47541184D01*
X120702000Y-47708816D01*
X120669297Y-47873228D01*
X120605147Y-48028100D01*
X120512015Y-48167481D01*
X120393481Y-48286015D01*
X120254100Y-48379147D01*
X120099228Y-48443297D01*
X119934816Y-48476000D01*
X119767184Y-48476000D01*
X119602772Y-48443297D01*
X119447900Y-48379147D01*
X119308519Y-48286015D01*
X119189985Y-48167481D01*
X119096853Y-48028100D01*
X119032703Y-47873228D01*
X119000000Y-47708816D01*
X119000000Y-47541184D01*
X119032703Y-47376772D01*
X119096853Y-47221900D01*
X119189985Y-47082519D01*
X119308519Y-46963985D01*
X119447900Y-46870853D01*
X119602772Y-46806703D01*
X119767184Y-46774000D01*
X119934816Y-46774000D01*
X120099228Y-46806703D01*
X120099228Y-46806703D01*
G37*
G36*
X131825000Y-48476000D02*
X130123000Y-48476000D01*
X130123000Y-46774000D01*
X131825000Y-46774000D01*
X131825000Y-48476000D01*
X131825000Y-48476000D01*
G37*
G36*
X139022228Y-46806703D02*
X139177100Y-46870853D01*
X139316481Y-46963985D01*
X139435015Y-47082519D01*
X139528147Y-47221900D01*
X139592297Y-47376772D01*
X139625000Y-47541184D01*
X139625000Y-47708816D01*
X139592297Y-47873228D01*
X139528147Y-48028100D01*
X139435015Y-48167481D01*
X139316481Y-48286015D01*
X139177100Y-48379147D01*
X139022228Y-48443297D01*
X138857816Y-48476000D01*
X138690184Y-48476000D01*
X138525772Y-48443297D01*
X138370900Y-48379147D01*
X138231519Y-48286015D01*
X138112985Y-48167481D01*
X138019853Y-48028100D01*
X137955703Y-47873228D01*
X137923000Y-47708816D01*
X137923000Y-47541184D01*
X137955703Y-47376772D01*
X138019853Y-47221900D01*
X138112985Y-47082519D01*
X138231519Y-46963985D01*
X138370900Y-46870853D01*
X138525772Y-46806703D01*
X138690184Y-46774000D01*
X138857816Y-46774000D01*
X139022228Y-46806703D01*
X139022228Y-46806703D01*
G37*
G36*
X56133000Y-48476000D02*
X54431000Y-48476000D01*
X54431000Y-46774000D01*
X56133000Y-46774000D01*
X56133000Y-48476000D01*
X56133000Y-48476000D01*
G37*
G36*
X43772228Y-46806703D02*
X43927100Y-46870853D01*
X44066481Y-46963985D01*
X44185015Y-47082519D01*
X44278147Y-47221900D01*
X44342297Y-47376772D01*
X44375000Y-47541184D01*
X44375000Y-47708816D01*
X44342297Y-47873228D01*
X44278147Y-48028100D01*
X44185015Y-48167481D01*
X44066481Y-48286015D01*
X43927100Y-48379147D01*
X43772228Y-48443297D01*
X43607816Y-48476000D01*
X43440184Y-48476000D01*
X43275772Y-48443297D01*
X43120900Y-48379147D01*
X42981519Y-48286015D01*
X42862985Y-48167481D01*
X42769853Y-48028100D01*
X42705703Y-47873228D01*
X42673000Y-47708816D01*
X42673000Y-47541184D01*
X42705703Y-47376772D01*
X42769853Y-47221900D01*
X42862985Y-47082519D01*
X42981519Y-46963985D01*
X43120900Y-46870853D01*
X43275772Y-46806703D01*
X43440184Y-46774000D01*
X43607816Y-46774000D01*
X43772228Y-46806703D01*
X43772228Y-46806703D01*
G37*
G36*
X177503228Y-46806703D02*
X177658100Y-46870853D01*
X177797481Y-46963985D01*
X177916015Y-47082519D01*
X178009147Y-47221900D01*
X178073297Y-47376772D01*
X178106000Y-47541184D01*
X178106000Y-47708816D01*
X178073297Y-47873228D01*
X178009147Y-48028100D01*
X177916015Y-48167481D01*
X177797481Y-48286015D01*
X177658100Y-48379147D01*
X177503228Y-48443297D01*
X177338816Y-48476000D01*
X177171184Y-48476000D01*
X177006772Y-48443297D01*
X176851900Y-48379147D01*
X176712519Y-48286015D01*
X176593985Y-48167481D01*
X176500853Y-48028100D01*
X176436703Y-47873228D01*
X176404000Y-47708816D01*
X176404000Y-47541184D01*
X176436703Y-47376772D01*
X176500853Y-47221900D01*
X176593985Y-47082519D01*
X176712519Y-46963985D01*
X176851900Y-46870853D01*
X177006772Y-46806703D01*
X177171184Y-46774000D01*
X177338816Y-46774000D01*
X177503228Y-46806703D01*
X177503228Y-46806703D01*
G37*
G36*
X36575000Y-48476000D02*
X34873000Y-48476000D01*
X34873000Y-46774000D01*
X36575000Y-46774000D01*
X36575000Y-48476000D01*
X36575000Y-48476000D01*
G37*
G36*
X170306000Y-48476000D02*
X168604000Y-48476000D01*
X168604000Y-46774000D01*
X170306000Y-46774000D01*
X170306000Y-48476000D01*
X170306000Y-48476000D01*
G37*
G36*
X63330228Y-46806703D02*
X63485100Y-46870853D01*
X63624481Y-46963985D01*
X63743015Y-47082519D01*
X63836147Y-47221900D01*
X63900297Y-47376772D01*
X63933000Y-47541184D01*
X63933000Y-47708816D01*
X63900297Y-47873228D01*
X63836147Y-48028100D01*
X63743015Y-48167481D01*
X63624481Y-48286015D01*
X63485100Y-48379147D01*
X63330228Y-48443297D01*
X63165816Y-48476000D01*
X62998184Y-48476000D01*
X62833772Y-48443297D01*
X62678900Y-48379147D01*
X62539519Y-48286015D01*
X62420985Y-48167481D01*
X62327853Y-48028100D01*
X62263703Y-47873228D01*
X62231000Y-47708816D01*
X62231000Y-47541184D01*
X62263703Y-47376772D01*
X62327853Y-47221900D01*
X62420985Y-47082519D01*
X62539519Y-46963985D01*
X62678900Y-46870853D01*
X62833772Y-46806703D01*
X62998184Y-46774000D01*
X63165816Y-46774000D01*
X63330228Y-46806703D01*
X63330228Y-46806703D01*
G37*
G36*
X82761228Y-46806703D02*
X82916100Y-46870853D01*
X83055481Y-46963985D01*
X83174015Y-47082519D01*
X83267147Y-47221900D01*
X83331297Y-47376772D01*
X83364000Y-47541184D01*
X83364000Y-47708816D01*
X83331297Y-47873228D01*
X83267147Y-48028100D01*
X83174015Y-48167481D01*
X83055481Y-48286015D01*
X82916100Y-48379147D01*
X82761228Y-48443297D01*
X82596816Y-48476000D01*
X82429184Y-48476000D01*
X82264772Y-48443297D01*
X82109900Y-48379147D01*
X81970519Y-48286015D01*
X81851985Y-48167481D01*
X81758853Y-48028100D01*
X81694703Y-47873228D01*
X81662000Y-47708816D01*
X81662000Y-47541184D01*
X81694703Y-47376772D01*
X81758853Y-47221900D01*
X81851985Y-47082519D01*
X81970519Y-46963985D01*
X82109900Y-46870853D01*
X82264772Y-46806703D01*
X82429184Y-46774000D01*
X82596816Y-46774000D01*
X82761228Y-46806703D01*
X82761228Y-46806703D01*
G37*
G36*
X75564000Y-48476000D02*
X73862000Y-48476000D01*
X73862000Y-46774000D01*
X75564000Y-46774000D01*
X75564000Y-48476000D01*
X75564000Y-48476000D01*
G37*
G36*
X207390000Y-48476000D02*
X205688000Y-48476000D01*
X205688000Y-46774000D01*
X207390000Y-46774000D01*
X207390000Y-48476000D01*
X207390000Y-48476000D01*
G37*
G36*
X214587228Y-46806703D02*
X214742100Y-46870853D01*
X214881481Y-46963985D01*
X215000015Y-47082519D01*
X215093147Y-47221900D01*
X215157297Y-47376772D01*
X215190000Y-47541184D01*
X215190000Y-47708816D01*
X215157297Y-47873228D01*
X215093147Y-48028100D01*
X215000015Y-48167481D01*
X214881481Y-48286015D01*
X214742100Y-48379147D01*
X214587228Y-48443297D01*
X214422816Y-48476000D01*
X214255184Y-48476000D01*
X214090772Y-48443297D01*
X213935900Y-48379147D01*
X213796519Y-48286015D01*
X213677985Y-48167481D01*
X213584853Y-48028100D01*
X213520703Y-47873228D01*
X213488000Y-47708816D01*
X213488000Y-47541184D01*
X213520703Y-47376772D01*
X213584853Y-47221900D01*
X213677985Y-47082519D01*
X213796519Y-46963985D01*
X213935900Y-46870853D01*
X214090772Y-46806703D01*
X214255184Y-46774000D01*
X214422816Y-46774000D01*
X214587228Y-46806703D01*
X214587228Y-46806703D01*
G37*
G36*
X233383228Y-46806703D02*
X233538100Y-46870853D01*
X233677481Y-46963985D01*
X233796015Y-47082519D01*
X233889147Y-47221900D01*
X233953297Y-47376772D01*
X233986000Y-47541184D01*
X233986000Y-47708816D01*
X233953297Y-47873228D01*
X233889147Y-48028100D01*
X233796015Y-48167481D01*
X233677481Y-48286015D01*
X233538100Y-48379147D01*
X233383228Y-48443297D01*
X233218816Y-48476000D01*
X233051184Y-48476000D01*
X232886772Y-48443297D01*
X232731900Y-48379147D01*
X232592519Y-48286015D01*
X232473985Y-48167481D01*
X232380853Y-48028100D01*
X232316703Y-47873228D01*
X232284000Y-47708816D01*
X232284000Y-47541184D01*
X232316703Y-47376772D01*
X232380853Y-47221900D01*
X232473985Y-47082519D01*
X232592519Y-46963985D01*
X232731900Y-46870853D01*
X232886772Y-46806703D01*
X233051184Y-46774000D01*
X233218816Y-46774000D01*
X233383228Y-46806703D01*
X233383228Y-46806703D01*
G37*
G36*
X226186000Y-48476000D02*
X224484000Y-48476000D01*
X224484000Y-46774000D01*
X226186000Y-46774000D01*
X226186000Y-48476000D01*
X226186000Y-48476000D01*
G37*
G36*
X260180228Y-46806703D02*
X260335100Y-46870853D01*
X260474481Y-46963985D01*
X260593015Y-47082519D01*
X260686147Y-47221900D01*
X260750297Y-47376772D01*
X260783000Y-47541184D01*
X260783000Y-47708816D01*
X260750297Y-47873228D01*
X260686147Y-48028100D01*
X260593015Y-48167481D01*
X260474481Y-48286015D01*
X260335100Y-48379147D01*
X260180228Y-48443297D01*
X260015816Y-48476000D01*
X259848184Y-48476000D01*
X259683772Y-48443297D01*
X259528900Y-48379147D01*
X259389519Y-48286015D01*
X259270985Y-48167481D01*
X259177853Y-48028100D01*
X259113703Y-47873228D01*
X259081000Y-47708816D01*
X259081000Y-47541184D01*
X259113703Y-47376772D01*
X259177853Y-47221900D01*
X259270985Y-47082519D01*
X259389519Y-46963985D01*
X259528900Y-46870853D01*
X259683772Y-46806703D01*
X259848184Y-46774000D01*
X260015816Y-46774000D01*
X260180228Y-46806703D01*
X260180228Y-46806703D01*
G37*
G36*
X252983000Y-48476000D02*
X251281000Y-48476000D01*
X251281000Y-46774000D01*
X252983000Y-46774000D01*
X252983000Y-48476000D01*
X252983000Y-48476000D01*
G37*
G36*
X195791228Y-46679703D02*
X195946100Y-46743853D01*
X196085481Y-46836985D01*
X196204015Y-46955519D01*
X196297147Y-47094900D01*
X196361297Y-47249772D01*
X196394000Y-47414184D01*
X196394000Y-47581816D01*
X196361297Y-47746228D01*
X196297147Y-47901100D01*
X196204015Y-48040481D01*
X196085481Y-48159015D01*
X195946100Y-48252147D01*
X195791228Y-48316297D01*
X195626816Y-48349000D01*
X195459184Y-48349000D01*
X195294772Y-48316297D01*
X195139900Y-48252147D01*
X195000519Y-48159015D01*
X194881985Y-48040481D01*
X194788853Y-47901100D01*
X194724703Y-47746228D01*
X194692000Y-47581816D01*
X194692000Y-47414184D01*
X194724703Y-47249772D01*
X194788853Y-47094900D01*
X194881985Y-46955519D01*
X195000519Y-46836985D01*
X195139900Y-46743853D01*
X195294772Y-46679703D01*
X195459184Y-46647000D01*
X195626816Y-46647000D01*
X195791228Y-46679703D01*
X195791228Y-46679703D01*
G37*
G36*
X151002000Y-48349000D02*
X149300000Y-48349000D01*
X149300000Y-46647000D01*
X151002000Y-46647000D01*
X151002000Y-48349000D01*
X151002000Y-48349000D01*
G37*
G36*
X158199228Y-46679703D02*
X158354100Y-46743853D01*
X158493481Y-46836985D01*
X158612015Y-46955519D01*
X158705147Y-47094900D01*
X158769297Y-47249772D01*
X158802000Y-47414184D01*
X158802000Y-47581816D01*
X158769297Y-47746228D01*
X158705147Y-47901100D01*
X158612015Y-48040481D01*
X158493481Y-48159015D01*
X158354100Y-48252147D01*
X158199228Y-48316297D01*
X158034816Y-48349000D01*
X157867184Y-48349000D01*
X157702772Y-48316297D01*
X157547900Y-48252147D01*
X157408519Y-48159015D01*
X157289985Y-48040481D01*
X157196853Y-47901100D01*
X157132703Y-47746228D01*
X157100000Y-47581816D01*
X157100000Y-47414184D01*
X157132703Y-47249772D01*
X157196853Y-47094900D01*
X157289985Y-46955519D01*
X157408519Y-46836985D01*
X157547900Y-46743853D01*
X157702772Y-46679703D01*
X157867184Y-46647000D01*
X158034816Y-46647000D01*
X158199228Y-46679703D01*
X158199228Y-46679703D01*
G37*
G36*
X188594000Y-48349000D02*
X186892000Y-48349000D01*
X186892000Y-46647000D01*
X188594000Y-46647000D01*
X188594000Y-48349000D01*
X188594000Y-48349000D01*
G37*
G36*
X252062277Y-34411885D02*
X252279572Y-34501891D01*
X252475131Y-34632560D01*
X252641440Y-34798869D01*
X252772109Y-34994428D01*
X252862115Y-35211723D01*
X252908000Y-35442401D01*
X252908000Y-35677599D01*
X252862115Y-35908277D01*
X252772109Y-36125572D01*
X252641440Y-36321131D01*
X252475131Y-36487440D01*
X252279572Y-36618109D01*
X252062277Y-36708115D01*
X251831599Y-36754000D01*
X251596401Y-36754000D01*
X251365723Y-36708115D01*
X251148428Y-36618109D01*
X250952869Y-36487440D01*
X250786560Y-36321131D01*
X250655891Y-36125572D01*
X250565885Y-35908277D01*
X250520000Y-35677599D01*
X250520000Y-35442401D01*
X250565885Y-35211723D01*
X250655891Y-34994428D01*
X250786560Y-34798869D01*
X250952869Y-34632560D01*
X251148428Y-34501891D01*
X251365723Y-34411885D01*
X251596401Y-34366000D01*
X251831599Y-34366000D01*
X252062277Y-34411885D01*
X252062277Y-34411885D01*
G37*
G36*
X226154277Y-34411885D02*
X226371572Y-34501891D01*
X226567131Y-34632560D01*
X226733440Y-34798869D01*
X226864109Y-34994428D01*
X226954115Y-35211723D01*
X227000000Y-35442401D01*
X227000000Y-35677599D01*
X226954115Y-35908277D01*
X226864109Y-36125572D01*
X226733440Y-36321131D01*
X226567131Y-36487440D01*
X226371572Y-36618109D01*
X226154277Y-36708115D01*
X225923599Y-36754000D01*
X225688401Y-36754000D01*
X225457723Y-36708115D01*
X225240428Y-36618109D01*
X225044869Y-36487440D01*
X224878560Y-36321131D01*
X224747891Y-36125572D01*
X224657885Y-35908277D01*
X224612000Y-35677599D01*
X224612000Y-35442401D01*
X224657885Y-35211723D01*
X224747891Y-34994428D01*
X224878560Y-34798869D01*
X225044869Y-34632560D01*
X225240428Y-34501891D01*
X225457723Y-34411885D01*
X225688401Y-34366000D01*
X225923599Y-34366000D01*
X226154277Y-34411885D01*
X226154277Y-34411885D01*
G37*
G36*
X207104277Y-34411885D02*
X207321572Y-34501891D01*
X207517131Y-34632560D01*
X207683440Y-34798869D01*
X207814109Y-34994428D01*
X207904115Y-35211723D01*
X207950000Y-35442401D01*
X207950000Y-35677599D01*
X207904115Y-35908277D01*
X207814109Y-36125572D01*
X207683440Y-36321131D01*
X207517131Y-36487440D01*
X207321572Y-36618109D01*
X207104277Y-36708115D01*
X206873599Y-36754000D01*
X206638401Y-36754000D01*
X206407723Y-36708115D01*
X206190428Y-36618109D01*
X205994869Y-36487440D01*
X205828560Y-36321131D01*
X205697891Y-36125572D01*
X205607885Y-35908277D01*
X205562000Y-35677599D01*
X205562000Y-35442401D01*
X205607885Y-35211723D01*
X205697891Y-34994428D01*
X205828560Y-34798869D01*
X205994869Y-34632560D01*
X206190428Y-34501891D01*
X206407723Y-34411885D01*
X206638401Y-34366000D01*
X206873599Y-34366000D01*
X207104277Y-34411885D01*
X207104277Y-34411885D01*
G37*
G36*
X188054277Y-34411885D02*
X188271572Y-34501891D01*
X188467131Y-34632560D01*
X188633440Y-34798869D01*
X188764109Y-34994428D01*
X188854115Y-35211723D01*
X188900000Y-35442401D01*
X188900000Y-35677599D01*
X188854115Y-35908277D01*
X188764109Y-36125572D01*
X188633440Y-36321131D01*
X188467131Y-36487440D01*
X188271572Y-36618109D01*
X188054277Y-36708115D01*
X187823599Y-36754000D01*
X187588401Y-36754000D01*
X187357723Y-36708115D01*
X187140428Y-36618109D01*
X186944869Y-36487440D01*
X186778560Y-36321131D01*
X186647891Y-36125572D01*
X186557885Y-35908277D01*
X186512000Y-35677599D01*
X186512000Y-35442401D01*
X186557885Y-35211723D01*
X186647891Y-34994428D01*
X186778560Y-34798869D01*
X186944869Y-34632560D01*
X187140428Y-34501891D01*
X187357723Y-34411885D01*
X187588401Y-34366000D01*
X187823599Y-34366000D01*
X188054277Y-34411885D01*
X188054277Y-34411885D01*
G37*
G36*
X169004277Y-34411885D02*
X169221572Y-34501891D01*
X169417131Y-34632560D01*
X169583440Y-34798869D01*
X169714109Y-34994428D01*
X169804115Y-35211723D01*
X169850000Y-35442401D01*
X169850000Y-35677599D01*
X169804115Y-35908277D01*
X169714109Y-36125572D01*
X169583440Y-36321131D01*
X169417131Y-36487440D01*
X169221572Y-36618109D01*
X169004277Y-36708115D01*
X168773599Y-36754000D01*
X168538401Y-36754000D01*
X168307723Y-36708115D01*
X168090428Y-36618109D01*
X167894869Y-36487440D01*
X167728560Y-36321131D01*
X167597891Y-36125572D01*
X167507885Y-35908277D01*
X167462000Y-35677599D01*
X167462000Y-35442401D01*
X167507885Y-35211723D01*
X167597891Y-34994428D01*
X167728560Y-34798869D01*
X167894869Y-34632560D01*
X168090428Y-34501891D01*
X168307723Y-34411885D01*
X168538401Y-34366000D01*
X168773599Y-34366000D01*
X169004277Y-34411885D01*
X169004277Y-34411885D01*
G37*
G36*
X149954277Y-34411885D02*
X150171572Y-34501891D01*
X150367131Y-34632560D01*
X150533440Y-34798869D01*
X150664109Y-34994428D01*
X150754115Y-35211723D01*
X150800000Y-35442401D01*
X150800000Y-35677599D01*
X150754115Y-35908277D01*
X150664109Y-36125572D01*
X150533440Y-36321131D01*
X150367131Y-36487440D01*
X150171572Y-36618109D01*
X149954277Y-36708115D01*
X149723599Y-36754000D01*
X149488401Y-36754000D01*
X149257723Y-36708115D01*
X149040428Y-36618109D01*
X148844869Y-36487440D01*
X148678560Y-36321131D01*
X148547891Y-36125572D01*
X148457885Y-35908277D01*
X148412000Y-35677599D01*
X148412000Y-35442401D01*
X148457885Y-35211723D01*
X148547891Y-34994428D01*
X148678560Y-34798869D01*
X148844869Y-34632560D01*
X149040428Y-34501891D01*
X149257723Y-34411885D01*
X149488401Y-34366000D01*
X149723599Y-34366000D01*
X149954277Y-34411885D01*
X149954277Y-34411885D01*
G37*
G36*
X130904277Y-34411885D02*
X131121572Y-34501891D01*
X131317131Y-34632560D01*
X131483440Y-34798869D01*
X131614109Y-34994428D01*
X131704115Y-35211723D01*
X131750000Y-35442401D01*
X131750000Y-35677599D01*
X131704115Y-35908277D01*
X131614109Y-36125572D01*
X131483440Y-36321131D01*
X131317131Y-36487440D01*
X131121572Y-36618109D01*
X130904277Y-36708115D01*
X130673599Y-36754000D01*
X130438401Y-36754000D01*
X130207723Y-36708115D01*
X129990428Y-36618109D01*
X129794869Y-36487440D01*
X129628560Y-36321131D01*
X129497891Y-36125572D01*
X129407885Y-35908277D01*
X129362000Y-35677599D01*
X129362000Y-35442401D01*
X129407885Y-35211723D01*
X129497891Y-34994428D01*
X129628560Y-34798869D01*
X129794869Y-34632560D01*
X129990428Y-34501891D01*
X130207723Y-34411885D01*
X130438401Y-34366000D01*
X130673599Y-34366000D01*
X130904277Y-34411885D01*
X130904277Y-34411885D01*
G37*
G36*
X112108277Y-34411885D02*
X112325572Y-34501891D01*
X112521131Y-34632560D01*
X112687440Y-34798869D01*
X112818109Y-34994428D01*
X112908115Y-35211723D01*
X112954000Y-35442401D01*
X112954000Y-35677599D01*
X112908115Y-35908277D01*
X112818109Y-36125572D01*
X112687440Y-36321131D01*
X112521131Y-36487440D01*
X112325572Y-36618109D01*
X112108277Y-36708115D01*
X111877599Y-36754000D01*
X111642401Y-36754000D01*
X111411723Y-36708115D01*
X111194428Y-36618109D01*
X110998869Y-36487440D01*
X110832560Y-36321131D01*
X110701891Y-36125572D01*
X110611885Y-35908277D01*
X110566000Y-35677599D01*
X110566000Y-35442401D01*
X110611885Y-35211723D01*
X110701891Y-34994428D01*
X110832560Y-34798869D01*
X110998869Y-34632560D01*
X111194428Y-34501891D01*
X111411723Y-34411885D01*
X111642401Y-34366000D01*
X111877599Y-34366000D01*
X112108277Y-34411885D01*
X112108277Y-34411885D01*
G37*
G36*
X93058277Y-34411885D02*
X93275572Y-34501891D01*
X93471131Y-34632560D01*
X93637440Y-34798869D01*
X93768109Y-34994428D01*
X93858115Y-35211723D01*
X93904000Y-35442401D01*
X93904000Y-35677599D01*
X93858115Y-35908277D01*
X93768109Y-36125572D01*
X93637440Y-36321131D01*
X93471131Y-36487440D01*
X93275572Y-36618109D01*
X93058277Y-36708115D01*
X92827599Y-36754000D01*
X92592401Y-36754000D01*
X92361723Y-36708115D01*
X92144428Y-36618109D01*
X91948869Y-36487440D01*
X91782560Y-36321131D01*
X91651891Y-36125572D01*
X91561885Y-35908277D01*
X91516000Y-35677599D01*
X91516000Y-35442401D01*
X91561885Y-35211723D01*
X91651891Y-34994428D01*
X91782560Y-34798869D01*
X91948869Y-34632560D01*
X92144428Y-34501891D01*
X92361723Y-34411885D01*
X92592401Y-34366000D01*
X92827599Y-34366000D01*
X93058277Y-34411885D01*
X93058277Y-34411885D01*
G37*
G36*
X74008277Y-34411885D02*
X74225572Y-34501891D01*
X74421131Y-34632560D01*
X74587440Y-34798869D01*
X74718109Y-34994428D01*
X74808115Y-35211723D01*
X74854000Y-35442401D01*
X74854000Y-35677599D01*
X74808115Y-35908277D01*
X74718109Y-36125572D01*
X74587440Y-36321131D01*
X74421131Y-36487440D01*
X74225572Y-36618109D01*
X74008277Y-36708115D01*
X73777599Y-36754000D01*
X73542401Y-36754000D01*
X73311723Y-36708115D01*
X73094428Y-36618109D01*
X72898869Y-36487440D01*
X72732560Y-36321131D01*
X72601891Y-36125572D01*
X72511885Y-35908277D01*
X72466000Y-35677599D01*
X72466000Y-35442401D01*
X72511885Y-35211723D01*
X72601891Y-34994428D01*
X72732560Y-34798869D01*
X72898869Y-34632560D01*
X73094428Y-34501891D01*
X73311723Y-34411885D01*
X73542401Y-34366000D01*
X73777599Y-34366000D01*
X74008277Y-34411885D01*
X74008277Y-34411885D01*
G37*
G36*
X54958277Y-34411885D02*
X55175572Y-34501891D01*
X55371131Y-34632560D01*
X55537440Y-34798869D01*
X55668109Y-34994428D01*
X55758115Y-35211723D01*
X55804000Y-35442401D01*
X55804000Y-35677599D01*
X55758115Y-35908277D01*
X55668109Y-36125572D01*
X55537440Y-36321131D01*
X55371131Y-36487440D01*
X55175572Y-36618109D01*
X54958277Y-36708115D01*
X54727599Y-36754000D01*
X54492401Y-36754000D01*
X54261723Y-36708115D01*
X54044428Y-36618109D01*
X53848869Y-36487440D01*
X53682560Y-36321131D01*
X53551891Y-36125572D01*
X53461885Y-35908277D01*
X53416000Y-35677599D01*
X53416000Y-35442401D01*
X53461885Y-35211723D01*
X53551891Y-34994428D01*
X53682560Y-34798869D01*
X53848869Y-34632560D01*
X54044428Y-34501891D01*
X54261723Y-34411885D01*
X54492401Y-34366000D01*
X54727599Y-34366000D01*
X54958277Y-34411885D01*
X54958277Y-34411885D01*
G37*
G36*
X35908277Y-34411885D02*
X36125572Y-34501891D01*
X36321131Y-34632560D01*
X36487440Y-34798869D01*
X36618109Y-34994428D01*
X36708115Y-35211723D01*
X36754000Y-35442401D01*
X36754000Y-35677599D01*
X36708115Y-35908277D01*
X36618109Y-36125572D01*
X36487440Y-36321131D01*
X36321131Y-36487440D01*
X36125572Y-36618109D01*
X35908277Y-36708115D01*
X35677599Y-36754000D01*
X35442401Y-36754000D01*
X35211723Y-36708115D01*
X34994428Y-36618109D01*
X34798869Y-36487440D01*
X34632560Y-36321131D01*
X34501891Y-36125572D01*
X34411885Y-35908277D01*
X34366000Y-35677599D01*
X34366000Y-35442401D01*
X34411885Y-35211723D01*
X34501891Y-34994428D01*
X34632560Y-34798869D01*
X34798869Y-34632560D01*
X34994428Y-34501891D01*
X35211723Y-34411885D01*
X35442401Y-34366000D01*
X35677599Y-34366000D01*
X35908277Y-34411885D01*
X35908277Y-34411885D01*
G37*
G36*
X99408277Y-31871885D02*
X99625572Y-31961891D01*
X99821131Y-32092560D01*
X99987440Y-32258869D01*
X100118109Y-32454428D01*
X100208115Y-32671723D01*
X100254000Y-32902401D01*
X100254000Y-33137599D01*
X100208115Y-33368277D01*
X100118109Y-33585572D01*
X99987440Y-33781131D01*
X99821131Y-33947440D01*
X99625572Y-34078109D01*
X99408277Y-34168115D01*
X99177599Y-34214000D01*
X98942401Y-34214000D01*
X98711723Y-34168115D01*
X98494428Y-34078109D01*
X98298869Y-33947440D01*
X98132560Y-33781131D01*
X98001891Y-33585572D01*
X97911885Y-33368277D01*
X97866000Y-33137599D01*
X97866000Y-32902401D01*
X97911885Y-32671723D01*
X98001891Y-32454428D01*
X98132560Y-32258869D01*
X98298869Y-32092560D01*
X98494428Y-31961891D01*
X98711723Y-31871885D01*
X98942401Y-31826000D01*
X99177599Y-31826000D01*
X99408277Y-31871885D01*
X99408277Y-31871885D01*
G37*
G36*
X42258277Y-31871885D02*
X42475572Y-31961891D01*
X42671131Y-32092560D01*
X42837440Y-32258869D01*
X42968109Y-32454428D01*
X43058115Y-32671723D01*
X43104000Y-32902401D01*
X43104000Y-33137599D01*
X43058115Y-33368277D01*
X42968109Y-33585572D01*
X42837440Y-33781131D01*
X42671131Y-33947440D01*
X42475572Y-34078109D01*
X42258277Y-34168115D01*
X42027599Y-34214000D01*
X41792401Y-34214000D01*
X41561723Y-34168115D01*
X41344428Y-34078109D01*
X41148869Y-33947440D01*
X40982560Y-33781131D01*
X40851891Y-33585572D01*
X40761885Y-33368277D01*
X40716000Y-33137599D01*
X40716000Y-32902401D01*
X40761885Y-32671723D01*
X40851891Y-32454428D01*
X40982560Y-32258869D01*
X41148869Y-32092560D01*
X41344428Y-31961891D01*
X41561723Y-31871885D01*
X41792401Y-31826000D01*
X42027599Y-31826000D01*
X42258277Y-31871885D01*
X42258277Y-31871885D01*
G37*
G36*
X80358277Y-31871885D02*
X80575572Y-31961891D01*
X80771131Y-32092560D01*
X80937440Y-32258869D01*
X81068109Y-32454428D01*
X81158115Y-32671723D01*
X81204000Y-32902401D01*
X81204000Y-33137599D01*
X81158115Y-33368277D01*
X81068109Y-33585572D01*
X80937440Y-33781131D01*
X80771131Y-33947440D01*
X80575572Y-34078109D01*
X80358277Y-34168115D01*
X80127599Y-34214000D01*
X79892401Y-34214000D01*
X79661723Y-34168115D01*
X79444428Y-34078109D01*
X79248869Y-33947440D01*
X79082560Y-33781131D01*
X78951891Y-33585572D01*
X78861885Y-33368277D01*
X78816000Y-33137599D01*
X78816000Y-32902401D01*
X78861885Y-32671723D01*
X78951891Y-32454428D01*
X79082560Y-32258869D01*
X79248869Y-32092560D01*
X79444428Y-31961891D01*
X79661723Y-31871885D01*
X79892401Y-31826000D01*
X80127599Y-31826000D01*
X80358277Y-31871885D01*
X80358277Y-31871885D01*
G37*
G36*
X61308277Y-31871885D02*
X61525572Y-31961891D01*
X61721131Y-32092560D01*
X61887440Y-32258869D01*
X62018109Y-32454428D01*
X62108115Y-32671723D01*
X62154000Y-32902401D01*
X62154000Y-33137599D01*
X62108115Y-33368277D01*
X62018109Y-33585572D01*
X61887440Y-33781131D01*
X61721131Y-33947440D01*
X61525572Y-34078109D01*
X61308277Y-34168115D01*
X61077599Y-34214000D01*
X60842401Y-34214000D01*
X60611723Y-34168115D01*
X60394428Y-34078109D01*
X60198869Y-33947440D01*
X60032560Y-33781131D01*
X59901891Y-33585572D01*
X59811885Y-33368277D01*
X59766000Y-33137599D01*
X59766000Y-32902401D01*
X59811885Y-32671723D01*
X59901891Y-32454428D01*
X60032560Y-32258869D01*
X60198869Y-32092560D01*
X60394428Y-31961891D01*
X60611723Y-31871885D01*
X60842401Y-31826000D01*
X61077599Y-31826000D01*
X61308277Y-31871885D01*
X61308277Y-31871885D01*
G37*
G36*
X258412277Y-31871885D02*
X258629572Y-31961891D01*
X258825131Y-32092560D01*
X258991440Y-32258869D01*
X259122109Y-32454428D01*
X259212115Y-32671723D01*
X259258000Y-32902401D01*
X259258000Y-33137599D01*
X259212115Y-33368277D01*
X259122109Y-33585572D01*
X258991440Y-33781131D01*
X258825131Y-33947440D01*
X258629572Y-34078109D01*
X258412277Y-34168115D01*
X258181599Y-34214000D01*
X257946401Y-34214000D01*
X257715723Y-34168115D01*
X257498428Y-34078109D01*
X257302869Y-33947440D01*
X257136560Y-33781131D01*
X257005891Y-33585572D01*
X256915885Y-33368277D01*
X256870000Y-33137599D01*
X256870000Y-32902401D01*
X256915885Y-32671723D01*
X257005891Y-32454428D01*
X257136560Y-32258869D01*
X257302869Y-32092560D01*
X257498428Y-31961891D01*
X257715723Y-31871885D01*
X257946401Y-31826000D01*
X258181599Y-31826000D01*
X258412277Y-31871885D01*
X258412277Y-31871885D01*
G37*
G36*
X232504277Y-31871885D02*
X232721572Y-31961891D01*
X232917131Y-32092560D01*
X233083440Y-32258869D01*
X233214109Y-32454428D01*
X233304115Y-32671723D01*
X233350000Y-32902401D01*
X233350000Y-33137599D01*
X233304115Y-33368277D01*
X233214109Y-33585572D01*
X233083440Y-33781131D01*
X232917131Y-33947440D01*
X232721572Y-34078109D01*
X232504277Y-34168115D01*
X232273599Y-34214000D01*
X232038401Y-34214000D01*
X231807723Y-34168115D01*
X231590428Y-34078109D01*
X231394869Y-33947440D01*
X231228560Y-33781131D01*
X231097891Y-33585572D01*
X231007885Y-33368277D01*
X230962000Y-33137599D01*
X230962000Y-32902401D01*
X231007885Y-32671723D01*
X231097891Y-32454428D01*
X231228560Y-32258869D01*
X231394869Y-32092560D01*
X231590428Y-31961891D01*
X231807723Y-31871885D01*
X232038401Y-31826000D01*
X232273599Y-31826000D01*
X232504277Y-31871885D01*
X232504277Y-31871885D01*
G37*
G36*
X213454277Y-31871885D02*
X213671572Y-31961891D01*
X213867131Y-32092560D01*
X214033440Y-32258869D01*
X214164109Y-32454428D01*
X214254115Y-32671723D01*
X214300000Y-32902401D01*
X214300000Y-33137599D01*
X214254115Y-33368277D01*
X214164109Y-33585572D01*
X214033440Y-33781131D01*
X213867131Y-33947440D01*
X213671572Y-34078109D01*
X213454277Y-34168115D01*
X213223599Y-34214000D01*
X212988401Y-34214000D01*
X212757723Y-34168115D01*
X212540428Y-34078109D01*
X212344869Y-33947440D01*
X212178560Y-33781131D01*
X212047891Y-33585572D01*
X211957885Y-33368277D01*
X211912000Y-33137599D01*
X211912000Y-32902401D01*
X211957885Y-32671723D01*
X212047891Y-32454428D01*
X212178560Y-32258869D01*
X212344869Y-32092560D01*
X212540428Y-31961891D01*
X212757723Y-31871885D01*
X212988401Y-31826000D01*
X213223599Y-31826000D01*
X213454277Y-31871885D01*
X213454277Y-31871885D01*
G37*
G36*
X118458277Y-31871885D02*
X118675572Y-31961891D01*
X118871131Y-32092560D01*
X119037440Y-32258869D01*
X119168109Y-32454428D01*
X119258115Y-32671723D01*
X119304000Y-32902401D01*
X119304000Y-33137599D01*
X119258115Y-33368277D01*
X119168109Y-33585572D01*
X119037440Y-33781131D01*
X118871131Y-33947440D01*
X118675572Y-34078109D01*
X118458277Y-34168115D01*
X118227599Y-34214000D01*
X117992401Y-34214000D01*
X117761723Y-34168115D01*
X117544428Y-34078109D01*
X117348869Y-33947440D01*
X117182560Y-33781131D01*
X117051891Y-33585572D01*
X116961885Y-33368277D01*
X116916000Y-33137599D01*
X116916000Y-32902401D01*
X116961885Y-32671723D01*
X117051891Y-32454428D01*
X117182560Y-32258869D01*
X117348869Y-32092560D01*
X117544428Y-31961891D01*
X117761723Y-31871885D01*
X117992401Y-31826000D01*
X118227599Y-31826000D01*
X118458277Y-31871885D01*
X118458277Y-31871885D01*
G37*
G36*
X194404277Y-31871885D02*
X194621572Y-31961891D01*
X194817131Y-32092560D01*
X194983440Y-32258869D01*
X195114109Y-32454428D01*
X195204115Y-32671723D01*
X195250000Y-32902401D01*
X195250000Y-33137599D01*
X195204115Y-33368277D01*
X195114109Y-33585572D01*
X194983440Y-33781131D01*
X194817131Y-33947440D01*
X194621572Y-34078109D01*
X194404277Y-34168115D01*
X194173599Y-34214000D01*
X193938401Y-34214000D01*
X193707723Y-34168115D01*
X193490428Y-34078109D01*
X193294869Y-33947440D01*
X193128560Y-33781131D01*
X192997891Y-33585572D01*
X192907885Y-33368277D01*
X192862000Y-33137599D01*
X192862000Y-32902401D01*
X192907885Y-32671723D01*
X192997891Y-32454428D01*
X193128560Y-32258869D01*
X193294869Y-32092560D01*
X193490428Y-31961891D01*
X193707723Y-31871885D01*
X193938401Y-31826000D01*
X194173599Y-31826000D01*
X194404277Y-31871885D01*
X194404277Y-31871885D01*
G37*
G36*
X137254277Y-31871885D02*
X137471572Y-31961891D01*
X137667131Y-32092560D01*
X137833440Y-32258869D01*
X137964109Y-32454428D01*
X138054115Y-32671723D01*
X138100000Y-32902401D01*
X138100000Y-33137599D01*
X138054115Y-33368277D01*
X137964109Y-33585572D01*
X137833440Y-33781131D01*
X137667131Y-33947440D01*
X137471572Y-34078109D01*
X137254277Y-34168115D01*
X137023599Y-34214000D01*
X136788401Y-34214000D01*
X136557723Y-34168115D01*
X136340428Y-34078109D01*
X136144869Y-33947440D01*
X135978560Y-33781131D01*
X135847891Y-33585572D01*
X135757885Y-33368277D01*
X135712000Y-33137599D01*
X135712000Y-32902401D01*
X135757885Y-32671723D01*
X135847891Y-32454428D01*
X135978560Y-32258869D01*
X136144869Y-32092560D01*
X136340428Y-31961891D01*
X136557723Y-31871885D01*
X136788401Y-31826000D01*
X137023599Y-31826000D01*
X137254277Y-31871885D01*
X137254277Y-31871885D01*
G37*
G36*
X156304277Y-31871885D02*
X156521572Y-31961891D01*
X156717131Y-32092560D01*
X156883440Y-32258869D01*
X157014109Y-32454428D01*
X157104115Y-32671723D01*
X157150000Y-32902401D01*
X157150000Y-33137599D01*
X157104115Y-33368277D01*
X157014109Y-33585572D01*
X156883440Y-33781131D01*
X156717131Y-33947440D01*
X156521572Y-34078109D01*
X156304277Y-34168115D01*
X156073599Y-34214000D01*
X155838401Y-34214000D01*
X155607723Y-34168115D01*
X155390428Y-34078109D01*
X155194869Y-33947440D01*
X155028560Y-33781131D01*
X154897891Y-33585572D01*
X154807885Y-33368277D01*
X154762000Y-33137599D01*
X154762000Y-32902401D01*
X154807885Y-32671723D01*
X154897891Y-32454428D01*
X155028560Y-32258869D01*
X155194869Y-32092560D01*
X155390428Y-31961891D01*
X155607723Y-31871885D01*
X155838401Y-31826000D01*
X156073599Y-31826000D01*
X156304277Y-31871885D01*
X156304277Y-31871885D01*
G37*
G36*
X175354277Y-31871885D02*
X175571572Y-31961891D01*
X175767131Y-32092560D01*
X175933440Y-32258869D01*
X176064109Y-32454428D01*
X176154115Y-32671723D01*
X176200000Y-32902401D01*
X176200000Y-33137599D01*
X176154115Y-33368277D01*
X176064109Y-33585572D01*
X175933440Y-33781131D01*
X175767131Y-33947440D01*
X175571572Y-34078109D01*
X175354277Y-34168115D01*
X175123599Y-34214000D01*
X174888401Y-34214000D01*
X174657723Y-34168115D01*
X174440428Y-34078109D01*
X174244869Y-33947440D01*
X174078560Y-33781131D01*
X173947891Y-33585572D01*
X173857885Y-33368277D01*
X173812000Y-33137599D01*
X173812000Y-32902401D01*
X173857885Y-32671723D01*
X173947891Y-32454428D01*
X174078560Y-32258869D01*
X174244869Y-32092560D01*
X174440428Y-31961891D01*
X174657723Y-31871885D01*
X174888401Y-31826000D01*
X175123599Y-31826000D01*
X175354277Y-31871885D01*
X175354277Y-31871885D01*
G37*
M02*
