G04 #@! TF.GenerationSoftware,KiCad,Pcbnew,(5.0.1-3-g963ef8bb5)*
G04 #@! TF.CreationDate,2018-12-21T01:17:29-08:00*
G04 #@! TF.ProjectId,snackymini-keyboard,736E61636B796D696E692D6B6579626F,rev?*
G04 #@! TF.SameCoordinates,Original*
G04 #@! TF.FileFunction,Copper,L1,Top,Signal*
G04 #@! TF.FilePolarity,Positive*
%FSLAX46Y46*%
G04 Gerber Fmt 4.6, Leading zero omitted, Abs format (unit mm)*
G04 Created by KiCad (PCBNEW (5.0.1-3-g963ef8bb5)) date Friday, December 21, 2018 at 01:17:29 AM*
%MOMM*%
%LPD*%
G01*
G04 APERTURE LIST*
G04 #@! TA.AperFunction,ComponentPad*
%ADD10R,1.600000X1.600000*%
G04 #@! TD*
G04 #@! TA.AperFunction,ComponentPad*
%ADD11C,1.600000*%
G04 #@! TD*
G04 #@! TA.AperFunction,ComponentPad*
%ADD12C,2.286000*%
G04 #@! TD*
G04 #@! TA.AperFunction,ViaPad*
%ADD13C,0.800000*%
G04 #@! TD*
G04 #@! TA.AperFunction,Conductor*
%ADD14C,0.250000*%
G04 #@! TD*
G04 APERTURE END LIST*
D10*
G04 #@! TO.P,D1,1*
G04 #@! TO.N,ROW1*
X35724000Y-47625000D03*
D11*
G04 #@! TO.P,D1,2*
G04 #@! TO.N,Net-(D1-Pad2)*
X43524000Y-47625000D03*
G04 #@! TD*
D10*
G04 #@! TO.P,D2,1*
G04 #@! TO.N,ROW2*
X55282000Y-47625000D03*
D11*
G04 #@! TO.P,D2,2*
G04 #@! TO.N,Net-(D2-Pad2)*
X63082000Y-47625000D03*
G04 #@! TD*
G04 #@! TO.P,D3,2*
G04 #@! TO.N,Net-(D3-Pad2)*
X82513000Y-47625000D03*
D10*
G04 #@! TO.P,D3,1*
G04 #@! TO.N,ROW3*
X74713000Y-47625000D03*
G04 #@! TD*
D11*
G04 #@! TO.P,D4,2*
G04 #@! TO.N,Net-(D4-Pad2)*
X100166000Y-47752000D03*
D10*
G04 #@! TO.P,D4,1*
G04 #@! TO.N,ROW4*
X92366000Y-47752000D03*
G04 #@! TD*
G04 #@! TO.P,D5,1*
G04 #@! TO.N,ROW1*
X112051000Y-47625000D03*
D11*
G04 #@! TO.P,D5,2*
G04 #@! TO.N,Net-(D5-Pad2)*
X119851000Y-47625000D03*
G04 #@! TD*
D10*
G04 #@! TO.P,D6,1*
G04 #@! TO.N,ROW2*
X130974000Y-47625000D03*
D11*
G04 #@! TO.P,D6,2*
G04 #@! TO.N,Net-(D6-Pad2)*
X138774000Y-47625000D03*
G04 #@! TD*
G04 #@! TO.P,D7,2*
G04 #@! TO.N,Net-(D7-Pad2)*
X157951000Y-47498000D03*
D10*
G04 #@! TO.P,D7,1*
G04 #@! TO.N,ROW3*
X150151000Y-47498000D03*
G04 #@! TD*
D11*
G04 #@! TO.P,D8,2*
G04 #@! TO.N,Net-(D8-Pad2)*
X177255000Y-47625000D03*
D10*
G04 #@! TO.P,D8,1*
G04 #@! TO.N,ROW4*
X169455000Y-47625000D03*
G04 #@! TD*
G04 #@! TO.P,D9,1*
G04 #@! TO.N,ROW1*
X187743000Y-47498000D03*
D11*
G04 #@! TO.P,D9,2*
G04 #@! TO.N,Net-(D9-Pad2)*
X195543000Y-47498000D03*
G04 #@! TD*
D10*
G04 #@! TO.P,D10,1*
G04 #@! TO.N,ROW2*
X206539000Y-47625000D03*
D11*
G04 #@! TO.P,D10,2*
G04 #@! TO.N,Net-(D10-Pad2)*
X214339000Y-47625000D03*
G04 #@! TD*
G04 #@! TO.P,D11,2*
G04 #@! TO.N,Net-(D11-Pad2)*
X233135000Y-47625000D03*
D10*
G04 #@! TO.P,D11,1*
G04 #@! TO.N,ROW3*
X225335000Y-47625000D03*
G04 #@! TD*
D11*
G04 #@! TO.P,D12,2*
G04 #@! TO.N,Net-(D12-Pad2)*
X259932000Y-47625000D03*
D10*
G04 #@! TO.P,D12,1*
G04 #@! TO.N,ROW4*
X252132000Y-47625000D03*
G04 #@! TD*
G04 #@! TO.P,D13,1*
G04 #@! TO.N,ROW1*
X37883000Y-66421000D03*
D11*
G04 #@! TO.P,D13,2*
G04 #@! TO.N,Net-(D13-Pad2)*
X45683000Y-66421000D03*
G04 #@! TD*
D10*
G04 #@! TO.P,D14,1*
G04 #@! TO.N,ROW2*
X59346000Y-66421000D03*
D11*
G04 #@! TO.P,D14,2*
G04 #@! TO.N,Net-(D14-Pad2)*
X67146000Y-66421000D03*
G04 #@! TD*
G04 #@! TO.P,D15,2*
G04 #@! TO.N,Net-(D15-Pad2)*
X86069000Y-66548000D03*
D10*
G04 #@! TO.P,D15,1*
G04 #@! TO.N,ROW3*
X78269000Y-66548000D03*
G04 #@! TD*
G04 #@! TO.P,D16,1*
G04 #@! TO.N,ROW1*
X97319000Y-66675000D03*
D11*
G04 #@! TO.P,D16,2*
G04 #@! TO.N,Net-(D16-Pad2)*
X105119000Y-66675000D03*
G04 #@! TD*
D10*
G04 #@! TO.P,D17,1*
G04 #@! TO.N,ROW2*
X116496000Y-66548000D03*
D11*
G04 #@! TO.P,D17,2*
G04 #@! TO.N,Net-(D17-Pad2)*
X124296000Y-66548000D03*
G04 #@! TD*
G04 #@! TO.P,D18,2*
G04 #@! TO.N,Net-(D18-Pad2)*
X142965000Y-66421000D03*
D10*
G04 #@! TO.P,D18,1*
G04 #@! TO.N,ROW3*
X135165000Y-66421000D03*
G04 #@! TD*
D11*
G04 #@! TO.P,D19,2*
G04 #@! TO.N,Net-(D19-Pad2)*
X162269000Y-66802000D03*
D10*
G04 #@! TO.P,D19,1*
G04 #@! TO.N,ROW4*
X154469000Y-66802000D03*
G04 #@! TD*
G04 #@! TO.P,D20,1*
G04 #@! TO.N,ROW1*
X173392000Y-66802000D03*
D11*
G04 #@! TO.P,D20,2*
G04 #@! TO.N,Net-(D20-Pad2)*
X181192000Y-66802000D03*
G04 #@! TD*
D10*
G04 #@! TO.P,D21,1*
G04 #@! TO.N,ROW2*
X192315000Y-66675000D03*
D11*
G04 #@! TO.P,D21,2*
G04 #@! TO.N,Net-(D21-Pad2)*
X200115000Y-66675000D03*
G04 #@! TD*
G04 #@! TO.P,D22,2*
G04 #@! TO.N,Net-(D22-Pad2)*
X219165000Y-66802000D03*
D10*
G04 #@! TO.P,D22,1*
G04 #@! TO.N,ROW3*
X211365000Y-66802000D03*
G04 #@! TD*
G04 #@! TO.P,D23,1*
G04 #@! TO.N,ROW1*
X230542000Y-66929000D03*
D11*
G04 #@! TO.P,D23,2*
G04 #@! TO.N,Net-(D23-Pad2)*
X238342000Y-66929000D03*
G04 #@! TD*
D10*
G04 #@! TO.P,D24,1*
G04 #@! TO.N,ROW2*
X254545000Y-66548000D03*
D11*
G04 #@! TO.P,D24,2*
G04 #@! TO.N,Net-(D24-Pad2)*
X262345000Y-66548000D03*
G04 #@! TD*
G04 #@! TO.P,D25,2*
G04 #@! TO.N,Net-(D25-Pad2)*
X50382000Y-85471000D03*
D10*
G04 #@! TO.P,D25,1*
G04 #@! TO.N,ROW3*
X42582000Y-85471000D03*
G04 #@! TD*
D11*
G04 #@! TO.P,D26,2*
G04 #@! TO.N,Net-(D26-Pad2)*
X76798000Y-85598000D03*
D10*
G04 #@! TO.P,D26,1*
G04 #@! TO.N,ROW4*
X68998000Y-85598000D03*
G04 #@! TD*
G04 #@! TO.P,D27,1*
G04 #@! TO.N,ROW1*
X88175000Y-85471000D03*
D11*
G04 #@! TO.P,D27,2*
G04 #@! TO.N,Net-(D27-Pad2)*
X95975000Y-85471000D03*
G04 #@! TD*
D10*
G04 #@! TO.P,D28,1*
G04 #@! TO.N,ROW2*
X107352000Y-85471000D03*
D11*
G04 #@! TO.P,D28,2*
G04 #@! TO.N,Net-(D28-Pad2)*
X115152000Y-85471000D03*
G04 #@! TD*
G04 #@! TO.P,D29,2*
G04 #@! TO.N,Net-(D29-Pad2)*
X133948000Y-85217000D03*
D10*
G04 #@! TO.P,D29,1*
G04 #@! TO.N,ROW3*
X126148000Y-85217000D03*
G04 #@! TD*
G04 #@! TO.P,D30,1*
G04 #@! TO.N,ROW1*
X144944000Y-85344000D03*
D11*
G04 #@! TO.P,D30,2*
G04 #@! TO.N,Net-(D30-Pad2)*
X152744000Y-85344000D03*
G04 #@! TD*
D10*
G04 #@! TO.P,D31,1*
G04 #@! TO.N,ROW2*
X163486000Y-84963000D03*
D11*
G04 #@! TO.P,D31,2*
G04 #@! TO.N,Net-(D31-Pad2)*
X171286000Y-84963000D03*
G04 #@! TD*
G04 #@! TO.P,D32,2*
G04 #@! TO.N,Net-(D32-Pad2)*
X191098000Y-85217000D03*
D10*
G04 #@! TO.P,D32,1*
G04 #@! TO.N,ROW3*
X183298000Y-85217000D03*
G04 #@! TD*
D11*
G04 #@! TO.P,D33,2*
G04 #@! TO.N,Net-(D33-Pad2)*
X209513000Y-85217000D03*
D10*
G04 #@! TO.P,D33,1*
G04 #@! TO.N,ROW4*
X201713000Y-85217000D03*
G04 #@! TD*
G04 #@! TO.P,D34,1*
G04 #@! TO.N,ROW1*
X221398000Y-85090000D03*
D11*
G04 #@! TO.P,D34,2*
G04 #@! TO.N,Net-(D34-Pad2)*
X229198000Y-85090000D03*
G04 #@! TD*
D10*
G04 #@! TO.P,D35,1*
G04 #@! TO.N,ROW2*
X240448000Y-85471000D03*
D11*
G04 #@! TO.P,D35,2*
G04 #@! TO.N,Net-(D35-Pad2)*
X248248000Y-85471000D03*
G04 #@! TD*
G04 #@! TO.P,D36,2*
G04 #@! TO.N,Net-(D36-Pad2)*
X266790000Y-85471000D03*
D10*
G04 #@! TO.P,D36,1*
G04 #@! TO.N,ROW3*
X258990000Y-85471000D03*
G04 #@! TD*
D11*
G04 #@! TO.P,D37,2*
G04 #@! TO.N,Net-(D37-Pad2)*
X46064000Y-104140000D03*
D10*
G04 #@! TO.P,D37,1*
G04 #@! TO.N,ROW4*
X38264000Y-104140000D03*
G04 #@! TD*
G04 #@! TO.P,D38,1*
G04 #@! TO.N,ROW1*
X64172000Y-104267000D03*
D11*
G04 #@! TO.P,D38,2*
G04 #@! TO.N,Net-(D38-Pad2)*
X71972000Y-104267000D03*
G04 #@! TD*
D10*
G04 #@! TO.P,D39,1*
G04 #@! TO.N,ROW2*
X90334000Y-104648000D03*
D11*
G04 #@! TO.P,D39,2*
G04 #@! TO.N,Net-(D39-Pad2)*
X98134000Y-104648000D03*
G04 #@! TD*
G04 #@! TO.P,D40,2*
G04 #@! TO.N,Net-(D40-Pad2)*
X110871000Y-98134000D03*
D10*
G04 #@! TO.P,D40,1*
G04 #@! TO.N,ROW3*
X110871000Y-90334000D03*
G04 #@! TD*
D11*
G04 #@! TO.P,D41,2*
G04 #@! TO.N,Net-(D41-Pad2)*
X114644000Y-101727000D03*
D10*
G04 #@! TO.P,D41,1*
G04 #@! TO.N,ROW4*
X106844000Y-101727000D03*
G04 #@! TD*
G04 #@! TO.P,D42,1*
G04 #@! TO.N,ROW1*
X197141000Y-104648000D03*
D11*
G04 #@! TO.P,D42,2*
G04 #@! TO.N,Net-(D42-Pad2)*
X204941000Y-104648000D03*
G04 #@! TD*
G04 #@! TO.P,D43,2*
G04 #@! TO.N,Net-(D43-Pad2)*
X229071000Y-104648000D03*
D10*
G04 #@! TO.P,D43,1*
G04 #@! TO.N,ROW2*
X221271000Y-104648000D03*
G04 #@! TD*
D11*
G04 #@! TO.P,D44,2*
G04 #@! TO.N,Net-(D44-Pad2)*
X247867000Y-104521000D03*
D10*
G04 #@! TO.P,D44,1*
G04 #@! TO.N,ROW3*
X240067000Y-104521000D03*
G04 #@! TD*
D11*
G04 #@! TO.P,D45,2*
G04 #@! TO.N,Net-(D45-Pad2)*
X267171000Y-104648000D03*
D10*
G04 #@! TO.P,D45,1*
G04 #@! TO.N,ROW4*
X259371000Y-104648000D03*
G04 #@! TD*
D12*
G04 #@! TO.P,SW1,1*
G04 #@! TO.N,Net-(D1-Pad2)*
X41910000Y-33020000D03*
G04 #@! TO.P,SW1,2*
G04 #@! TO.N,COL1*
X35560000Y-35560000D03*
G04 #@! TD*
G04 #@! TO.P,SW2,2*
G04 #@! TO.N,COL1*
X54610000Y-35560000D03*
G04 #@! TO.P,SW2,1*
G04 #@! TO.N,Net-(D2-Pad2)*
X60960000Y-33020000D03*
G04 #@! TD*
G04 #@! TO.P,SW3,1*
G04 #@! TO.N,Net-(D3-Pad2)*
X80010000Y-33020000D03*
G04 #@! TO.P,SW3,2*
G04 #@! TO.N,COL1*
X73660000Y-35560000D03*
G04 #@! TD*
G04 #@! TO.P,SW4,1*
G04 #@! TO.N,Net-(D4-Pad2)*
X99060000Y-33020000D03*
G04 #@! TO.P,SW4,2*
G04 #@! TO.N,COL1*
X92710000Y-35560000D03*
G04 #@! TD*
G04 #@! TO.P,SW5,1*
G04 #@! TO.N,Net-(D5-Pad2)*
X118110000Y-33020000D03*
G04 #@! TO.P,SW5,2*
G04 #@! TO.N,COL2*
X111760000Y-35560000D03*
G04 #@! TD*
G04 #@! TO.P,SW6,2*
G04 #@! TO.N,COL2*
X130556000Y-35560000D03*
G04 #@! TO.P,SW6,1*
G04 #@! TO.N,Net-(D6-Pad2)*
X136906000Y-33020000D03*
G04 #@! TD*
G04 #@! TO.P,SW7,1*
G04 #@! TO.N,Net-(D7-Pad2)*
X155956000Y-33020000D03*
G04 #@! TO.P,SW7,2*
G04 #@! TO.N,COL2*
X149606000Y-35560000D03*
G04 #@! TD*
G04 #@! TO.P,SW8,1*
G04 #@! TO.N,Net-(D8-Pad2)*
X175006000Y-33020000D03*
G04 #@! TO.P,SW8,2*
G04 #@! TO.N,COL2*
X168656000Y-35560000D03*
G04 #@! TD*
G04 #@! TO.P,SW9,2*
G04 #@! TO.N,COL3*
X187706000Y-35560000D03*
G04 #@! TO.P,SW9,1*
G04 #@! TO.N,Net-(D9-Pad2)*
X194056000Y-33020000D03*
G04 #@! TD*
G04 #@! TO.P,SW10,2*
G04 #@! TO.N,COL3*
X206756000Y-35560000D03*
G04 #@! TO.P,SW10,1*
G04 #@! TO.N,Net-(D10-Pad2)*
X213106000Y-33020000D03*
G04 #@! TD*
G04 #@! TO.P,SW11,1*
G04 #@! TO.N,Net-(D11-Pad2)*
X232156000Y-33020000D03*
G04 #@! TO.P,SW11,2*
G04 #@! TO.N,COL3*
X225806000Y-35560000D03*
G04 #@! TD*
G04 #@! TO.P,SW12,1*
G04 #@! TO.N,Net-(D12-Pad2)*
X258064000Y-33020000D03*
G04 #@! TO.P,SW12,2*
G04 #@! TO.N,COL3*
X251714000Y-35560000D03*
G04 #@! TD*
G04 #@! TO.P,SW13,2*
G04 #@! TO.N,COL4*
X38100000Y-54610000D03*
G04 #@! TO.P,SW13,1*
G04 #@! TO.N,Net-(D13-Pad2)*
X44450000Y-52070000D03*
G04 #@! TD*
G04 #@! TO.P,SW14,2*
G04 #@! TO.N,COL4*
X59182000Y-54610000D03*
G04 #@! TO.P,SW14,1*
G04 #@! TO.N,Net-(D14-Pad2)*
X65532000Y-52070000D03*
G04 #@! TD*
G04 #@! TO.P,SW15,1*
G04 #@! TO.N,Net-(D15-Pad2)*
X84582000Y-52070000D03*
G04 #@! TO.P,SW15,2*
G04 #@! TO.N,COL4*
X78232000Y-54610000D03*
G04 #@! TD*
G04 #@! TO.P,SW16,2*
G04 #@! TO.N,COL5*
X97282000Y-54610000D03*
G04 #@! TO.P,SW16,1*
G04 #@! TO.N,Net-(D16-Pad2)*
X103632000Y-52070000D03*
G04 #@! TD*
G04 #@! TO.P,SW17,2*
G04 #@! TO.N,COL5*
X116332000Y-54610000D03*
G04 #@! TO.P,SW17,1*
G04 #@! TO.N,Net-(D17-Pad2)*
X122682000Y-52070000D03*
G04 #@! TD*
G04 #@! TO.P,SW18,1*
G04 #@! TO.N,Net-(D18-Pad2)*
X141478000Y-52070000D03*
G04 #@! TO.P,SW18,2*
G04 #@! TO.N,COL5*
X135128000Y-54610000D03*
G04 #@! TD*
G04 #@! TO.P,SW19,1*
G04 #@! TO.N,Net-(D19-Pad2)*
X160528000Y-52070000D03*
G04 #@! TO.P,SW19,2*
G04 #@! TO.N,COL5*
X154178000Y-54610000D03*
G04 #@! TD*
G04 #@! TO.P,SW20,2*
G04 #@! TO.N,COL6*
X173228000Y-54610000D03*
G04 #@! TO.P,SW20,1*
G04 #@! TO.N,Net-(D20-Pad2)*
X179578000Y-52070000D03*
G04 #@! TD*
G04 #@! TO.P,SW21,2*
G04 #@! TO.N,COL6*
X192278000Y-54610000D03*
G04 #@! TO.P,SW21,1*
G04 #@! TO.N,Net-(D21-Pad2)*
X198628000Y-52070000D03*
G04 #@! TD*
G04 #@! TO.P,SW22,1*
G04 #@! TO.N,Net-(D22-Pad2)*
X217678000Y-52070000D03*
G04 #@! TO.P,SW22,2*
G04 #@! TO.N,COL6*
X211328000Y-54610000D03*
G04 #@! TD*
G04 #@! TO.P,SW23,2*
G04 #@! TO.N,COL7*
X230378000Y-54610000D03*
G04 #@! TO.P,SW23,1*
G04 #@! TO.N,Net-(D23-Pad2)*
X236728000Y-52070000D03*
G04 #@! TD*
G04 #@! TO.P,SW24,2*
G04 #@! TO.N,COL7*
X254254000Y-54610000D03*
G04 #@! TO.P,SW24,1*
G04 #@! TO.N,Net-(D24-Pad2)*
X260604000Y-52070000D03*
G04 #@! TD*
G04 #@! TO.P,SW25,1*
G04 #@! TO.N,Net-(D25-Pad2)*
X49022000Y-71120000D03*
G04 #@! TO.P,SW25,2*
G04 #@! TO.N,COL7*
X42672000Y-73660000D03*
G04 #@! TD*
G04 #@! TO.P,SW26,1*
G04 #@! TO.N,Net-(D26-Pad2)*
X75184000Y-70993000D03*
G04 #@! TO.P,SW26,2*
G04 #@! TO.N,COL7*
X68834000Y-73533000D03*
G04 #@! TD*
G04 #@! TO.P,SW27,2*
G04 #@! TO.N,COL8*
X87884000Y-73533000D03*
G04 #@! TO.P,SW27,1*
G04 #@! TO.N,Net-(D27-Pad2)*
X94234000Y-70993000D03*
G04 #@! TD*
G04 #@! TO.P,SW28,2*
G04 #@! TO.N,COL8*
X106807000Y-73533000D03*
G04 #@! TO.P,SW28,1*
G04 #@! TO.N,Net-(D28-Pad2)*
X113157000Y-70993000D03*
G04 #@! TD*
G04 #@! TO.P,SW29,1*
G04 #@! TO.N,Net-(D29-Pad2)*
X132207000Y-70993000D03*
G04 #@! TO.P,SW29,2*
G04 #@! TO.N,COL8*
X125857000Y-73533000D03*
G04 #@! TD*
G04 #@! TO.P,SW30,2*
G04 #@! TO.N,COL9*
X152400000Y-78613000D03*
G04 #@! TO.P,SW30,1*
G04 #@! TO.N,Net-(D30-Pad2)*
X146050000Y-81153000D03*
G04 #@! TD*
G04 #@! TO.P,SW31,2*
G04 #@! TO.N,COL9*
X163830000Y-73533000D03*
G04 #@! TO.P,SW31,1*
G04 #@! TO.N,Net-(D31-Pad2)*
X170180000Y-70993000D03*
G04 #@! TD*
G04 #@! TO.P,SW32,1*
G04 #@! TO.N,Net-(D32-Pad2)*
X189230000Y-70993000D03*
G04 #@! TO.P,SW32,2*
G04 #@! TO.N,COL9*
X182880000Y-73533000D03*
G04 #@! TD*
G04 #@! TO.P,SW33,2*
G04 #@! TO.N,COL9*
X201930000Y-73533000D03*
G04 #@! TO.P,SW33,1*
G04 #@! TO.N,Net-(D33-Pad2)*
X208280000Y-70993000D03*
G04 #@! TD*
G04 #@! TO.P,SW34,2*
G04 #@! TO.N,COL10*
X220853000Y-73533000D03*
G04 #@! TO.P,SW34,1*
G04 #@! TO.N,Net-(D34-Pad2)*
X227203000Y-70993000D03*
G04 #@! TD*
G04 #@! TO.P,SW35,2*
G04 #@! TO.N,COL10*
X239903000Y-73533000D03*
G04 #@! TO.P,SW35,1*
G04 #@! TO.N,Net-(D35-Pad2)*
X246253000Y-70993000D03*
G04 #@! TD*
G04 #@! TO.P,SW36,1*
G04 #@! TO.N,Net-(D36-Pad2)*
X265176000Y-70993000D03*
G04 #@! TO.P,SW36,2*
G04 #@! TO.N,COL10*
X258826000Y-73533000D03*
G04 #@! TD*
G04 #@! TO.P,SW37,1*
G04 #@! TO.N,Net-(D37-Pad2)*
X44323000Y-89916000D03*
G04 #@! TO.P,SW37,2*
G04 #@! TO.N,COL10*
X37973000Y-92456000D03*
G04 #@! TD*
G04 #@! TO.P,SW38,2*
G04 #@! TO.N,COL11*
X64135000Y-92583000D03*
G04 #@! TO.P,SW38,1*
G04 #@! TO.N,Net-(D38-Pad2)*
X70485000Y-90043000D03*
G04 #@! TD*
G04 #@! TO.P,SW39,2*
G04 #@! TO.N,COL11*
X90170000Y-92583000D03*
G04 #@! TO.P,SW39,1*
G04 #@! TO.N,Net-(D39-Pad2)*
X96520000Y-90043000D03*
G04 #@! TD*
G04 #@! TO.P,SW40,1*
G04 #@! TO.N,Net-(D40-Pad2)*
X122174000Y-92583000D03*
G04 #@! TO.P,SW40,2*
G04 #@! TO.N,COL11*
X124714000Y-98933000D03*
G04 #@! TD*
G04 #@! TO.P,SW41,1*
G04 #@! TO.N,Net-(D41-Pad2)*
X162560000Y-92583000D03*
G04 #@! TO.P,SW41,2*
G04 #@! TO.N,COL11*
X165100000Y-98933000D03*
G04 #@! TD*
G04 #@! TO.P,SW42,2*
G04 #@! TO.N,COL12*
X197104000Y-92583000D03*
G04 #@! TO.P,SW42,1*
G04 #@! TO.N,Net-(D42-Pad2)*
X203454000Y-90043000D03*
G04 #@! TD*
G04 #@! TO.P,SW43,1*
G04 #@! TO.N,Net-(D43-Pad2)*
X227203000Y-90043000D03*
G04 #@! TO.P,SW43,2*
G04 #@! TO.N,COL12*
X220853000Y-92583000D03*
G04 #@! TD*
G04 #@! TO.P,SW44,1*
G04 #@! TO.N,Net-(D44-Pad2)*
X246253000Y-90043000D03*
G04 #@! TO.P,SW44,2*
G04 #@! TO.N,COL12*
X239903000Y-92583000D03*
G04 #@! TD*
G04 #@! TO.P,SW45,1*
G04 #@! TO.N,Net-(D45-Pad2)*
X265176000Y-90043000D03*
G04 #@! TO.P,SW45,2*
G04 #@! TO.N,COL12*
X258826000Y-92583000D03*
G04 #@! TD*
D10*
G04 #@! TO.P,U1,1*
G04 #@! TO.N,Net-(U1-Pad1)*
X152527000Y-104267000D03*
D11*
G04 #@! TO.P,U1,2*
G04 #@! TO.N,Net-(U1-Pad2)*
X155067000Y-104267000D03*
G04 #@! TO.P,U1,3*
G04 #@! TO.N,Net-(U1-Pad3)*
X157607000Y-104267000D03*
G04 #@! TO.P,U1,4*
G04 #@! TO.N,ROW1*
X160147000Y-104267000D03*
G04 #@! TO.P,U1,5*
G04 #@! TO.N,ROW2*
X162687000Y-104267000D03*
G04 #@! TO.P,U1,6*
G04 #@! TO.N,ROW3*
X165227000Y-104267000D03*
G04 #@! TO.P,U1,7*
G04 #@! TO.N,ROW4*
X167767000Y-104267000D03*
G04 #@! TO.P,U1,8*
G04 #@! TO.N,COL1*
X170307000Y-104267000D03*
G04 #@! TO.P,U1,9*
G04 #@! TO.N,COL2*
X172847000Y-104267000D03*
G04 #@! TO.P,U1,10*
G04 #@! TO.N,COL3*
X175387000Y-104267000D03*
G04 #@! TO.P,U1,11*
G04 #@! TO.N,COL4*
X177927000Y-104267000D03*
G04 #@! TO.P,U1,12*
G04 #@! TO.N,COL5*
X180467000Y-104267000D03*
G04 #@! TO.P,U1,13*
G04 #@! TO.N,Net-(U1-Pad13)*
X183007000Y-104267000D03*
G04 #@! TO.P,U1,33*
G04 #@! TO.N,Net-(U1-Pad33)*
X152527000Y-89027000D03*
G04 #@! TO.P,U1,32*
G04 #@! TO.N,Net-(U1-Pad32)*
X155067000Y-89027000D03*
G04 #@! TO.P,U1,31*
G04 #@! TO.N,Net-(U1-Pad31)*
X157607000Y-89027000D03*
G04 #@! TO.P,U1,30*
G04 #@! TO.N,Net-(U1-Pad30)*
X160147000Y-89027000D03*
G04 #@! TO.P,U1,29*
G04 #@! TO.N,Net-(U1-Pad29)*
X162687000Y-89027000D03*
G04 #@! TO.P,U1,28*
G04 #@! TO.N,Net-(U1-Pad28)*
X165227000Y-89027000D03*
G04 #@! TO.P,U1,27*
G04 #@! TO.N,Net-(U1-Pad27)*
X167767000Y-89027000D03*
G04 #@! TO.P,U1,26*
G04 #@! TO.N,COL12*
X170307000Y-89027000D03*
G04 #@! TO.P,U1,25*
G04 #@! TO.N,COL11*
X172847000Y-89027000D03*
G04 #@! TO.P,U1,24*
G04 #@! TO.N,COL10*
X175387000Y-89027000D03*
G04 #@! TO.P,U1,23*
G04 #@! TO.N,COL9*
X177927000Y-89027000D03*
G04 #@! TO.P,U1,22*
G04 #@! TO.N,COL8*
X180467000Y-89027000D03*
G04 #@! TO.P,U1,21*
G04 #@! TO.N,COL7*
X183007000Y-89027000D03*
G04 #@! TO.P,U1,14*
G04 #@! TO.N,Net-(U1-Pad14)*
X185547000Y-104267000D03*
G04 #@! TO.P,U1,15*
G04 #@! TO.N,Net-(U1-Pad15)*
X185547000Y-101727000D03*
G04 #@! TO.P,U1,16*
G04 #@! TO.N,Net-(U1-Pad16)*
X185547000Y-99187000D03*
G04 #@! TO.P,U1,20*
G04 #@! TO.N,COL6*
X185547000Y-89027000D03*
G04 #@! TO.P,U1,19*
G04 #@! TO.N,Net-(U1-Pad19)*
X185547000Y-91567000D03*
G04 #@! TO.P,U1,18*
G04 #@! TO.N,Net-(U1-Pad18)*
X185547000Y-94107000D03*
G04 #@! TO.P,U1,17*
G04 #@! TO.N,Net-(U1-Pad17)*
X185547000Y-96647000D03*
G04 #@! TD*
D13*
G04 #@! TO.N,COL4*
X178680200Y-83111900D03*
G04 #@! TD*
D14*
G04 #@! TO.N,ROW1*
X88737700Y-85471000D02*
X89893900Y-86627200D01*
X89893900Y-86627200D02*
X142535500Y-86627200D01*
X142535500Y-86627200D02*
X143818700Y-85344000D01*
X144944000Y-85344000D02*
X143818700Y-85344000D01*
X187743000Y-47498000D02*
X188868300Y-47498000D01*
X230542000Y-66929000D02*
X228324600Y-66929000D01*
X228324600Y-66929000D02*
X216171100Y-54775500D01*
X216171100Y-54775500D02*
X213570200Y-54775500D01*
X213570200Y-54775500D02*
X209396400Y-50601700D01*
X209396400Y-50601700D02*
X191972000Y-50601700D01*
X191972000Y-50601700D02*
X188868300Y-47498000D01*
X88737700Y-85471000D02*
X88737700Y-76528300D01*
X88737700Y-76528300D02*
X86407100Y-74197700D01*
X86407100Y-74197700D02*
X86407100Y-72927800D01*
X86407100Y-72927800D02*
X92659900Y-66675000D01*
X92659900Y-66675000D02*
X97319000Y-66675000D01*
X88175000Y-85471000D02*
X88737700Y-85471000D01*
X160147000Y-104267000D02*
X161751100Y-105871100D01*
X161751100Y-105871100D02*
X194792600Y-105871100D01*
X194792600Y-105871100D02*
X196015700Y-104648000D01*
X197141000Y-104648000D02*
X196015700Y-104648000D01*
G04 #@! TO.N,ROW2*
X107352000Y-85471000D02*
X108477300Y-85471000D01*
X163486000Y-84963000D02*
X162360700Y-84963000D01*
X162360700Y-84963000D02*
X161448400Y-84050700D01*
X161448400Y-84050700D02*
X109897600Y-84050700D01*
X109897600Y-84050700D02*
X108477300Y-85471000D01*
X221271000Y-104648000D02*
X220145700Y-104648000D01*
X162687000Y-104267000D02*
X163812400Y-105392400D01*
X163812400Y-105392400D02*
X193924700Y-105392400D01*
X193924700Y-105392400D02*
X195794400Y-103522700D01*
X195794400Y-103522700D02*
X219020400Y-103522700D01*
X219020400Y-103522700D02*
X220145700Y-104648000D01*
X253419700Y-66548000D02*
X252548300Y-65676600D01*
X252548300Y-65676600D02*
X231172300Y-65676600D01*
X231172300Y-65676600D02*
X219289700Y-53794000D01*
X219289700Y-53794000D02*
X213833200Y-53794000D01*
X213833200Y-53794000D02*
X213833200Y-53793900D01*
X213833200Y-53793900D02*
X207664300Y-47625000D01*
X206539000Y-47625000D02*
X207664300Y-47625000D01*
X254545000Y-66548000D02*
X253419700Y-66548000D01*
G04 #@! TO.N,ROW3*
X109745700Y-90334000D02*
X107085700Y-87674000D01*
X107085700Y-87674000D02*
X87818900Y-87674000D01*
X87818900Y-87674000D02*
X78902000Y-78757100D01*
X42582000Y-85471000D02*
X43707300Y-85471000D01*
X43707300Y-85471000D02*
X50421200Y-78757100D01*
X50421200Y-78757100D02*
X78902000Y-78757100D01*
X78902000Y-78757100D02*
X78902000Y-68306300D01*
X78902000Y-68306300D02*
X78269000Y-67673300D01*
X78269000Y-66548000D02*
X78269000Y-67673300D01*
X110871000Y-90334000D02*
X109745700Y-90334000D01*
X211365000Y-66802000D02*
X210239700Y-66802000D01*
X183298000Y-85217000D02*
X184423300Y-85217000D01*
X184423300Y-85217000D02*
X185548600Y-84091700D01*
X185548600Y-84091700D02*
X194366600Y-84091700D01*
X194366600Y-84091700D02*
X204227400Y-74230900D01*
X204227400Y-74230900D02*
X204227400Y-72814300D01*
X204227400Y-72814300D02*
X210239700Y-66802000D01*
X150151000Y-47498000D02*
X150151000Y-48623300D01*
X135165000Y-66421000D02*
X135165000Y-65295700D01*
X135165000Y-65295700D02*
X142286300Y-58174400D01*
X142286300Y-58174400D02*
X142286300Y-56488000D01*
X142286300Y-56488000D02*
X150151000Y-48623300D01*
G04 #@! TO.N,ROW4*
X169468900Y-52927400D02*
X169455000Y-52913600D01*
X169455000Y-52913600D02*
X169455000Y-47625000D01*
X216421900Y-69726800D02*
X212192000Y-65496900D01*
X212192000Y-65496900D02*
X182038300Y-65496900D01*
X182038300Y-65496900D02*
X169468900Y-52927400D01*
X155594300Y-66802000D02*
X169468900Y-52927400D01*
X39389300Y-104140000D02*
X57931300Y-85598000D01*
X57931300Y-85598000D02*
X67872700Y-85598000D01*
X154469000Y-66802000D02*
X155594300Y-66802000D01*
X201713000Y-85217000D02*
X203358200Y-85217000D01*
X203358200Y-85217000D02*
X216421900Y-72153300D01*
X216421900Y-72153300D02*
X216421900Y-69726800D01*
X216421900Y-69726800D02*
X217477500Y-68671200D01*
X217477500Y-68671200D02*
X255722300Y-68671200D01*
X255722300Y-68671200D02*
X255722300Y-52340600D01*
X255722300Y-52340600D02*
X252132000Y-48750300D01*
X259371000Y-103522700D02*
X260294400Y-102599300D01*
X260294400Y-102599300D02*
X260294400Y-72897600D01*
X260294400Y-72897600D02*
X256068000Y-68671200D01*
X256068000Y-68671200D02*
X255722300Y-68671200D01*
X38264000Y-104140000D02*
X39389300Y-104140000D01*
X68998000Y-85598000D02*
X67872700Y-85598000D01*
X69180000Y-85598000D02*
X68998000Y-85598000D01*
X69180000Y-85598000D02*
X70123300Y-85598000D01*
X167767000Y-104267000D02*
X166369500Y-102869500D01*
X166369500Y-102869500D02*
X109111800Y-102869500D01*
X109111800Y-102869500D02*
X107969300Y-101727000D01*
X106844000Y-101727000D02*
X107969300Y-101727000D01*
X70123300Y-85598000D02*
X86252300Y-101727000D01*
X86252300Y-101727000D02*
X106844000Y-101727000D01*
X259371000Y-104648000D02*
X259371000Y-103522700D01*
X252132000Y-47625000D02*
X252132000Y-48750300D01*
G04 #@! TO.N,Net-(D38-Pad2)*
X70485000Y-90043000D02*
X70485000Y-102780000D01*
X70485000Y-102780000D02*
X71972000Y-104267000D01*
G04 #@! TO.N,Net-(D41-Pad2)*
X162560000Y-92583000D02*
X162560000Y-93755400D01*
X162560000Y-93755400D02*
X166602500Y-97797900D01*
X166602500Y-97797900D02*
X166602500Y-99507200D01*
X166602500Y-99507200D02*
X164382700Y-101727000D01*
X164382700Y-101727000D02*
X114644000Y-101727000D01*
G04 #@! TO.N,COL1*
X73660000Y-35560000D02*
X54610000Y-35560000D01*
X92710000Y-35560000D02*
X73660000Y-35560000D01*
X54610000Y-35560000D02*
X35560000Y-35560000D01*
G04 #@! TO.N,COL2*
X149606000Y-35560000D02*
X130556000Y-35560000D01*
X168656000Y-35560000D02*
X149606000Y-35560000D01*
X130556000Y-35560000D02*
X111760000Y-35560000D01*
G04 #@! TO.N,COL3*
X251714000Y-35560000D02*
X225806000Y-35560000D01*
X206756000Y-35560000D02*
X225806000Y-35560000D01*
X187706000Y-35560000D02*
X206756000Y-35560000D01*
G04 #@! TO.N,COL4*
X178680200Y-83111900D02*
X175843600Y-80275300D01*
X175843600Y-80275300D02*
X148866500Y-80275300D01*
X148866500Y-80275300D02*
X146084200Y-77493000D01*
X146084200Y-77493000D02*
X143266500Y-77493000D01*
X143266500Y-77493000D02*
X125342900Y-59569400D01*
X125342900Y-59569400D02*
X93249900Y-59569400D01*
X93249900Y-59569400D02*
X88290500Y-54610000D01*
X88290500Y-54610000D02*
X78232000Y-54610000D01*
X38100000Y-54610000D02*
X59182000Y-54610000D01*
X59182000Y-54610000D02*
X78232000Y-54610000D01*
G04 #@! TO.N,COL5*
X116332000Y-54610000D02*
X97282000Y-54610000D01*
X135128000Y-54610000D02*
X116332000Y-54610000D01*
G04 #@! TO.N,COL6*
X192278000Y-54610000D02*
X173228000Y-54610000D01*
X211328000Y-54610000D02*
X192278000Y-54610000D01*
G04 #@! TO.N,COL7*
X183007000Y-89027000D02*
X177116600Y-83136600D01*
X177116600Y-83136600D02*
X150825900Y-83136600D01*
X150825900Y-83136600D02*
X147305800Y-79616500D01*
X147305800Y-79616500D02*
X143466700Y-79616500D01*
X143466700Y-79616500D02*
X129248800Y-65398600D01*
X129248800Y-65398600D02*
X76968400Y-65398600D01*
X76968400Y-65398600D02*
X68834000Y-73533000D01*
X42672000Y-73660000D02*
X42799000Y-73533000D01*
X42799000Y-73533000D02*
X68834000Y-73533000D01*
X254254000Y-54610000D02*
X230378000Y-54610000D01*
G04 #@! TO.N,COL8*
X125857000Y-73533000D02*
X135533800Y-73533000D01*
X135533800Y-73533000D02*
X145587800Y-83587000D01*
X145587800Y-83587000D02*
X175027000Y-83587000D01*
X175027000Y-83587000D02*
X180467000Y-89027000D01*
X106807000Y-73533000D02*
X125857000Y-73533000D01*
X87884000Y-73533000D02*
X106807000Y-73533000D01*
G04 #@! TO.N,COL9*
X182880000Y-73533000D02*
X163830000Y-73533000D01*
X201930000Y-73533000D02*
X182880000Y-73533000D01*
X163830000Y-73533000D02*
X163436500Y-73533000D01*
X163436500Y-73533000D02*
X158356500Y-78613000D01*
X158356500Y-78613000D02*
X152400000Y-78613000D01*
G04 #@! TO.N,COL10*
X175387000Y-89027000D02*
X174254100Y-87894100D01*
X174254100Y-87894100D02*
X124270900Y-87894100D01*
X124270900Y-87894100D02*
X120705600Y-91459400D01*
X120705600Y-91459400D02*
X100564900Y-91459400D01*
X100564900Y-91459400D02*
X97454900Y-88349400D01*
X97454900Y-88349400D02*
X82998800Y-88349400D01*
X82998800Y-88349400D02*
X79122000Y-84472600D01*
X79122000Y-84472600D02*
X53211200Y-84472600D01*
X53211200Y-84472600D02*
X45227800Y-92456000D01*
X45227800Y-92456000D02*
X37973000Y-92456000D01*
X220853000Y-73533000D02*
X217441600Y-73533000D01*
X217441600Y-73533000D02*
X200790200Y-90184400D01*
X200790200Y-90184400D02*
X176544400Y-90184400D01*
X176544400Y-90184400D02*
X175387000Y-89027000D01*
X239903000Y-73533000D02*
X220853000Y-73533000D01*
X239903000Y-73533000D02*
X258826000Y-73533000D01*
G04 #@! TO.N,COL11*
X124714000Y-98933000D02*
X118364000Y-92583000D01*
X118364000Y-92583000D02*
X90170000Y-92583000D01*
X165100000Y-98933000D02*
X124714000Y-98933000D01*
G04 #@! TO.N,COL12*
X170307000Y-89027000D02*
X173973300Y-92693300D01*
X173973300Y-92693300D02*
X196993700Y-92693300D01*
X196993700Y-92693300D02*
X197104000Y-92583000D01*
X220853000Y-92583000D02*
X197104000Y-92583000D01*
X239903000Y-92583000D02*
X220853000Y-92583000D01*
X258826000Y-92583000D02*
X239903000Y-92583000D01*
G04 #@! TD*
M02*
