M48
;DRILL file {KiCad (5.0.1-3-g963ef8bb5)} date Friday, December 21, 2018 at 01:17:33 AM
;FORMAT={-:-/ absolute / inch / decimal}
FMAT,2
INCH,TZ
T1C0.0670
T2C0.1570
%
G90
G05
M72
T1
X3.03Y-2.25
X3.43Y-2.25
X6.02Y-2.25
X6.42Y-2.25
X6.4Y-2.995
X6.8Y-2.995
X9.395Y-2.995
X9.795Y-2.995
X1.63Y-3.
X2.03Y-3.
X2.85Y-1.5
X3.25Y-1.5
X8.84Y-1.5
X9.24Y-1.5
X4.155Y-2.995
X4.555Y-2.995
X8.27Y-2.25
X8.67Y-2.25
X2.475Y-3.745
X2.875Y-3.745
X7.52Y-2.25
X7.92Y-2.25
X1.45Y-2.25
X1.85Y-2.25
X4.53Y-2.25
X4.93Y-2.25
X4.905Y-2.995
X5.305Y-2.995
X7.9Y-2.995
X8.3Y-2.995
X9.02Y-2.25
X9.42Y-2.25
X3.5Y-3.745
X3.9Y-3.745
X5.84Y-1.5
X6.24Y-1.5
X10.14Y-3.745
X10.54Y-3.745
X1.35Y-1.5
X1.75Y-1.5
X3.78Y-2.25
X4.18Y-2.25
X6.77Y-2.25
X7.17Y-2.25
X7.15Y-2.995
X7.55Y-2.995
X10.14Y-2.995
X10.54Y-2.995
X3.6Y-1.5
X4.Y-1.5
X9.86Y-1.5
X10.26Y-1.5
X2.1Y-1.5
X2.5Y-1.5
X2.66Y-2.995
X3.06Y-2.995
X7.71Y-3.745
X8.11Y-3.745
X8.09Y-1.5
X8.49Y-1.5
X1.445Y-3.74
X1.845Y-3.74
X8.645Y-3.745
X9.045Y-3.745
X3.41Y-2.995
X3.81Y-2.995
X4.35Y-1.5
X4.75Y-1.5
X5.09Y-1.5
X5.49Y-1.5
X9.96Y-2.25
X10.36Y-2.25
X5.01Y-3.545
X5.01Y-3.945
X9.395Y-3.745
X9.795Y-3.745
X7.34Y-1.5
X7.74Y-1.5
X2.28Y-2.25
X2.68Y-2.25
X5.27Y-2.25
X5.67Y-2.25
X5.65Y-2.995
X6.05Y-2.995
X8.645Y-2.995
X9.045Y-2.995
X6.59Y-1.5
X6.99Y-1.5
X6.6Y-3.545
X6.6Y-3.945
T2
X9.595Y-3.745
X7.54Y-1.5
X2.48Y-2.25
X5.47Y-2.25
X5.85Y-2.995
X8.845Y-2.995
X6.79Y-1.5
X6.6Y-3.745
X3.23Y-2.25
X6.22Y-2.25
X6.6Y-2.995
X9.595Y-2.995
X1.83Y-3.
X3.05Y-1.5
X9.04Y-1.5
X4.355Y-2.995
X8.47Y-2.25
X2.675Y-3.745
X7.72Y-2.25
X1.65Y-2.25
X4.73Y-2.25
X5.105Y-2.995
X8.1Y-2.995
X9.22Y-2.25
X3.7Y-3.745
X6.04Y-1.5
X10.34Y-3.745
X1.55Y-1.5
X3.98Y-2.25
X6.97Y-2.25
X7.35Y-2.995
X10.34Y-2.995
X3.8Y-1.5
X10.06Y-1.5
X2.3Y-1.5
X2.86Y-2.995
X7.91Y-3.745
X8.29Y-1.5
X1.645Y-3.74
X8.845Y-3.745
X3.61Y-2.995
X4.55Y-1.5
X5.29Y-1.5
X10.16Y-2.25
X5.01Y-3.745
T0
M30
