G04 #@! TF.GenerationSoftware,KiCad,Pcbnew,(5.0.1-3-g963ef8bb5)*
G04 #@! TF.CreationDate,2018-12-21T01:17:29-08:00*
G04 #@! TF.ProjectId,snackymini-keyboard,736E61636B796D696E692D6B6579626F,rev?*
G04 #@! TF.SameCoordinates,Original*
G04 #@! TF.FileFunction,Legend,Top*
G04 #@! TF.FilePolarity,Positive*
%FSLAX46Y46*%
G04 Gerber Fmt 4.6, Leading zero omitted, Abs format (unit mm)*
G04 Created by KiCad (PCBNEW (5.0.1-3-g963ef8bb5)) date Friday, December 21, 2018 at 01:17:29 AM*
%MOMM*%
%LPD*%
G01*
G04 APERTURE LIST*
%ADD10C,0.300000*%
%ADD11C,0.200000*%
%ADD12C,0.381000*%
%ADD13C,0.150000*%
%ADD14C,0.203200*%
G04 APERTURE END LIST*
D10*
X140497857Y-96360142D02*
X140631785Y-96431571D01*
X140917500Y-96431571D01*
X141069285Y-96360142D01*
X141158571Y-96217285D01*
X141167500Y-96145857D01*
X141113928Y-96003000D01*
X140980000Y-95931571D01*
X140765714Y-95931571D01*
X140631785Y-95860142D01*
X140578214Y-95717285D01*
X140587142Y-95645857D01*
X140676428Y-95503000D01*
X140828214Y-95431571D01*
X141042500Y-95431571D01*
X141176428Y-95503000D01*
X141899642Y-95431571D02*
X141774642Y-96431571D01*
X141881785Y-95574428D02*
X141962142Y-95503000D01*
X142113928Y-95431571D01*
X142328214Y-95431571D01*
X142462142Y-95503000D01*
X142515714Y-95645857D01*
X142417500Y-96431571D01*
X143774642Y-96431571D02*
X143872857Y-95645857D01*
X143819285Y-95503000D01*
X143685357Y-95431571D01*
X143399642Y-95431571D01*
X143247857Y-95503000D01*
X143783571Y-96360142D02*
X143631785Y-96431571D01*
X143274642Y-96431571D01*
X143140714Y-96360142D01*
X143087142Y-96217285D01*
X143105000Y-96074428D01*
X143194285Y-95931571D01*
X143346071Y-95860142D01*
X143703214Y-95860142D01*
X143855000Y-95788714D01*
X145140714Y-96360142D02*
X144988928Y-96431571D01*
X144703214Y-96431571D01*
X144569285Y-96360142D01*
X144506785Y-96288714D01*
X144453214Y-96145857D01*
X144506785Y-95717285D01*
X144596071Y-95574428D01*
X144676428Y-95503000D01*
X144828214Y-95431571D01*
X145113928Y-95431571D01*
X145247857Y-95503000D01*
X145774642Y-96431571D02*
X145962142Y-94931571D01*
X145988928Y-95860142D02*
X146346071Y-96431571D01*
X146471071Y-95431571D02*
X145828214Y-96003000D01*
X146971071Y-95431571D02*
X147203214Y-96431571D01*
X147685357Y-95431571D02*
X147203214Y-96431571D01*
X147015714Y-96788714D01*
X146935357Y-96860142D01*
X146783571Y-96931571D01*
X141953214Y-98981571D02*
X142078214Y-97981571D01*
X142060357Y-98124428D02*
X142140714Y-98053000D01*
X142292500Y-97981571D01*
X142506785Y-97981571D01*
X142640714Y-98053000D01*
X142694285Y-98195857D01*
X142596071Y-98981571D01*
X142694285Y-98195857D02*
X142783571Y-98053000D01*
X142935357Y-97981571D01*
X143149642Y-97981571D01*
X143283571Y-98053000D01*
X143337142Y-98195857D01*
X143238928Y-98981571D01*
X143953214Y-98981571D02*
X144078214Y-97981571D01*
X144140714Y-97481571D02*
X144060357Y-97553000D01*
X144122857Y-97624428D01*
X144203214Y-97553000D01*
X144140714Y-97481571D01*
X144122857Y-97624428D01*
X144792500Y-97981571D02*
X144667500Y-98981571D01*
X144774642Y-98124428D02*
X144855000Y-98053000D01*
X145006785Y-97981571D01*
X145221071Y-97981571D01*
X145355000Y-98053000D01*
X145408571Y-98195857D01*
X145310357Y-98981571D01*
X146024642Y-98981571D02*
X146149642Y-97981571D01*
X146212142Y-97481571D02*
X146131785Y-97553000D01*
X146194285Y-97624428D01*
X146274642Y-97553000D01*
X146212142Y-97481571D01*
X146194285Y-97624428D01*
D11*
G04 #@! TO.C,D1*
X37549000Y-46425000D02*
X37549000Y-48825000D01*
X37449000Y-46425000D02*
X37449000Y-48825000D01*
X37349000Y-46425000D02*
X37349000Y-48825000D01*
X37174000Y-46425000D02*
X37174000Y-48825000D01*
X36999000Y-46425000D02*
X36999000Y-48825000D01*
X36824000Y-46425000D02*
X36824000Y-48825000D01*
X36824000Y-46425000D02*
X42424000Y-46425000D01*
X42424000Y-46425000D02*
X42424000Y-48825000D01*
X42424000Y-48825000D02*
X36824000Y-48825000D01*
G04 #@! TO.C,D2*
X57107000Y-46425000D02*
X57107000Y-48825000D01*
X57007000Y-46425000D02*
X57007000Y-48825000D01*
X56907000Y-46425000D02*
X56907000Y-48825000D01*
X56732000Y-46425000D02*
X56732000Y-48825000D01*
X56557000Y-46425000D02*
X56557000Y-48825000D01*
X56382000Y-46425000D02*
X56382000Y-48825000D01*
X56382000Y-46425000D02*
X61982000Y-46425000D01*
X61982000Y-46425000D02*
X61982000Y-48825000D01*
X61982000Y-48825000D02*
X56382000Y-48825000D01*
G04 #@! TO.C,D3*
X81413000Y-48825000D02*
X75813000Y-48825000D01*
X81413000Y-46425000D02*
X81413000Y-48825000D01*
X75813000Y-46425000D02*
X81413000Y-46425000D01*
X75813000Y-46425000D02*
X75813000Y-48825000D01*
X75988000Y-46425000D02*
X75988000Y-48825000D01*
X76163000Y-46425000D02*
X76163000Y-48825000D01*
X76338000Y-46425000D02*
X76338000Y-48825000D01*
X76438000Y-46425000D02*
X76438000Y-48825000D01*
X76538000Y-46425000D02*
X76538000Y-48825000D01*
G04 #@! TO.C,D4*
X99066000Y-48952000D02*
X93466000Y-48952000D01*
X99066000Y-46552000D02*
X99066000Y-48952000D01*
X93466000Y-46552000D02*
X99066000Y-46552000D01*
X93466000Y-46552000D02*
X93466000Y-48952000D01*
X93641000Y-46552000D02*
X93641000Y-48952000D01*
X93816000Y-46552000D02*
X93816000Y-48952000D01*
X93991000Y-46552000D02*
X93991000Y-48952000D01*
X94091000Y-46552000D02*
X94091000Y-48952000D01*
X94191000Y-46552000D02*
X94191000Y-48952000D01*
G04 #@! TO.C,D5*
X113876000Y-46425000D02*
X113876000Y-48825000D01*
X113776000Y-46425000D02*
X113776000Y-48825000D01*
X113676000Y-46425000D02*
X113676000Y-48825000D01*
X113501000Y-46425000D02*
X113501000Y-48825000D01*
X113326000Y-46425000D02*
X113326000Y-48825000D01*
X113151000Y-46425000D02*
X113151000Y-48825000D01*
X113151000Y-46425000D02*
X118751000Y-46425000D01*
X118751000Y-46425000D02*
X118751000Y-48825000D01*
X118751000Y-48825000D02*
X113151000Y-48825000D01*
G04 #@! TO.C,D6*
X132799000Y-46425000D02*
X132799000Y-48825000D01*
X132699000Y-46425000D02*
X132699000Y-48825000D01*
X132599000Y-46425000D02*
X132599000Y-48825000D01*
X132424000Y-46425000D02*
X132424000Y-48825000D01*
X132249000Y-46425000D02*
X132249000Y-48825000D01*
X132074000Y-46425000D02*
X132074000Y-48825000D01*
X132074000Y-46425000D02*
X137674000Y-46425000D01*
X137674000Y-46425000D02*
X137674000Y-48825000D01*
X137674000Y-48825000D02*
X132074000Y-48825000D01*
G04 #@! TO.C,D7*
X156851000Y-48698000D02*
X151251000Y-48698000D01*
X156851000Y-46298000D02*
X156851000Y-48698000D01*
X151251000Y-46298000D02*
X156851000Y-46298000D01*
X151251000Y-46298000D02*
X151251000Y-48698000D01*
X151426000Y-46298000D02*
X151426000Y-48698000D01*
X151601000Y-46298000D02*
X151601000Y-48698000D01*
X151776000Y-46298000D02*
X151776000Y-48698000D01*
X151876000Y-46298000D02*
X151876000Y-48698000D01*
X151976000Y-46298000D02*
X151976000Y-48698000D01*
G04 #@! TO.C,D8*
X176155000Y-48825000D02*
X170555000Y-48825000D01*
X176155000Y-46425000D02*
X176155000Y-48825000D01*
X170555000Y-46425000D02*
X176155000Y-46425000D01*
X170555000Y-46425000D02*
X170555000Y-48825000D01*
X170730000Y-46425000D02*
X170730000Y-48825000D01*
X170905000Y-46425000D02*
X170905000Y-48825000D01*
X171080000Y-46425000D02*
X171080000Y-48825000D01*
X171180000Y-46425000D02*
X171180000Y-48825000D01*
X171280000Y-46425000D02*
X171280000Y-48825000D01*
G04 #@! TO.C,D9*
X189568000Y-46298000D02*
X189568000Y-48698000D01*
X189468000Y-46298000D02*
X189468000Y-48698000D01*
X189368000Y-46298000D02*
X189368000Y-48698000D01*
X189193000Y-46298000D02*
X189193000Y-48698000D01*
X189018000Y-46298000D02*
X189018000Y-48698000D01*
X188843000Y-46298000D02*
X188843000Y-48698000D01*
X188843000Y-46298000D02*
X194443000Y-46298000D01*
X194443000Y-46298000D02*
X194443000Y-48698000D01*
X194443000Y-48698000D02*
X188843000Y-48698000D01*
G04 #@! TO.C,D10*
X208364000Y-46425000D02*
X208364000Y-48825000D01*
X208264000Y-46425000D02*
X208264000Y-48825000D01*
X208164000Y-46425000D02*
X208164000Y-48825000D01*
X207989000Y-46425000D02*
X207989000Y-48825000D01*
X207814000Y-46425000D02*
X207814000Y-48825000D01*
X207639000Y-46425000D02*
X207639000Y-48825000D01*
X207639000Y-46425000D02*
X213239000Y-46425000D01*
X213239000Y-46425000D02*
X213239000Y-48825000D01*
X213239000Y-48825000D02*
X207639000Y-48825000D01*
G04 #@! TO.C,D11*
X232035000Y-48825000D02*
X226435000Y-48825000D01*
X232035000Y-46425000D02*
X232035000Y-48825000D01*
X226435000Y-46425000D02*
X232035000Y-46425000D01*
X226435000Y-46425000D02*
X226435000Y-48825000D01*
X226610000Y-46425000D02*
X226610000Y-48825000D01*
X226785000Y-46425000D02*
X226785000Y-48825000D01*
X226960000Y-46425000D02*
X226960000Y-48825000D01*
X227060000Y-46425000D02*
X227060000Y-48825000D01*
X227160000Y-46425000D02*
X227160000Y-48825000D01*
G04 #@! TO.C,D12*
X258832000Y-48825000D02*
X253232000Y-48825000D01*
X258832000Y-46425000D02*
X258832000Y-48825000D01*
X253232000Y-46425000D02*
X258832000Y-46425000D01*
X253232000Y-46425000D02*
X253232000Y-48825000D01*
X253407000Y-46425000D02*
X253407000Y-48825000D01*
X253582000Y-46425000D02*
X253582000Y-48825000D01*
X253757000Y-46425000D02*
X253757000Y-48825000D01*
X253857000Y-46425000D02*
X253857000Y-48825000D01*
X253957000Y-46425000D02*
X253957000Y-48825000D01*
G04 #@! TO.C,D13*
X39708000Y-65221000D02*
X39708000Y-67621000D01*
X39608000Y-65221000D02*
X39608000Y-67621000D01*
X39508000Y-65221000D02*
X39508000Y-67621000D01*
X39333000Y-65221000D02*
X39333000Y-67621000D01*
X39158000Y-65221000D02*
X39158000Y-67621000D01*
X38983000Y-65221000D02*
X38983000Y-67621000D01*
X38983000Y-65221000D02*
X44583000Y-65221000D01*
X44583000Y-65221000D02*
X44583000Y-67621000D01*
X44583000Y-67621000D02*
X38983000Y-67621000D01*
G04 #@! TO.C,D14*
X61171000Y-65221000D02*
X61171000Y-67621000D01*
X61071000Y-65221000D02*
X61071000Y-67621000D01*
X60971000Y-65221000D02*
X60971000Y-67621000D01*
X60796000Y-65221000D02*
X60796000Y-67621000D01*
X60621000Y-65221000D02*
X60621000Y-67621000D01*
X60446000Y-65221000D02*
X60446000Y-67621000D01*
X60446000Y-65221000D02*
X66046000Y-65221000D01*
X66046000Y-65221000D02*
X66046000Y-67621000D01*
X66046000Y-67621000D02*
X60446000Y-67621000D01*
G04 #@! TO.C,D15*
X84969000Y-67748000D02*
X79369000Y-67748000D01*
X84969000Y-65348000D02*
X84969000Y-67748000D01*
X79369000Y-65348000D02*
X84969000Y-65348000D01*
X79369000Y-65348000D02*
X79369000Y-67748000D01*
X79544000Y-65348000D02*
X79544000Y-67748000D01*
X79719000Y-65348000D02*
X79719000Y-67748000D01*
X79894000Y-65348000D02*
X79894000Y-67748000D01*
X79994000Y-65348000D02*
X79994000Y-67748000D01*
X80094000Y-65348000D02*
X80094000Y-67748000D01*
G04 #@! TO.C,D16*
X99144000Y-65475000D02*
X99144000Y-67875000D01*
X99044000Y-65475000D02*
X99044000Y-67875000D01*
X98944000Y-65475000D02*
X98944000Y-67875000D01*
X98769000Y-65475000D02*
X98769000Y-67875000D01*
X98594000Y-65475000D02*
X98594000Y-67875000D01*
X98419000Y-65475000D02*
X98419000Y-67875000D01*
X98419000Y-65475000D02*
X104019000Y-65475000D01*
X104019000Y-65475000D02*
X104019000Y-67875000D01*
X104019000Y-67875000D02*
X98419000Y-67875000D01*
G04 #@! TO.C,D17*
X118321000Y-65348000D02*
X118321000Y-67748000D01*
X118221000Y-65348000D02*
X118221000Y-67748000D01*
X118121000Y-65348000D02*
X118121000Y-67748000D01*
X117946000Y-65348000D02*
X117946000Y-67748000D01*
X117771000Y-65348000D02*
X117771000Y-67748000D01*
X117596000Y-65348000D02*
X117596000Y-67748000D01*
X117596000Y-65348000D02*
X123196000Y-65348000D01*
X123196000Y-65348000D02*
X123196000Y-67748000D01*
X123196000Y-67748000D02*
X117596000Y-67748000D01*
G04 #@! TO.C,D18*
X141865000Y-67621000D02*
X136265000Y-67621000D01*
X141865000Y-65221000D02*
X141865000Y-67621000D01*
X136265000Y-65221000D02*
X141865000Y-65221000D01*
X136265000Y-65221000D02*
X136265000Y-67621000D01*
X136440000Y-65221000D02*
X136440000Y-67621000D01*
X136615000Y-65221000D02*
X136615000Y-67621000D01*
X136790000Y-65221000D02*
X136790000Y-67621000D01*
X136890000Y-65221000D02*
X136890000Y-67621000D01*
X136990000Y-65221000D02*
X136990000Y-67621000D01*
G04 #@! TO.C,D19*
X161169000Y-68002000D02*
X155569000Y-68002000D01*
X161169000Y-65602000D02*
X161169000Y-68002000D01*
X155569000Y-65602000D02*
X161169000Y-65602000D01*
X155569000Y-65602000D02*
X155569000Y-68002000D01*
X155744000Y-65602000D02*
X155744000Y-68002000D01*
X155919000Y-65602000D02*
X155919000Y-68002000D01*
X156094000Y-65602000D02*
X156094000Y-68002000D01*
X156194000Y-65602000D02*
X156194000Y-68002000D01*
X156294000Y-65602000D02*
X156294000Y-68002000D01*
G04 #@! TO.C,D20*
X175217000Y-65602000D02*
X175217000Y-68002000D01*
X175117000Y-65602000D02*
X175117000Y-68002000D01*
X175017000Y-65602000D02*
X175017000Y-68002000D01*
X174842000Y-65602000D02*
X174842000Y-68002000D01*
X174667000Y-65602000D02*
X174667000Y-68002000D01*
X174492000Y-65602000D02*
X174492000Y-68002000D01*
X174492000Y-65602000D02*
X180092000Y-65602000D01*
X180092000Y-65602000D02*
X180092000Y-68002000D01*
X180092000Y-68002000D02*
X174492000Y-68002000D01*
G04 #@! TO.C,D21*
X194140000Y-65475000D02*
X194140000Y-67875000D01*
X194040000Y-65475000D02*
X194040000Y-67875000D01*
X193940000Y-65475000D02*
X193940000Y-67875000D01*
X193765000Y-65475000D02*
X193765000Y-67875000D01*
X193590000Y-65475000D02*
X193590000Y-67875000D01*
X193415000Y-65475000D02*
X193415000Y-67875000D01*
X193415000Y-65475000D02*
X199015000Y-65475000D01*
X199015000Y-65475000D02*
X199015000Y-67875000D01*
X199015000Y-67875000D02*
X193415000Y-67875000D01*
G04 #@! TO.C,D22*
X218065000Y-68002000D02*
X212465000Y-68002000D01*
X218065000Y-65602000D02*
X218065000Y-68002000D01*
X212465000Y-65602000D02*
X218065000Y-65602000D01*
X212465000Y-65602000D02*
X212465000Y-68002000D01*
X212640000Y-65602000D02*
X212640000Y-68002000D01*
X212815000Y-65602000D02*
X212815000Y-68002000D01*
X212990000Y-65602000D02*
X212990000Y-68002000D01*
X213090000Y-65602000D02*
X213090000Y-68002000D01*
X213190000Y-65602000D02*
X213190000Y-68002000D01*
G04 #@! TO.C,D23*
X232367000Y-65729000D02*
X232367000Y-68129000D01*
X232267000Y-65729000D02*
X232267000Y-68129000D01*
X232167000Y-65729000D02*
X232167000Y-68129000D01*
X231992000Y-65729000D02*
X231992000Y-68129000D01*
X231817000Y-65729000D02*
X231817000Y-68129000D01*
X231642000Y-65729000D02*
X231642000Y-68129000D01*
X231642000Y-65729000D02*
X237242000Y-65729000D01*
X237242000Y-65729000D02*
X237242000Y-68129000D01*
X237242000Y-68129000D02*
X231642000Y-68129000D01*
G04 #@! TO.C,D24*
X256370000Y-65348000D02*
X256370000Y-67748000D01*
X256270000Y-65348000D02*
X256270000Y-67748000D01*
X256170000Y-65348000D02*
X256170000Y-67748000D01*
X255995000Y-65348000D02*
X255995000Y-67748000D01*
X255820000Y-65348000D02*
X255820000Y-67748000D01*
X255645000Y-65348000D02*
X255645000Y-67748000D01*
X255645000Y-65348000D02*
X261245000Y-65348000D01*
X261245000Y-65348000D02*
X261245000Y-67748000D01*
X261245000Y-67748000D02*
X255645000Y-67748000D01*
G04 #@! TO.C,D25*
X49282000Y-86671000D02*
X43682000Y-86671000D01*
X49282000Y-84271000D02*
X49282000Y-86671000D01*
X43682000Y-84271000D02*
X49282000Y-84271000D01*
X43682000Y-84271000D02*
X43682000Y-86671000D01*
X43857000Y-84271000D02*
X43857000Y-86671000D01*
X44032000Y-84271000D02*
X44032000Y-86671000D01*
X44207000Y-84271000D02*
X44207000Y-86671000D01*
X44307000Y-84271000D02*
X44307000Y-86671000D01*
X44407000Y-84271000D02*
X44407000Y-86671000D01*
G04 #@! TO.C,D26*
X75698000Y-86798000D02*
X70098000Y-86798000D01*
X75698000Y-84398000D02*
X75698000Y-86798000D01*
X70098000Y-84398000D02*
X75698000Y-84398000D01*
X70098000Y-84398000D02*
X70098000Y-86798000D01*
X70273000Y-84398000D02*
X70273000Y-86798000D01*
X70448000Y-84398000D02*
X70448000Y-86798000D01*
X70623000Y-84398000D02*
X70623000Y-86798000D01*
X70723000Y-84398000D02*
X70723000Y-86798000D01*
X70823000Y-84398000D02*
X70823000Y-86798000D01*
G04 #@! TO.C,D27*
X90000000Y-84271000D02*
X90000000Y-86671000D01*
X89900000Y-84271000D02*
X89900000Y-86671000D01*
X89800000Y-84271000D02*
X89800000Y-86671000D01*
X89625000Y-84271000D02*
X89625000Y-86671000D01*
X89450000Y-84271000D02*
X89450000Y-86671000D01*
X89275000Y-84271000D02*
X89275000Y-86671000D01*
X89275000Y-84271000D02*
X94875000Y-84271000D01*
X94875000Y-84271000D02*
X94875000Y-86671000D01*
X94875000Y-86671000D02*
X89275000Y-86671000D01*
G04 #@! TO.C,D28*
X109177000Y-84271000D02*
X109177000Y-86671000D01*
X109077000Y-84271000D02*
X109077000Y-86671000D01*
X108977000Y-84271000D02*
X108977000Y-86671000D01*
X108802000Y-84271000D02*
X108802000Y-86671000D01*
X108627000Y-84271000D02*
X108627000Y-86671000D01*
X108452000Y-84271000D02*
X108452000Y-86671000D01*
X108452000Y-84271000D02*
X114052000Y-84271000D01*
X114052000Y-84271000D02*
X114052000Y-86671000D01*
X114052000Y-86671000D02*
X108452000Y-86671000D01*
G04 #@! TO.C,D29*
X132848000Y-86417000D02*
X127248000Y-86417000D01*
X132848000Y-84017000D02*
X132848000Y-86417000D01*
X127248000Y-84017000D02*
X132848000Y-84017000D01*
X127248000Y-84017000D02*
X127248000Y-86417000D01*
X127423000Y-84017000D02*
X127423000Y-86417000D01*
X127598000Y-84017000D02*
X127598000Y-86417000D01*
X127773000Y-84017000D02*
X127773000Y-86417000D01*
X127873000Y-84017000D02*
X127873000Y-86417000D01*
X127973000Y-84017000D02*
X127973000Y-86417000D01*
G04 #@! TO.C,D30*
X146769000Y-84144000D02*
X146769000Y-86544000D01*
X146669000Y-84144000D02*
X146669000Y-86544000D01*
X146569000Y-84144000D02*
X146569000Y-86544000D01*
X146394000Y-84144000D02*
X146394000Y-86544000D01*
X146219000Y-84144000D02*
X146219000Y-86544000D01*
X146044000Y-84144000D02*
X146044000Y-86544000D01*
X146044000Y-84144000D02*
X151644000Y-84144000D01*
X151644000Y-84144000D02*
X151644000Y-86544000D01*
X151644000Y-86544000D02*
X146044000Y-86544000D01*
G04 #@! TO.C,D31*
X165311000Y-83763000D02*
X165311000Y-86163000D01*
X165211000Y-83763000D02*
X165211000Y-86163000D01*
X165111000Y-83763000D02*
X165111000Y-86163000D01*
X164936000Y-83763000D02*
X164936000Y-86163000D01*
X164761000Y-83763000D02*
X164761000Y-86163000D01*
X164586000Y-83763000D02*
X164586000Y-86163000D01*
X164586000Y-83763000D02*
X170186000Y-83763000D01*
X170186000Y-83763000D02*
X170186000Y-86163000D01*
X170186000Y-86163000D02*
X164586000Y-86163000D01*
G04 #@! TO.C,D32*
X189998000Y-86417000D02*
X184398000Y-86417000D01*
X189998000Y-84017000D02*
X189998000Y-86417000D01*
X184398000Y-84017000D02*
X189998000Y-84017000D01*
X184398000Y-84017000D02*
X184398000Y-86417000D01*
X184573000Y-84017000D02*
X184573000Y-86417000D01*
X184748000Y-84017000D02*
X184748000Y-86417000D01*
X184923000Y-84017000D02*
X184923000Y-86417000D01*
X185023000Y-84017000D02*
X185023000Y-86417000D01*
X185123000Y-84017000D02*
X185123000Y-86417000D01*
G04 #@! TO.C,D33*
X208413000Y-86417000D02*
X202813000Y-86417000D01*
X208413000Y-84017000D02*
X208413000Y-86417000D01*
X202813000Y-84017000D02*
X208413000Y-84017000D01*
X202813000Y-84017000D02*
X202813000Y-86417000D01*
X202988000Y-84017000D02*
X202988000Y-86417000D01*
X203163000Y-84017000D02*
X203163000Y-86417000D01*
X203338000Y-84017000D02*
X203338000Y-86417000D01*
X203438000Y-84017000D02*
X203438000Y-86417000D01*
X203538000Y-84017000D02*
X203538000Y-86417000D01*
G04 #@! TO.C,D34*
X223223000Y-83890000D02*
X223223000Y-86290000D01*
X223123000Y-83890000D02*
X223123000Y-86290000D01*
X223023000Y-83890000D02*
X223023000Y-86290000D01*
X222848000Y-83890000D02*
X222848000Y-86290000D01*
X222673000Y-83890000D02*
X222673000Y-86290000D01*
X222498000Y-83890000D02*
X222498000Y-86290000D01*
X222498000Y-83890000D02*
X228098000Y-83890000D01*
X228098000Y-83890000D02*
X228098000Y-86290000D01*
X228098000Y-86290000D02*
X222498000Y-86290000D01*
G04 #@! TO.C,D35*
X242273000Y-84271000D02*
X242273000Y-86671000D01*
X242173000Y-84271000D02*
X242173000Y-86671000D01*
X242073000Y-84271000D02*
X242073000Y-86671000D01*
X241898000Y-84271000D02*
X241898000Y-86671000D01*
X241723000Y-84271000D02*
X241723000Y-86671000D01*
X241548000Y-84271000D02*
X241548000Y-86671000D01*
X241548000Y-84271000D02*
X247148000Y-84271000D01*
X247148000Y-84271000D02*
X247148000Y-86671000D01*
X247148000Y-86671000D02*
X241548000Y-86671000D01*
G04 #@! TO.C,D36*
X265690000Y-86671000D02*
X260090000Y-86671000D01*
X265690000Y-84271000D02*
X265690000Y-86671000D01*
X260090000Y-84271000D02*
X265690000Y-84271000D01*
X260090000Y-84271000D02*
X260090000Y-86671000D01*
X260265000Y-84271000D02*
X260265000Y-86671000D01*
X260440000Y-84271000D02*
X260440000Y-86671000D01*
X260615000Y-84271000D02*
X260615000Y-86671000D01*
X260715000Y-84271000D02*
X260715000Y-86671000D01*
X260815000Y-84271000D02*
X260815000Y-86671000D01*
G04 #@! TO.C,D37*
X44964000Y-105340000D02*
X39364000Y-105340000D01*
X44964000Y-102940000D02*
X44964000Y-105340000D01*
X39364000Y-102940000D02*
X44964000Y-102940000D01*
X39364000Y-102940000D02*
X39364000Y-105340000D01*
X39539000Y-102940000D02*
X39539000Y-105340000D01*
X39714000Y-102940000D02*
X39714000Y-105340000D01*
X39889000Y-102940000D02*
X39889000Y-105340000D01*
X39989000Y-102940000D02*
X39989000Y-105340000D01*
X40089000Y-102940000D02*
X40089000Y-105340000D01*
G04 #@! TO.C,D38*
X65997000Y-103067000D02*
X65997000Y-105467000D01*
X65897000Y-103067000D02*
X65897000Y-105467000D01*
X65797000Y-103067000D02*
X65797000Y-105467000D01*
X65622000Y-103067000D02*
X65622000Y-105467000D01*
X65447000Y-103067000D02*
X65447000Y-105467000D01*
X65272000Y-103067000D02*
X65272000Y-105467000D01*
X65272000Y-103067000D02*
X70872000Y-103067000D01*
X70872000Y-103067000D02*
X70872000Y-105467000D01*
X70872000Y-105467000D02*
X65272000Y-105467000D01*
G04 #@! TO.C,D39*
X92159000Y-103448000D02*
X92159000Y-105848000D01*
X92059000Y-103448000D02*
X92059000Y-105848000D01*
X91959000Y-103448000D02*
X91959000Y-105848000D01*
X91784000Y-103448000D02*
X91784000Y-105848000D01*
X91609000Y-103448000D02*
X91609000Y-105848000D01*
X91434000Y-103448000D02*
X91434000Y-105848000D01*
X91434000Y-103448000D02*
X97034000Y-103448000D01*
X97034000Y-103448000D02*
X97034000Y-105848000D01*
X97034000Y-105848000D02*
X91434000Y-105848000D01*
G04 #@! TO.C,D40*
X109671000Y-97034000D02*
X109671000Y-91434000D01*
X112071000Y-97034000D02*
X109671000Y-97034000D01*
X112071000Y-91434000D02*
X112071000Y-97034000D01*
X112071000Y-91434000D02*
X109671000Y-91434000D01*
X112071000Y-91609000D02*
X109671000Y-91609000D01*
X112071000Y-91784000D02*
X109671000Y-91784000D01*
X112071000Y-91959000D02*
X109671000Y-91959000D01*
X112071000Y-92059000D02*
X109671000Y-92059000D01*
X112071000Y-92159000D02*
X109671000Y-92159000D01*
G04 #@! TO.C,D41*
X113544000Y-102927000D02*
X107944000Y-102927000D01*
X113544000Y-100527000D02*
X113544000Y-102927000D01*
X107944000Y-100527000D02*
X113544000Y-100527000D01*
X107944000Y-100527000D02*
X107944000Y-102927000D01*
X108119000Y-100527000D02*
X108119000Y-102927000D01*
X108294000Y-100527000D02*
X108294000Y-102927000D01*
X108469000Y-100527000D02*
X108469000Y-102927000D01*
X108569000Y-100527000D02*
X108569000Y-102927000D01*
X108669000Y-100527000D02*
X108669000Y-102927000D01*
G04 #@! TO.C,D42*
X198966000Y-103448000D02*
X198966000Y-105848000D01*
X198866000Y-103448000D02*
X198866000Y-105848000D01*
X198766000Y-103448000D02*
X198766000Y-105848000D01*
X198591000Y-103448000D02*
X198591000Y-105848000D01*
X198416000Y-103448000D02*
X198416000Y-105848000D01*
X198241000Y-103448000D02*
X198241000Y-105848000D01*
X198241000Y-103448000D02*
X203841000Y-103448000D01*
X203841000Y-103448000D02*
X203841000Y-105848000D01*
X203841000Y-105848000D02*
X198241000Y-105848000D01*
G04 #@! TO.C,D43*
X227971000Y-105848000D02*
X222371000Y-105848000D01*
X227971000Y-103448000D02*
X227971000Y-105848000D01*
X222371000Y-103448000D02*
X227971000Y-103448000D01*
X222371000Y-103448000D02*
X222371000Y-105848000D01*
X222546000Y-103448000D02*
X222546000Y-105848000D01*
X222721000Y-103448000D02*
X222721000Y-105848000D01*
X222896000Y-103448000D02*
X222896000Y-105848000D01*
X222996000Y-103448000D02*
X222996000Y-105848000D01*
X223096000Y-103448000D02*
X223096000Y-105848000D01*
G04 #@! TO.C,D44*
X246767000Y-105721000D02*
X241167000Y-105721000D01*
X246767000Y-103321000D02*
X246767000Y-105721000D01*
X241167000Y-103321000D02*
X246767000Y-103321000D01*
X241167000Y-103321000D02*
X241167000Y-105721000D01*
X241342000Y-103321000D02*
X241342000Y-105721000D01*
X241517000Y-103321000D02*
X241517000Y-105721000D01*
X241692000Y-103321000D02*
X241692000Y-105721000D01*
X241792000Y-103321000D02*
X241792000Y-105721000D01*
X241892000Y-103321000D02*
X241892000Y-105721000D01*
G04 #@! TO.C,D45*
X266071000Y-105848000D02*
X260471000Y-105848000D01*
X266071000Y-103448000D02*
X266071000Y-105848000D01*
X260471000Y-103448000D02*
X266071000Y-103448000D01*
X260471000Y-103448000D02*
X260471000Y-105848000D01*
X260646000Y-103448000D02*
X260646000Y-105848000D01*
X260821000Y-103448000D02*
X260821000Y-105848000D01*
X260996000Y-103448000D02*
X260996000Y-105848000D01*
X261096000Y-103448000D02*
X261096000Y-105848000D01*
X261196000Y-103448000D02*
X261196000Y-105848000D01*
D12*
G04 #@! TO.C,SW1*
X33020000Y-31750000D02*
X34798000Y-31750000D01*
X43942000Y-31750000D02*
X45720000Y-31750000D01*
X45720000Y-31750000D02*
X45720000Y-33528000D01*
X45720000Y-42672000D02*
X45720000Y-44450000D01*
X45720000Y-44450000D02*
X43942000Y-44450000D01*
X34798000Y-44450000D02*
X33020000Y-44450000D01*
X33020000Y-44450000D02*
X33020000Y-42672000D01*
X33020000Y-33528000D02*
X33020000Y-31750000D01*
G04 #@! TO.C,SW2*
X52070000Y-33528000D02*
X52070000Y-31750000D01*
X52070000Y-44450000D02*
X52070000Y-42672000D01*
X53848000Y-44450000D02*
X52070000Y-44450000D01*
X64770000Y-44450000D02*
X62992000Y-44450000D01*
X64770000Y-42672000D02*
X64770000Y-44450000D01*
X64770000Y-31750000D02*
X64770000Y-33528000D01*
X62992000Y-31750000D02*
X64770000Y-31750000D01*
X52070000Y-31750000D02*
X53848000Y-31750000D01*
G04 #@! TO.C,SW3*
X71120000Y-31750000D02*
X72898000Y-31750000D01*
X82042000Y-31750000D02*
X83820000Y-31750000D01*
X83820000Y-31750000D02*
X83820000Y-33528000D01*
X83820000Y-42672000D02*
X83820000Y-44450000D01*
X83820000Y-44450000D02*
X82042000Y-44450000D01*
X72898000Y-44450000D02*
X71120000Y-44450000D01*
X71120000Y-44450000D02*
X71120000Y-42672000D01*
X71120000Y-33528000D02*
X71120000Y-31750000D01*
G04 #@! TO.C,SW4*
X90170000Y-31750000D02*
X91948000Y-31750000D01*
X101092000Y-31750000D02*
X102870000Y-31750000D01*
X102870000Y-31750000D02*
X102870000Y-33528000D01*
X102870000Y-42672000D02*
X102870000Y-44450000D01*
X102870000Y-44450000D02*
X101092000Y-44450000D01*
X91948000Y-44450000D02*
X90170000Y-44450000D01*
X90170000Y-44450000D02*
X90170000Y-42672000D01*
X90170000Y-33528000D02*
X90170000Y-31750000D01*
G04 #@! TO.C,SW5*
X109220000Y-31750000D02*
X110998000Y-31750000D01*
X120142000Y-31750000D02*
X121920000Y-31750000D01*
X121920000Y-31750000D02*
X121920000Y-33528000D01*
X121920000Y-42672000D02*
X121920000Y-44450000D01*
X121920000Y-44450000D02*
X120142000Y-44450000D01*
X110998000Y-44450000D02*
X109220000Y-44450000D01*
X109220000Y-44450000D02*
X109220000Y-42672000D01*
X109220000Y-33528000D02*
X109220000Y-31750000D01*
G04 #@! TO.C,SW6*
X128016000Y-33528000D02*
X128016000Y-31750000D01*
X128016000Y-44450000D02*
X128016000Y-42672000D01*
X129794000Y-44450000D02*
X128016000Y-44450000D01*
X140716000Y-44450000D02*
X138938000Y-44450000D01*
X140716000Y-42672000D02*
X140716000Y-44450000D01*
X140716000Y-31750000D02*
X140716000Y-33528000D01*
X138938000Y-31750000D02*
X140716000Y-31750000D01*
X128016000Y-31750000D02*
X129794000Y-31750000D01*
G04 #@! TO.C,SW7*
X147066000Y-31750000D02*
X148844000Y-31750000D01*
X157988000Y-31750000D02*
X159766000Y-31750000D01*
X159766000Y-31750000D02*
X159766000Y-33528000D01*
X159766000Y-42672000D02*
X159766000Y-44450000D01*
X159766000Y-44450000D02*
X157988000Y-44450000D01*
X148844000Y-44450000D02*
X147066000Y-44450000D01*
X147066000Y-44450000D02*
X147066000Y-42672000D01*
X147066000Y-33528000D02*
X147066000Y-31750000D01*
G04 #@! TO.C,SW8*
X166116000Y-31750000D02*
X167894000Y-31750000D01*
X177038000Y-31750000D02*
X178816000Y-31750000D01*
X178816000Y-31750000D02*
X178816000Y-33528000D01*
X178816000Y-42672000D02*
X178816000Y-44450000D01*
X178816000Y-44450000D02*
X177038000Y-44450000D01*
X167894000Y-44450000D02*
X166116000Y-44450000D01*
X166116000Y-44450000D02*
X166116000Y-42672000D01*
X166116000Y-33528000D02*
X166116000Y-31750000D01*
G04 #@! TO.C,SW9*
X185166000Y-33528000D02*
X185166000Y-31750000D01*
X185166000Y-44450000D02*
X185166000Y-42672000D01*
X186944000Y-44450000D02*
X185166000Y-44450000D01*
X197866000Y-44450000D02*
X196088000Y-44450000D01*
X197866000Y-42672000D02*
X197866000Y-44450000D01*
X197866000Y-31750000D02*
X197866000Y-33528000D01*
X196088000Y-31750000D02*
X197866000Y-31750000D01*
X185166000Y-31750000D02*
X186944000Y-31750000D01*
G04 #@! TO.C,SW10*
X204216000Y-33528000D02*
X204216000Y-31750000D01*
X204216000Y-44450000D02*
X204216000Y-42672000D01*
X205994000Y-44450000D02*
X204216000Y-44450000D01*
X216916000Y-44450000D02*
X215138000Y-44450000D01*
X216916000Y-42672000D02*
X216916000Y-44450000D01*
X216916000Y-31750000D02*
X216916000Y-33528000D01*
X215138000Y-31750000D02*
X216916000Y-31750000D01*
X204216000Y-31750000D02*
X205994000Y-31750000D01*
G04 #@! TO.C,SW11*
X223266000Y-31750000D02*
X225044000Y-31750000D01*
X234188000Y-31750000D02*
X235966000Y-31750000D01*
X235966000Y-31750000D02*
X235966000Y-33528000D01*
X235966000Y-42672000D02*
X235966000Y-44450000D01*
X235966000Y-44450000D02*
X234188000Y-44450000D01*
X225044000Y-44450000D02*
X223266000Y-44450000D01*
X223266000Y-44450000D02*
X223266000Y-42672000D01*
X223266000Y-33528000D02*
X223266000Y-31750000D01*
G04 #@! TO.C,SW12*
X249174000Y-31750000D02*
X250952000Y-31750000D01*
X260096000Y-31750000D02*
X261874000Y-31750000D01*
X261874000Y-31750000D02*
X261874000Y-33528000D01*
X261874000Y-42672000D02*
X261874000Y-44450000D01*
X261874000Y-44450000D02*
X260096000Y-44450000D01*
X250952000Y-44450000D02*
X249174000Y-44450000D01*
X249174000Y-44450000D02*
X249174000Y-42672000D01*
X249174000Y-33528000D02*
X249174000Y-31750000D01*
G04 #@! TO.C,SW13*
X35560000Y-52578000D02*
X35560000Y-50800000D01*
X35560000Y-63500000D02*
X35560000Y-61722000D01*
X37338000Y-63500000D02*
X35560000Y-63500000D01*
X48260000Y-63500000D02*
X46482000Y-63500000D01*
X48260000Y-61722000D02*
X48260000Y-63500000D01*
X48260000Y-50800000D02*
X48260000Y-52578000D01*
X46482000Y-50800000D02*
X48260000Y-50800000D01*
X35560000Y-50800000D02*
X37338000Y-50800000D01*
G04 #@! TO.C,SW14*
X56642000Y-52578000D02*
X56642000Y-50800000D01*
X56642000Y-63500000D02*
X56642000Y-61722000D01*
X58420000Y-63500000D02*
X56642000Y-63500000D01*
X69342000Y-63500000D02*
X67564000Y-63500000D01*
X69342000Y-61722000D02*
X69342000Y-63500000D01*
X69342000Y-50800000D02*
X69342000Y-52578000D01*
X67564000Y-50800000D02*
X69342000Y-50800000D01*
X56642000Y-50800000D02*
X58420000Y-50800000D01*
G04 #@! TO.C,SW15*
X75692000Y-50800000D02*
X77470000Y-50800000D01*
X86614000Y-50800000D02*
X88392000Y-50800000D01*
X88392000Y-50800000D02*
X88392000Y-52578000D01*
X88392000Y-61722000D02*
X88392000Y-63500000D01*
X88392000Y-63500000D02*
X86614000Y-63500000D01*
X77470000Y-63500000D02*
X75692000Y-63500000D01*
X75692000Y-63500000D02*
X75692000Y-61722000D01*
X75692000Y-52578000D02*
X75692000Y-50800000D01*
G04 #@! TO.C,SW16*
X94742000Y-52578000D02*
X94742000Y-50800000D01*
X94742000Y-63500000D02*
X94742000Y-61722000D01*
X96520000Y-63500000D02*
X94742000Y-63500000D01*
X107442000Y-63500000D02*
X105664000Y-63500000D01*
X107442000Y-61722000D02*
X107442000Y-63500000D01*
X107442000Y-50800000D02*
X107442000Y-52578000D01*
X105664000Y-50800000D02*
X107442000Y-50800000D01*
X94742000Y-50800000D02*
X96520000Y-50800000D01*
G04 #@! TO.C,SW17*
X113792000Y-52578000D02*
X113792000Y-50800000D01*
X113792000Y-63500000D02*
X113792000Y-61722000D01*
X115570000Y-63500000D02*
X113792000Y-63500000D01*
X126492000Y-63500000D02*
X124714000Y-63500000D01*
X126492000Y-61722000D02*
X126492000Y-63500000D01*
X126492000Y-50800000D02*
X126492000Y-52578000D01*
X124714000Y-50800000D02*
X126492000Y-50800000D01*
X113792000Y-50800000D02*
X115570000Y-50800000D01*
G04 #@! TO.C,SW18*
X132588000Y-50800000D02*
X134366000Y-50800000D01*
X143510000Y-50800000D02*
X145288000Y-50800000D01*
X145288000Y-50800000D02*
X145288000Y-52578000D01*
X145288000Y-61722000D02*
X145288000Y-63500000D01*
X145288000Y-63500000D02*
X143510000Y-63500000D01*
X134366000Y-63500000D02*
X132588000Y-63500000D01*
X132588000Y-63500000D02*
X132588000Y-61722000D01*
X132588000Y-52578000D02*
X132588000Y-50800000D01*
G04 #@! TO.C,SW19*
X151638000Y-50800000D02*
X153416000Y-50800000D01*
X162560000Y-50800000D02*
X164338000Y-50800000D01*
X164338000Y-50800000D02*
X164338000Y-52578000D01*
X164338000Y-61722000D02*
X164338000Y-63500000D01*
X164338000Y-63500000D02*
X162560000Y-63500000D01*
X153416000Y-63500000D02*
X151638000Y-63500000D01*
X151638000Y-63500000D02*
X151638000Y-61722000D01*
X151638000Y-52578000D02*
X151638000Y-50800000D01*
G04 #@! TO.C,SW20*
X170688000Y-52578000D02*
X170688000Y-50800000D01*
X170688000Y-63500000D02*
X170688000Y-61722000D01*
X172466000Y-63500000D02*
X170688000Y-63500000D01*
X183388000Y-63500000D02*
X181610000Y-63500000D01*
X183388000Y-61722000D02*
X183388000Y-63500000D01*
X183388000Y-50800000D02*
X183388000Y-52578000D01*
X181610000Y-50800000D02*
X183388000Y-50800000D01*
X170688000Y-50800000D02*
X172466000Y-50800000D01*
G04 #@! TO.C,SW21*
X189738000Y-52578000D02*
X189738000Y-50800000D01*
X189738000Y-63500000D02*
X189738000Y-61722000D01*
X191516000Y-63500000D02*
X189738000Y-63500000D01*
X202438000Y-63500000D02*
X200660000Y-63500000D01*
X202438000Y-61722000D02*
X202438000Y-63500000D01*
X202438000Y-50800000D02*
X202438000Y-52578000D01*
X200660000Y-50800000D02*
X202438000Y-50800000D01*
X189738000Y-50800000D02*
X191516000Y-50800000D01*
G04 #@! TO.C,SW22*
X208788000Y-50800000D02*
X210566000Y-50800000D01*
X219710000Y-50800000D02*
X221488000Y-50800000D01*
X221488000Y-50800000D02*
X221488000Y-52578000D01*
X221488000Y-61722000D02*
X221488000Y-63500000D01*
X221488000Y-63500000D02*
X219710000Y-63500000D01*
X210566000Y-63500000D02*
X208788000Y-63500000D01*
X208788000Y-63500000D02*
X208788000Y-61722000D01*
X208788000Y-52578000D02*
X208788000Y-50800000D01*
G04 #@! TO.C,SW23*
X227838000Y-52578000D02*
X227838000Y-50800000D01*
X227838000Y-63500000D02*
X227838000Y-61722000D01*
X229616000Y-63500000D02*
X227838000Y-63500000D01*
X240538000Y-63500000D02*
X238760000Y-63500000D01*
X240538000Y-61722000D02*
X240538000Y-63500000D01*
X240538000Y-50800000D02*
X240538000Y-52578000D01*
X238760000Y-50800000D02*
X240538000Y-50800000D01*
X227838000Y-50800000D02*
X229616000Y-50800000D01*
G04 #@! TO.C,SW24*
X251714000Y-52578000D02*
X251714000Y-50800000D01*
X251714000Y-63500000D02*
X251714000Y-61722000D01*
X253492000Y-63500000D02*
X251714000Y-63500000D01*
X264414000Y-63500000D02*
X262636000Y-63500000D01*
X264414000Y-61722000D02*
X264414000Y-63500000D01*
X264414000Y-50800000D02*
X264414000Y-52578000D01*
X262636000Y-50800000D02*
X264414000Y-50800000D01*
X251714000Y-50800000D02*
X253492000Y-50800000D01*
G04 #@! TO.C,SW25*
X40132000Y-69850000D02*
X41910000Y-69850000D01*
X51054000Y-69850000D02*
X52832000Y-69850000D01*
X52832000Y-69850000D02*
X52832000Y-71628000D01*
X52832000Y-80772000D02*
X52832000Y-82550000D01*
X52832000Y-82550000D02*
X51054000Y-82550000D01*
X41910000Y-82550000D02*
X40132000Y-82550000D01*
X40132000Y-82550000D02*
X40132000Y-80772000D01*
X40132000Y-71628000D02*
X40132000Y-69850000D01*
G04 #@! TO.C,SW26*
X66294000Y-69723000D02*
X68072000Y-69723000D01*
X77216000Y-69723000D02*
X78994000Y-69723000D01*
X78994000Y-69723000D02*
X78994000Y-71501000D01*
X78994000Y-80645000D02*
X78994000Y-82423000D01*
X78994000Y-82423000D02*
X77216000Y-82423000D01*
X68072000Y-82423000D02*
X66294000Y-82423000D01*
X66294000Y-82423000D02*
X66294000Y-80645000D01*
X66294000Y-71501000D02*
X66294000Y-69723000D01*
G04 #@! TO.C,SW27*
X85344000Y-71501000D02*
X85344000Y-69723000D01*
X85344000Y-82423000D02*
X85344000Y-80645000D01*
X87122000Y-82423000D02*
X85344000Y-82423000D01*
X98044000Y-82423000D02*
X96266000Y-82423000D01*
X98044000Y-80645000D02*
X98044000Y-82423000D01*
X98044000Y-69723000D02*
X98044000Y-71501000D01*
X96266000Y-69723000D02*
X98044000Y-69723000D01*
X85344000Y-69723000D02*
X87122000Y-69723000D01*
G04 #@! TO.C,SW28*
X104267000Y-71501000D02*
X104267000Y-69723000D01*
X104267000Y-82423000D02*
X104267000Y-80645000D01*
X106045000Y-82423000D02*
X104267000Y-82423000D01*
X116967000Y-82423000D02*
X115189000Y-82423000D01*
X116967000Y-80645000D02*
X116967000Y-82423000D01*
X116967000Y-69723000D02*
X116967000Y-71501000D01*
X115189000Y-69723000D02*
X116967000Y-69723000D01*
X104267000Y-69723000D02*
X106045000Y-69723000D01*
G04 #@! TO.C,SW29*
X123317000Y-69723000D02*
X125095000Y-69723000D01*
X134239000Y-69723000D02*
X136017000Y-69723000D01*
X136017000Y-69723000D02*
X136017000Y-71501000D01*
X136017000Y-80645000D02*
X136017000Y-82423000D01*
X136017000Y-82423000D02*
X134239000Y-82423000D01*
X125095000Y-82423000D02*
X123317000Y-82423000D01*
X123317000Y-82423000D02*
X123317000Y-80645000D01*
X123317000Y-71501000D02*
X123317000Y-69723000D01*
G04 #@! TO.C,SW30*
X154940000Y-80645000D02*
X154940000Y-82423000D01*
X154940000Y-69723000D02*
X154940000Y-71501000D01*
X153162000Y-69723000D02*
X154940000Y-69723000D01*
X142240000Y-69723000D02*
X144018000Y-69723000D01*
X142240000Y-71501000D02*
X142240000Y-69723000D01*
X142240000Y-82423000D02*
X142240000Y-80645000D01*
X144018000Y-82423000D02*
X142240000Y-82423000D01*
X154940000Y-82423000D02*
X153162000Y-82423000D01*
G04 #@! TO.C,SW31*
X161290000Y-71501000D02*
X161290000Y-69723000D01*
X161290000Y-82423000D02*
X161290000Y-80645000D01*
X163068000Y-82423000D02*
X161290000Y-82423000D01*
X173990000Y-82423000D02*
X172212000Y-82423000D01*
X173990000Y-80645000D02*
X173990000Y-82423000D01*
X173990000Y-69723000D02*
X173990000Y-71501000D01*
X172212000Y-69723000D02*
X173990000Y-69723000D01*
X161290000Y-69723000D02*
X163068000Y-69723000D01*
G04 #@! TO.C,SW32*
X180340000Y-69723000D02*
X182118000Y-69723000D01*
X191262000Y-69723000D02*
X193040000Y-69723000D01*
X193040000Y-69723000D02*
X193040000Y-71501000D01*
X193040000Y-80645000D02*
X193040000Y-82423000D01*
X193040000Y-82423000D02*
X191262000Y-82423000D01*
X182118000Y-82423000D02*
X180340000Y-82423000D01*
X180340000Y-82423000D02*
X180340000Y-80645000D01*
X180340000Y-71501000D02*
X180340000Y-69723000D01*
G04 #@! TO.C,SW33*
X199390000Y-71501000D02*
X199390000Y-69723000D01*
X199390000Y-82423000D02*
X199390000Y-80645000D01*
X201168000Y-82423000D02*
X199390000Y-82423000D01*
X212090000Y-82423000D02*
X210312000Y-82423000D01*
X212090000Y-80645000D02*
X212090000Y-82423000D01*
X212090000Y-69723000D02*
X212090000Y-71501000D01*
X210312000Y-69723000D02*
X212090000Y-69723000D01*
X199390000Y-69723000D02*
X201168000Y-69723000D01*
G04 #@! TO.C,SW34*
X218313000Y-71501000D02*
X218313000Y-69723000D01*
X218313000Y-82423000D02*
X218313000Y-80645000D01*
X220091000Y-82423000D02*
X218313000Y-82423000D01*
X231013000Y-82423000D02*
X229235000Y-82423000D01*
X231013000Y-80645000D02*
X231013000Y-82423000D01*
X231013000Y-69723000D02*
X231013000Y-71501000D01*
X229235000Y-69723000D02*
X231013000Y-69723000D01*
X218313000Y-69723000D02*
X220091000Y-69723000D01*
G04 #@! TO.C,SW35*
X237363000Y-71501000D02*
X237363000Y-69723000D01*
X237363000Y-82423000D02*
X237363000Y-80645000D01*
X239141000Y-82423000D02*
X237363000Y-82423000D01*
X250063000Y-82423000D02*
X248285000Y-82423000D01*
X250063000Y-80645000D02*
X250063000Y-82423000D01*
X250063000Y-69723000D02*
X250063000Y-71501000D01*
X248285000Y-69723000D02*
X250063000Y-69723000D01*
X237363000Y-69723000D02*
X239141000Y-69723000D01*
G04 #@! TO.C,SW36*
X256286000Y-69723000D02*
X258064000Y-69723000D01*
X267208000Y-69723000D02*
X268986000Y-69723000D01*
X268986000Y-69723000D02*
X268986000Y-71501000D01*
X268986000Y-80645000D02*
X268986000Y-82423000D01*
X268986000Y-82423000D02*
X267208000Y-82423000D01*
X258064000Y-82423000D02*
X256286000Y-82423000D01*
X256286000Y-82423000D02*
X256286000Y-80645000D01*
X256286000Y-71501000D02*
X256286000Y-69723000D01*
G04 #@! TO.C,SW37*
X35433000Y-88646000D02*
X37211000Y-88646000D01*
X46355000Y-88646000D02*
X48133000Y-88646000D01*
X48133000Y-88646000D02*
X48133000Y-90424000D01*
X48133000Y-99568000D02*
X48133000Y-101346000D01*
X48133000Y-101346000D02*
X46355000Y-101346000D01*
X37211000Y-101346000D02*
X35433000Y-101346000D01*
X35433000Y-101346000D02*
X35433000Y-99568000D01*
X35433000Y-90424000D02*
X35433000Y-88646000D01*
G04 #@! TO.C,SW38*
X61595000Y-90551000D02*
X61595000Y-88773000D01*
X61595000Y-101473000D02*
X61595000Y-99695000D01*
X63373000Y-101473000D02*
X61595000Y-101473000D01*
X74295000Y-101473000D02*
X72517000Y-101473000D01*
X74295000Y-99695000D02*
X74295000Y-101473000D01*
X74295000Y-88773000D02*
X74295000Y-90551000D01*
X72517000Y-88773000D02*
X74295000Y-88773000D01*
X61595000Y-88773000D02*
X63373000Y-88773000D01*
G04 #@! TO.C,SW39*
X87630000Y-90551000D02*
X87630000Y-88773000D01*
X87630000Y-101473000D02*
X87630000Y-99695000D01*
X89408000Y-101473000D02*
X87630000Y-101473000D01*
X100330000Y-101473000D02*
X98552000Y-101473000D01*
X100330000Y-99695000D02*
X100330000Y-101473000D01*
X100330000Y-88773000D02*
X100330000Y-90551000D01*
X98552000Y-88773000D02*
X100330000Y-88773000D01*
X87630000Y-88773000D02*
X89408000Y-88773000D01*
G04 #@! TO.C,SW40*
X120904000Y-101473000D02*
X120904000Y-99695000D01*
X120904000Y-90551000D02*
X120904000Y-88773000D01*
X120904000Y-88773000D02*
X122682000Y-88773000D01*
X131826000Y-88773000D02*
X133604000Y-88773000D01*
X133604000Y-88773000D02*
X133604000Y-90551000D01*
X133604000Y-99695000D02*
X133604000Y-101473000D01*
X133604000Y-101473000D02*
X131826000Y-101473000D01*
X122682000Y-101473000D02*
X120904000Y-101473000D01*
G04 #@! TO.C,SW41*
X161290000Y-101473000D02*
X161290000Y-99695000D01*
X161290000Y-90551000D02*
X161290000Y-88773000D01*
X161290000Y-88773000D02*
X163068000Y-88773000D01*
X172212000Y-88773000D02*
X173990000Y-88773000D01*
X173990000Y-88773000D02*
X173990000Y-90551000D01*
X173990000Y-99695000D02*
X173990000Y-101473000D01*
X173990000Y-101473000D02*
X172212000Y-101473000D01*
X163068000Y-101473000D02*
X161290000Y-101473000D01*
G04 #@! TO.C,SW42*
X194564000Y-90551000D02*
X194564000Y-88773000D01*
X194564000Y-101473000D02*
X194564000Y-99695000D01*
X196342000Y-101473000D02*
X194564000Y-101473000D01*
X207264000Y-101473000D02*
X205486000Y-101473000D01*
X207264000Y-99695000D02*
X207264000Y-101473000D01*
X207264000Y-88773000D02*
X207264000Y-90551000D01*
X205486000Y-88773000D02*
X207264000Y-88773000D01*
X194564000Y-88773000D02*
X196342000Y-88773000D01*
G04 #@! TO.C,SW43*
X218313000Y-88773000D02*
X220091000Y-88773000D01*
X229235000Y-88773000D02*
X231013000Y-88773000D01*
X231013000Y-88773000D02*
X231013000Y-90551000D01*
X231013000Y-99695000D02*
X231013000Y-101473000D01*
X231013000Y-101473000D02*
X229235000Y-101473000D01*
X220091000Y-101473000D02*
X218313000Y-101473000D01*
X218313000Y-101473000D02*
X218313000Y-99695000D01*
X218313000Y-90551000D02*
X218313000Y-88773000D01*
G04 #@! TO.C,SW44*
X237363000Y-88773000D02*
X239141000Y-88773000D01*
X248285000Y-88773000D02*
X250063000Y-88773000D01*
X250063000Y-88773000D02*
X250063000Y-90551000D01*
X250063000Y-99695000D02*
X250063000Y-101473000D01*
X250063000Y-101473000D02*
X248285000Y-101473000D01*
X239141000Y-101473000D02*
X237363000Y-101473000D01*
X237363000Y-101473000D02*
X237363000Y-99695000D01*
X237363000Y-90551000D02*
X237363000Y-88773000D01*
G04 #@! TO.C,SW45*
X256286000Y-88773000D02*
X258064000Y-88773000D01*
X267208000Y-88773000D02*
X268986000Y-88773000D01*
X268986000Y-88773000D02*
X268986000Y-90551000D01*
X268986000Y-99695000D02*
X268986000Y-101473000D01*
X268986000Y-101473000D02*
X267208000Y-101473000D01*
X258064000Y-101473000D02*
X256286000Y-101473000D01*
X256286000Y-101473000D02*
X256286000Y-99695000D01*
X256286000Y-90551000D02*
X256286000Y-88773000D01*
D13*
G04 #@! TO.C,U1*
X151257000Y-105537000D02*
X151257000Y-87757000D01*
X186817000Y-105537000D02*
X151257000Y-105537000D01*
X186817000Y-87757000D02*
X186817000Y-105537000D01*
X151257000Y-87757000D02*
X186817000Y-87757000D01*
X156337000Y-100457000D02*
X151257000Y-100457000D01*
X156337000Y-92837000D02*
X151257000Y-92837000D01*
X156337000Y-100457000D02*
X156337000Y-92837000D01*
X149987000Y-92837000D02*
X151257000Y-92837000D01*
X149987000Y-100457000D02*
X149987000Y-92837000D01*
X151257000Y-100457000D02*
X149987000Y-100457000D01*
G04 #@! TO.C,D1*
X39033523Y-49911904D02*
X39033523Y-49111904D01*
X39224000Y-49111904D01*
X39338285Y-49150000D01*
X39414476Y-49226190D01*
X39452571Y-49302380D01*
X39490666Y-49454761D01*
X39490666Y-49569047D01*
X39452571Y-49721428D01*
X39414476Y-49797619D01*
X39338285Y-49873809D01*
X39224000Y-49911904D01*
X39033523Y-49911904D01*
X40252571Y-49911904D02*
X39795428Y-49911904D01*
X40024000Y-49911904D02*
X40024000Y-49111904D01*
X39947809Y-49226190D01*
X39871619Y-49302380D01*
X39795428Y-49340476D01*
G04 #@! TO.C,D2*
X58591523Y-49911904D02*
X58591523Y-49111904D01*
X58782000Y-49111904D01*
X58896285Y-49150000D01*
X58972476Y-49226190D01*
X59010571Y-49302380D01*
X59048666Y-49454761D01*
X59048666Y-49569047D01*
X59010571Y-49721428D01*
X58972476Y-49797619D01*
X58896285Y-49873809D01*
X58782000Y-49911904D01*
X58591523Y-49911904D01*
X59353428Y-49188095D02*
X59391523Y-49150000D01*
X59467714Y-49111904D01*
X59658190Y-49111904D01*
X59734380Y-49150000D01*
X59772476Y-49188095D01*
X59810571Y-49264285D01*
X59810571Y-49340476D01*
X59772476Y-49454761D01*
X59315333Y-49911904D01*
X59810571Y-49911904D01*
G04 #@! TO.C,D3*
X78022523Y-49911904D02*
X78022523Y-49111904D01*
X78213000Y-49111904D01*
X78327285Y-49150000D01*
X78403476Y-49226190D01*
X78441571Y-49302380D01*
X78479666Y-49454761D01*
X78479666Y-49569047D01*
X78441571Y-49721428D01*
X78403476Y-49797619D01*
X78327285Y-49873809D01*
X78213000Y-49911904D01*
X78022523Y-49911904D01*
X78746333Y-49111904D02*
X79241571Y-49111904D01*
X78974904Y-49416666D01*
X79089190Y-49416666D01*
X79165380Y-49454761D01*
X79203476Y-49492857D01*
X79241571Y-49569047D01*
X79241571Y-49759523D01*
X79203476Y-49835714D01*
X79165380Y-49873809D01*
X79089190Y-49911904D01*
X78860619Y-49911904D01*
X78784428Y-49873809D01*
X78746333Y-49835714D01*
G04 #@! TO.C,D4*
X95675523Y-50038904D02*
X95675523Y-49238904D01*
X95866000Y-49238904D01*
X95980285Y-49277000D01*
X96056476Y-49353190D01*
X96094571Y-49429380D01*
X96132666Y-49581761D01*
X96132666Y-49696047D01*
X96094571Y-49848428D01*
X96056476Y-49924619D01*
X95980285Y-50000809D01*
X95866000Y-50038904D01*
X95675523Y-50038904D01*
X96818380Y-49505571D02*
X96818380Y-50038904D01*
X96627904Y-49200809D02*
X96437428Y-49772238D01*
X96932666Y-49772238D01*
G04 #@! TO.C,D5*
X115360523Y-49911904D02*
X115360523Y-49111904D01*
X115551000Y-49111904D01*
X115665285Y-49150000D01*
X115741476Y-49226190D01*
X115779571Y-49302380D01*
X115817666Y-49454761D01*
X115817666Y-49569047D01*
X115779571Y-49721428D01*
X115741476Y-49797619D01*
X115665285Y-49873809D01*
X115551000Y-49911904D01*
X115360523Y-49911904D01*
X116541476Y-49111904D02*
X116160523Y-49111904D01*
X116122428Y-49492857D01*
X116160523Y-49454761D01*
X116236714Y-49416666D01*
X116427190Y-49416666D01*
X116503380Y-49454761D01*
X116541476Y-49492857D01*
X116579571Y-49569047D01*
X116579571Y-49759523D01*
X116541476Y-49835714D01*
X116503380Y-49873809D01*
X116427190Y-49911904D01*
X116236714Y-49911904D01*
X116160523Y-49873809D01*
X116122428Y-49835714D01*
G04 #@! TO.C,D6*
X134283523Y-49911904D02*
X134283523Y-49111904D01*
X134474000Y-49111904D01*
X134588285Y-49150000D01*
X134664476Y-49226190D01*
X134702571Y-49302380D01*
X134740666Y-49454761D01*
X134740666Y-49569047D01*
X134702571Y-49721428D01*
X134664476Y-49797619D01*
X134588285Y-49873809D01*
X134474000Y-49911904D01*
X134283523Y-49911904D01*
X135426380Y-49111904D02*
X135274000Y-49111904D01*
X135197809Y-49150000D01*
X135159714Y-49188095D01*
X135083523Y-49302380D01*
X135045428Y-49454761D01*
X135045428Y-49759523D01*
X135083523Y-49835714D01*
X135121619Y-49873809D01*
X135197809Y-49911904D01*
X135350190Y-49911904D01*
X135426380Y-49873809D01*
X135464476Y-49835714D01*
X135502571Y-49759523D01*
X135502571Y-49569047D01*
X135464476Y-49492857D01*
X135426380Y-49454761D01*
X135350190Y-49416666D01*
X135197809Y-49416666D01*
X135121619Y-49454761D01*
X135083523Y-49492857D01*
X135045428Y-49569047D01*
G04 #@! TO.C,D7*
X153460523Y-49784904D02*
X153460523Y-48984904D01*
X153651000Y-48984904D01*
X153765285Y-49023000D01*
X153841476Y-49099190D01*
X153879571Y-49175380D01*
X153917666Y-49327761D01*
X153917666Y-49442047D01*
X153879571Y-49594428D01*
X153841476Y-49670619D01*
X153765285Y-49746809D01*
X153651000Y-49784904D01*
X153460523Y-49784904D01*
X154184333Y-48984904D02*
X154717666Y-48984904D01*
X154374809Y-49784904D01*
G04 #@! TO.C,D8*
X172764523Y-49911904D02*
X172764523Y-49111904D01*
X172955000Y-49111904D01*
X173069285Y-49150000D01*
X173145476Y-49226190D01*
X173183571Y-49302380D01*
X173221666Y-49454761D01*
X173221666Y-49569047D01*
X173183571Y-49721428D01*
X173145476Y-49797619D01*
X173069285Y-49873809D01*
X172955000Y-49911904D01*
X172764523Y-49911904D01*
X173678809Y-49454761D02*
X173602619Y-49416666D01*
X173564523Y-49378571D01*
X173526428Y-49302380D01*
X173526428Y-49264285D01*
X173564523Y-49188095D01*
X173602619Y-49150000D01*
X173678809Y-49111904D01*
X173831190Y-49111904D01*
X173907380Y-49150000D01*
X173945476Y-49188095D01*
X173983571Y-49264285D01*
X173983571Y-49302380D01*
X173945476Y-49378571D01*
X173907380Y-49416666D01*
X173831190Y-49454761D01*
X173678809Y-49454761D01*
X173602619Y-49492857D01*
X173564523Y-49530952D01*
X173526428Y-49607142D01*
X173526428Y-49759523D01*
X173564523Y-49835714D01*
X173602619Y-49873809D01*
X173678809Y-49911904D01*
X173831190Y-49911904D01*
X173907380Y-49873809D01*
X173945476Y-49835714D01*
X173983571Y-49759523D01*
X173983571Y-49607142D01*
X173945476Y-49530952D01*
X173907380Y-49492857D01*
X173831190Y-49454761D01*
G04 #@! TO.C,D9*
X191052523Y-49784904D02*
X191052523Y-48984904D01*
X191243000Y-48984904D01*
X191357285Y-49023000D01*
X191433476Y-49099190D01*
X191471571Y-49175380D01*
X191509666Y-49327761D01*
X191509666Y-49442047D01*
X191471571Y-49594428D01*
X191433476Y-49670619D01*
X191357285Y-49746809D01*
X191243000Y-49784904D01*
X191052523Y-49784904D01*
X191890619Y-49784904D02*
X192043000Y-49784904D01*
X192119190Y-49746809D01*
X192157285Y-49708714D01*
X192233476Y-49594428D01*
X192271571Y-49442047D01*
X192271571Y-49137285D01*
X192233476Y-49061095D01*
X192195380Y-49023000D01*
X192119190Y-48984904D01*
X191966809Y-48984904D01*
X191890619Y-49023000D01*
X191852523Y-49061095D01*
X191814428Y-49137285D01*
X191814428Y-49327761D01*
X191852523Y-49403952D01*
X191890619Y-49442047D01*
X191966809Y-49480142D01*
X192119190Y-49480142D01*
X192195380Y-49442047D01*
X192233476Y-49403952D01*
X192271571Y-49327761D01*
G04 #@! TO.C,D10*
X209467571Y-49911904D02*
X209467571Y-49111904D01*
X209658047Y-49111904D01*
X209772333Y-49150000D01*
X209848523Y-49226190D01*
X209886619Y-49302380D01*
X209924714Y-49454761D01*
X209924714Y-49569047D01*
X209886619Y-49721428D01*
X209848523Y-49797619D01*
X209772333Y-49873809D01*
X209658047Y-49911904D01*
X209467571Y-49911904D01*
X210686619Y-49911904D02*
X210229476Y-49911904D01*
X210458047Y-49911904D02*
X210458047Y-49111904D01*
X210381857Y-49226190D01*
X210305666Y-49302380D01*
X210229476Y-49340476D01*
X211181857Y-49111904D02*
X211258047Y-49111904D01*
X211334238Y-49150000D01*
X211372333Y-49188095D01*
X211410428Y-49264285D01*
X211448523Y-49416666D01*
X211448523Y-49607142D01*
X211410428Y-49759523D01*
X211372333Y-49835714D01*
X211334238Y-49873809D01*
X211258047Y-49911904D01*
X211181857Y-49911904D01*
X211105666Y-49873809D01*
X211067571Y-49835714D01*
X211029476Y-49759523D01*
X210991380Y-49607142D01*
X210991380Y-49416666D01*
X211029476Y-49264285D01*
X211067571Y-49188095D01*
X211105666Y-49150000D01*
X211181857Y-49111904D01*
G04 #@! TO.C,D11*
X228263571Y-49911904D02*
X228263571Y-49111904D01*
X228454047Y-49111904D01*
X228568333Y-49150000D01*
X228644523Y-49226190D01*
X228682619Y-49302380D01*
X228720714Y-49454761D01*
X228720714Y-49569047D01*
X228682619Y-49721428D01*
X228644523Y-49797619D01*
X228568333Y-49873809D01*
X228454047Y-49911904D01*
X228263571Y-49911904D01*
X229482619Y-49911904D02*
X229025476Y-49911904D01*
X229254047Y-49911904D02*
X229254047Y-49111904D01*
X229177857Y-49226190D01*
X229101666Y-49302380D01*
X229025476Y-49340476D01*
X230244523Y-49911904D02*
X229787380Y-49911904D01*
X230015952Y-49911904D02*
X230015952Y-49111904D01*
X229939761Y-49226190D01*
X229863571Y-49302380D01*
X229787380Y-49340476D01*
G04 #@! TO.C,D12*
X255060571Y-49911904D02*
X255060571Y-49111904D01*
X255251047Y-49111904D01*
X255365333Y-49150000D01*
X255441523Y-49226190D01*
X255479619Y-49302380D01*
X255517714Y-49454761D01*
X255517714Y-49569047D01*
X255479619Y-49721428D01*
X255441523Y-49797619D01*
X255365333Y-49873809D01*
X255251047Y-49911904D01*
X255060571Y-49911904D01*
X256279619Y-49911904D02*
X255822476Y-49911904D01*
X256051047Y-49911904D02*
X256051047Y-49111904D01*
X255974857Y-49226190D01*
X255898666Y-49302380D01*
X255822476Y-49340476D01*
X256584380Y-49188095D02*
X256622476Y-49150000D01*
X256698666Y-49111904D01*
X256889142Y-49111904D01*
X256965333Y-49150000D01*
X257003428Y-49188095D01*
X257041523Y-49264285D01*
X257041523Y-49340476D01*
X257003428Y-49454761D01*
X256546285Y-49911904D01*
X257041523Y-49911904D01*
G04 #@! TO.C,D13*
X40811571Y-68707904D02*
X40811571Y-67907904D01*
X41002047Y-67907904D01*
X41116333Y-67946000D01*
X41192523Y-68022190D01*
X41230619Y-68098380D01*
X41268714Y-68250761D01*
X41268714Y-68365047D01*
X41230619Y-68517428D01*
X41192523Y-68593619D01*
X41116333Y-68669809D01*
X41002047Y-68707904D01*
X40811571Y-68707904D01*
X42030619Y-68707904D02*
X41573476Y-68707904D01*
X41802047Y-68707904D02*
X41802047Y-67907904D01*
X41725857Y-68022190D01*
X41649666Y-68098380D01*
X41573476Y-68136476D01*
X42297285Y-67907904D02*
X42792523Y-67907904D01*
X42525857Y-68212666D01*
X42640142Y-68212666D01*
X42716333Y-68250761D01*
X42754428Y-68288857D01*
X42792523Y-68365047D01*
X42792523Y-68555523D01*
X42754428Y-68631714D01*
X42716333Y-68669809D01*
X42640142Y-68707904D01*
X42411571Y-68707904D01*
X42335380Y-68669809D01*
X42297285Y-68631714D01*
G04 #@! TO.C,D14*
X62274571Y-68707904D02*
X62274571Y-67907904D01*
X62465047Y-67907904D01*
X62579333Y-67946000D01*
X62655523Y-68022190D01*
X62693619Y-68098380D01*
X62731714Y-68250761D01*
X62731714Y-68365047D01*
X62693619Y-68517428D01*
X62655523Y-68593619D01*
X62579333Y-68669809D01*
X62465047Y-68707904D01*
X62274571Y-68707904D01*
X63493619Y-68707904D02*
X63036476Y-68707904D01*
X63265047Y-68707904D02*
X63265047Y-67907904D01*
X63188857Y-68022190D01*
X63112666Y-68098380D01*
X63036476Y-68136476D01*
X64179333Y-68174571D02*
X64179333Y-68707904D01*
X63988857Y-67869809D02*
X63798380Y-68441238D01*
X64293619Y-68441238D01*
G04 #@! TO.C,D15*
X81197571Y-68834904D02*
X81197571Y-68034904D01*
X81388047Y-68034904D01*
X81502333Y-68073000D01*
X81578523Y-68149190D01*
X81616619Y-68225380D01*
X81654714Y-68377761D01*
X81654714Y-68492047D01*
X81616619Y-68644428D01*
X81578523Y-68720619D01*
X81502333Y-68796809D01*
X81388047Y-68834904D01*
X81197571Y-68834904D01*
X82416619Y-68834904D02*
X81959476Y-68834904D01*
X82188047Y-68834904D02*
X82188047Y-68034904D01*
X82111857Y-68149190D01*
X82035666Y-68225380D01*
X81959476Y-68263476D01*
X83140428Y-68034904D02*
X82759476Y-68034904D01*
X82721380Y-68415857D01*
X82759476Y-68377761D01*
X82835666Y-68339666D01*
X83026142Y-68339666D01*
X83102333Y-68377761D01*
X83140428Y-68415857D01*
X83178523Y-68492047D01*
X83178523Y-68682523D01*
X83140428Y-68758714D01*
X83102333Y-68796809D01*
X83026142Y-68834904D01*
X82835666Y-68834904D01*
X82759476Y-68796809D01*
X82721380Y-68758714D01*
G04 #@! TO.C,D16*
X100247571Y-68961904D02*
X100247571Y-68161904D01*
X100438047Y-68161904D01*
X100552333Y-68200000D01*
X100628523Y-68276190D01*
X100666619Y-68352380D01*
X100704714Y-68504761D01*
X100704714Y-68619047D01*
X100666619Y-68771428D01*
X100628523Y-68847619D01*
X100552333Y-68923809D01*
X100438047Y-68961904D01*
X100247571Y-68961904D01*
X101466619Y-68961904D02*
X101009476Y-68961904D01*
X101238047Y-68961904D02*
X101238047Y-68161904D01*
X101161857Y-68276190D01*
X101085666Y-68352380D01*
X101009476Y-68390476D01*
X102152333Y-68161904D02*
X101999952Y-68161904D01*
X101923761Y-68200000D01*
X101885666Y-68238095D01*
X101809476Y-68352380D01*
X101771380Y-68504761D01*
X101771380Y-68809523D01*
X101809476Y-68885714D01*
X101847571Y-68923809D01*
X101923761Y-68961904D01*
X102076142Y-68961904D01*
X102152333Y-68923809D01*
X102190428Y-68885714D01*
X102228523Y-68809523D01*
X102228523Y-68619047D01*
X102190428Y-68542857D01*
X102152333Y-68504761D01*
X102076142Y-68466666D01*
X101923761Y-68466666D01*
X101847571Y-68504761D01*
X101809476Y-68542857D01*
X101771380Y-68619047D01*
G04 #@! TO.C,D17*
X119424571Y-68834904D02*
X119424571Y-68034904D01*
X119615047Y-68034904D01*
X119729333Y-68073000D01*
X119805523Y-68149190D01*
X119843619Y-68225380D01*
X119881714Y-68377761D01*
X119881714Y-68492047D01*
X119843619Y-68644428D01*
X119805523Y-68720619D01*
X119729333Y-68796809D01*
X119615047Y-68834904D01*
X119424571Y-68834904D01*
X120643619Y-68834904D02*
X120186476Y-68834904D01*
X120415047Y-68834904D02*
X120415047Y-68034904D01*
X120338857Y-68149190D01*
X120262666Y-68225380D01*
X120186476Y-68263476D01*
X120910285Y-68034904D02*
X121443619Y-68034904D01*
X121100761Y-68834904D01*
G04 #@! TO.C,D18*
X138093571Y-68707904D02*
X138093571Y-67907904D01*
X138284047Y-67907904D01*
X138398333Y-67946000D01*
X138474523Y-68022190D01*
X138512619Y-68098380D01*
X138550714Y-68250761D01*
X138550714Y-68365047D01*
X138512619Y-68517428D01*
X138474523Y-68593619D01*
X138398333Y-68669809D01*
X138284047Y-68707904D01*
X138093571Y-68707904D01*
X139312619Y-68707904D02*
X138855476Y-68707904D01*
X139084047Y-68707904D02*
X139084047Y-67907904D01*
X139007857Y-68022190D01*
X138931666Y-68098380D01*
X138855476Y-68136476D01*
X139769761Y-68250761D02*
X139693571Y-68212666D01*
X139655476Y-68174571D01*
X139617380Y-68098380D01*
X139617380Y-68060285D01*
X139655476Y-67984095D01*
X139693571Y-67946000D01*
X139769761Y-67907904D01*
X139922142Y-67907904D01*
X139998333Y-67946000D01*
X140036428Y-67984095D01*
X140074523Y-68060285D01*
X140074523Y-68098380D01*
X140036428Y-68174571D01*
X139998333Y-68212666D01*
X139922142Y-68250761D01*
X139769761Y-68250761D01*
X139693571Y-68288857D01*
X139655476Y-68326952D01*
X139617380Y-68403142D01*
X139617380Y-68555523D01*
X139655476Y-68631714D01*
X139693571Y-68669809D01*
X139769761Y-68707904D01*
X139922142Y-68707904D01*
X139998333Y-68669809D01*
X140036428Y-68631714D01*
X140074523Y-68555523D01*
X140074523Y-68403142D01*
X140036428Y-68326952D01*
X139998333Y-68288857D01*
X139922142Y-68250761D01*
G04 #@! TO.C,D19*
X157397571Y-69088904D02*
X157397571Y-68288904D01*
X157588047Y-68288904D01*
X157702333Y-68327000D01*
X157778523Y-68403190D01*
X157816619Y-68479380D01*
X157854714Y-68631761D01*
X157854714Y-68746047D01*
X157816619Y-68898428D01*
X157778523Y-68974619D01*
X157702333Y-69050809D01*
X157588047Y-69088904D01*
X157397571Y-69088904D01*
X158616619Y-69088904D02*
X158159476Y-69088904D01*
X158388047Y-69088904D02*
X158388047Y-68288904D01*
X158311857Y-68403190D01*
X158235666Y-68479380D01*
X158159476Y-68517476D01*
X158997571Y-69088904D02*
X159149952Y-69088904D01*
X159226142Y-69050809D01*
X159264238Y-69012714D01*
X159340428Y-68898428D01*
X159378523Y-68746047D01*
X159378523Y-68441285D01*
X159340428Y-68365095D01*
X159302333Y-68327000D01*
X159226142Y-68288904D01*
X159073761Y-68288904D01*
X158997571Y-68327000D01*
X158959476Y-68365095D01*
X158921380Y-68441285D01*
X158921380Y-68631761D01*
X158959476Y-68707952D01*
X158997571Y-68746047D01*
X159073761Y-68784142D01*
X159226142Y-68784142D01*
X159302333Y-68746047D01*
X159340428Y-68707952D01*
X159378523Y-68631761D01*
G04 #@! TO.C,D20*
X176320571Y-69088904D02*
X176320571Y-68288904D01*
X176511047Y-68288904D01*
X176625333Y-68327000D01*
X176701523Y-68403190D01*
X176739619Y-68479380D01*
X176777714Y-68631761D01*
X176777714Y-68746047D01*
X176739619Y-68898428D01*
X176701523Y-68974619D01*
X176625333Y-69050809D01*
X176511047Y-69088904D01*
X176320571Y-69088904D01*
X177082476Y-68365095D02*
X177120571Y-68327000D01*
X177196761Y-68288904D01*
X177387238Y-68288904D01*
X177463428Y-68327000D01*
X177501523Y-68365095D01*
X177539619Y-68441285D01*
X177539619Y-68517476D01*
X177501523Y-68631761D01*
X177044380Y-69088904D01*
X177539619Y-69088904D01*
X178034857Y-68288904D02*
X178111047Y-68288904D01*
X178187238Y-68327000D01*
X178225333Y-68365095D01*
X178263428Y-68441285D01*
X178301523Y-68593666D01*
X178301523Y-68784142D01*
X178263428Y-68936523D01*
X178225333Y-69012714D01*
X178187238Y-69050809D01*
X178111047Y-69088904D01*
X178034857Y-69088904D01*
X177958666Y-69050809D01*
X177920571Y-69012714D01*
X177882476Y-68936523D01*
X177844380Y-68784142D01*
X177844380Y-68593666D01*
X177882476Y-68441285D01*
X177920571Y-68365095D01*
X177958666Y-68327000D01*
X178034857Y-68288904D01*
G04 #@! TO.C,D21*
X195243571Y-68961904D02*
X195243571Y-68161904D01*
X195434047Y-68161904D01*
X195548333Y-68200000D01*
X195624523Y-68276190D01*
X195662619Y-68352380D01*
X195700714Y-68504761D01*
X195700714Y-68619047D01*
X195662619Y-68771428D01*
X195624523Y-68847619D01*
X195548333Y-68923809D01*
X195434047Y-68961904D01*
X195243571Y-68961904D01*
X196005476Y-68238095D02*
X196043571Y-68200000D01*
X196119761Y-68161904D01*
X196310238Y-68161904D01*
X196386428Y-68200000D01*
X196424523Y-68238095D01*
X196462619Y-68314285D01*
X196462619Y-68390476D01*
X196424523Y-68504761D01*
X195967380Y-68961904D01*
X196462619Y-68961904D01*
X197224523Y-68961904D02*
X196767380Y-68961904D01*
X196995952Y-68961904D02*
X196995952Y-68161904D01*
X196919761Y-68276190D01*
X196843571Y-68352380D01*
X196767380Y-68390476D01*
G04 #@! TO.C,D22*
X214293571Y-69088904D02*
X214293571Y-68288904D01*
X214484047Y-68288904D01*
X214598333Y-68327000D01*
X214674523Y-68403190D01*
X214712619Y-68479380D01*
X214750714Y-68631761D01*
X214750714Y-68746047D01*
X214712619Y-68898428D01*
X214674523Y-68974619D01*
X214598333Y-69050809D01*
X214484047Y-69088904D01*
X214293571Y-69088904D01*
X215055476Y-68365095D02*
X215093571Y-68327000D01*
X215169761Y-68288904D01*
X215360238Y-68288904D01*
X215436428Y-68327000D01*
X215474523Y-68365095D01*
X215512619Y-68441285D01*
X215512619Y-68517476D01*
X215474523Y-68631761D01*
X215017380Y-69088904D01*
X215512619Y-69088904D01*
X215817380Y-68365095D02*
X215855476Y-68327000D01*
X215931666Y-68288904D01*
X216122142Y-68288904D01*
X216198333Y-68327000D01*
X216236428Y-68365095D01*
X216274523Y-68441285D01*
X216274523Y-68517476D01*
X216236428Y-68631761D01*
X215779285Y-69088904D01*
X216274523Y-69088904D01*
G04 #@! TO.C,D23*
X233470571Y-69215904D02*
X233470571Y-68415904D01*
X233661047Y-68415904D01*
X233775333Y-68454000D01*
X233851523Y-68530190D01*
X233889619Y-68606380D01*
X233927714Y-68758761D01*
X233927714Y-68873047D01*
X233889619Y-69025428D01*
X233851523Y-69101619D01*
X233775333Y-69177809D01*
X233661047Y-69215904D01*
X233470571Y-69215904D01*
X234232476Y-68492095D02*
X234270571Y-68454000D01*
X234346761Y-68415904D01*
X234537238Y-68415904D01*
X234613428Y-68454000D01*
X234651523Y-68492095D01*
X234689619Y-68568285D01*
X234689619Y-68644476D01*
X234651523Y-68758761D01*
X234194380Y-69215904D01*
X234689619Y-69215904D01*
X234956285Y-68415904D02*
X235451523Y-68415904D01*
X235184857Y-68720666D01*
X235299142Y-68720666D01*
X235375333Y-68758761D01*
X235413428Y-68796857D01*
X235451523Y-68873047D01*
X235451523Y-69063523D01*
X235413428Y-69139714D01*
X235375333Y-69177809D01*
X235299142Y-69215904D01*
X235070571Y-69215904D01*
X234994380Y-69177809D01*
X234956285Y-69139714D01*
G04 #@! TO.C,D24*
X257473571Y-68834904D02*
X257473571Y-68034904D01*
X257664047Y-68034904D01*
X257778333Y-68073000D01*
X257854523Y-68149190D01*
X257892619Y-68225380D01*
X257930714Y-68377761D01*
X257930714Y-68492047D01*
X257892619Y-68644428D01*
X257854523Y-68720619D01*
X257778333Y-68796809D01*
X257664047Y-68834904D01*
X257473571Y-68834904D01*
X258235476Y-68111095D02*
X258273571Y-68073000D01*
X258349761Y-68034904D01*
X258540238Y-68034904D01*
X258616428Y-68073000D01*
X258654523Y-68111095D01*
X258692619Y-68187285D01*
X258692619Y-68263476D01*
X258654523Y-68377761D01*
X258197380Y-68834904D01*
X258692619Y-68834904D01*
X259378333Y-68301571D02*
X259378333Y-68834904D01*
X259187857Y-67996809D02*
X258997380Y-68568238D01*
X259492619Y-68568238D01*
G04 #@! TO.C,D25*
X45510571Y-87757904D02*
X45510571Y-86957904D01*
X45701047Y-86957904D01*
X45815333Y-86996000D01*
X45891523Y-87072190D01*
X45929619Y-87148380D01*
X45967714Y-87300761D01*
X45967714Y-87415047D01*
X45929619Y-87567428D01*
X45891523Y-87643619D01*
X45815333Y-87719809D01*
X45701047Y-87757904D01*
X45510571Y-87757904D01*
X46272476Y-87034095D02*
X46310571Y-86996000D01*
X46386761Y-86957904D01*
X46577238Y-86957904D01*
X46653428Y-86996000D01*
X46691523Y-87034095D01*
X46729619Y-87110285D01*
X46729619Y-87186476D01*
X46691523Y-87300761D01*
X46234380Y-87757904D01*
X46729619Y-87757904D01*
X47453428Y-86957904D02*
X47072476Y-86957904D01*
X47034380Y-87338857D01*
X47072476Y-87300761D01*
X47148666Y-87262666D01*
X47339142Y-87262666D01*
X47415333Y-87300761D01*
X47453428Y-87338857D01*
X47491523Y-87415047D01*
X47491523Y-87605523D01*
X47453428Y-87681714D01*
X47415333Y-87719809D01*
X47339142Y-87757904D01*
X47148666Y-87757904D01*
X47072476Y-87719809D01*
X47034380Y-87681714D01*
G04 #@! TO.C,D26*
X71926571Y-87884904D02*
X71926571Y-87084904D01*
X72117047Y-87084904D01*
X72231333Y-87123000D01*
X72307523Y-87199190D01*
X72345619Y-87275380D01*
X72383714Y-87427761D01*
X72383714Y-87542047D01*
X72345619Y-87694428D01*
X72307523Y-87770619D01*
X72231333Y-87846809D01*
X72117047Y-87884904D01*
X71926571Y-87884904D01*
X72688476Y-87161095D02*
X72726571Y-87123000D01*
X72802761Y-87084904D01*
X72993238Y-87084904D01*
X73069428Y-87123000D01*
X73107523Y-87161095D01*
X73145619Y-87237285D01*
X73145619Y-87313476D01*
X73107523Y-87427761D01*
X72650380Y-87884904D01*
X73145619Y-87884904D01*
X73831333Y-87084904D02*
X73678952Y-87084904D01*
X73602761Y-87123000D01*
X73564666Y-87161095D01*
X73488476Y-87275380D01*
X73450380Y-87427761D01*
X73450380Y-87732523D01*
X73488476Y-87808714D01*
X73526571Y-87846809D01*
X73602761Y-87884904D01*
X73755142Y-87884904D01*
X73831333Y-87846809D01*
X73869428Y-87808714D01*
X73907523Y-87732523D01*
X73907523Y-87542047D01*
X73869428Y-87465857D01*
X73831333Y-87427761D01*
X73755142Y-87389666D01*
X73602761Y-87389666D01*
X73526571Y-87427761D01*
X73488476Y-87465857D01*
X73450380Y-87542047D01*
G04 #@! TO.C,D27*
X91103571Y-87757904D02*
X91103571Y-86957904D01*
X91294047Y-86957904D01*
X91408333Y-86996000D01*
X91484523Y-87072190D01*
X91522619Y-87148380D01*
X91560714Y-87300761D01*
X91560714Y-87415047D01*
X91522619Y-87567428D01*
X91484523Y-87643619D01*
X91408333Y-87719809D01*
X91294047Y-87757904D01*
X91103571Y-87757904D01*
X91865476Y-87034095D02*
X91903571Y-86996000D01*
X91979761Y-86957904D01*
X92170238Y-86957904D01*
X92246428Y-86996000D01*
X92284523Y-87034095D01*
X92322619Y-87110285D01*
X92322619Y-87186476D01*
X92284523Y-87300761D01*
X91827380Y-87757904D01*
X92322619Y-87757904D01*
X92589285Y-86957904D02*
X93122619Y-86957904D01*
X92779761Y-87757904D01*
G04 #@! TO.C,D28*
X110280571Y-87757904D02*
X110280571Y-86957904D01*
X110471047Y-86957904D01*
X110585333Y-86996000D01*
X110661523Y-87072190D01*
X110699619Y-87148380D01*
X110737714Y-87300761D01*
X110737714Y-87415047D01*
X110699619Y-87567428D01*
X110661523Y-87643619D01*
X110585333Y-87719809D01*
X110471047Y-87757904D01*
X110280571Y-87757904D01*
X111042476Y-87034095D02*
X111080571Y-86996000D01*
X111156761Y-86957904D01*
X111347238Y-86957904D01*
X111423428Y-86996000D01*
X111461523Y-87034095D01*
X111499619Y-87110285D01*
X111499619Y-87186476D01*
X111461523Y-87300761D01*
X111004380Y-87757904D01*
X111499619Y-87757904D01*
X111956761Y-87300761D02*
X111880571Y-87262666D01*
X111842476Y-87224571D01*
X111804380Y-87148380D01*
X111804380Y-87110285D01*
X111842476Y-87034095D01*
X111880571Y-86996000D01*
X111956761Y-86957904D01*
X112109142Y-86957904D01*
X112185333Y-86996000D01*
X112223428Y-87034095D01*
X112261523Y-87110285D01*
X112261523Y-87148380D01*
X112223428Y-87224571D01*
X112185333Y-87262666D01*
X112109142Y-87300761D01*
X111956761Y-87300761D01*
X111880571Y-87338857D01*
X111842476Y-87376952D01*
X111804380Y-87453142D01*
X111804380Y-87605523D01*
X111842476Y-87681714D01*
X111880571Y-87719809D01*
X111956761Y-87757904D01*
X112109142Y-87757904D01*
X112185333Y-87719809D01*
X112223428Y-87681714D01*
X112261523Y-87605523D01*
X112261523Y-87453142D01*
X112223428Y-87376952D01*
X112185333Y-87338857D01*
X112109142Y-87300761D01*
G04 #@! TO.C,D29*
X129076571Y-87503904D02*
X129076571Y-86703904D01*
X129267047Y-86703904D01*
X129381333Y-86742000D01*
X129457523Y-86818190D01*
X129495619Y-86894380D01*
X129533714Y-87046761D01*
X129533714Y-87161047D01*
X129495619Y-87313428D01*
X129457523Y-87389619D01*
X129381333Y-87465809D01*
X129267047Y-87503904D01*
X129076571Y-87503904D01*
X129838476Y-86780095D02*
X129876571Y-86742000D01*
X129952761Y-86703904D01*
X130143238Y-86703904D01*
X130219428Y-86742000D01*
X130257523Y-86780095D01*
X130295619Y-86856285D01*
X130295619Y-86932476D01*
X130257523Y-87046761D01*
X129800380Y-87503904D01*
X130295619Y-87503904D01*
X130676571Y-87503904D02*
X130828952Y-87503904D01*
X130905142Y-87465809D01*
X130943238Y-87427714D01*
X131019428Y-87313428D01*
X131057523Y-87161047D01*
X131057523Y-86856285D01*
X131019428Y-86780095D01*
X130981333Y-86742000D01*
X130905142Y-86703904D01*
X130752761Y-86703904D01*
X130676571Y-86742000D01*
X130638476Y-86780095D01*
X130600380Y-86856285D01*
X130600380Y-87046761D01*
X130638476Y-87122952D01*
X130676571Y-87161047D01*
X130752761Y-87199142D01*
X130905142Y-87199142D01*
X130981333Y-87161047D01*
X131019428Y-87122952D01*
X131057523Y-87046761D01*
G04 #@! TO.C,D30*
X147872571Y-87630904D02*
X147872571Y-86830904D01*
X148063047Y-86830904D01*
X148177333Y-86869000D01*
X148253523Y-86945190D01*
X148291619Y-87021380D01*
X148329714Y-87173761D01*
X148329714Y-87288047D01*
X148291619Y-87440428D01*
X148253523Y-87516619D01*
X148177333Y-87592809D01*
X148063047Y-87630904D01*
X147872571Y-87630904D01*
X148596380Y-86830904D02*
X149091619Y-86830904D01*
X148824952Y-87135666D01*
X148939238Y-87135666D01*
X149015428Y-87173761D01*
X149053523Y-87211857D01*
X149091619Y-87288047D01*
X149091619Y-87478523D01*
X149053523Y-87554714D01*
X149015428Y-87592809D01*
X148939238Y-87630904D01*
X148710666Y-87630904D01*
X148634476Y-87592809D01*
X148596380Y-87554714D01*
X149586857Y-86830904D02*
X149663047Y-86830904D01*
X149739238Y-86869000D01*
X149777333Y-86907095D01*
X149815428Y-86983285D01*
X149853523Y-87135666D01*
X149853523Y-87326142D01*
X149815428Y-87478523D01*
X149777333Y-87554714D01*
X149739238Y-87592809D01*
X149663047Y-87630904D01*
X149586857Y-87630904D01*
X149510666Y-87592809D01*
X149472571Y-87554714D01*
X149434476Y-87478523D01*
X149396380Y-87326142D01*
X149396380Y-87135666D01*
X149434476Y-86983285D01*
X149472571Y-86907095D01*
X149510666Y-86869000D01*
X149586857Y-86830904D01*
G04 #@! TO.C,D31*
X166414571Y-87249904D02*
X166414571Y-86449904D01*
X166605047Y-86449904D01*
X166719333Y-86488000D01*
X166795523Y-86564190D01*
X166833619Y-86640380D01*
X166871714Y-86792761D01*
X166871714Y-86907047D01*
X166833619Y-87059428D01*
X166795523Y-87135619D01*
X166719333Y-87211809D01*
X166605047Y-87249904D01*
X166414571Y-87249904D01*
X167138380Y-86449904D02*
X167633619Y-86449904D01*
X167366952Y-86754666D01*
X167481238Y-86754666D01*
X167557428Y-86792761D01*
X167595523Y-86830857D01*
X167633619Y-86907047D01*
X167633619Y-87097523D01*
X167595523Y-87173714D01*
X167557428Y-87211809D01*
X167481238Y-87249904D01*
X167252666Y-87249904D01*
X167176476Y-87211809D01*
X167138380Y-87173714D01*
X168395523Y-87249904D02*
X167938380Y-87249904D01*
X168166952Y-87249904D02*
X168166952Y-86449904D01*
X168090761Y-86564190D01*
X168014571Y-86640380D01*
X167938380Y-86678476D01*
G04 #@! TO.C,D32*
X186226571Y-87503904D02*
X186226571Y-86703904D01*
X186417047Y-86703904D01*
X186531333Y-86742000D01*
X186607523Y-86818190D01*
X186645619Y-86894380D01*
X186683714Y-87046761D01*
X186683714Y-87161047D01*
X186645619Y-87313428D01*
X186607523Y-87389619D01*
X186531333Y-87465809D01*
X186417047Y-87503904D01*
X186226571Y-87503904D01*
X186950380Y-86703904D02*
X187445619Y-86703904D01*
X187178952Y-87008666D01*
X187293238Y-87008666D01*
X187369428Y-87046761D01*
X187407523Y-87084857D01*
X187445619Y-87161047D01*
X187445619Y-87351523D01*
X187407523Y-87427714D01*
X187369428Y-87465809D01*
X187293238Y-87503904D01*
X187064666Y-87503904D01*
X186988476Y-87465809D01*
X186950380Y-87427714D01*
X187750380Y-86780095D02*
X187788476Y-86742000D01*
X187864666Y-86703904D01*
X188055142Y-86703904D01*
X188131333Y-86742000D01*
X188169428Y-86780095D01*
X188207523Y-86856285D01*
X188207523Y-86932476D01*
X188169428Y-87046761D01*
X187712285Y-87503904D01*
X188207523Y-87503904D01*
G04 #@! TO.C,D33*
X204641571Y-87503904D02*
X204641571Y-86703904D01*
X204832047Y-86703904D01*
X204946333Y-86742000D01*
X205022523Y-86818190D01*
X205060619Y-86894380D01*
X205098714Y-87046761D01*
X205098714Y-87161047D01*
X205060619Y-87313428D01*
X205022523Y-87389619D01*
X204946333Y-87465809D01*
X204832047Y-87503904D01*
X204641571Y-87503904D01*
X205365380Y-86703904D02*
X205860619Y-86703904D01*
X205593952Y-87008666D01*
X205708238Y-87008666D01*
X205784428Y-87046761D01*
X205822523Y-87084857D01*
X205860619Y-87161047D01*
X205860619Y-87351523D01*
X205822523Y-87427714D01*
X205784428Y-87465809D01*
X205708238Y-87503904D01*
X205479666Y-87503904D01*
X205403476Y-87465809D01*
X205365380Y-87427714D01*
X206127285Y-86703904D02*
X206622523Y-86703904D01*
X206355857Y-87008666D01*
X206470142Y-87008666D01*
X206546333Y-87046761D01*
X206584428Y-87084857D01*
X206622523Y-87161047D01*
X206622523Y-87351523D01*
X206584428Y-87427714D01*
X206546333Y-87465809D01*
X206470142Y-87503904D01*
X206241571Y-87503904D01*
X206165380Y-87465809D01*
X206127285Y-87427714D01*
G04 #@! TO.C,D34*
X224326571Y-87376904D02*
X224326571Y-86576904D01*
X224517047Y-86576904D01*
X224631333Y-86615000D01*
X224707523Y-86691190D01*
X224745619Y-86767380D01*
X224783714Y-86919761D01*
X224783714Y-87034047D01*
X224745619Y-87186428D01*
X224707523Y-87262619D01*
X224631333Y-87338809D01*
X224517047Y-87376904D01*
X224326571Y-87376904D01*
X225050380Y-86576904D02*
X225545619Y-86576904D01*
X225278952Y-86881666D01*
X225393238Y-86881666D01*
X225469428Y-86919761D01*
X225507523Y-86957857D01*
X225545619Y-87034047D01*
X225545619Y-87224523D01*
X225507523Y-87300714D01*
X225469428Y-87338809D01*
X225393238Y-87376904D01*
X225164666Y-87376904D01*
X225088476Y-87338809D01*
X225050380Y-87300714D01*
X226231333Y-86843571D02*
X226231333Y-87376904D01*
X226040857Y-86538809D02*
X225850380Y-87110238D01*
X226345619Y-87110238D01*
G04 #@! TO.C,D35*
X243376571Y-87757904D02*
X243376571Y-86957904D01*
X243567047Y-86957904D01*
X243681333Y-86996000D01*
X243757523Y-87072190D01*
X243795619Y-87148380D01*
X243833714Y-87300761D01*
X243833714Y-87415047D01*
X243795619Y-87567428D01*
X243757523Y-87643619D01*
X243681333Y-87719809D01*
X243567047Y-87757904D01*
X243376571Y-87757904D01*
X244100380Y-86957904D02*
X244595619Y-86957904D01*
X244328952Y-87262666D01*
X244443238Y-87262666D01*
X244519428Y-87300761D01*
X244557523Y-87338857D01*
X244595619Y-87415047D01*
X244595619Y-87605523D01*
X244557523Y-87681714D01*
X244519428Y-87719809D01*
X244443238Y-87757904D01*
X244214666Y-87757904D01*
X244138476Y-87719809D01*
X244100380Y-87681714D01*
X245319428Y-86957904D02*
X244938476Y-86957904D01*
X244900380Y-87338857D01*
X244938476Y-87300761D01*
X245014666Y-87262666D01*
X245205142Y-87262666D01*
X245281333Y-87300761D01*
X245319428Y-87338857D01*
X245357523Y-87415047D01*
X245357523Y-87605523D01*
X245319428Y-87681714D01*
X245281333Y-87719809D01*
X245205142Y-87757904D01*
X245014666Y-87757904D01*
X244938476Y-87719809D01*
X244900380Y-87681714D01*
G04 #@! TO.C,D36*
X261918571Y-87757904D02*
X261918571Y-86957904D01*
X262109047Y-86957904D01*
X262223333Y-86996000D01*
X262299523Y-87072190D01*
X262337619Y-87148380D01*
X262375714Y-87300761D01*
X262375714Y-87415047D01*
X262337619Y-87567428D01*
X262299523Y-87643619D01*
X262223333Y-87719809D01*
X262109047Y-87757904D01*
X261918571Y-87757904D01*
X262642380Y-86957904D02*
X263137619Y-86957904D01*
X262870952Y-87262666D01*
X262985238Y-87262666D01*
X263061428Y-87300761D01*
X263099523Y-87338857D01*
X263137619Y-87415047D01*
X263137619Y-87605523D01*
X263099523Y-87681714D01*
X263061428Y-87719809D01*
X262985238Y-87757904D01*
X262756666Y-87757904D01*
X262680476Y-87719809D01*
X262642380Y-87681714D01*
X263823333Y-86957904D02*
X263670952Y-86957904D01*
X263594761Y-86996000D01*
X263556666Y-87034095D01*
X263480476Y-87148380D01*
X263442380Y-87300761D01*
X263442380Y-87605523D01*
X263480476Y-87681714D01*
X263518571Y-87719809D01*
X263594761Y-87757904D01*
X263747142Y-87757904D01*
X263823333Y-87719809D01*
X263861428Y-87681714D01*
X263899523Y-87605523D01*
X263899523Y-87415047D01*
X263861428Y-87338857D01*
X263823333Y-87300761D01*
X263747142Y-87262666D01*
X263594761Y-87262666D01*
X263518571Y-87300761D01*
X263480476Y-87338857D01*
X263442380Y-87415047D01*
G04 #@! TO.C,D37*
X41192571Y-106426904D02*
X41192571Y-105626904D01*
X41383047Y-105626904D01*
X41497333Y-105665000D01*
X41573523Y-105741190D01*
X41611619Y-105817380D01*
X41649714Y-105969761D01*
X41649714Y-106084047D01*
X41611619Y-106236428D01*
X41573523Y-106312619D01*
X41497333Y-106388809D01*
X41383047Y-106426904D01*
X41192571Y-106426904D01*
X41916380Y-105626904D02*
X42411619Y-105626904D01*
X42144952Y-105931666D01*
X42259238Y-105931666D01*
X42335428Y-105969761D01*
X42373523Y-106007857D01*
X42411619Y-106084047D01*
X42411619Y-106274523D01*
X42373523Y-106350714D01*
X42335428Y-106388809D01*
X42259238Y-106426904D01*
X42030666Y-106426904D01*
X41954476Y-106388809D01*
X41916380Y-106350714D01*
X42678285Y-105626904D02*
X43211619Y-105626904D01*
X42868761Y-106426904D01*
G04 #@! TO.C,D38*
X67100571Y-106553904D02*
X67100571Y-105753904D01*
X67291047Y-105753904D01*
X67405333Y-105792000D01*
X67481523Y-105868190D01*
X67519619Y-105944380D01*
X67557714Y-106096761D01*
X67557714Y-106211047D01*
X67519619Y-106363428D01*
X67481523Y-106439619D01*
X67405333Y-106515809D01*
X67291047Y-106553904D01*
X67100571Y-106553904D01*
X67824380Y-105753904D02*
X68319619Y-105753904D01*
X68052952Y-106058666D01*
X68167238Y-106058666D01*
X68243428Y-106096761D01*
X68281523Y-106134857D01*
X68319619Y-106211047D01*
X68319619Y-106401523D01*
X68281523Y-106477714D01*
X68243428Y-106515809D01*
X68167238Y-106553904D01*
X67938666Y-106553904D01*
X67862476Y-106515809D01*
X67824380Y-106477714D01*
X68776761Y-106096761D02*
X68700571Y-106058666D01*
X68662476Y-106020571D01*
X68624380Y-105944380D01*
X68624380Y-105906285D01*
X68662476Y-105830095D01*
X68700571Y-105792000D01*
X68776761Y-105753904D01*
X68929142Y-105753904D01*
X69005333Y-105792000D01*
X69043428Y-105830095D01*
X69081523Y-105906285D01*
X69081523Y-105944380D01*
X69043428Y-106020571D01*
X69005333Y-106058666D01*
X68929142Y-106096761D01*
X68776761Y-106096761D01*
X68700571Y-106134857D01*
X68662476Y-106172952D01*
X68624380Y-106249142D01*
X68624380Y-106401523D01*
X68662476Y-106477714D01*
X68700571Y-106515809D01*
X68776761Y-106553904D01*
X68929142Y-106553904D01*
X69005333Y-106515809D01*
X69043428Y-106477714D01*
X69081523Y-106401523D01*
X69081523Y-106249142D01*
X69043428Y-106172952D01*
X69005333Y-106134857D01*
X68929142Y-106096761D01*
G04 #@! TO.C,D39*
X93262571Y-106934904D02*
X93262571Y-106134904D01*
X93453047Y-106134904D01*
X93567333Y-106173000D01*
X93643523Y-106249190D01*
X93681619Y-106325380D01*
X93719714Y-106477761D01*
X93719714Y-106592047D01*
X93681619Y-106744428D01*
X93643523Y-106820619D01*
X93567333Y-106896809D01*
X93453047Y-106934904D01*
X93262571Y-106934904D01*
X93986380Y-106134904D02*
X94481619Y-106134904D01*
X94214952Y-106439666D01*
X94329238Y-106439666D01*
X94405428Y-106477761D01*
X94443523Y-106515857D01*
X94481619Y-106592047D01*
X94481619Y-106782523D01*
X94443523Y-106858714D01*
X94405428Y-106896809D01*
X94329238Y-106934904D01*
X94100666Y-106934904D01*
X94024476Y-106896809D01*
X93986380Y-106858714D01*
X94862571Y-106934904D02*
X95014952Y-106934904D01*
X95091142Y-106896809D01*
X95129238Y-106858714D01*
X95205428Y-106744428D01*
X95243523Y-106592047D01*
X95243523Y-106287285D01*
X95205428Y-106211095D01*
X95167333Y-106173000D01*
X95091142Y-106134904D01*
X94938761Y-106134904D01*
X94862571Y-106173000D01*
X94824476Y-106211095D01*
X94786380Y-106287285D01*
X94786380Y-106477761D01*
X94824476Y-106553952D01*
X94862571Y-106592047D01*
X94938761Y-106630142D01*
X95091142Y-106630142D01*
X95167333Y-106592047D01*
X95205428Y-106553952D01*
X95243523Y-106477761D01*
G04 #@! TO.C,D40*
X109307904Y-95205428D02*
X108507904Y-95205428D01*
X108507904Y-95014952D01*
X108546000Y-94900666D01*
X108622190Y-94824476D01*
X108698380Y-94786380D01*
X108850761Y-94748285D01*
X108965047Y-94748285D01*
X109117428Y-94786380D01*
X109193619Y-94824476D01*
X109269809Y-94900666D01*
X109307904Y-95014952D01*
X109307904Y-95205428D01*
X108774571Y-94062571D02*
X109307904Y-94062571D01*
X108469809Y-94253047D02*
X109041238Y-94443523D01*
X109041238Y-93948285D01*
X108507904Y-93491142D02*
X108507904Y-93414952D01*
X108546000Y-93338761D01*
X108584095Y-93300666D01*
X108660285Y-93262571D01*
X108812666Y-93224476D01*
X109003142Y-93224476D01*
X109155523Y-93262571D01*
X109231714Y-93300666D01*
X109269809Y-93338761D01*
X109307904Y-93414952D01*
X109307904Y-93491142D01*
X109269809Y-93567333D01*
X109231714Y-93605428D01*
X109155523Y-93643523D01*
X109003142Y-93681619D01*
X108812666Y-93681619D01*
X108660285Y-93643523D01*
X108584095Y-93605428D01*
X108546000Y-93567333D01*
X108507904Y-93491142D01*
G04 #@! TO.C,D41*
X109772571Y-104013904D02*
X109772571Y-103213904D01*
X109963047Y-103213904D01*
X110077333Y-103252000D01*
X110153523Y-103328190D01*
X110191619Y-103404380D01*
X110229714Y-103556761D01*
X110229714Y-103671047D01*
X110191619Y-103823428D01*
X110153523Y-103899619D01*
X110077333Y-103975809D01*
X109963047Y-104013904D01*
X109772571Y-104013904D01*
X110915428Y-103480571D02*
X110915428Y-104013904D01*
X110724952Y-103175809D02*
X110534476Y-103747238D01*
X111029714Y-103747238D01*
X111753523Y-104013904D02*
X111296380Y-104013904D01*
X111524952Y-104013904D02*
X111524952Y-103213904D01*
X111448761Y-103328190D01*
X111372571Y-103404380D01*
X111296380Y-103442476D01*
G04 #@! TO.C,D42*
X200069571Y-106934904D02*
X200069571Y-106134904D01*
X200260047Y-106134904D01*
X200374333Y-106173000D01*
X200450523Y-106249190D01*
X200488619Y-106325380D01*
X200526714Y-106477761D01*
X200526714Y-106592047D01*
X200488619Y-106744428D01*
X200450523Y-106820619D01*
X200374333Y-106896809D01*
X200260047Y-106934904D01*
X200069571Y-106934904D01*
X201212428Y-106401571D02*
X201212428Y-106934904D01*
X201021952Y-106096809D02*
X200831476Y-106668238D01*
X201326714Y-106668238D01*
X201593380Y-106211095D02*
X201631476Y-106173000D01*
X201707666Y-106134904D01*
X201898142Y-106134904D01*
X201974333Y-106173000D01*
X202012428Y-106211095D01*
X202050523Y-106287285D01*
X202050523Y-106363476D01*
X202012428Y-106477761D01*
X201555285Y-106934904D01*
X202050523Y-106934904D01*
G04 #@! TO.C,D43*
X224199571Y-106934904D02*
X224199571Y-106134904D01*
X224390047Y-106134904D01*
X224504333Y-106173000D01*
X224580523Y-106249190D01*
X224618619Y-106325380D01*
X224656714Y-106477761D01*
X224656714Y-106592047D01*
X224618619Y-106744428D01*
X224580523Y-106820619D01*
X224504333Y-106896809D01*
X224390047Y-106934904D01*
X224199571Y-106934904D01*
X225342428Y-106401571D02*
X225342428Y-106934904D01*
X225151952Y-106096809D02*
X224961476Y-106668238D01*
X225456714Y-106668238D01*
X225685285Y-106134904D02*
X226180523Y-106134904D01*
X225913857Y-106439666D01*
X226028142Y-106439666D01*
X226104333Y-106477761D01*
X226142428Y-106515857D01*
X226180523Y-106592047D01*
X226180523Y-106782523D01*
X226142428Y-106858714D01*
X226104333Y-106896809D01*
X226028142Y-106934904D01*
X225799571Y-106934904D01*
X225723380Y-106896809D01*
X225685285Y-106858714D01*
G04 #@! TO.C,D44*
X242995571Y-106807904D02*
X242995571Y-106007904D01*
X243186047Y-106007904D01*
X243300333Y-106046000D01*
X243376523Y-106122190D01*
X243414619Y-106198380D01*
X243452714Y-106350761D01*
X243452714Y-106465047D01*
X243414619Y-106617428D01*
X243376523Y-106693619D01*
X243300333Y-106769809D01*
X243186047Y-106807904D01*
X242995571Y-106807904D01*
X244138428Y-106274571D02*
X244138428Y-106807904D01*
X243947952Y-105969809D02*
X243757476Y-106541238D01*
X244252714Y-106541238D01*
X244900333Y-106274571D02*
X244900333Y-106807904D01*
X244709857Y-105969809D02*
X244519380Y-106541238D01*
X245014619Y-106541238D01*
G04 #@! TO.C,D45*
X262299571Y-106934904D02*
X262299571Y-106134904D01*
X262490047Y-106134904D01*
X262604333Y-106173000D01*
X262680523Y-106249190D01*
X262718619Y-106325380D01*
X262756714Y-106477761D01*
X262756714Y-106592047D01*
X262718619Y-106744428D01*
X262680523Y-106820619D01*
X262604333Y-106896809D01*
X262490047Y-106934904D01*
X262299571Y-106934904D01*
X263442428Y-106401571D02*
X263442428Y-106934904D01*
X263251952Y-106096809D02*
X263061476Y-106668238D01*
X263556714Y-106668238D01*
X264242428Y-106134904D02*
X263861476Y-106134904D01*
X263823380Y-106515857D01*
X263861476Y-106477761D01*
X263937666Y-106439666D01*
X264128142Y-106439666D01*
X264204333Y-106477761D01*
X264242428Y-106515857D01*
X264280523Y-106592047D01*
X264280523Y-106782523D01*
X264242428Y-106858714D01*
X264204333Y-106896809D01*
X264128142Y-106934904D01*
X263937666Y-106934904D01*
X263861476Y-106896809D01*
X263823380Y-106858714D01*
G04 #@! TO.C,SW1*
D14*
X37338000Y-41789047D02*
X37555714Y-41849523D01*
X37918571Y-41849523D01*
X38063714Y-41789047D01*
X38136285Y-41728571D01*
X38208857Y-41607619D01*
X38208857Y-41486666D01*
X38136285Y-41365714D01*
X38063714Y-41305238D01*
X37918571Y-41244761D01*
X37628285Y-41184285D01*
X37483142Y-41123809D01*
X37410571Y-41063333D01*
X37338000Y-40942380D01*
X37338000Y-40821428D01*
X37410571Y-40700476D01*
X37483142Y-40640000D01*
X37628285Y-40579523D01*
X37991142Y-40579523D01*
X38208857Y-40640000D01*
X38716857Y-40579523D02*
X39079714Y-41849523D01*
X39370000Y-40942380D01*
X39660285Y-41849523D01*
X40023142Y-40579523D01*
X41402000Y-41849523D02*
X40531142Y-41849523D01*
X40966571Y-41849523D02*
X40966571Y-40579523D01*
X40821428Y-40760952D01*
X40676285Y-40881904D01*
X40531142Y-40942380D01*
G04 #@! TO.C,SW2*
X56388000Y-41789047D02*
X56605714Y-41849523D01*
X56968571Y-41849523D01*
X57113714Y-41789047D01*
X57186285Y-41728571D01*
X57258857Y-41607619D01*
X57258857Y-41486666D01*
X57186285Y-41365714D01*
X57113714Y-41305238D01*
X56968571Y-41244761D01*
X56678285Y-41184285D01*
X56533142Y-41123809D01*
X56460571Y-41063333D01*
X56388000Y-40942380D01*
X56388000Y-40821428D01*
X56460571Y-40700476D01*
X56533142Y-40640000D01*
X56678285Y-40579523D01*
X57041142Y-40579523D01*
X57258857Y-40640000D01*
X57766857Y-40579523D02*
X58129714Y-41849523D01*
X58420000Y-40942380D01*
X58710285Y-41849523D01*
X59073142Y-40579523D01*
X59581142Y-40700476D02*
X59653714Y-40640000D01*
X59798857Y-40579523D01*
X60161714Y-40579523D01*
X60306857Y-40640000D01*
X60379428Y-40700476D01*
X60452000Y-40821428D01*
X60452000Y-40942380D01*
X60379428Y-41123809D01*
X59508571Y-41849523D01*
X60452000Y-41849523D01*
G04 #@! TO.C,SW3*
X75438000Y-41789047D02*
X75655714Y-41849523D01*
X76018571Y-41849523D01*
X76163714Y-41789047D01*
X76236285Y-41728571D01*
X76308857Y-41607619D01*
X76308857Y-41486666D01*
X76236285Y-41365714D01*
X76163714Y-41305238D01*
X76018571Y-41244761D01*
X75728285Y-41184285D01*
X75583142Y-41123809D01*
X75510571Y-41063333D01*
X75438000Y-40942380D01*
X75438000Y-40821428D01*
X75510571Y-40700476D01*
X75583142Y-40640000D01*
X75728285Y-40579523D01*
X76091142Y-40579523D01*
X76308857Y-40640000D01*
X76816857Y-40579523D02*
X77179714Y-41849523D01*
X77470000Y-40942380D01*
X77760285Y-41849523D01*
X78123142Y-40579523D01*
X78558571Y-40579523D02*
X79502000Y-40579523D01*
X78994000Y-41063333D01*
X79211714Y-41063333D01*
X79356857Y-41123809D01*
X79429428Y-41184285D01*
X79502000Y-41305238D01*
X79502000Y-41607619D01*
X79429428Y-41728571D01*
X79356857Y-41789047D01*
X79211714Y-41849523D01*
X78776285Y-41849523D01*
X78631142Y-41789047D01*
X78558571Y-41728571D01*
G04 #@! TO.C,SW4*
X94488000Y-41789047D02*
X94705714Y-41849523D01*
X95068571Y-41849523D01*
X95213714Y-41789047D01*
X95286285Y-41728571D01*
X95358857Y-41607619D01*
X95358857Y-41486666D01*
X95286285Y-41365714D01*
X95213714Y-41305238D01*
X95068571Y-41244761D01*
X94778285Y-41184285D01*
X94633142Y-41123809D01*
X94560571Y-41063333D01*
X94488000Y-40942380D01*
X94488000Y-40821428D01*
X94560571Y-40700476D01*
X94633142Y-40640000D01*
X94778285Y-40579523D01*
X95141142Y-40579523D01*
X95358857Y-40640000D01*
X95866857Y-40579523D02*
X96229714Y-41849523D01*
X96520000Y-40942380D01*
X96810285Y-41849523D01*
X97173142Y-40579523D01*
X98406857Y-41002857D02*
X98406857Y-41849523D01*
X98044000Y-40519047D02*
X97681142Y-41426190D01*
X98624571Y-41426190D01*
G04 #@! TO.C,SW5*
X113538000Y-41789047D02*
X113755714Y-41849523D01*
X114118571Y-41849523D01*
X114263714Y-41789047D01*
X114336285Y-41728571D01*
X114408857Y-41607619D01*
X114408857Y-41486666D01*
X114336285Y-41365714D01*
X114263714Y-41305238D01*
X114118571Y-41244761D01*
X113828285Y-41184285D01*
X113683142Y-41123809D01*
X113610571Y-41063333D01*
X113538000Y-40942380D01*
X113538000Y-40821428D01*
X113610571Y-40700476D01*
X113683142Y-40640000D01*
X113828285Y-40579523D01*
X114191142Y-40579523D01*
X114408857Y-40640000D01*
X114916857Y-40579523D02*
X115279714Y-41849523D01*
X115570000Y-40942380D01*
X115860285Y-41849523D01*
X116223142Y-40579523D01*
X117529428Y-40579523D02*
X116803714Y-40579523D01*
X116731142Y-41184285D01*
X116803714Y-41123809D01*
X116948857Y-41063333D01*
X117311714Y-41063333D01*
X117456857Y-41123809D01*
X117529428Y-41184285D01*
X117602000Y-41305238D01*
X117602000Y-41607619D01*
X117529428Y-41728571D01*
X117456857Y-41789047D01*
X117311714Y-41849523D01*
X116948857Y-41849523D01*
X116803714Y-41789047D01*
X116731142Y-41728571D01*
G04 #@! TO.C,SW6*
X132334000Y-41789047D02*
X132551714Y-41849523D01*
X132914571Y-41849523D01*
X133059714Y-41789047D01*
X133132285Y-41728571D01*
X133204857Y-41607619D01*
X133204857Y-41486666D01*
X133132285Y-41365714D01*
X133059714Y-41305238D01*
X132914571Y-41244761D01*
X132624285Y-41184285D01*
X132479142Y-41123809D01*
X132406571Y-41063333D01*
X132334000Y-40942380D01*
X132334000Y-40821428D01*
X132406571Y-40700476D01*
X132479142Y-40640000D01*
X132624285Y-40579523D01*
X132987142Y-40579523D01*
X133204857Y-40640000D01*
X133712857Y-40579523D02*
X134075714Y-41849523D01*
X134366000Y-40942380D01*
X134656285Y-41849523D01*
X135019142Y-40579523D01*
X136252857Y-40579523D02*
X135962571Y-40579523D01*
X135817428Y-40640000D01*
X135744857Y-40700476D01*
X135599714Y-40881904D01*
X135527142Y-41123809D01*
X135527142Y-41607619D01*
X135599714Y-41728571D01*
X135672285Y-41789047D01*
X135817428Y-41849523D01*
X136107714Y-41849523D01*
X136252857Y-41789047D01*
X136325428Y-41728571D01*
X136398000Y-41607619D01*
X136398000Y-41305238D01*
X136325428Y-41184285D01*
X136252857Y-41123809D01*
X136107714Y-41063333D01*
X135817428Y-41063333D01*
X135672285Y-41123809D01*
X135599714Y-41184285D01*
X135527142Y-41305238D01*
G04 #@! TO.C,SW7*
X151384000Y-41789047D02*
X151601714Y-41849523D01*
X151964571Y-41849523D01*
X152109714Y-41789047D01*
X152182285Y-41728571D01*
X152254857Y-41607619D01*
X152254857Y-41486666D01*
X152182285Y-41365714D01*
X152109714Y-41305238D01*
X151964571Y-41244761D01*
X151674285Y-41184285D01*
X151529142Y-41123809D01*
X151456571Y-41063333D01*
X151384000Y-40942380D01*
X151384000Y-40821428D01*
X151456571Y-40700476D01*
X151529142Y-40640000D01*
X151674285Y-40579523D01*
X152037142Y-40579523D01*
X152254857Y-40640000D01*
X152762857Y-40579523D02*
X153125714Y-41849523D01*
X153416000Y-40942380D01*
X153706285Y-41849523D01*
X154069142Y-40579523D01*
X154504571Y-40579523D02*
X155520571Y-40579523D01*
X154867428Y-41849523D01*
G04 #@! TO.C,SW8*
X170434000Y-41789047D02*
X170651714Y-41849523D01*
X171014571Y-41849523D01*
X171159714Y-41789047D01*
X171232285Y-41728571D01*
X171304857Y-41607619D01*
X171304857Y-41486666D01*
X171232285Y-41365714D01*
X171159714Y-41305238D01*
X171014571Y-41244761D01*
X170724285Y-41184285D01*
X170579142Y-41123809D01*
X170506571Y-41063333D01*
X170434000Y-40942380D01*
X170434000Y-40821428D01*
X170506571Y-40700476D01*
X170579142Y-40640000D01*
X170724285Y-40579523D01*
X171087142Y-40579523D01*
X171304857Y-40640000D01*
X171812857Y-40579523D02*
X172175714Y-41849523D01*
X172466000Y-40942380D01*
X172756285Y-41849523D01*
X173119142Y-40579523D01*
X173917428Y-41123809D02*
X173772285Y-41063333D01*
X173699714Y-41002857D01*
X173627142Y-40881904D01*
X173627142Y-40821428D01*
X173699714Y-40700476D01*
X173772285Y-40640000D01*
X173917428Y-40579523D01*
X174207714Y-40579523D01*
X174352857Y-40640000D01*
X174425428Y-40700476D01*
X174498000Y-40821428D01*
X174498000Y-40881904D01*
X174425428Y-41002857D01*
X174352857Y-41063333D01*
X174207714Y-41123809D01*
X173917428Y-41123809D01*
X173772285Y-41184285D01*
X173699714Y-41244761D01*
X173627142Y-41365714D01*
X173627142Y-41607619D01*
X173699714Y-41728571D01*
X173772285Y-41789047D01*
X173917428Y-41849523D01*
X174207714Y-41849523D01*
X174352857Y-41789047D01*
X174425428Y-41728571D01*
X174498000Y-41607619D01*
X174498000Y-41365714D01*
X174425428Y-41244761D01*
X174352857Y-41184285D01*
X174207714Y-41123809D01*
G04 #@! TO.C,SW9*
X189484000Y-41789047D02*
X189701714Y-41849523D01*
X190064571Y-41849523D01*
X190209714Y-41789047D01*
X190282285Y-41728571D01*
X190354857Y-41607619D01*
X190354857Y-41486666D01*
X190282285Y-41365714D01*
X190209714Y-41305238D01*
X190064571Y-41244761D01*
X189774285Y-41184285D01*
X189629142Y-41123809D01*
X189556571Y-41063333D01*
X189484000Y-40942380D01*
X189484000Y-40821428D01*
X189556571Y-40700476D01*
X189629142Y-40640000D01*
X189774285Y-40579523D01*
X190137142Y-40579523D01*
X190354857Y-40640000D01*
X190862857Y-40579523D02*
X191225714Y-41849523D01*
X191516000Y-40942380D01*
X191806285Y-41849523D01*
X192169142Y-40579523D01*
X192822285Y-41849523D02*
X193112571Y-41849523D01*
X193257714Y-41789047D01*
X193330285Y-41728571D01*
X193475428Y-41547142D01*
X193548000Y-41305238D01*
X193548000Y-40821428D01*
X193475428Y-40700476D01*
X193402857Y-40640000D01*
X193257714Y-40579523D01*
X192967428Y-40579523D01*
X192822285Y-40640000D01*
X192749714Y-40700476D01*
X192677142Y-40821428D01*
X192677142Y-41123809D01*
X192749714Y-41244761D01*
X192822285Y-41305238D01*
X192967428Y-41365714D01*
X193257714Y-41365714D01*
X193402857Y-41305238D01*
X193475428Y-41244761D01*
X193548000Y-41123809D01*
G04 #@! TO.C,SW10*
X207808285Y-41789047D02*
X208026000Y-41849523D01*
X208388857Y-41849523D01*
X208534000Y-41789047D01*
X208606571Y-41728571D01*
X208679142Y-41607619D01*
X208679142Y-41486666D01*
X208606571Y-41365714D01*
X208534000Y-41305238D01*
X208388857Y-41244761D01*
X208098571Y-41184285D01*
X207953428Y-41123809D01*
X207880857Y-41063333D01*
X207808285Y-40942380D01*
X207808285Y-40821428D01*
X207880857Y-40700476D01*
X207953428Y-40640000D01*
X208098571Y-40579523D01*
X208461428Y-40579523D01*
X208679142Y-40640000D01*
X209187142Y-40579523D02*
X209550000Y-41849523D01*
X209840285Y-40942380D01*
X210130571Y-41849523D01*
X210493428Y-40579523D01*
X211872285Y-41849523D02*
X211001428Y-41849523D01*
X211436857Y-41849523D02*
X211436857Y-40579523D01*
X211291714Y-40760952D01*
X211146571Y-40881904D01*
X211001428Y-40942380D01*
X212815714Y-40579523D02*
X212960857Y-40579523D01*
X213106000Y-40640000D01*
X213178571Y-40700476D01*
X213251142Y-40821428D01*
X213323714Y-41063333D01*
X213323714Y-41365714D01*
X213251142Y-41607619D01*
X213178571Y-41728571D01*
X213106000Y-41789047D01*
X212960857Y-41849523D01*
X212815714Y-41849523D01*
X212670571Y-41789047D01*
X212598000Y-41728571D01*
X212525428Y-41607619D01*
X212452857Y-41365714D01*
X212452857Y-41063333D01*
X212525428Y-40821428D01*
X212598000Y-40700476D01*
X212670571Y-40640000D01*
X212815714Y-40579523D01*
G04 #@! TO.C,SW11*
X226858285Y-41789047D02*
X227076000Y-41849523D01*
X227438857Y-41849523D01*
X227584000Y-41789047D01*
X227656571Y-41728571D01*
X227729142Y-41607619D01*
X227729142Y-41486666D01*
X227656571Y-41365714D01*
X227584000Y-41305238D01*
X227438857Y-41244761D01*
X227148571Y-41184285D01*
X227003428Y-41123809D01*
X226930857Y-41063333D01*
X226858285Y-40942380D01*
X226858285Y-40821428D01*
X226930857Y-40700476D01*
X227003428Y-40640000D01*
X227148571Y-40579523D01*
X227511428Y-40579523D01*
X227729142Y-40640000D01*
X228237142Y-40579523D02*
X228600000Y-41849523D01*
X228890285Y-40942380D01*
X229180571Y-41849523D01*
X229543428Y-40579523D01*
X230922285Y-41849523D02*
X230051428Y-41849523D01*
X230486857Y-41849523D02*
X230486857Y-40579523D01*
X230341714Y-40760952D01*
X230196571Y-40881904D01*
X230051428Y-40942380D01*
X232373714Y-41849523D02*
X231502857Y-41849523D01*
X231938285Y-41849523D02*
X231938285Y-40579523D01*
X231793142Y-40760952D01*
X231648000Y-40881904D01*
X231502857Y-40942380D01*
G04 #@! TO.C,SW12*
X252766285Y-41789047D02*
X252984000Y-41849523D01*
X253346857Y-41849523D01*
X253492000Y-41789047D01*
X253564571Y-41728571D01*
X253637142Y-41607619D01*
X253637142Y-41486666D01*
X253564571Y-41365714D01*
X253492000Y-41305238D01*
X253346857Y-41244761D01*
X253056571Y-41184285D01*
X252911428Y-41123809D01*
X252838857Y-41063333D01*
X252766285Y-40942380D01*
X252766285Y-40821428D01*
X252838857Y-40700476D01*
X252911428Y-40640000D01*
X253056571Y-40579523D01*
X253419428Y-40579523D01*
X253637142Y-40640000D01*
X254145142Y-40579523D02*
X254508000Y-41849523D01*
X254798285Y-40942380D01*
X255088571Y-41849523D01*
X255451428Y-40579523D01*
X256830285Y-41849523D02*
X255959428Y-41849523D01*
X256394857Y-41849523D02*
X256394857Y-40579523D01*
X256249714Y-40760952D01*
X256104571Y-40881904D01*
X255959428Y-40942380D01*
X257410857Y-40700476D02*
X257483428Y-40640000D01*
X257628571Y-40579523D01*
X257991428Y-40579523D01*
X258136571Y-40640000D01*
X258209142Y-40700476D01*
X258281714Y-40821428D01*
X258281714Y-40942380D01*
X258209142Y-41123809D01*
X257338285Y-41849523D01*
X258281714Y-41849523D01*
G04 #@! TO.C,SW13*
X39152285Y-60839047D02*
X39370000Y-60899523D01*
X39732857Y-60899523D01*
X39878000Y-60839047D01*
X39950571Y-60778571D01*
X40023142Y-60657619D01*
X40023142Y-60536666D01*
X39950571Y-60415714D01*
X39878000Y-60355238D01*
X39732857Y-60294761D01*
X39442571Y-60234285D01*
X39297428Y-60173809D01*
X39224857Y-60113333D01*
X39152285Y-59992380D01*
X39152285Y-59871428D01*
X39224857Y-59750476D01*
X39297428Y-59690000D01*
X39442571Y-59629523D01*
X39805428Y-59629523D01*
X40023142Y-59690000D01*
X40531142Y-59629523D02*
X40894000Y-60899523D01*
X41184285Y-59992380D01*
X41474571Y-60899523D01*
X41837428Y-59629523D01*
X43216285Y-60899523D02*
X42345428Y-60899523D01*
X42780857Y-60899523D02*
X42780857Y-59629523D01*
X42635714Y-59810952D01*
X42490571Y-59931904D01*
X42345428Y-59992380D01*
X43724285Y-59629523D02*
X44667714Y-59629523D01*
X44159714Y-60113333D01*
X44377428Y-60113333D01*
X44522571Y-60173809D01*
X44595142Y-60234285D01*
X44667714Y-60355238D01*
X44667714Y-60657619D01*
X44595142Y-60778571D01*
X44522571Y-60839047D01*
X44377428Y-60899523D01*
X43942000Y-60899523D01*
X43796857Y-60839047D01*
X43724285Y-60778571D01*
G04 #@! TO.C,SW14*
X60234285Y-60839047D02*
X60452000Y-60899523D01*
X60814857Y-60899523D01*
X60960000Y-60839047D01*
X61032571Y-60778571D01*
X61105142Y-60657619D01*
X61105142Y-60536666D01*
X61032571Y-60415714D01*
X60960000Y-60355238D01*
X60814857Y-60294761D01*
X60524571Y-60234285D01*
X60379428Y-60173809D01*
X60306857Y-60113333D01*
X60234285Y-59992380D01*
X60234285Y-59871428D01*
X60306857Y-59750476D01*
X60379428Y-59690000D01*
X60524571Y-59629523D01*
X60887428Y-59629523D01*
X61105142Y-59690000D01*
X61613142Y-59629523D02*
X61976000Y-60899523D01*
X62266285Y-59992380D01*
X62556571Y-60899523D01*
X62919428Y-59629523D01*
X64298285Y-60899523D02*
X63427428Y-60899523D01*
X63862857Y-60899523D02*
X63862857Y-59629523D01*
X63717714Y-59810952D01*
X63572571Y-59931904D01*
X63427428Y-59992380D01*
X65604571Y-60052857D02*
X65604571Y-60899523D01*
X65241714Y-59569047D02*
X64878857Y-60476190D01*
X65822285Y-60476190D01*
G04 #@! TO.C,SW15*
X79284285Y-60839047D02*
X79502000Y-60899523D01*
X79864857Y-60899523D01*
X80010000Y-60839047D01*
X80082571Y-60778571D01*
X80155142Y-60657619D01*
X80155142Y-60536666D01*
X80082571Y-60415714D01*
X80010000Y-60355238D01*
X79864857Y-60294761D01*
X79574571Y-60234285D01*
X79429428Y-60173809D01*
X79356857Y-60113333D01*
X79284285Y-59992380D01*
X79284285Y-59871428D01*
X79356857Y-59750476D01*
X79429428Y-59690000D01*
X79574571Y-59629523D01*
X79937428Y-59629523D01*
X80155142Y-59690000D01*
X80663142Y-59629523D02*
X81026000Y-60899523D01*
X81316285Y-59992380D01*
X81606571Y-60899523D01*
X81969428Y-59629523D01*
X83348285Y-60899523D02*
X82477428Y-60899523D01*
X82912857Y-60899523D02*
X82912857Y-59629523D01*
X82767714Y-59810952D01*
X82622571Y-59931904D01*
X82477428Y-59992380D01*
X84727142Y-59629523D02*
X84001428Y-59629523D01*
X83928857Y-60234285D01*
X84001428Y-60173809D01*
X84146571Y-60113333D01*
X84509428Y-60113333D01*
X84654571Y-60173809D01*
X84727142Y-60234285D01*
X84799714Y-60355238D01*
X84799714Y-60657619D01*
X84727142Y-60778571D01*
X84654571Y-60839047D01*
X84509428Y-60899523D01*
X84146571Y-60899523D01*
X84001428Y-60839047D01*
X83928857Y-60778571D01*
G04 #@! TO.C,SW16*
X98334285Y-60839047D02*
X98552000Y-60899523D01*
X98914857Y-60899523D01*
X99060000Y-60839047D01*
X99132571Y-60778571D01*
X99205142Y-60657619D01*
X99205142Y-60536666D01*
X99132571Y-60415714D01*
X99060000Y-60355238D01*
X98914857Y-60294761D01*
X98624571Y-60234285D01*
X98479428Y-60173809D01*
X98406857Y-60113333D01*
X98334285Y-59992380D01*
X98334285Y-59871428D01*
X98406857Y-59750476D01*
X98479428Y-59690000D01*
X98624571Y-59629523D01*
X98987428Y-59629523D01*
X99205142Y-59690000D01*
X99713142Y-59629523D02*
X100076000Y-60899523D01*
X100366285Y-59992380D01*
X100656571Y-60899523D01*
X101019428Y-59629523D01*
X102398285Y-60899523D02*
X101527428Y-60899523D01*
X101962857Y-60899523D02*
X101962857Y-59629523D01*
X101817714Y-59810952D01*
X101672571Y-59931904D01*
X101527428Y-59992380D01*
X103704571Y-59629523D02*
X103414285Y-59629523D01*
X103269142Y-59690000D01*
X103196571Y-59750476D01*
X103051428Y-59931904D01*
X102978857Y-60173809D01*
X102978857Y-60657619D01*
X103051428Y-60778571D01*
X103124000Y-60839047D01*
X103269142Y-60899523D01*
X103559428Y-60899523D01*
X103704571Y-60839047D01*
X103777142Y-60778571D01*
X103849714Y-60657619D01*
X103849714Y-60355238D01*
X103777142Y-60234285D01*
X103704571Y-60173809D01*
X103559428Y-60113333D01*
X103269142Y-60113333D01*
X103124000Y-60173809D01*
X103051428Y-60234285D01*
X102978857Y-60355238D01*
G04 #@! TO.C,SW17*
X117384285Y-60839047D02*
X117602000Y-60899523D01*
X117964857Y-60899523D01*
X118110000Y-60839047D01*
X118182571Y-60778571D01*
X118255142Y-60657619D01*
X118255142Y-60536666D01*
X118182571Y-60415714D01*
X118110000Y-60355238D01*
X117964857Y-60294761D01*
X117674571Y-60234285D01*
X117529428Y-60173809D01*
X117456857Y-60113333D01*
X117384285Y-59992380D01*
X117384285Y-59871428D01*
X117456857Y-59750476D01*
X117529428Y-59690000D01*
X117674571Y-59629523D01*
X118037428Y-59629523D01*
X118255142Y-59690000D01*
X118763142Y-59629523D02*
X119126000Y-60899523D01*
X119416285Y-59992380D01*
X119706571Y-60899523D01*
X120069428Y-59629523D01*
X121448285Y-60899523D02*
X120577428Y-60899523D01*
X121012857Y-60899523D02*
X121012857Y-59629523D01*
X120867714Y-59810952D01*
X120722571Y-59931904D01*
X120577428Y-59992380D01*
X121956285Y-59629523D02*
X122972285Y-59629523D01*
X122319142Y-60899523D01*
G04 #@! TO.C,SW18*
X136180285Y-60839047D02*
X136398000Y-60899523D01*
X136760857Y-60899523D01*
X136906000Y-60839047D01*
X136978571Y-60778571D01*
X137051142Y-60657619D01*
X137051142Y-60536666D01*
X136978571Y-60415714D01*
X136906000Y-60355238D01*
X136760857Y-60294761D01*
X136470571Y-60234285D01*
X136325428Y-60173809D01*
X136252857Y-60113333D01*
X136180285Y-59992380D01*
X136180285Y-59871428D01*
X136252857Y-59750476D01*
X136325428Y-59690000D01*
X136470571Y-59629523D01*
X136833428Y-59629523D01*
X137051142Y-59690000D01*
X137559142Y-59629523D02*
X137922000Y-60899523D01*
X138212285Y-59992380D01*
X138502571Y-60899523D01*
X138865428Y-59629523D01*
X140244285Y-60899523D02*
X139373428Y-60899523D01*
X139808857Y-60899523D02*
X139808857Y-59629523D01*
X139663714Y-59810952D01*
X139518571Y-59931904D01*
X139373428Y-59992380D01*
X141115142Y-60173809D02*
X140970000Y-60113333D01*
X140897428Y-60052857D01*
X140824857Y-59931904D01*
X140824857Y-59871428D01*
X140897428Y-59750476D01*
X140970000Y-59690000D01*
X141115142Y-59629523D01*
X141405428Y-59629523D01*
X141550571Y-59690000D01*
X141623142Y-59750476D01*
X141695714Y-59871428D01*
X141695714Y-59931904D01*
X141623142Y-60052857D01*
X141550571Y-60113333D01*
X141405428Y-60173809D01*
X141115142Y-60173809D01*
X140970000Y-60234285D01*
X140897428Y-60294761D01*
X140824857Y-60415714D01*
X140824857Y-60657619D01*
X140897428Y-60778571D01*
X140970000Y-60839047D01*
X141115142Y-60899523D01*
X141405428Y-60899523D01*
X141550571Y-60839047D01*
X141623142Y-60778571D01*
X141695714Y-60657619D01*
X141695714Y-60415714D01*
X141623142Y-60294761D01*
X141550571Y-60234285D01*
X141405428Y-60173809D01*
G04 #@! TO.C,SW19*
X155230285Y-60839047D02*
X155448000Y-60899523D01*
X155810857Y-60899523D01*
X155956000Y-60839047D01*
X156028571Y-60778571D01*
X156101142Y-60657619D01*
X156101142Y-60536666D01*
X156028571Y-60415714D01*
X155956000Y-60355238D01*
X155810857Y-60294761D01*
X155520571Y-60234285D01*
X155375428Y-60173809D01*
X155302857Y-60113333D01*
X155230285Y-59992380D01*
X155230285Y-59871428D01*
X155302857Y-59750476D01*
X155375428Y-59690000D01*
X155520571Y-59629523D01*
X155883428Y-59629523D01*
X156101142Y-59690000D01*
X156609142Y-59629523D02*
X156972000Y-60899523D01*
X157262285Y-59992380D01*
X157552571Y-60899523D01*
X157915428Y-59629523D01*
X159294285Y-60899523D02*
X158423428Y-60899523D01*
X158858857Y-60899523D02*
X158858857Y-59629523D01*
X158713714Y-59810952D01*
X158568571Y-59931904D01*
X158423428Y-59992380D01*
X160020000Y-60899523D02*
X160310285Y-60899523D01*
X160455428Y-60839047D01*
X160528000Y-60778571D01*
X160673142Y-60597142D01*
X160745714Y-60355238D01*
X160745714Y-59871428D01*
X160673142Y-59750476D01*
X160600571Y-59690000D01*
X160455428Y-59629523D01*
X160165142Y-59629523D01*
X160020000Y-59690000D01*
X159947428Y-59750476D01*
X159874857Y-59871428D01*
X159874857Y-60173809D01*
X159947428Y-60294761D01*
X160020000Y-60355238D01*
X160165142Y-60415714D01*
X160455428Y-60415714D01*
X160600571Y-60355238D01*
X160673142Y-60294761D01*
X160745714Y-60173809D01*
G04 #@! TO.C,SW20*
X174280285Y-60839047D02*
X174498000Y-60899523D01*
X174860857Y-60899523D01*
X175006000Y-60839047D01*
X175078571Y-60778571D01*
X175151142Y-60657619D01*
X175151142Y-60536666D01*
X175078571Y-60415714D01*
X175006000Y-60355238D01*
X174860857Y-60294761D01*
X174570571Y-60234285D01*
X174425428Y-60173809D01*
X174352857Y-60113333D01*
X174280285Y-59992380D01*
X174280285Y-59871428D01*
X174352857Y-59750476D01*
X174425428Y-59690000D01*
X174570571Y-59629523D01*
X174933428Y-59629523D01*
X175151142Y-59690000D01*
X175659142Y-59629523D02*
X176022000Y-60899523D01*
X176312285Y-59992380D01*
X176602571Y-60899523D01*
X176965428Y-59629523D01*
X177473428Y-59750476D02*
X177546000Y-59690000D01*
X177691142Y-59629523D01*
X178054000Y-59629523D01*
X178199142Y-59690000D01*
X178271714Y-59750476D01*
X178344285Y-59871428D01*
X178344285Y-59992380D01*
X178271714Y-60173809D01*
X177400857Y-60899523D01*
X178344285Y-60899523D01*
X179287714Y-59629523D02*
X179432857Y-59629523D01*
X179578000Y-59690000D01*
X179650571Y-59750476D01*
X179723142Y-59871428D01*
X179795714Y-60113333D01*
X179795714Y-60415714D01*
X179723142Y-60657619D01*
X179650571Y-60778571D01*
X179578000Y-60839047D01*
X179432857Y-60899523D01*
X179287714Y-60899523D01*
X179142571Y-60839047D01*
X179070000Y-60778571D01*
X178997428Y-60657619D01*
X178924857Y-60415714D01*
X178924857Y-60113333D01*
X178997428Y-59871428D01*
X179070000Y-59750476D01*
X179142571Y-59690000D01*
X179287714Y-59629523D01*
G04 #@! TO.C,SW21*
X193330285Y-60839047D02*
X193548000Y-60899523D01*
X193910857Y-60899523D01*
X194056000Y-60839047D01*
X194128571Y-60778571D01*
X194201142Y-60657619D01*
X194201142Y-60536666D01*
X194128571Y-60415714D01*
X194056000Y-60355238D01*
X193910857Y-60294761D01*
X193620571Y-60234285D01*
X193475428Y-60173809D01*
X193402857Y-60113333D01*
X193330285Y-59992380D01*
X193330285Y-59871428D01*
X193402857Y-59750476D01*
X193475428Y-59690000D01*
X193620571Y-59629523D01*
X193983428Y-59629523D01*
X194201142Y-59690000D01*
X194709142Y-59629523D02*
X195072000Y-60899523D01*
X195362285Y-59992380D01*
X195652571Y-60899523D01*
X196015428Y-59629523D01*
X196523428Y-59750476D02*
X196596000Y-59690000D01*
X196741142Y-59629523D01*
X197104000Y-59629523D01*
X197249142Y-59690000D01*
X197321714Y-59750476D01*
X197394285Y-59871428D01*
X197394285Y-59992380D01*
X197321714Y-60173809D01*
X196450857Y-60899523D01*
X197394285Y-60899523D01*
X198845714Y-60899523D02*
X197974857Y-60899523D01*
X198410285Y-60899523D02*
X198410285Y-59629523D01*
X198265142Y-59810952D01*
X198120000Y-59931904D01*
X197974857Y-59992380D01*
G04 #@! TO.C,SW22*
X212380285Y-60839047D02*
X212598000Y-60899523D01*
X212960857Y-60899523D01*
X213106000Y-60839047D01*
X213178571Y-60778571D01*
X213251142Y-60657619D01*
X213251142Y-60536666D01*
X213178571Y-60415714D01*
X213106000Y-60355238D01*
X212960857Y-60294761D01*
X212670571Y-60234285D01*
X212525428Y-60173809D01*
X212452857Y-60113333D01*
X212380285Y-59992380D01*
X212380285Y-59871428D01*
X212452857Y-59750476D01*
X212525428Y-59690000D01*
X212670571Y-59629523D01*
X213033428Y-59629523D01*
X213251142Y-59690000D01*
X213759142Y-59629523D02*
X214122000Y-60899523D01*
X214412285Y-59992380D01*
X214702571Y-60899523D01*
X215065428Y-59629523D01*
X215573428Y-59750476D02*
X215646000Y-59690000D01*
X215791142Y-59629523D01*
X216154000Y-59629523D01*
X216299142Y-59690000D01*
X216371714Y-59750476D01*
X216444285Y-59871428D01*
X216444285Y-59992380D01*
X216371714Y-60173809D01*
X215500857Y-60899523D01*
X216444285Y-60899523D01*
X217024857Y-59750476D02*
X217097428Y-59690000D01*
X217242571Y-59629523D01*
X217605428Y-59629523D01*
X217750571Y-59690000D01*
X217823142Y-59750476D01*
X217895714Y-59871428D01*
X217895714Y-59992380D01*
X217823142Y-60173809D01*
X216952285Y-60899523D01*
X217895714Y-60899523D01*
G04 #@! TO.C,SW23*
X231430285Y-60839047D02*
X231648000Y-60899523D01*
X232010857Y-60899523D01*
X232156000Y-60839047D01*
X232228571Y-60778571D01*
X232301142Y-60657619D01*
X232301142Y-60536666D01*
X232228571Y-60415714D01*
X232156000Y-60355238D01*
X232010857Y-60294761D01*
X231720571Y-60234285D01*
X231575428Y-60173809D01*
X231502857Y-60113333D01*
X231430285Y-59992380D01*
X231430285Y-59871428D01*
X231502857Y-59750476D01*
X231575428Y-59690000D01*
X231720571Y-59629523D01*
X232083428Y-59629523D01*
X232301142Y-59690000D01*
X232809142Y-59629523D02*
X233172000Y-60899523D01*
X233462285Y-59992380D01*
X233752571Y-60899523D01*
X234115428Y-59629523D01*
X234623428Y-59750476D02*
X234696000Y-59690000D01*
X234841142Y-59629523D01*
X235204000Y-59629523D01*
X235349142Y-59690000D01*
X235421714Y-59750476D01*
X235494285Y-59871428D01*
X235494285Y-59992380D01*
X235421714Y-60173809D01*
X234550857Y-60899523D01*
X235494285Y-60899523D01*
X236002285Y-59629523D02*
X236945714Y-59629523D01*
X236437714Y-60113333D01*
X236655428Y-60113333D01*
X236800571Y-60173809D01*
X236873142Y-60234285D01*
X236945714Y-60355238D01*
X236945714Y-60657619D01*
X236873142Y-60778571D01*
X236800571Y-60839047D01*
X236655428Y-60899523D01*
X236220000Y-60899523D01*
X236074857Y-60839047D01*
X236002285Y-60778571D01*
G04 #@! TO.C,SW24*
X255306285Y-60839047D02*
X255524000Y-60899523D01*
X255886857Y-60899523D01*
X256032000Y-60839047D01*
X256104571Y-60778571D01*
X256177142Y-60657619D01*
X256177142Y-60536666D01*
X256104571Y-60415714D01*
X256032000Y-60355238D01*
X255886857Y-60294761D01*
X255596571Y-60234285D01*
X255451428Y-60173809D01*
X255378857Y-60113333D01*
X255306285Y-59992380D01*
X255306285Y-59871428D01*
X255378857Y-59750476D01*
X255451428Y-59690000D01*
X255596571Y-59629523D01*
X255959428Y-59629523D01*
X256177142Y-59690000D01*
X256685142Y-59629523D02*
X257048000Y-60899523D01*
X257338285Y-59992380D01*
X257628571Y-60899523D01*
X257991428Y-59629523D01*
X258499428Y-59750476D02*
X258572000Y-59690000D01*
X258717142Y-59629523D01*
X259080000Y-59629523D01*
X259225142Y-59690000D01*
X259297714Y-59750476D01*
X259370285Y-59871428D01*
X259370285Y-59992380D01*
X259297714Y-60173809D01*
X258426857Y-60899523D01*
X259370285Y-60899523D01*
X260676571Y-60052857D02*
X260676571Y-60899523D01*
X260313714Y-59569047D02*
X259950857Y-60476190D01*
X260894285Y-60476190D01*
G04 #@! TO.C,SW25*
X43724285Y-79889047D02*
X43942000Y-79949523D01*
X44304857Y-79949523D01*
X44450000Y-79889047D01*
X44522571Y-79828571D01*
X44595142Y-79707619D01*
X44595142Y-79586666D01*
X44522571Y-79465714D01*
X44450000Y-79405238D01*
X44304857Y-79344761D01*
X44014571Y-79284285D01*
X43869428Y-79223809D01*
X43796857Y-79163333D01*
X43724285Y-79042380D01*
X43724285Y-78921428D01*
X43796857Y-78800476D01*
X43869428Y-78740000D01*
X44014571Y-78679523D01*
X44377428Y-78679523D01*
X44595142Y-78740000D01*
X45103142Y-78679523D02*
X45466000Y-79949523D01*
X45756285Y-79042380D01*
X46046571Y-79949523D01*
X46409428Y-78679523D01*
X46917428Y-78800476D02*
X46990000Y-78740000D01*
X47135142Y-78679523D01*
X47498000Y-78679523D01*
X47643142Y-78740000D01*
X47715714Y-78800476D01*
X47788285Y-78921428D01*
X47788285Y-79042380D01*
X47715714Y-79223809D01*
X46844857Y-79949523D01*
X47788285Y-79949523D01*
X49167142Y-78679523D02*
X48441428Y-78679523D01*
X48368857Y-79284285D01*
X48441428Y-79223809D01*
X48586571Y-79163333D01*
X48949428Y-79163333D01*
X49094571Y-79223809D01*
X49167142Y-79284285D01*
X49239714Y-79405238D01*
X49239714Y-79707619D01*
X49167142Y-79828571D01*
X49094571Y-79889047D01*
X48949428Y-79949523D01*
X48586571Y-79949523D01*
X48441428Y-79889047D01*
X48368857Y-79828571D01*
G04 #@! TO.C,SW26*
X69886285Y-79762047D02*
X70104000Y-79822523D01*
X70466857Y-79822523D01*
X70612000Y-79762047D01*
X70684571Y-79701571D01*
X70757142Y-79580619D01*
X70757142Y-79459666D01*
X70684571Y-79338714D01*
X70612000Y-79278238D01*
X70466857Y-79217761D01*
X70176571Y-79157285D01*
X70031428Y-79096809D01*
X69958857Y-79036333D01*
X69886285Y-78915380D01*
X69886285Y-78794428D01*
X69958857Y-78673476D01*
X70031428Y-78613000D01*
X70176571Y-78552523D01*
X70539428Y-78552523D01*
X70757142Y-78613000D01*
X71265142Y-78552523D02*
X71628000Y-79822523D01*
X71918285Y-78915380D01*
X72208571Y-79822523D01*
X72571428Y-78552523D01*
X73079428Y-78673476D02*
X73152000Y-78613000D01*
X73297142Y-78552523D01*
X73660000Y-78552523D01*
X73805142Y-78613000D01*
X73877714Y-78673476D01*
X73950285Y-78794428D01*
X73950285Y-78915380D01*
X73877714Y-79096809D01*
X73006857Y-79822523D01*
X73950285Y-79822523D01*
X75256571Y-78552523D02*
X74966285Y-78552523D01*
X74821142Y-78613000D01*
X74748571Y-78673476D01*
X74603428Y-78854904D01*
X74530857Y-79096809D01*
X74530857Y-79580619D01*
X74603428Y-79701571D01*
X74676000Y-79762047D01*
X74821142Y-79822523D01*
X75111428Y-79822523D01*
X75256571Y-79762047D01*
X75329142Y-79701571D01*
X75401714Y-79580619D01*
X75401714Y-79278238D01*
X75329142Y-79157285D01*
X75256571Y-79096809D01*
X75111428Y-79036333D01*
X74821142Y-79036333D01*
X74676000Y-79096809D01*
X74603428Y-79157285D01*
X74530857Y-79278238D01*
G04 #@! TO.C,SW27*
X88936285Y-79762047D02*
X89154000Y-79822523D01*
X89516857Y-79822523D01*
X89662000Y-79762047D01*
X89734571Y-79701571D01*
X89807142Y-79580619D01*
X89807142Y-79459666D01*
X89734571Y-79338714D01*
X89662000Y-79278238D01*
X89516857Y-79217761D01*
X89226571Y-79157285D01*
X89081428Y-79096809D01*
X89008857Y-79036333D01*
X88936285Y-78915380D01*
X88936285Y-78794428D01*
X89008857Y-78673476D01*
X89081428Y-78613000D01*
X89226571Y-78552523D01*
X89589428Y-78552523D01*
X89807142Y-78613000D01*
X90315142Y-78552523D02*
X90678000Y-79822523D01*
X90968285Y-78915380D01*
X91258571Y-79822523D01*
X91621428Y-78552523D01*
X92129428Y-78673476D02*
X92202000Y-78613000D01*
X92347142Y-78552523D01*
X92710000Y-78552523D01*
X92855142Y-78613000D01*
X92927714Y-78673476D01*
X93000285Y-78794428D01*
X93000285Y-78915380D01*
X92927714Y-79096809D01*
X92056857Y-79822523D01*
X93000285Y-79822523D01*
X93508285Y-78552523D02*
X94524285Y-78552523D01*
X93871142Y-79822523D01*
G04 #@! TO.C,SW28*
X107859285Y-79762047D02*
X108077000Y-79822523D01*
X108439857Y-79822523D01*
X108585000Y-79762047D01*
X108657571Y-79701571D01*
X108730142Y-79580619D01*
X108730142Y-79459666D01*
X108657571Y-79338714D01*
X108585000Y-79278238D01*
X108439857Y-79217761D01*
X108149571Y-79157285D01*
X108004428Y-79096809D01*
X107931857Y-79036333D01*
X107859285Y-78915380D01*
X107859285Y-78794428D01*
X107931857Y-78673476D01*
X108004428Y-78613000D01*
X108149571Y-78552523D01*
X108512428Y-78552523D01*
X108730142Y-78613000D01*
X109238142Y-78552523D02*
X109601000Y-79822523D01*
X109891285Y-78915380D01*
X110181571Y-79822523D01*
X110544428Y-78552523D01*
X111052428Y-78673476D02*
X111125000Y-78613000D01*
X111270142Y-78552523D01*
X111633000Y-78552523D01*
X111778142Y-78613000D01*
X111850714Y-78673476D01*
X111923285Y-78794428D01*
X111923285Y-78915380D01*
X111850714Y-79096809D01*
X110979857Y-79822523D01*
X111923285Y-79822523D01*
X112794142Y-79096809D02*
X112649000Y-79036333D01*
X112576428Y-78975857D01*
X112503857Y-78854904D01*
X112503857Y-78794428D01*
X112576428Y-78673476D01*
X112649000Y-78613000D01*
X112794142Y-78552523D01*
X113084428Y-78552523D01*
X113229571Y-78613000D01*
X113302142Y-78673476D01*
X113374714Y-78794428D01*
X113374714Y-78854904D01*
X113302142Y-78975857D01*
X113229571Y-79036333D01*
X113084428Y-79096809D01*
X112794142Y-79096809D01*
X112649000Y-79157285D01*
X112576428Y-79217761D01*
X112503857Y-79338714D01*
X112503857Y-79580619D01*
X112576428Y-79701571D01*
X112649000Y-79762047D01*
X112794142Y-79822523D01*
X113084428Y-79822523D01*
X113229571Y-79762047D01*
X113302142Y-79701571D01*
X113374714Y-79580619D01*
X113374714Y-79338714D01*
X113302142Y-79217761D01*
X113229571Y-79157285D01*
X113084428Y-79096809D01*
G04 #@! TO.C,SW29*
X126909285Y-79762047D02*
X127127000Y-79822523D01*
X127489857Y-79822523D01*
X127635000Y-79762047D01*
X127707571Y-79701571D01*
X127780142Y-79580619D01*
X127780142Y-79459666D01*
X127707571Y-79338714D01*
X127635000Y-79278238D01*
X127489857Y-79217761D01*
X127199571Y-79157285D01*
X127054428Y-79096809D01*
X126981857Y-79036333D01*
X126909285Y-78915380D01*
X126909285Y-78794428D01*
X126981857Y-78673476D01*
X127054428Y-78613000D01*
X127199571Y-78552523D01*
X127562428Y-78552523D01*
X127780142Y-78613000D01*
X128288142Y-78552523D02*
X128651000Y-79822523D01*
X128941285Y-78915380D01*
X129231571Y-79822523D01*
X129594428Y-78552523D01*
X130102428Y-78673476D02*
X130175000Y-78613000D01*
X130320142Y-78552523D01*
X130683000Y-78552523D01*
X130828142Y-78613000D01*
X130900714Y-78673476D01*
X130973285Y-78794428D01*
X130973285Y-78915380D01*
X130900714Y-79096809D01*
X130029857Y-79822523D01*
X130973285Y-79822523D01*
X131699000Y-79822523D02*
X131989285Y-79822523D01*
X132134428Y-79762047D01*
X132207000Y-79701571D01*
X132352142Y-79520142D01*
X132424714Y-79278238D01*
X132424714Y-78794428D01*
X132352142Y-78673476D01*
X132279571Y-78613000D01*
X132134428Y-78552523D01*
X131844142Y-78552523D01*
X131699000Y-78613000D01*
X131626428Y-78673476D01*
X131553857Y-78794428D01*
X131553857Y-79096809D01*
X131626428Y-79217761D01*
X131699000Y-79278238D01*
X131844142Y-79338714D01*
X132134428Y-79338714D01*
X132279571Y-79278238D01*
X132352142Y-79217761D01*
X132424714Y-79096809D01*
G04 #@! TO.C,SW30*
X145832285Y-73412047D02*
X146050000Y-73472523D01*
X146412857Y-73472523D01*
X146558000Y-73412047D01*
X146630571Y-73351571D01*
X146703142Y-73230619D01*
X146703142Y-73109666D01*
X146630571Y-72988714D01*
X146558000Y-72928238D01*
X146412857Y-72867761D01*
X146122571Y-72807285D01*
X145977428Y-72746809D01*
X145904857Y-72686333D01*
X145832285Y-72565380D01*
X145832285Y-72444428D01*
X145904857Y-72323476D01*
X145977428Y-72263000D01*
X146122571Y-72202523D01*
X146485428Y-72202523D01*
X146703142Y-72263000D01*
X147211142Y-72202523D02*
X147574000Y-73472523D01*
X147864285Y-72565380D01*
X148154571Y-73472523D01*
X148517428Y-72202523D01*
X148952857Y-72202523D02*
X149896285Y-72202523D01*
X149388285Y-72686333D01*
X149606000Y-72686333D01*
X149751142Y-72746809D01*
X149823714Y-72807285D01*
X149896285Y-72928238D01*
X149896285Y-73230619D01*
X149823714Y-73351571D01*
X149751142Y-73412047D01*
X149606000Y-73472523D01*
X149170571Y-73472523D01*
X149025428Y-73412047D01*
X148952857Y-73351571D01*
X150839714Y-72202523D02*
X150984857Y-72202523D01*
X151130000Y-72263000D01*
X151202571Y-72323476D01*
X151275142Y-72444428D01*
X151347714Y-72686333D01*
X151347714Y-72988714D01*
X151275142Y-73230619D01*
X151202571Y-73351571D01*
X151130000Y-73412047D01*
X150984857Y-73472523D01*
X150839714Y-73472523D01*
X150694571Y-73412047D01*
X150622000Y-73351571D01*
X150549428Y-73230619D01*
X150476857Y-72988714D01*
X150476857Y-72686333D01*
X150549428Y-72444428D01*
X150622000Y-72323476D01*
X150694571Y-72263000D01*
X150839714Y-72202523D01*
G04 #@! TO.C,SW31*
X164882285Y-79762047D02*
X165100000Y-79822523D01*
X165462857Y-79822523D01*
X165608000Y-79762047D01*
X165680571Y-79701571D01*
X165753142Y-79580619D01*
X165753142Y-79459666D01*
X165680571Y-79338714D01*
X165608000Y-79278238D01*
X165462857Y-79217761D01*
X165172571Y-79157285D01*
X165027428Y-79096809D01*
X164954857Y-79036333D01*
X164882285Y-78915380D01*
X164882285Y-78794428D01*
X164954857Y-78673476D01*
X165027428Y-78613000D01*
X165172571Y-78552523D01*
X165535428Y-78552523D01*
X165753142Y-78613000D01*
X166261142Y-78552523D02*
X166624000Y-79822523D01*
X166914285Y-78915380D01*
X167204571Y-79822523D01*
X167567428Y-78552523D01*
X168002857Y-78552523D02*
X168946285Y-78552523D01*
X168438285Y-79036333D01*
X168656000Y-79036333D01*
X168801142Y-79096809D01*
X168873714Y-79157285D01*
X168946285Y-79278238D01*
X168946285Y-79580619D01*
X168873714Y-79701571D01*
X168801142Y-79762047D01*
X168656000Y-79822523D01*
X168220571Y-79822523D01*
X168075428Y-79762047D01*
X168002857Y-79701571D01*
X170397714Y-79822523D02*
X169526857Y-79822523D01*
X169962285Y-79822523D02*
X169962285Y-78552523D01*
X169817142Y-78733952D01*
X169672000Y-78854904D01*
X169526857Y-78915380D01*
G04 #@! TO.C,SW32*
X183932285Y-79762047D02*
X184150000Y-79822523D01*
X184512857Y-79822523D01*
X184658000Y-79762047D01*
X184730571Y-79701571D01*
X184803142Y-79580619D01*
X184803142Y-79459666D01*
X184730571Y-79338714D01*
X184658000Y-79278238D01*
X184512857Y-79217761D01*
X184222571Y-79157285D01*
X184077428Y-79096809D01*
X184004857Y-79036333D01*
X183932285Y-78915380D01*
X183932285Y-78794428D01*
X184004857Y-78673476D01*
X184077428Y-78613000D01*
X184222571Y-78552523D01*
X184585428Y-78552523D01*
X184803142Y-78613000D01*
X185311142Y-78552523D02*
X185674000Y-79822523D01*
X185964285Y-78915380D01*
X186254571Y-79822523D01*
X186617428Y-78552523D01*
X187052857Y-78552523D02*
X187996285Y-78552523D01*
X187488285Y-79036333D01*
X187706000Y-79036333D01*
X187851142Y-79096809D01*
X187923714Y-79157285D01*
X187996285Y-79278238D01*
X187996285Y-79580619D01*
X187923714Y-79701571D01*
X187851142Y-79762047D01*
X187706000Y-79822523D01*
X187270571Y-79822523D01*
X187125428Y-79762047D01*
X187052857Y-79701571D01*
X188576857Y-78673476D02*
X188649428Y-78613000D01*
X188794571Y-78552523D01*
X189157428Y-78552523D01*
X189302571Y-78613000D01*
X189375142Y-78673476D01*
X189447714Y-78794428D01*
X189447714Y-78915380D01*
X189375142Y-79096809D01*
X188504285Y-79822523D01*
X189447714Y-79822523D01*
G04 #@! TO.C,SW33*
X202982285Y-79762047D02*
X203200000Y-79822523D01*
X203562857Y-79822523D01*
X203708000Y-79762047D01*
X203780571Y-79701571D01*
X203853142Y-79580619D01*
X203853142Y-79459666D01*
X203780571Y-79338714D01*
X203708000Y-79278238D01*
X203562857Y-79217761D01*
X203272571Y-79157285D01*
X203127428Y-79096809D01*
X203054857Y-79036333D01*
X202982285Y-78915380D01*
X202982285Y-78794428D01*
X203054857Y-78673476D01*
X203127428Y-78613000D01*
X203272571Y-78552523D01*
X203635428Y-78552523D01*
X203853142Y-78613000D01*
X204361142Y-78552523D02*
X204724000Y-79822523D01*
X205014285Y-78915380D01*
X205304571Y-79822523D01*
X205667428Y-78552523D01*
X206102857Y-78552523D02*
X207046285Y-78552523D01*
X206538285Y-79036333D01*
X206756000Y-79036333D01*
X206901142Y-79096809D01*
X206973714Y-79157285D01*
X207046285Y-79278238D01*
X207046285Y-79580619D01*
X206973714Y-79701571D01*
X206901142Y-79762047D01*
X206756000Y-79822523D01*
X206320571Y-79822523D01*
X206175428Y-79762047D01*
X206102857Y-79701571D01*
X207554285Y-78552523D02*
X208497714Y-78552523D01*
X207989714Y-79036333D01*
X208207428Y-79036333D01*
X208352571Y-79096809D01*
X208425142Y-79157285D01*
X208497714Y-79278238D01*
X208497714Y-79580619D01*
X208425142Y-79701571D01*
X208352571Y-79762047D01*
X208207428Y-79822523D01*
X207772000Y-79822523D01*
X207626857Y-79762047D01*
X207554285Y-79701571D01*
G04 #@! TO.C,SW34*
X221905285Y-79762047D02*
X222123000Y-79822523D01*
X222485857Y-79822523D01*
X222631000Y-79762047D01*
X222703571Y-79701571D01*
X222776142Y-79580619D01*
X222776142Y-79459666D01*
X222703571Y-79338714D01*
X222631000Y-79278238D01*
X222485857Y-79217761D01*
X222195571Y-79157285D01*
X222050428Y-79096809D01*
X221977857Y-79036333D01*
X221905285Y-78915380D01*
X221905285Y-78794428D01*
X221977857Y-78673476D01*
X222050428Y-78613000D01*
X222195571Y-78552523D01*
X222558428Y-78552523D01*
X222776142Y-78613000D01*
X223284142Y-78552523D02*
X223647000Y-79822523D01*
X223937285Y-78915380D01*
X224227571Y-79822523D01*
X224590428Y-78552523D01*
X225025857Y-78552523D02*
X225969285Y-78552523D01*
X225461285Y-79036333D01*
X225679000Y-79036333D01*
X225824142Y-79096809D01*
X225896714Y-79157285D01*
X225969285Y-79278238D01*
X225969285Y-79580619D01*
X225896714Y-79701571D01*
X225824142Y-79762047D01*
X225679000Y-79822523D01*
X225243571Y-79822523D01*
X225098428Y-79762047D01*
X225025857Y-79701571D01*
X227275571Y-78975857D02*
X227275571Y-79822523D01*
X226912714Y-78492047D02*
X226549857Y-79399190D01*
X227493285Y-79399190D01*
G04 #@! TO.C,SW35*
X240955285Y-79762047D02*
X241173000Y-79822523D01*
X241535857Y-79822523D01*
X241681000Y-79762047D01*
X241753571Y-79701571D01*
X241826142Y-79580619D01*
X241826142Y-79459666D01*
X241753571Y-79338714D01*
X241681000Y-79278238D01*
X241535857Y-79217761D01*
X241245571Y-79157285D01*
X241100428Y-79096809D01*
X241027857Y-79036333D01*
X240955285Y-78915380D01*
X240955285Y-78794428D01*
X241027857Y-78673476D01*
X241100428Y-78613000D01*
X241245571Y-78552523D01*
X241608428Y-78552523D01*
X241826142Y-78613000D01*
X242334142Y-78552523D02*
X242697000Y-79822523D01*
X242987285Y-78915380D01*
X243277571Y-79822523D01*
X243640428Y-78552523D01*
X244075857Y-78552523D02*
X245019285Y-78552523D01*
X244511285Y-79036333D01*
X244729000Y-79036333D01*
X244874142Y-79096809D01*
X244946714Y-79157285D01*
X245019285Y-79278238D01*
X245019285Y-79580619D01*
X244946714Y-79701571D01*
X244874142Y-79762047D01*
X244729000Y-79822523D01*
X244293571Y-79822523D01*
X244148428Y-79762047D01*
X244075857Y-79701571D01*
X246398142Y-78552523D02*
X245672428Y-78552523D01*
X245599857Y-79157285D01*
X245672428Y-79096809D01*
X245817571Y-79036333D01*
X246180428Y-79036333D01*
X246325571Y-79096809D01*
X246398142Y-79157285D01*
X246470714Y-79278238D01*
X246470714Y-79580619D01*
X246398142Y-79701571D01*
X246325571Y-79762047D01*
X246180428Y-79822523D01*
X245817571Y-79822523D01*
X245672428Y-79762047D01*
X245599857Y-79701571D01*
G04 #@! TO.C,SW36*
X259878285Y-79762047D02*
X260096000Y-79822523D01*
X260458857Y-79822523D01*
X260604000Y-79762047D01*
X260676571Y-79701571D01*
X260749142Y-79580619D01*
X260749142Y-79459666D01*
X260676571Y-79338714D01*
X260604000Y-79278238D01*
X260458857Y-79217761D01*
X260168571Y-79157285D01*
X260023428Y-79096809D01*
X259950857Y-79036333D01*
X259878285Y-78915380D01*
X259878285Y-78794428D01*
X259950857Y-78673476D01*
X260023428Y-78613000D01*
X260168571Y-78552523D01*
X260531428Y-78552523D01*
X260749142Y-78613000D01*
X261257142Y-78552523D02*
X261620000Y-79822523D01*
X261910285Y-78915380D01*
X262200571Y-79822523D01*
X262563428Y-78552523D01*
X262998857Y-78552523D02*
X263942285Y-78552523D01*
X263434285Y-79036333D01*
X263652000Y-79036333D01*
X263797142Y-79096809D01*
X263869714Y-79157285D01*
X263942285Y-79278238D01*
X263942285Y-79580619D01*
X263869714Y-79701571D01*
X263797142Y-79762047D01*
X263652000Y-79822523D01*
X263216571Y-79822523D01*
X263071428Y-79762047D01*
X262998857Y-79701571D01*
X265248571Y-78552523D02*
X264958285Y-78552523D01*
X264813142Y-78613000D01*
X264740571Y-78673476D01*
X264595428Y-78854904D01*
X264522857Y-79096809D01*
X264522857Y-79580619D01*
X264595428Y-79701571D01*
X264668000Y-79762047D01*
X264813142Y-79822523D01*
X265103428Y-79822523D01*
X265248571Y-79762047D01*
X265321142Y-79701571D01*
X265393714Y-79580619D01*
X265393714Y-79278238D01*
X265321142Y-79157285D01*
X265248571Y-79096809D01*
X265103428Y-79036333D01*
X264813142Y-79036333D01*
X264668000Y-79096809D01*
X264595428Y-79157285D01*
X264522857Y-79278238D01*
G04 #@! TO.C,SW37*
X39025285Y-98685047D02*
X39243000Y-98745523D01*
X39605857Y-98745523D01*
X39751000Y-98685047D01*
X39823571Y-98624571D01*
X39896142Y-98503619D01*
X39896142Y-98382666D01*
X39823571Y-98261714D01*
X39751000Y-98201238D01*
X39605857Y-98140761D01*
X39315571Y-98080285D01*
X39170428Y-98019809D01*
X39097857Y-97959333D01*
X39025285Y-97838380D01*
X39025285Y-97717428D01*
X39097857Y-97596476D01*
X39170428Y-97536000D01*
X39315571Y-97475523D01*
X39678428Y-97475523D01*
X39896142Y-97536000D01*
X40404142Y-97475523D02*
X40767000Y-98745523D01*
X41057285Y-97838380D01*
X41347571Y-98745523D01*
X41710428Y-97475523D01*
X42145857Y-97475523D02*
X43089285Y-97475523D01*
X42581285Y-97959333D01*
X42799000Y-97959333D01*
X42944142Y-98019809D01*
X43016714Y-98080285D01*
X43089285Y-98201238D01*
X43089285Y-98503619D01*
X43016714Y-98624571D01*
X42944142Y-98685047D01*
X42799000Y-98745523D01*
X42363571Y-98745523D01*
X42218428Y-98685047D01*
X42145857Y-98624571D01*
X43597285Y-97475523D02*
X44613285Y-97475523D01*
X43960142Y-98745523D01*
G04 #@! TO.C,SW38*
X65187285Y-98812047D02*
X65405000Y-98872523D01*
X65767857Y-98872523D01*
X65913000Y-98812047D01*
X65985571Y-98751571D01*
X66058142Y-98630619D01*
X66058142Y-98509666D01*
X65985571Y-98388714D01*
X65913000Y-98328238D01*
X65767857Y-98267761D01*
X65477571Y-98207285D01*
X65332428Y-98146809D01*
X65259857Y-98086333D01*
X65187285Y-97965380D01*
X65187285Y-97844428D01*
X65259857Y-97723476D01*
X65332428Y-97663000D01*
X65477571Y-97602523D01*
X65840428Y-97602523D01*
X66058142Y-97663000D01*
X66566142Y-97602523D02*
X66929000Y-98872523D01*
X67219285Y-97965380D01*
X67509571Y-98872523D01*
X67872428Y-97602523D01*
X68307857Y-97602523D02*
X69251285Y-97602523D01*
X68743285Y-98086333D01*
X68961000Y-98086333D01*
X69106142Y-98146809D01*
X69178714Y-98207285D01*
X69251285Y-98328238D01*
X69251285Y-98630619D01*
X69178714Y-98751571D01*
X69106142Y-98812047D01*
X68961000Y-98872523D01*
X68525571Y-98872523D01*
X68380428Y-98812047D01*
X68307857Y-98751571D01*
X70122142Y-98146809D02*
X69977000Y-98086333D01*
X69904428Y-98025857D01*
X69831857Y-97904904D01*
X69831857Y-97844428D01*
X69904428Y-97723476D01*
X69977000Y-97663000D01*
X70122142Y-97602523D01*
X70412428Y-97602523D01*
X70557571Y-97663000D01*
X70630142Y-97723476D01*
X70702714Y-97844428D01*
X70702714Y-97904904D01*
X70630142Y-98025857D01*
X70557571Y-98086333D01*
X70412428Y-98146809D01*
X70122142Y-98146809D01*
X69977000Y-98207285D01*
X69904428Y-98267761D01*
X69831857Y-98388714D01*
X69831857Y-98630619D01*
X69904428Y-98751571D01*
X69977000Y-98812047D01*
X70122142Y-98872523D01*
X70412428Y-98872523D01*
X70557571Y-98812047D01*
X70630142Y-98751571D01*
X70702714Y-98630619D01*
X70702714Y-98388714D01*
X70630142Y-98267761D01*
X70557571Y-98207285D01*
X70412428Y-98146809D01*
G04 #@! TO.C,SW39*
X91222285Y-98812047D02*
X91440000Y-98872523D01*
X91802857Y-98872523D01*
X91948000Y-98812047D01*
X92020571Y-98751571D01*
X92093142Y-98630619D01*
X92093142Y-98509666D01*
X92020571Y-98388714D01*
X91948000Y-98328238D01*
X91802857Y-98267761D01*
X91512571Y-98207285D01*
X91367428Y-98146809D01*
X91294857Y-98086333D01*
X91222285Y-97965380D01*
X91222285Y-97844428D01*
X91294857Y-97723476D01*
X91367428Y-97663000D01*
X91512571Y-97602523D01*
X91875428Y-97602523D01*
X92093142Y-97663000D01*
X92601142Y-97602523D02*
X92964000Y-98872523D01*
X93254285Y-97965380D01*
X93544571Y-98872523D01*
X93907428Y-97602523D01*
X94342857Y-97602523D02*
X95286285Y-97602523D01*
X94778285Y-98086333D01*
X94996000Y-98086333D01*
X95141142Y-98146809D01*
X95213714Y-98207285D01*
X95286285Y-98328238D01*
X95286285Y-98630619D01*
X95213714Y-98751571D01*
X95141142Y-98812047D01*
X94996000Y-98872523D01*
X94560571Y-98872523D01*
X94415428Y-98812047D01*
X94342857Y-98751571D01*
X96012000Y-98872523D02*
X96302285Y-98872523D01*
X96447428Y-98812047D01*
X96520000Y-98751571D01*
X96665142Y-98570142D01*
X96737714Y-98328238D01*
X96737714Y-97844428D01*
X96665142Y-97723476D01*
X96592571Y-97663000D01*
X96447428Y-97602523D01*
X96157142Y-97602523D01*
X96012000Y-97663000D01*
X95939428Y-97723476D01*
X95866857Y-97844428D01*
X95866857Y-98146809D01*
X95939428Y-98267761D01*
X96012000Y-98328238D01*
X96157142Y-98388714D01*
X96447428Y-98388714D01*
X96592571Y-98328238D01*
X96665142Y-98267761D01*
X96737714Y-98146809D01*
G04 #@! TO.C,SW40*
X130943047Y-97880714D02*
X131003523Y-97663000D01*
X131003523Y-97300142D01*
X130943047Y-97155000D01*
X130882571Y-97082428D01*
X130761619Y-97009857D01*
X130640666Y-97009857D01*
X130519714Y-97082428D01*
X130459238Y-97155000D01*
X130398761Y-97300142D01*
X130338285Y-97590428D01*
X130277809Y-97735571D01*
X130217333Y-97808142D01*
X130096380Y-97880714D01*
X129975428Y-97880714D01*
X129854476Y-97808142D01*
X129794000Y-97735571D01*
X129733523Y-97590428D01*
X129733523Y-97227571D01*
X129794000Y-97009857D01*
X129733523Y-96501857D02*
X131003523Y-96139000D01*
X130096380Y-95848714D01*
X131003523Y-95558428D01*
X129733523Y-95195571D01*
X130156857Y-93961857D02*
X131003523Y-93961857D01*
X129673047Y-94324714D02*
X130580190Y-94687571D01*
X130580190Y-93744142D01*
X129733523Y-92873285D02*
X129733523Y-92728142D01*
X129794000Y-92583000D01*
X129854476Y-92510428D01*
X129975428Y-92437857D01*
X130217333Y-92365285D01*
X130519714Y-92365285D01*
X130761619Y-92437857D01*
X130882571Y-92510428D01*
X130943047Y-92583000D01*
X131003523Y-92728142D01*
X131003523Y-92873285D01*
X130943047Y-93018428D01*
X130882571Y-93091000D01*
X130761619Y-93163571D01*
X130519714Y-93236142D01*
X130217333Y-93236142D01*
X129975428Y-93163571D01*
X129854476Y-93091000D01*
X129794000Y-93018428D01*
X129733523Y-92873285D01*
G04 #@! TO.C,SW41*
X171329047Y-97880714D02*
X171389523Y-97663000D01*
X171389523Y-97300142D01*
X171329047Y-97155000D01*
X171268571Y-97082428D01*
X171147619Y-97009857D01*
X171026666Y-97009857D01*
X170905714Y-97082428D01*
X170845238Y-97155000D01*
X170784761Y-97300142D01*
X170724285Y-97590428D01*
X170663809Y-97735571D01*
X170603333Y-97808142D01*
X170482380Y-97880714D01*
X170361428Y-97880714D01*
X170240476Y-97808142D01*
X170180000Y-97735571D01*
X170119523Y-97590428D01*
X170119523Y-97227571D01*
X170180000Y-97009857D01*
X170119523Y-96501857D02*
X171389523Y-96139000D01*
X170482380Y-95848714D01*
X171389523Y-95558428D01*
X170119523Y-95195571D01*
X170542857Y-93961857D02*
X171389523Y-93961857D01*
X170059047Y-94324714D02*
X170966190Y-94687571D01*
X170966190Y-93744142D01*
X171389523Y-92365285D02*
X171389523Y-93236142D01*
X171389523Y-92800714D02*
X170119523Y-92800714D01*
X170300952Y-92945857D01*
X170421904Y-93091000D01*
X170482380Y-93236142D01*
G04 #@! TO.C,SW42*
X198156285Y-98812047D02*
X198374000Y-98872523D01*
X198736857Y-98872523D01*
X198882000Y-98812047D01*
X198954571Y-98751571D01*
X199027142Y-98630619D01*
X199027142Y-98509666D01*
X198954571Y-98388714D01*
X198882000Y-98328238D01*
X198736857Y-98267761D01*
X198446571Y-98207285D01*
X198301428Y-98146809D01*
X198228857Y-98086333D01*
X198156285Y-97965380D01*
X198156285Y-97844428D01*
X198228857Y-97723476D01*
X198301428Y-97663000D01*
X198446571Y-97602523D01*
X198809428Y-97602523D01*
X199027142Y-97663000D01*
X199535142Y-97602523D02*
X199898000Y-98872523D01*
X200188285Y-97965380D01*
X200478571Y-98872523D01*
X200841428Y-97602523D01*
X202075142Y-98025857D02*
X202075142Y-98872523D01*
X201712285Y-97542047D02*
X201349428Y-98449190D01*
X202292857Y-98449190D01*
X202800857Y-97723476D02*
X202873428Y-97663000D01*
X203018571Y-97602523D01*
X203381428Y-97602523D01*
X203526571Y-97663000D01*
X203599142Y-97723476D01*
X203671714Y-97844428D01*
X203671714Y-97965380D01*
X203599142Y-98146809D01*
X202728285Y-98872523D01*
X203671714Y-98872523D01*
G04 #@! TO.C,SW43*
X221905285Y-98812047D02*
X222123000Y-98872523D01*
X222485857Y-98872523D01*
X222631000Y-98812047D01*
X222703571Y-98751571D01*
X222776142Y-98630619D01*
X222776142Y-98509666D01*
X222703571Y-98388714D01*
X222631000Y-98328238D01*
X222485857Y-98267761D01*
X222195571Y-98207285D01*
X222050428Y-98146809D01*
X221977857Y-98086333D01*
X221905285Y-97965380D01*
X221905285Y-97844428D01*
X221977857Y-97723476D01*
X222050428Y-97663000D01*
X222195571Y-97602523D01*
X222558428Y-97602523D01*
X222776142Y-97663000D01*
X223284142Y-97602523D02*
X223647000Y-98872523D01*
X223937285Y-97965380D01*
X224227571Y-98872523D01*
X224590428Y-97602523D01*
X225824142Y-98025857D02*
X225824142Y-98872523D01*
X225461285Y-97542047D02*
X225098428Y-98449190D01*
X226041857Y-98449190D01*
X226477285Y-97602523D02*
X227420714Y-97602523D01*
X226912714Y-98086333D01*
X227130428Y-98086333D01*
X227275571Y-98146809D01*
X227348142Y-98207285D01*
X227420714Y-98328238D01*
X227420714Y-98630619D01*
X227348142Y-98751571D01*
X227275571Y-98812047D01*
X227130428Y-98872523D01*
X226695000Y-98872523D01*
X226549857Y-98812047D01*
X226477285Y-98751571D01*
G04 #@! TO.C,SW44*
X240955285Y-98812047D02*
X241173000Y-98872523D01*
X241535857Y-98872523D01*
X241681000Y-98812047D01*
X241753571Y-98751571D01*
X241826142Y-98630619D01*
X241826142Y-98509666D01*
X241753571Y-98388714D01*
X241681000Y-98328238D01*
X241535857Y-98267761D01*
X241245571Y-98207285D01*
X241100428Y-98146809D01*
X241027857Y-98086333D01*
X240955285Y-97965380D01*
X240955285Y-97844428D01*
X241027857Y-97723476D01*
X241100428Y-97663000D01*
X241245571Y-97602523D01*
X241608428Y-97602523D01*
X241826142Y-97663000D01*
X242334142Y-97602523D02*
X242697000Y-98872523D01*
X242987285Y-97965380D01*
X243277571Y-98872523D01*
X243640428Y-97602523D01*
X244874142Y-98025857D02*
X244874142Y-98872523D01*
X244511285Y-97542047D02*
X244148428Y-98449190D01*
X245091857Y-98449190D01*
X246325571Y-98025857D02*
X246325571Y-98872523D01*
X245962714Y-97542047D02*
X245599857Y-98449190D01*
X246543285Y-98449190D01*
G04 #@! TO.C,SW45*
X259878285Y-98812047D02*
X260096000Y-98872523D01*
X260458857Y-98872523D01*
X260604000Y-98812047D01*
X260676571Y-98751571D01*
X260749142Y-98630619D01*
X260749142Y-98509666D01*
X260676571Y-98388714D01*
X260604000Y-98328238D01*
X260458857Y-98267761D01*
X260168571Y-98207285D01*
X260023428Y-98146809D01*
X259950857Y-98086333D01*
X259878285Y-97965380D01*
X259878285Y-97844428D01*
X259950857Y-97723476D01*
X260023428Y-97663000D01*
X260168571Y-97602523D01*
X260531428Y-97602523D01*
X260749142Y-97663000D01*
X261257142Y-97602523D02*
X261620000Y-98872523D01*
X261910285Y-97965380D01*
X262200571Y-98872523D01*
X262563428Y-97602523D01*
X263797142Y-98025857D02*
X263797142Y-98872523D01*
X263434285Y-97542047D02*
X263071428Y-98449190D01*
X264014857Y-98449190D01*
X265321142Y-97602523D02*
X264595428Y-97602523D01*
X264522857Y-98207285D01*
X264595428Y-98146809D01*
X264740571Y-98086333D01*
X265103428Y-98086333D01*
X265248571Y-98146809D01*
X265321142Y-98207285D01*
X265393714Y-98328238D01*
X265393714Y-98630619D01*
X265321142Y-98751571D01*
X265248571Y-98812047D01*
X265103428Y-98872523D01*
X264740571Y-98872523D01*
X264595428Y-98812047D01*
X264522857Y-98751571D01*
G04 #@! TO.C,U1*
D13*
X168275095Y-85939380D02*
X168275095Y-86748904D01*
X168322714Y-86844142D01*
X168370333Y-86891761D01*
X168465571Y-86939380D01*
X168656047Y-86939380D01*
X168751285Y-86891761D01*
X168798904Y-86844142D01*
X168846523Y-86748904D01*
X168846523Y-85939380D01*
X169846523Y-86939380D02*
X169275095Y-86939380D01*
X169560809Y-86939380D02*
X169560809Y-85939380D01*
X169465571Y-86082238D01*
X169370333Y-86177476D01*
X169275095Y-86225095D01*
G04 #@! TD*
M02*
