G04 #@! TF.GenerationSoftware,KiCad,Pcbnew,(5.0.1-3-g963ef8bb5)*
G04 #@! TF.CreationDate,2018-12-21T01:17:29-08:00*
G04 #@! TF.ProjectId,snackymini-keyboard,736E61636B796D696E692D6B6579626F,rev?*
G04 #@! TF.SameCoordinates,Original*
G04 #@! TF.FileFunction,Copper,L2,Bot,Signal*
G04 #@! TF.FilePolarity,Positive*
%FSLAX46Y46*%
G04 Gerber Fmt 4.6, Leading zero omitted, Abs format (unit mm)*
G04 Created by KiCad (PCBNEW (5.0.1-3-g963ef8bb5)) date Friday, December 21, 2018 at 01:17:29 AM*
%MOMM*%
%LPD*%
G01*
G04 APERTURE LIST*
G04 #@! TA.AperFunction,ComponentPad*
%ADD10R,1.600000X1.600000*%
G04 #@! TD*
G04 #@! TA.AperFunction,ComponentPad*
%ADD11C,1.600000*%
G04 #@! TD*
G04 #@! TA.AperFunction,ComponentPad*
%ADD12C,2.286000*%
G04 #@! TD*
G04 #@! TA.AperFunction,ViaPad*
%ADD13C,0.800000*%
G04 #@! TD*
G04 #@! TA.AperFunction,Conductor*
%ADD14C,0.250000*%
G04 #@! TD*
G04 APERTURE END LIST*
D10*
G04 #@! TO.P,D1,1*
G04 #@! TO.N,ROW1*
X35724000Y-47625000D03*
D11*
G04 #@! TO.P,D1,2*
G04 #@! TO.N,Net-(D1-Pad2)*
X43524000Y-47625000D03*
G04 #@! TD*
D10*
G04 #@! TO.P,D2,1*
G04 #@! TO.N,ROW2*
X55282000Y-47625000D03*
D11*
G04 #@! TO.P,D2,2*
G04 #@! TO.N,Net-(D2-Pad2)*
X63082000Y-47625000D03*
G04 #@! TD*
G04 #@! TO.P,D3,2*
G04 #@! TO.N,Net-(D3-Pad2)*
X82513000Y-47625000D03*
D10*
G04 #@! TO.P,D3,1*
G04 #@! TO.N,ROW3*
X74713000Y-47625000D03*
G04 #@! TD*
D11*
G04 #@! TO.P,D4,2*
G04 #@! TO.N,Net-(D4-Pad2)*
X100166000Y-47752000D03*
D10*
G04 #@! TO.P,D4,1*
G04 #@! TO.N,ROW4*
X92366000Y-47752000D03*
G04 #@! TD*
G04 #@! TO.P,D5,1*
G04 #@! TO.N,ROW1*
X112051000Y-47625000D03*
D11*
G04 #@! TO.P,D5,2*
G04 #@! TO.N,Net-(D5-Pad2)*
X119851000Y-47625000D03*
G04 #@! TD*
D10*
G04 #@! TO.P,D6,1*
G04 #@! TO.N,ROW2*
X130974000Y-47625000D03*
D11*
G04 #@! TO.P,D6,2*
G04 #@! TO.N,Net-(D6-Pad2)*
X138774000Y-47625000D03*
G04 #@! TD*
G04 #@! TO.P,D7,2*
G04 #@! TO.N,Net-(D7-Pad2)*
X157951000Y-47498000D03*
D10*
G04 #@! TO.P,D7,1*
G04 #@! TO.N,ROW3*
X150151000Y-47498000D03*
G04 #@! TD*
D11*
G04 #@! TO.P,D8,2*
G04 #@! TO.N,Net-(D8-Pad2)*
X177255000Y-47625000D03*
D10*
G04 #@! TO.P,D8,1*
G04 #@! TO.N,ROW4*
X169455000Y-47625000D03*
G04 #@! TD*
G04 #@! TO.P,D9,1*
G04 #@! TO.N,ROW1*
X187743000Y-47498000D03*
D11*
G04 #@! TO.P,D9,2*
G04 #@! TO.N,Net-(D9-Pad2)*
X195543000Y-47498000D03*
G04 #@! TD*
D10*
G04 #@! TO.P,D10,1*
G04 #@! TO.N,ROW2*
X206539000Y-47625000D03*
D11*
G04 #@! TO.P,D10,2*
G04 #@! TO.N,Net-(D10-Pad2)*
X214339000Y-47625000D03*
G04 #@! TD*
G04 #@! TO.P,D11,2*
G04 #@! TO.N,Net-(D11-Pad2)*
X233135000Y-47625000D03*
D10*
G04 #@! TO.P,D11,1*
G04 #@! TO.N,ROW3*
X225335000Y-47625000D03*
G04 #@! TD*
D11*
G04 #@! TO.P,D12,2*
G04 #@! TO.N,Net-(D12-Pad2)*
X259932000Y-47625000D03*
D10*
G04 #@! TO.P,D12,1*
G04 #@! TO.N,ROW4*
X252132000Y-47625000D03*
G04 #@! TD*
G04 #@! TO.P,D13,1*
G04 #@! TO.N,ROW1*
X37883000Y-66421000D03*
D11*
G04 #@! TO.P,D13,2*
G04 #@! TO.N,Net-(D13-Pad2)*
X45683000Y-66421000D03*
G04 #@! TD*
D10*
G04 #@! TO.P,D14,1*
G04 #@! TO.N,ROW2*
X59346000Y-66421000D03*
D11*
G04 #@! TO.P,D14,2*
G04 #@! TO.N,Net-(D14-Pad2)*
X67146000Y-66421000D03*
G04 #@! TD*
G04 #@! TO.P,D15,2*
G04 #@! TO.N,Net-(D15-Pad2)*
X86069000Y-66548000D03*
D10*
G04 #@! TO.P,D15,1*
G04 #@! TO.N,ROW3*
X78269000Y-66548000D03*
G04 #@! TD*
G04 #@! TO.P,D16,1*
G04 #@! TO.N,ROW1*
X97319000Y-66675000D03*
D11*
G04 #@! TO.P,D16,2*
G04 #@! TO.N,Net-(D16-Pad2)*
X105119000Y-66675000D03*
G04 #@! TD*
D10*
G04 #@! TO.P,D17,1*
G04 #@! TO.N,ROW2*
X116496000Y-66548000D03*
D11*
G04 #@! TO.P,D17,2*
G04 #@! TO.N,Net-(D17-Pad2)*
X124296000Y-66548000D03*
G04 #@! TD*
G04 #@! TO.P,D18,2*
G04 #@! TO.N,Net-(D18-Pad2)*
X142965000Y-66421000D03*
D10*
G04 #@! TO.P,D18,1*
G04 #@! TO.N,ROW3*
X135165000Y-66421000D03*
G04 #@! TD*
D11*
G04 #@! TO.P,D19,2*
G04 #@! TO.N,Net-(D19-Pad2)*
X162269000Y-66802000D03*
D10*
G04 #@! TO.P,D19,1*
G04 #@! TO.N,ROW4*
X154469000Y-66802000D03*
G04 #@! TD*
G04 #@! TO.P,D20,1*
G04 #@! TO.N,ROW1*
X173392000Y-66802000D03*
D11*
G04 #@! TO.P,D20,2*
G04 #@! TO.N,Net-(D20-Pad2)*
X181192000Y-66802000D03*
G04 #@! TD*
D10*
G04 #@! TO.P,D21,1*
G04 #@! TO.N,ROW2*
X192315000Y-66675000D03*
D11*
G04 #@! TO.P,D21,2*
G04 #@! TO.N,Net-(D21-Pad2)*
X200115000Y-66675000D03*
G04 #@! TD*
G04 #@! TO.P,D22,2*
G04 #@! TO.N,Net-(D22-Pad2)*
X219165000Y-66802000D03*
D10*
G04 #@! TO.P,D22,1*
G04 #@! TO.N,ROW3*
X211365000Y-66802000D03*
G04 #@! TD*
G04 #@! TO.P,D23,1*
G04 #@! TO.N,ROW1*
X230542000Y-66929000D03*
D11*
G04 #@! TO.P,D23,2*
G04 #@! TO.N,Net-(D23-Pad2)*
X238342000Y-66929000D03*
G04 #@! TD*
D10*
G04 #@! TO.P,D24,1*
G04 #@! TO.N,ROW2*
X254545000Y-66548000D03*
D11*
G04 #@! TO.P,D24,2*
G04 #@! TO.N,Net-(D24-Pad2)*
X262345000Y-66548000D03*
G04 #@! TD*
G04 #@! TO.P,D25,2*
G04 #@! TO.N,Net-(D25-Pad2)*
X50382000Y-85471000D03*
D10*
G04 #@! TO.P,D25,1*
G04 #@! TO.N,ROW3*
X42582000Y-85471000D03*
G04 #@! TD*
D11*
G04 #@! TO.P,D26,2*
G04 #@! TO.N,Net-(D26-Pad2)*
X76798000Y-85598000D03*
D10*
G04 #@! TO.P,D26,1*
G04 #@! TO.N,ROW4*
X68998000Y-85598000D03*
G04 #@! TD*
G04 #@! TO.P,D27,1*
G04 #@! TO.N,ROW1*
X88175000Y-85471000D03*
D11*
G04 #@! TO.P,D27,2*
G04 #@! TO.N,Net-(D27-Pad2)*
X95975000Y-85471000D03*
G04 #@! TD*
D10*
G04 #@! TO.P,D28,1*
G04 #@! TO.N,ROW2*
X107352000Y-85471000D03*
D11*
G04 #@! TO.P,D28,2*
G04 #@! TO.N,Net-(D28-Pad2)*
X115152000Y-85471000D03*
G04 #@! TD*
G04 #@! TO.P,D29,2*
G04 #@! TO.N,Net-(D29-Pad2)*
X133948000Y-85217000D03*
D10*
G04 #@! TO.P,D29,1*
G04 #@! TO.N,ROW3*
X126148000Y-85217000D03*
G04 #@! TD*
G04 #@! TO.P,D30,1*
G04 #@! TO.N,ROW1*
X144944000Y-85344000D03*
D11*
G04 #@! TO.P,D30,2*
G04 #@! TO.N,Net-(D30-Pad2)*
X152744000Y-85344000D03*
G04 #@! TD*
D10*
G04 #@! TO.P,D31,1*
G04 #@! TO.N,ROW2*
X163486000Y-84963000D03*
D11*
G04 #@! TO.P,D31,2*
G04 #@! TO.N,Net-(D31-Pad2)*
X171286000Y-84963000D03*
G04 #@! TD*
G04 #@! TO.P,D32,2*
G04 #@! TO.N,Net-(D32-Pad2)*
X191098000Y-85217000D03*
D10*
G04 #@! TO.P,D32,1*
G04 #@! TO.N,ROW3*
X183298000Y-85217000D03*
G04 #@! TD*
D11*
G04 #@! TO.P,D33,2*
G04 #@! TO.N,Net-(D33-Pad2)*
X209513000Y-85217000D03*
D10*
G04 #@! TO.P,D33,1*
G04 #@! TO.N,ROW4*
X201713000Y-85217000D03*
G04 #@! TD*
G04 #@! TO.P,D34,1*
G04 #@! TO.N,ROW1*
X221398000Y-85090000D03*
D11*
G04 #@! TO.P,D34,2*
G04 #@! TO.N,Net-(D34-Pad2)*
X229198000Y-85090000D03*
G04 #@! TD*
D10*
G04 #@! TO.P,D35,1*
G04 #@! TO.N,ROW2*
X240448000Y-85471000D03*
D11*
G04 #@! TO.P,D35,2*
G04 #@! TO.N,Net-(D35-Pad2)*
X248248000Y-85471000D03*
G04 #@! TD*
G04 #@! TO.P,D36,2*
G04 #@! TO.N,Net-(D36-Pad2)*
X266790000Y-85471000D03*
D10*
G04 #@! TO.P,D36,1*
G04 #@! TO.N,ROW3*
X258990000Y-85471000D03*
G04 #@! TD*
D11*
G04 #@! TO.P,D37,2*
G04 #@! TO.N,Net-(D37-Pad2)*
X46064000Y-104140000D03*
D10*
G04 #@! TO.P,D37,1*
G04 #@! TO.N,ROW4*
X38264000Y-104140000D03*
G04 #@! TD*
G04 #@! TO.P,D38,1*
G04 #@! TO.N,ROW1*
X64172000Y-104267000D03*
D11*
G04 #@! TO.P,D38,2*
G04 #@! TO.N,Net-(D38-Pad2)*
X71972000Y-104267000D03*
G04 #@! TD*
D10*
G04 #@! TO.P,D39,1*
G04 #@! TO.N,ROW2*
X90334000Y-104648000D03*
D11*
G04 #@! TO.P,D39,2*
G04 #@! TO.N,Net-(D39-Pad2)*
X98134000Y-104648000D03*
G04 #@! TD*
G04 #@! TO.P,D40,2*
G04 #@! TO.N,Net-(D40-Pad2)*
X110871000Y-98134000D03*
D10*
G04 #@! TO.P,D40,1*
G04 #@! TO.N,ROW3*
X110871000Y-90334000D03*
G04 #@! TD*
D11*
G04 #@! TO.P,D41,2*
G04 #@! TO.N,Net-(D41-Pad2)*
X114644000Y-101727000D03*
D10*
G04 #@! TO.P,D41,1*
G04 #@! TO.N,ROW4*
X106844000Y-101727000D03*
G04 #@! TD*
G04 #@! TO.P,D42,1*
G04 #@! TO.N,ROW1*
X197141000Y-104648000D03*
D11*
G04 #@! TO.P,D42,2*
G04 #@! TO.N,Net-(D42-Pad2)*
X204941000Y-104648000D03*
G04 #@! TD*
G04 #@! TO.P,D43,2*
G04 #@! TO.N,Net-(D43-Pad2)*
X229071000Y-104648000D03*
D10*
G04 #@! TO.P,D43,1*
G04 #@! TO.N,ROW2*
X221271000Y-104648000D03*
G04 #@! TD*
D11*
G04 #@! TO.P,D44,2*
G04 #@! TO.N,Net-(D44-Pad2)*
X247867000Y-104521000D03*
D10*
G04 #@! TO.P,D44,1*
G04 #@! TO.N,ROW3*
X240067000Y-104521000D03*
G04 #@! TD*
D11*
G04 #@! TO.P,D45,2*
G04 #@! TO.N,Net-(D45-Pad2)*
X267171000Y-104648000D03*
D10*
G04 #@! TO.P,D45,1*
G04 #@! TO.N,ROW4*
X259371000Y-104648000D03*
G04 #@! TD*
D12*
G04 #@! TO.P,SW1,1*
G04 #@! TO.N,Net-(D1-Pad2)*
X41910000Y-33020000D03*
G04 #@! TO.P,SW1,2*
G04 #@! TO.N,COL1*
X35560000Y-35560000D03*
G04 #@! TD*
G04 #@! TO.P,SW2,2*
G04 #@! TO.N,COL1*
X54610000Y-35560000D03*
G04 #@! TO.P,SW2,1*
G04 #@! TO.N,Net-(D2-Pad2)*
X60960000Y-33020000D03*
G04 #@! TD*
G04 #@! TO.P,SW3,1*
G04 #@! TO.N,Net-(D3-Pad2)*
X80010000Y-33020000D03*
G04 #@! TO.P,SW3,2*
G04 #@! TO.N,COL1*
X73660000Y-35560000D03*
G04 #@! TD*
G04 #@! TO.P,SW4,1*
G04 #@! TO.N,Net-(D4-Pad2)*
X99060000Y-33020000D03*
G04 #@! TO.P,SW4,2*
G04 #@! TO.N,COL1*
X92710000Y-35560000D03*
G04 #@! TD*
G04 #@! TO.P,SW5,1*
G04 #@! TO.N,Net-(D5-Pad2)*
X118110000Y-33020000D03*
G04 #@! TO.P,SW5,2*
G04 #@! TO.N,COL2*
X111760000Y-35560000D03*
G04 #@! TD*
G04 #@! TO.P,SW6,2*
G04 #@! TO.N,COL2*
X130556000Y-35560000D03*
G04 #@! TO.P,SW6,1*
G04 #@! TO.N,Net-(D6-Pad2)*
X136906000Y-33020000D03*
G04 #@! TD*
G04 #@! TO.P,SW7,1*
G04 #@! TO.N,Net-(D7-Pad2)*
X155956000Y-33020000D03*
G04 #@! TO.P,SW7,2*
G04 #@! TO.N,COL2*
X149606000Y-35560000D03*
G04 #@! TD*
G04 #@! TO.P,SW8,1*
G04 #@! TO.N,Net-(D8-Pad2)*
X175006000Y-33020000D03*
G04 #@! TO.P,SW8,2*
G04 #@! TO.N,COL2*
X168656000Y-35560000D03*
G04 #@! TD*
G04 #@! TO.P,SW9,2*
G04 #@! TO.N,COL3*
X187706000Y-35560000D03*
G04 #@! TO.P,SW9,1*
G04 #@! TO.N,Net-(D9-Pad2)*
X194056000Y-33020000D03*
G04 #@! TD*
G04 #@! TO.P,SW10,2*
G04 #@! TO.N,COL3*
X206756000Y-35560000D03*
G04 #@! TO.P,SW10,1*
G04 #@! TO.N,Net-(D10-Pad2)*
X213106000Y-33020000D03*
G04 #@! TD*
G04 #@! TO.P,SW11,1*
G04 #@! TO.N,Net-(D11-Pad2)*
X232156000Y-33020000D03*
G04 #@! TO.P,SW11,2*
G04 #@! TO.N,COL3*
X225806000Y-35560000D03*
G04 #@! TD*
G04 #@! TO.P,SW12,1*
G04 #@! TO.N,Net-(D12-Pad2)*
X258064000Y-33020000D03*
G04 #@! TO.P,SW12,2*
G04 #@! TO.N,COL3*
X251714000Y-35560000D03*
G04 #@! TD*
G04 #@! TO.P,SW13,2*
G04 #@! TO.N,COL4*
X38100000Y-54610000D03*
G04 #@! TO.P,SW13,1*
G04 #@! TO.N,Net-(D13-Pad2)*
X44450000Y-52070000D03*
G04 #@! TD*
G04 #@! TO.P,SW14,2*
G04 #@! TO.N,COL4*
X59182000Y-54610000D03*
G04 #@! TO.P,SW14,1*
G04 #@! TO.N,Net-(D14-Pad2)*
X65532000Y-52070000D03*
G04 #@! TD*
G04 #@! TO.P,SW15,1*
G04 #@! TO.N,Net-(D15-Pad2)*
X84582000Y-52070000D03*
G04 #@! TO.P,SW15,2*
G04 #@! TO.N,COL4*
X78232000Y-54610000D03*
G04 #@! TD*
G04 #@! TO.P,SW16,2*
G04 #@! TO.N,COL5*
X97282000Y-54610000D03*
G04 #@! TO.P,SW16,1*
G04 #@! TO.N,Net-(D16-Pad2)*
X103632000Y-52070000D03*
G04 #@! TD*
G04 #@! TO.P,SW17,2*
G04 #@! TO.N,COL5*
X116332000Y-54610000D03*
G04 #@! TO.P,SW17,1*
G04 #@! TO.N,Net-(D17-Pad2)*
X122682000Y-52070000D03*
G04 #@! TD*
G04 #@! TO.P,SW18,1*
G04 #@! TO.N,Net-(D18-Pad2)*
X141478000Y-52070000D03*
G04 #@! TO.P,SW18,2*
G04 #@! TO.N,COL5*
X135128000Y-54610000D03*
G04 #@! TD*
G04 #@! TO.P,SW19,1*
G04 #@! TO.N,Net-(D19-Pad2)*
X160528000Y-52070000D03*
G04 #@! TO.P,SW19,2*
G04 #@! TO.N,COL5*
X154178000Y-54610000D03*
G04 #@! TD*
G04 #@! TO.P,SW20,2*
G04 #@! TO.N,COL6*
X173228000Y-54610000D03*
G04 #@! TO.P,SW20,1*
G04 #@! TO.N,Net-(D20-Pad2)*
X179578000Y-52070000D03*
G04 #@! TD*
G04 #@! TO.P,SW21,2*
G04 #@! TO.N,COL6*
X192278000Y-54610000D03*
G04 #@! TO.P,SW21,1*
G04 #@! TO.N,Net-(D21-Pad2)*
X198628000Y-52070000D03*
G04 #@! TD*
G04 #@! TO.P,SW22,1*
G04 #@! TO.N,Net-(D22-Pad2)*
X217678000Y-52070000D03*
G04 #@! TO.P,SW22,2*
G04 #@! TO.N,COL6*
X211328000Y-54610000D03*
G04 #@! TD*
G04 #@! TO.P,SW23,2*
G04 #@! TO.N,COL7*
X230378000Y-54610000D03*
G04 #@! TO.P,SW23,1*
G04 #@! TO.N,Net-(D23-Pad2)*
X236728000Y-52070000D03*
G04 #@! TD*
G04 #@! TO.P,SW24,2*
G04 #@! TO.N,COL7*
X254254000Y-54610000D03*
G04 #@! TO.P,SW24,1*
G04 #@! TO.N,Net-(D24-Pad2)*
X260604000Y-52070000D03*
G04 #@! TD*
G04 #@! TO.P,SW25,1*
G04 #@! TO.N,Net-(D25-Pad2)*
X49022000Y-71120000D03*
G04 #@! TO.P,SW25,2*
G04 #@! TO.N,COL7*
X42672000Y-73660000D03*
G04 #@! TD*
G04 #@! TO.P,SW26,1*
G04 #@! TO.N,Net-(D26-Pad2)*
X75184000Y-70993000D03*
G04 #@! TO.P,SW26,2*
G04 #@! TO.N,COL7*
X68834000Y-73533000D03*
G04 #@! TD*
G04 #@! TO.P,SW27,2*
G04 #@! TO.N,COL8*
X87884000Y-73533000D03*
G04 #@! TO.P,SW27,1*
G04 #@! TO.N,Net-(D27-Pad2)*
X94234000Y-70993000D03*
G04 #@! TD*
G04 #@! TO.P,SW28,2*
G04 #@! TO.N,COL8*
X106807000Y-73533000D03*
G04 #@! TO.P,SW28,1*
G04 #@! TO.N,Net-(D28-Pad2)*
X113157000Y-70993000D03*
G04 #@! TD*
G04 #@! TO.P,SW29,1*
G04 #@! TO.N,Net-(D29-Pad2)*
X132207000Y-70993000D03*
G04 #@! TO.P,SW29,2*
G04 #@! TO.N,COL8*
X125857000Y-73533000D03*
G04 #@! TD*
G04 #@! TO.P,SW30,2*
G04 #@! TO.N,COL9*
X152400000Y-78613000D03*
G04 #@! TO.P,SW30,1*
G04 #@! TO.N,Net-(D30-Pad2)*
X146050000Y-81153000D03*
G04 #@! TD*
G04 #@! TO.P,SW31,2*
G04 #@! TO.N,COL9*
X163830000Y-73533000D03*
G04 #@! TO.P,SW31,1*
G04 #@! TO.N,Net-(D31-Pad2)*
X170180000Y-70993000D03*
G04 #@! TD*
G04 #@! TO.P,SW32,1*
G04 #@! TO.N,Net-(D32-Pad2)*
X189230000Y-70993000D03*
G04 #@! TO.P,SW32,2*
G04 #@! TO.N,COL9*
X182880000Y-73533000D03*
G04 #@! TD*
G04 #@! TO.P,SW33,2*
G04 #@! TO.N,COL9*
X201930000Y-73533000D03*
G04 #@! TO.P,SW33,1*
G04 #@! TO.N,Net-(D33-Pad2)*
X208280000Y-70993000D03*
G04 #@! TD*
G04 #@! TO.P,SW34,2*
G04 #@! TO.N,COL10*
X220853000Y-73533000D03*
G04 #@! TO.P,SW34,1*
G04 #@! TO.N,Net-(D34-Pad2)*
X227203000Y-70993000D03*
G04 #@! TD*
G04 #@! TO.P,SW35,2*
G04 #@! TO.N,COL10*
X239903000Y-73533000D03*
G04 #@! TO.P,SW35,1*
G04 #@! TO.N,Net-(D35-Pad2)*
X246253000Y-70993000D03*
G04 #@! TD*
G04 #@! TO.P,SW36,1*
G04 #@! TO.N,Net-(D36-Pad2)*
X265176000Y-70993000D03*
G04 #@! TO.P,SW36,2*
G04 #@! TO.N,COL10*
X258826000Y-73533000D03*
G04 #@! TD*
G04 #@! TO.P,SW37,1*
G04 #@! TO.N,Net-(D37-Pad2)*
X44323000Y-89916000D03*
G04 #@! TO.P,SW37,2*
G04 #@! TO.N,COL10*
X37973000Y-92456000D03*
G04 #@! TD*
G04 #@! TO.P,SW38,2*
G04 #@! TO.N,COL11*
X64135000Y-92583000D03*
G04 #@! TO.P,SW38,1*
G04 #@! TO.N,Net-(D38-Pad2)*
X70485000Y-90043000D03*
G04 #@! TD*
G04 #@! TO.P,SW39,2*
G04 #@! TO.N,COL11*
X90170000Y-92583000D03*
G04 #@! TO.P,SW39,1*
G04 #@! TO.N,Net-(D39-Pad2)*
X96520000Y-90043000D03*
G04 #@! TD*
G04 #@! TO.P,SW40,1*
G04 #@! TO.N,Net-(D40-Pad2)*
X122174000Y-92583000D03*
G04 #@! TO.P,SW40,2*
G04 #@! TO.N,COL11*
X124714000Y-98933000D03*
G04 #@! TD*
G04 #@! TO.P,SW41,1*
G04 #@! TO.N,Net-(D41-Pad2)*
X162560000Y-92583000D03*
G04 #@! TO.P,SW41,2*
G04 #@! TO.N,COL11*
X165100000Y-98933000D03*
G04 #@! TD*
G04 #@! TO.P,SW42,2*
G04 #@! TO.N,COL12*
X197104000Y-92583000D03*
G04 #@! TO.P,SW42,1*
G04 #@! TO.N,Net-(D42-Pad2)*
X203454000Y-90043000D03*
G04 #@! TD*
G04 #@! TO.P,SW43,1*
G04 #@! TO.N,Net-(D43-Pad2)*
X227203000Y-90043000D03*
G04 #@! TO.P,SW43,2*
G04 #@! TO.N,COL12*
X220853000Y-92583000D03*
G04 #@! TD*
G04 #@! TO.P,SW44,1*
G04 #@! TO.N,Net-(D44-Pad2)*
X246253000Y-90043000D03*
G04 #@! TO.P,SW44,2*
G04 #@! TO.N,COL12*
X239903000Y-92583000D03*
G04 #@! TD*
G04 #@! TO.P,SW45,1*
G04 #@! TO.N,Net-(D45-Pad2)*
X265176000Y-90043000D03*
G04 #@! TO.P,SW45,2*
G04 #@! TO.N,COL12*
X258826000Y-92583000D03*
G04 #@! TD*
D10*
G04 #@! TO.P,U1,1*
G04 #@! TO.N,Net-(U1-Pad1)*
X152527000Y-104267000D03*
D11*
G04 #@! TO.P,U1,2*
G04 #@! TO.N,Net-(U1-Pad2)*
X155067000Y-104267000D03*
G04 #@! TO.P,U1,3*
G04 #@! TO.N,Net-(U1-Pad3)*
X157607000Y-104267000D03*
G04 #@! TO.P,U1,4*
G04 #@! TO.N,ROW1*
X160147000Y-104267000D03*
G04 #@! TO.P,U1,5*
G04 #@! TO.N,ROW2*
X162687000Y-104267000D03*
G04 #@! TO.P,U1,6*
G04 #@! TO.N,ROW3*
X165227000Y-104267000D03*
G04 #@! TO.P,U1,7*
G04 #@! TO.N,ROW4*
X167767000Y-104267000D03*
G04 #@! TO.P,U1,8*
G04 #@! TO.N,COL1*
X170307000Y-104267000D03*
G04 #@! TO.P,U1,9*
G04 #@! TO.N,COL2*
X172847000Y-104267000D03*
G04 #@! TO.P,U1,10*
G04 #@! TO.N,COL3*
X175387000Y-104267000D03*
G04 #@! TO.P,U1,11*
G04 #@! TO.N,COL4*
X177927000Y-104267000D03*
G04 #@! TO.P,U1,12*
G04 #@! TO.N,COL5*
X180467000Y-104267000D03*
G04 #@! TO.P,U1,13*
G04 #@! TO.N,Net-(U1-Pad13)*
X183007000Y-104267000D03*
G04 #@! TO.P,U1,33*
G04 #@! TO.N,Net-(U1-Pad33)*
X152527000Y-89027000D03*
G04 #@! TO.P,U1,32*
G04 #@! TO.N,Net-(U1-Pad32)*
X155067000Y-89027000D03*
G04 #@! TO.P,U1,31*
G04 #@! TO.N,Net-(U1-Pad31)*
X157607000Y-89027000D03*
G04 #@! TO.P,U1,30*
G04 #@! TO.N,Net-(U1-Pad30)*
X160147000Y-89027000D03*
G04 #@! TO.P,U1,29*
G04 #@! TO.N,Net-(U1-Pad29)*
X162687000Y-89027000D03*
G04 #@! TO.P,U1,28*
G04 #@! TO.N,Net-(U1-Pad28)*
X165227000Y-89027000D03*
G04 #@! TO.P,U1,27*
G04 #@! TO.N,Net-(U1-Pad27)*
X167767000Y-89027000D03*
G04 #@! TO.P,U1,26*
G04 #@! TO.N,COL12*
X170307000Y-89027000D03*
G04 #@! TO.P,U1,25*
G04 #@! TO.N,COL11*
X172847000Y-89027000D03*
G04 #@! TO.P,U1,24*
G04 #@! TO.N,COL10*
X175387000Y-89027000D03*
G04 #@! TO.P,U1,23*
G04 #@! TO.N,COL9*
X177927000Y-89027000D03*
G04 #@! TO.P,U1,22*
G04 #@! TO.N,COL8*
X180467000Y-89027000D03*
G04 #@! TO.P,U1,21*
G04 #@! TO.N,COL7*
X183007000Y-89027000D03*
G04 #@! TO.P,U1,14*
G04 #@! TO.N,Net-(U1-Pad14)*
X185547000Y-104267000D03*
G04 #@! TO.P,U1,15*
G04 #@! TO.N,Net-(U1-Pad15)*
X185547000Y-101727000D03*
G04 #@! TO.P,U1,16*
G04 #@! TO.N,Net-(U1-Pad16)*
X185547000Y-99187000D03*
G04 #@! TO.P,U1,20*
G04 #@! TO.N,COL6*
X185547000Y-89027000D03*
G04 #@! TO.P,U1,19*
G04 #@! TO.N,Net-(U1-Pad19)*
X185547000Y-91567000D03*
G04 #@! TO.P,U1,18*
G04 #@! TO.N,Net-(U1-Pad18)*
X185547000Y-94107000D03*
G04 #@! TO.P,U1,17*
G04 #@! TO.N,Net-(U1-Pad17)*
X185547000Y-96647000D03*
G04 #@! TD*
D13*
G04 #@! TO.N,COL4*
X178680200Y-83111900D03*
G04 #@! TD*
D14*
G04 #@! TO.N,ROW1*
X144944000Y-86469300D02*
X160147000Y-101672300D01*
X160147000Y-101672300D02*
X160147000Y-104267000D01*
X61657500Y-87644000D02*
X61657500Y-100627200D01*
X61657500Y-100627200D02*
X64172000Y-103141700D01*
X39008300Y-66421000D02*
X40133600Y-67546300D01*
X40133600Y-67546300D02*
X47579900Y-67546300D01*
X47579900Y-67546300D02*
X61657500Y-81623900D01*
X61657500Y-81623900D02*
X61657500Y-87644000D01*
X61657500Y-87644000D02*
X84876700Y-87644000D01*
X84876700Y-87644000D02*
X87049700Y-85471000D01*
X64172000Y-104267000D02*
X64172000Y-103141700D01*
X37883000Y-66421000D02*
X39008300Y-66421000D01*
X88175000Y-85471000D02*
X87049700Y-85471000D01*
X187743000Y-47498000D02*
X182073400Y-47498000D01*
X182073400Y-47498000D02*
X176562400Y-53009000D01*
X176562400Y-53009000D02*
X176562400Y-54209200D01*
X176562400Y-54209200D02*
X173392000Y-57379600D01*
X173392000Y-57379600D02*
X173392000Y-66802000D01*
X97319000Y-66675000D02*
X97319000Y-57643000D01*
X97319000Y-57643000D02*
X101291400Y-53670600D01*
X101291400Y-53670600D02*
X101291400Y-52296500D01*
X101291400Y-52296500D02*
X105962900Y-47625000D01*
X105962900Y-47625000D02*
X112051000Y-47625000D01*
X221398000Y-85090000D02*
X221398000Y-75506100D01*
X221398000Y-75506100D02*
X224786500Y-72117600D01*
X224786500Y-72117600D02*
X224786500Y-71307300D01*
X224786500Y-71307300D02*
X229164800Y-66929000D01*
X229164800Y-66929000D02*
X230542000Y-66929000D01*
X198266300Y-104648000D02*
X199403200Y-105784900D01*
X199403200Y-105784900D02*
X205448500Y-105784900D01*
X205448500Y-105784900D02*
X221398000Y-89835400D01*
X221398000Y-89835400D02*
X221398000Y-85090000D01*
X144944000Y-85344000D02*
X144944000Y-86469300D01*
X197141000Y-104648000D02*
X198266300Y-104648000D01*
X35724000Y-47625000D02*
X35724000Y-48750300D01*
X37883000Y-66421000D02*
X37883000Y-65295700D01*
X37883000Y-65295700D02*
X35608900Y-63021600D01*
X35608900Y-63021600D02*
X35608900Y-48865400D01*
X35608900Y-48865400D02*
X35724000Y-48750300D01*
G04 #@! TO.N,Net-(D1-Pad2)*
X41910000Y-33020000D02*
X41910000Y-46011000D01*
X41910000Y-46011000D02*
X43524000Y-47625000D01*
G04 #@! TO.N,ROW2*
X116493900Y-66548000D02*
X116493900Y-56966200D01*
X116493900Y-56966200D02*
X120333400Y-53126700D01*
X120333400Y-53126700D02*
X120333400Y-52321400D01*
X120333400Y-52321400D02*
X125029800Y-47625000D01*
X125029800Y-47625000D02*
X130974000Y-47625000D01*
X116493900Y-66548000D02*
X116425700Y-66548000D01*
X116496000Y-66548000D02*
X116493900Y-66548000D01*
X116422700Y-66548000D02*
X115933400Y-66548000D01*
X116425700Y-66548000D02*
X116422700Y-66548000D01*
X163486000Y-84963000D02*
X163486000Y-86088300D01*
X162687000Y-104267000D02*
X162687000Y-95571200D01*
X162687000Y-95571200D02*
X164029300Y-94228900D01*
X164029300Y-94228900D02*
X164029300Y-86631600D01*
X164029300Y-86631600D02*
X163486000Y-86088300D01*
X91690100Y-86664800D02*
X89370900Y-84345600D01*
X89370900Y-84345600D02*
X81104100Y-84345600D01*
X81104100Y-84345600D02*
X78256000Y-87193700D01*
X78256000Y-87193700D02*
X68491400Y-87193700D01*
X68491400Y-87193700D02*
X59346000Y-78048300D01*
X59346000Y-78048300D02*
X59346000Y-66421000D01*
X90896700Y-104648000D02*
X90896700Y-94374400D01*
X90896700Y-94374400D02*
X91690100Y-93581000D01*
X91690100Y-93581000D02*
X91690100Y-86664800D01*
X107352000Y-85471000D02*
X106226700Y-85471000D01*
X106226700Y-85471000D02*
X105032900Y-86664800D01*
X105032900Y-86664800D02*
X91690100Y-86664800D01*
X115933400Y-66548000D02*
X115451700Y-66548000D01*
X115451700Y-66548000D02*
X109104400Y-72895300D01*
X109104400Y-72895300D02*
X109104400Y-73753700D01*
X109104400Y-73753700D02*
X107352000Y-75506100D01*
X107352000Y-75506100D02*
X107352000Y-85471000D01*
X90334000Y-104648000D02*
X90896700Y-104648000D01*
X192315000Y-66675000D02*
X192315000Y-65549700D01*
X206539000Y-47625000D02*
X200996400Y-47625000D01*
X200996400Y-47625000D02*
X195612400Y-53009000D01*
X195612400Y-53009000D02*
X195612400Y-54186400D01*
X195612400Y-54186400D02*
X193440300Y-56358500D01*
X193440300Y-56358500D02*
X193440300Y-64424400D01*
X193440300Y-64424400D02*
X192315000Y-65549700D01*
X240448000Y-85471000D02*
X240448000Y-86596300D01*
X221271000Y-104648000D02*
X222396300Y-104648000D01*
X222396300Y-104648000D02*
X223580200Y-105831900D01*
X223580200Y-105831900D02*
X229521400Y-105831900D01*
X229521400Y-105831900D02*
X236248300Y-99105000D01*
X236248300Y-99105000D02*
X236248300Y-90796000D01*
X236248300Y-90796000D02*
X240448000Y-86596300D01*
X240448000Y-85471000D02*
X240448000Y-75506100D01*
X240448000Y-75506100D02*
X244695300Y-71258800D01*
X244695300Y-71258800D02*
X244695300Y-70472800D01*
X244695300Y-70472800D02*
X248620100Y-66548000D01*
X248620100Y-66548000D02*
X254545000Y-66548000D01*
X59346000Y-66421000D02*
X59346000Y-65295700D01*
X59346000Y-65295700D02*
X55282000Y-61231700D01*
X55282000Y-61231700D02*
X55282000Y-47625000D01*
G04 #@! TO.N,Net-(D2-Pad2)*
X60960000Y-33020000D02*
X60960000Y-45503000D01*
X60960000Y-45503000D02*
X63082000Y-47625000D01*
G04 #@! TO.N,Net-(D3-Pad2)*
X80010000Y-33020000D02*
X80010000Y-45122000D01*
X80010000Y-45122000D02*
X82513000Y-47625000D01*
G04 #@! TO.N,ROW3*
X135926000Y-86342300D02*
X128398600Y-86342300D01*
X128398600Y-86342300D02*
X127273300Y-85217000D01*
X165227000Y-104267000D02*
X163602600Y-105891400D01*
X163602600Y-105891400D02*
X160173800Y-105891400D01*
X160173800Y-105891400D02*
X158877000Y-104594600D01*
X158877000Y-104594600D02*
X158877000Y-103868100D01*
X158877000Y-103868100D02*
X141351200Y-86342300D01*
X141351200Y-86342300D02*
X135926000Y-86342300D01*
X135926000Y-86342300D02*
X135926000Y-68307300D01*
X135926000Y-68307300D02*
X135165000Y-67546300D01*
X135165000Y-66421000D02*
X135165000Y-67546300D01*
X126148000Y-85217000D02*
X127273300Y-85217000D01*
X183298000Y-86342300D02*
X181737000Y-87903300D01*
X181737000Y-87903300D02*
X181737000Y-104588600D01*
X181737000Y-104588600D02*
X180429500Y-105896100D01*
X180429500Y-105896100D02*
X170292500Y-105896100D01*
X170292500Y-105896100D02*
X169037000Y-104640600D01*
X169037000Y-104640600D02*
X169037000Y-103862300D01*
X169037000Y-103862300D02*
X168309300Y-103134600D01*
X168309300Y-103134600D02*
X166359400Y-103134600D01*
X166359400Y-103134600D02*
X165227000Y-104267000D01*
X126148000Y-85217000D02*
X125022700Y-85217000D01*
X110871000Y-90334000D02*
X119905700Y-90334000D01*
X119905700Y-90334000D02*
X125022700Y-85217000D01*
X255670300Y-81026000D02*
X258990000Y-84345700D01*
X226460300Y-47625000D02*
X227585600Y-48750300D01*
X227585600Y-48750300D02*
X238821600Y-48750300D01*
X238821600Y-48750300D02*
X255670300Y-65599000D01*
X255670300Y-65599000D02*
X255670300Y-81026000D01*
X240067000Y-104521000D02*
X240067000Y-95489000D01*
X240067000Y-95489000D02*
X242904900Y-92651100D01*
X242904900Y-92651100D02*
X242904900Y-91252300D01*
X242904900Y-91252300D02*
X246568000Y-87589200D01*
X246568000Y-87589200D02*
X249107100Y-87589200D01*
X249107100Y-87589200D02*
X255670300Y-81026000D01*
X258990000Y-85471000D02*
X258990000Y-84345700D01*
X225335000Y-47625000D02*
X226460300Y-47625000D01*
X211365000Y-66802000D02*
X211365000Y-57506600D01*
X211365000Y-57506600D02*
X213230000Y-55641600D01*
X213230000Y-55641600D02*
X213230000Y-54433100D01*
X213230000Y-54433100D02*
X220038100Y-47625000D01*
X220038100Y-47625000D02*
X225335000Y-47625000D01*
X183298000Y-85217000D02*
X183298000Y-86342300D01*
X78269000Y-66548000D02*
X78269000Y-65422700D01*
X74713000Y-48750300D02*
X74713000Y-61866700D01*
X74713000Y-61866700D02*
X78269000Y-65422700D01*
X74713000Y-47625000D02*
X74713000Y-48750300D01*
G04 #@! TO.N,Net-(D4-Pad2)*
X99060000Y-33020000D02*
X100166000Y-34126000D01*
X100166000Y-34126000D02*
X100166000Y-47752000D01*
G04 #@! TO.N,ROW4*
X68998000Y-85598000D02*
X70123300Y-85598000D01*
X70123300Y-85598000D02*
X71268700Y-86743400D01*
X71268700Y-86743400D02*
X77270800Y-86743400D01*
X77270800Y-86743400D02*
X84582200Y-79432000D01*
X84582200Y-79432000D02*
X84582200Y-73240700D01*
X84582200Y-73240700D02*
X92366000Y-65456900D01*
X92366000Y-65456900D02*
X92366000Y-47752000D01*
X167767000Y-104267000D02*
X169846400Y-106346400D01*
X169846400Y-106346400D02*
X185074500Y-106346400D01*
X185074500Y-106346400D02*
X194112300Y-97308600D01*
X194112300Y-97308600D02*
X194112300Y-93380400D01*
X194112300Y-93380400D02*
X201150400Y-86342300D01*
X201150400Y-86342300D02*
X201713000Y-86342300D01*
X201713000Y-85217000D02*
X201713000Y-86342300D01*
G04 #@! TO.N,Net-(D5-Pad2)*
X118110000Y-33020000D02*
X118110000Y-45884000D01*
X118110000Y-45884000D02*
X119851000Y-47625000D01*
G04 #@! TO.N,Net-(D6-Pad2)*
X136906000Y-33020000D02*
X136906000Y-45757000D01*
X136906000Y-45757000D02*
X138774000Y-47625000D01*
G04 #@! TO.N,Net-(D7-Pad2)*
X155956000Y-33020000D02*
X155956000Y-45503000D01*
X155956000Y-45503000D02*
X157951000Y-47498000D01*
G04 #@! TO.N,Net-(D8-Pad2)*
X175006000Y-33020000D02*
X175006000Y-45376000D01*
X175006000Y-45376000D02*
X177255000Y-47625000D01*
G04 #@! TO.N,Net-(D9-Pad2)*
X194056000Y-33020000D02*
X194056000Y-46011000D01*
X194056000Y-46011000D02*
X195543000Y-47498000D01*
G04 #@! TO.N,Net-(D10-Pad2)*
X213106000Y-33020000D02*
X214339000Y-34253000D01*
X214339000Y-34253000D02*
X214339000Y-47625000D01*
G04 #@! TO.N,Net-(D11-Pad2)*
X232156000Y-33020000D02*
X233135000Y-33999000D01*
X233135000Y-33999000D02*
X233135000Y-47625000D01*
G04 #@! TO.N,Net-(D12-Pad2)*
X258064000Y-33020000D02*
X258064000Y-45757000D01*
X258064000Y-45757000D02*
X259932000Y-47625000D01*
G04 #@! TO.N,Net-(D13-Pad2)*
X44450000Y-52070000D02*
X45683000Y-53303000D01*
X45683000Y-53303000D02*
X45683000Y-66421000D01*
G04 #@! TO.N,Net-(D14-Pad2)*
X65532000Y-52070000D02*
X65532000Y-64807000D01*
X65532000Y-64807000D02*
X67146000Y-66421000D01*
G04 #@! TO.N,Net-(D15-Pad2)*
X84582000Y-52070000D02*
X84582000Y-65061000D01*
X84582000Y-65061000D02*
X86069000Y-66548000D01*
G04 #@! TO.N,Net-(D16-Pad2)*
X103632000Y-52070000D02*
X103632000Y-65188000D01*
X103632000Y-65188000D02*
X105119000Y-66675000D01*
G04 #@! TO.N,Net-(D17-Pad2)*
X122682000Y-52070000D02*
X122682000Y-64934000D01*
X122682000Y-64934000D02*
X124296000Y-66548000D01*
G04 #@! TO.N,Net-(D18-Pad2)*
X141478000Y-52070000D02*
X141478000Y-64934000D01*
X141478000Y-64934000D02*
X142965000Y-66421000D01*
G04 #@! TO.N,Net-(D19-Pad2)*
X162269000Y-66802000D02*
X160528000Y-65061000D01*
X160528000Y-65061000D02*
X160528000Y-52070000D01*
G04 #@! TO.N,Net-(D20-Pad2)*
X179578000Y-52070000D02*
X179578000Y-65188000D01*
X179578000Y-65188000D02*
X181192000Y-66802000D01*
G04 #@! TO.N,Net-(D21-Pad2)*
X198628000Y-52070000D02*
X198628000Y-65188000D01*
X198628000Y-65188000D02*
X200115000Y-66675000D01*
G04 #@! TO.N,Net-(D22-Pad2)*
X217678000Y-52070000D02*
X217678000Y-65315000D01*
X217678000Y-65315000D02*
X219165000Y-66802000D01*
G04 #@! TO.N,Net-(D23-Pad2)*
X236728000Y-52070000D02*
X236728000Y-65315000D01*
X236728000Y-65315000D02*
X238342000Y-66929000D01*
G04 #@! TO.N,Net-(D24-Pad2)*
X260604000Y-52070000D02*
X260604000Y-64807000D01*
X260604000Y-64807000D02*
X262345000Y-66548000D01*
G04 #@! TO.N,Net-(D25-Pad2)*
X49022000Y-71120000D02*
X50382000Y-72480000D01*
X50382000Y-72480000D02*
X50382000Y-85471000D01*
G04 #@! TO.N,Net-(D26-Pad2)*
X75184000Y-70993000D02*
X75184000Y-83984000D01*
X75184000Y-83984000D02*
X76798000Y-85598000D01*
G04 #@! TO.N,Net-(D27-Pad2)*
X94234000Y-70993000D02*
X94234000Y-83730000D01*
X94234000Y-83730000D02*
X95975000Y-85471000D01*
G04 #@! TO.N,Net-(D28-Pad2)*
X113157000Y-70993000D02*
X113157000Y-83476000D01*
X113157000Y-83476000D02*
X115152000Y-85471000D01*
G04 #@! TO.N,Net-(D29-Pad2)*
X132207000Y-70993000D02*
X132207000Y-83476000D01*
X132207000Y-83476000D02*
X133948000Y-85217000D01*
G04 #@! TO.N,Net-(D30-Pad2)*
X146050000Y-81153000D02*
X148553000Y-81153000D01*
X148553000Y-81153000D02*
X152744000Y-85344000D01*
G04 #@! TO.N,Net-(D31-Pad2)*
X170180000Y-70993000D02*
X171286000Y-72099000D01*
X171286000Y-72099000D02*
X171286000Y-84963000D01*
G04 #@! TO.N,Net-(D32-Pad2)*
X189230000Y-70993000D02*
X189230000Y-83349000D01*
X189230000Y-83349000D02*
X191098000Y-85217000D01*
G04 #@! TO.N,Net-(D33-Pad2)*
X208280000Y-70993000D02*
X209513000Y-72226000D01*
X209513000Y-72226000D02*
X209513000Y-85217000D01*
G04 #@! TO.N,Net-(D34-Pad2)*
X227203000Y-70993000D02*
X227203000Y-83095000D01*
X227203000Y-83095000D02*
X229198000Y-85090000D01*
G04 #@! TO.N,Net-(D35-Pad2)*
X246253000Y-70993000D02*
X246253000Y-83476000D01*
X246253000Y-83476000D02*
X248248000Y-85471000D01*
G04 #@! TO.N,Net-(D36-Pad2)*
X265176000Y-70993000D02*
X265176000Y-83857000D01*
X265176000Y-83857000D02*
X266790000Y-85471000D01*
G04 #@! TO.N,Net-(D37-Pad2)*
X44323000Y-89916000D02*
X44323000Y-102399000D01*
X44323000Y-102399000D02*
X46064000Y-104140000D01*
G04 #@! TO.N,Net-(D39-Pad2)*
X96520000Y-90043000D02*
X96520000Y-103034000D01*
X96520000Y-103034000D02*
X98134000Y-104648000D01*
G04 #@! TO.N,Net-(D40-Pad2)*
X122174000Y-92583000D02*
X116422000Y-92583000D01*
X116422000Y-92583000D02*
X110871000Y-98134000D01*
G04 #@! TO.N,Net-(D42-Pad2)*
X203454000Y-90043000D02*
X203454000Y-103161000D01*
X203454000Y-103161000D02*
X204941000Y-104648000D01*
G04 #@! TO.N,Net-(D43-Pad2)*
X227203000Y-90043000D02*
X227203000Y-102780000D01*
X227203000Y-102780000D02*
X229071000Y-104648000D01*
G04 #@! TO.N,Net-(D44-Pad2)*
X246253000Y-90043000D02*
X246253000Y-102907000D01*
X246253000Y-102907000D02*
X247867000Y-104521000D01*
G04 #@! TO.N,Net-(D45-Pad2)*
X265176000Y-90043000D02*
X265176000Y-102653000D01*
X265176000Y-102653000D02*
X267171000Y-104648000D01*
G04 #@! TO.N,COL1*
X170307000Y-104267000D02*
X168698000Y-102658000D01*
X168698000Y-102658000D02*
X165168400Y-102658000D01*
X165168400Y-102658000D02*
X163957000Y-103869400D01*
X163957000Y-103869400D02*
X163957000Y-104598700D01*
X163957000Y-104598700D02*
X163114700Y-105441000D01*
X163114700Y-105441000D02*
X162216500Y-105441000D01*
X162216500Y-105441000D02*
X161463900Y-104688400D01*
X161463900Y-104688400D02*
X161463900Y-96623300D01*
X161463900Y-96623300D02*
X156337000Y-91496400D01*
X156337000Y-91496400D02*
X156337000Y-87236500D01*
X156337000Y-87236500D02*
X136618700Y-67518200D01*
X136618700Y-67518200D02*
X136618700Y-58177300D01*
X136618700Y-58177300D02*
X132829500Y-54388100D01*
X132829500Y-54388100D02*
X132829500Y-47360700D01*
X132829500Y-47360700D02*
X131968400Y-46499600D01*
X131968400Y-46499600D02*
X122631900Y-46499600D01*
X122631900Y-46499600D02*
X120349400Y-48782100D01*
X120349400Y-48782100D02*
X117396300Y-48782100D01*
X117396300Y-48782100D02*
X100145000Y-31530800D01*
X100145000Y-31530800D02*
X96739200Y-31530800D01*
X96739200Y-31530800D02*
X92710000Y-35560000D01*
G04 #@! TO.N,COL2*
X172847000Y-104267000D02*
X173975600Y-103138400D01*
X173975600Y-103138400D02*
X173975600Y-71233600D01*
X173975600Y-71233600D02*
X170580400Y-67838400D01*
X170580400Y-67838400D02*
X170580400Y-39630800D01*
X170580400Y-39630800D02*
X168656000Y-37706400D01*
X168656000Y-37706400D02*
X168656000Y-35560000D01*
G04 #@! TO.N,COL3*
X175387000Y-104267000D02*
X176512400Y-103141600D01*
X176512400Y-103141600D02*
X176512400Y-73197000D01*
X176512400Y-73197000D02*
X188868400Y-60841000D01*
X188868400Y-60841000D02*
X188868400Y-36722400D01*
X188868400Y-36722400D02*
X187706000Y-35560000D01*
G04 #@! TO.N,COL4*
X177927000Y-104267000D02*
X179076100Y-103117900D01*
X179076100Y-103117900D02*
X179076100Y-83507800D01*
X179076100Y-83507800D02*
X178680200Y-83111900D01*
G04 #@! TO.N,COL5*
X180467000Y-104267000D02*
X179338400Y-105395600D01*
X179338400Y-105395600D02*
X172328700Y-105395600D01*
X172328700Y-105395600D02*
X171577000Y-104643900D01*
X171577000Y-104643900D02*
X171577000Y-103945500D01*
X171577000Y-103945500D02*
X169043000Y-101411500D01*
X169043000Y-101411500D02*
X165483200Y-101411500D01*
X165483200Y-101411500D02*
X163630900Y-99559200D01*
X163630900Y-99559200D02*
X163630900Y-95852100D01*
X163630900Y-95852100D02*
X166352400Y-93130600D01*
X166352400Y-93130600D02*
X166352400Y-81891600D01*
X166352400Y-81891600D02*
X155668700Y-71207900D01*
X155668700Y-71207900D02*
X155668700Y-56100700D01*
X155668700Y-56100700D02*
X154178000Y-54610000D01*
X135128000Y-54610000D02*
X139150200Y-50587800D01*
X139150200Y-50587800D02*
X150155800Y-50587800D01*
X150155800Y-50587800D02*
X154178000Y-54610000D01*
G04 #@! TO.N,COL6*
X192278000Y-54610000D02*
X192278000Y-60847900D01*
X192278000Y-60847900D02*
X186214400Y-66911500D01*
X186214400Y-66911500D02*
X186214400Y-73109400D01*
X186214400Y-73109400D02*
X184345800Y-74978000D01*
X184345800Y-74978000D02*
X184345800Y-80056300D01*
X184345800Y-80056300D02*
X185547000Y-81257500D01*
X185547000Y-81257500D02*
X185547000Y-89027000D01*
G04 #@! TO.N,COL7*
X230378000Y-54610000D02*
X230378000Y-57581600D01*
X230378000Y-57581600D02*
X219355500Y-68604100D01*
X219355500Y-68604100D02*
X208592300Y-68604100D01*
X208592300Y-68604100D02*
X205264400Y-71932000D01*
X205264400Y-71932000D02*
X205264400Y-73132100D01*
X205264400Y-73132100D02*
X188244100Y-90152400D01*
X188244100Y-90152400D02*
X184132400Y-90152400D01*
X184132400Y-90152400D02*
X183007000Y-89027000D01*
G04 #@! TO.N,COL9*
X177927000Y-89027000D02*
X177927000Y-82389000D01*
X177927000Y-82389000D02*
X182880000Y-77436000D01*
X182880000Y-77436000D02*
X182880000Y-73533000D01*
G04 #@! TO.N,COL11*
X90170000Y-92583000D02*
X64135000Y-92583000D01*
X172847000Y-89027000D02*
X172847000Y-93205100D01*
X172847000Y-93205100D02*
X167119100Y-98933000D01*
X167119100Y-98933000D02*
X165100000Y-98933000D01*
G04 #@! TD*
M02*
