G04 #@! TF.GenerationSoftware,KiCad,Pcbnew,(5.0.1-3-g963ef8bb5)*
G04 #@! TF.CreationDate,2018-12-22T23:57:11-08:00*
G04 #@! TF.ProjectId,snackymini-keyboard,736E61636B796D696E692D6B6579626F,rev?*
G04 #@! TF.SameCoordinates,Original*
G04 #@! TF.FileFunction,Soldermask,Bot*
G04 #@! TF.FilePolarity,Negative*
%FSLAX46Y46*%
G04 Gerber Fmt 4.6, Leading zero omitted, Abs format (unit mm)*
G04 Created by KiCad (PCBNEW (5.0.1-3-g963ef8bb5)) date Saturday, December 22, 2018 at 11:57:11 PM*
%MOMM*%
%LPD*%
G01*
G04 APERTURE LIST*
%ADD10C,0.100000*%
G04 APERTURE END LIST*
D10*
G36*
X318473228Y-128594703D02*
X318628100Y-128658853D01*
X318767481Y-128751985D01*
X318886015Y-128870519D01*
X318979147Y-129009900D01*
X319043297Y-129164772D01*
X319076000Y-129329184D01*
X319076000Y-129496816D01*
X319043297Y-129661228D01*
X318979147Y-129816100D01*
X318886015Y-129955481D01*
X318767481Y-130074015D01*
X318628100Y-130167147D01*
X318473228Y-130231297D01*
X318308816Y-130264000D01*
X318141184Y-130264000D01*
X317976772Y-130231297D01*
X317821900Y-130167147D01*
X317682519Y-130074015D01*
X317563985Y-129955481D01*
X317470853Y-129816100D01*
X317406703Y-129661228D01*
X317374000Y-129496816D01*
X317374000Y-129329184D01*
X317406703Y-129164772D01*
X317470853Y-129009900D01*
X317563985Y-128870519D01*
X317682519Y-128751985D01*
X317821900Y-128658853D01*
X317976772Y-128594703D01*
X318141184Y-128562000D01*
X318308816Y-128562000D01*
X318473228Y-128594703D01*
X318473228Y-128594703D01*
G37*
G36*
X311276000Y-130264000D02*
X309574000Y-130264000D01*
X309574000Y-128562000D01*
X311276000Y-128562000D01*
X311276000Y-130264000D01*
X311276000Y-130264000D01*
G37*
G36*
X280373228Y-128594703D02*
X280528100Y-128658853D01*
X280667481Y-128751985D01*
X280786015Y-128870519D01*
X280879147Y-129009900D01*
X280943297Y-129164772D01*
X280976000Y-129329184D01*
X280976000Y-129496816D01*
X280943297Y-129661228D01*
X280879147Y-129816100D01*
X280786015Y-129955481D01*
X280667481Y-130074015D01*
X280528100Y-130167147D01*
X280373228Y-130231297D01*
X280208816Y-130264000D01*
X280041184Y-130264000D01*
X279876772Y-130231297D01*
X279721900Y-130167147D01*
X279582519Y-130074015D01*
X279463985Y-129955481D01*
X279370853Y-129816100D01*
X279306703Y-129661228D01*
X279274000Y-129496816D01*
X279274000Y-129329184D01*
X279306703Y-129164772D01*
X279370853Y-129009900D01*
X279463985Y-128870519D01*
X279582519Y-128751985D01*
X279721900Y-128658853D01*
X279876772Y-128594703D01*
X280041184Y-128562000D01*
X280208816Y-128562000D01*
X280373228Y-128594703D01*
X280373228Y-128594703D01*
G37*
G36*
X273176000Y-130264000D02*
X271474000Y-130264000D01*
X271474000Y-128562000D01*
X273176000Y-128562000D01*
X273176000Y-130264000D01*
X273176000Y-130264000D01*
G37*
G36*
X256243228Y-128594703D02*
X256398100Y-128658853D01*
X256537481Y-128751985D01*
X256656015Y-128870519D01*
X256749147Y-129009900D01*
X256813297Y-129164772D01*
X256846000Y-129329184D01*
X256846000Y-129496816D01*
X256813297Y-129661228D01*
X256749147Y-129816100D01*
X256656015Y-129955481D01*
X256537481Y-130074015D01*
X256398100Y-130167147D01*
X256243228Y-130231297D01*
X256078816Y-130264000D01*
X255911184Y-130264000D01*
X255746772Y-130231297D01*
X255591900Y-130167147D01*
X255452519Y-130074015D01*
X255333985Y-129955481D01*
X255240853Y-129816100D01*
X255176703Y-129661228D01*
X255144000Y-129496816D01*
X255144000Y-129329184D01*
X255176703Y-129164772D01*
X255240853Y-129009900D01*
X255333985Y-128870519D01*
X255452519Y-128751985D01*
X255591900Y-128658853D01*
X255746772Y-128594703D01*
X255911184Y-128562000D01*
X256078816Y-128562000D01*
X256243228Y-128594703D01*
X256243228Y-128594703D01*
G37*
G36*
X249046000Y-130264000D02*
X247344000Y-130264000D01*
X247344000Y-128562000D01*
X249046000Y-128562000D01*
X249046000Y-130264000D01*
X249046000Y-130264000D01*
G37*
G36*
X149436228Y-128594703D02*
X149591100Y-128658853D01*
X149730481Y-128751985D01*
X149849015Y-128870519D01*
X149942147Y-129009900D01*
X150006297Y-129164772D01*
X150039000Y-129329184D01*
X150039000Y-129496816D01*
X150006297Y-129661228D01*
X149942147Y-129816100D01*
X149849015Y-129955481D01*
X149730481Y-130074015D01*
X149591100Y-130167147D01*
X149436228Y-130231297D01*
X149271816Y-130264000D01*
X149104184Y-130264000D01*
X148939772Y-130231297D01*
X148784900Y-130167147D01*
X148645519Y-130074015D01*
X148526985Y-129955481D01*
X148433853Y-129816100D01*
X148369703Y-129661228D01*
X148337000Y-129496816D01*
X148337000Y-129329184D01*
X148369703Y-129164772D01*
X148433853Y-129009900D01*
X148526985Y-128870519D01*
X148645519Y-128751985D01*
X148784900Y-128658853D01*
X148939772Y-128594703D01*
X149104184Y-128562000D01*
X149271816Y-128562000D01*
X149436228Y-128594703D01*
X149436228Y-128594703D01*
G37*
G36*
X142239000Y-130264000D02*
X140537000Y-130264000D01*
X140537000Y-128562000D01*
X142239000Y-128562000D01*
X142239000Y-130264000D01*
X142239000Y-130264000D01*
G37*
G36*
X291972000Y-130137000D02*
X290270000Y-130137000D01*
X290270000Y-128435000D01*
X291972000Y-128435000D01*
X291972000Y-130137000D01*
X291972000Y-130137000D01*
G37*
G36*
X299169228Y-128467703D02*
X299324100Y-128531853D01*
X299463481Y-128624985D01*
X299582015Y-128743519D01*
X299675147Y-128882900D01*
X299739297Y-129037772D01*
X299772000Y-129202184D01*
X299772000Y-129369816D01*
X299739297Y-129534228D01*
X299675147Y-129689100D01*
X299582015Y-129828481D01*
X299463481Y-129947015D01*
X299324100Y-130040147D01*
X299169228Y-130104297D01*
X299004816Y-130137000D01*
X298837184Y-130137000D01*
X298672772Y-130104297D01*
X298517900Y-130040147D01*
X298378519Y-129947015D01*
X298259985Y-129828481D01*
X298166853Y-129689100D01*
X298102703Y-129534228D01*
X298070000Y-129369816D01*
X298070000Y-129202184D01*
X298102703Y-129037772D01*
X298166853Y-128882900D01*
X298259985Y-128743519D01*
X298378519Y-128624985D01*
X298517900Y-128531853D01*
X298672772Y-128467703D01*
X298837184Y-128435000D01*
X299004816Y-128435000D01*
X299169228Y-128467703D01*
X299169228Y-128467703D01*
G37*
G36*
X116077000Y-129883000D02*
X114375000Y-129883000D01*
X114375000Y-128181000D01*
X116077000Y-128181000D01*
X116077000Y-129883000D01*
X116077000Y-129883000D01*
G37*
G36*
X123274228Y-128213703D02*
X123429100Y-128277853D01*
X123568481Y-128370985D01*
X123687015Y-128489519D01*
X123780147Y-128628900D01*
X123844297Y-128783772D01*
X123877000Y-128948184D01*
X123877000Y-129115816D01*
X123844297Y-129280228D01*
X123780147Y-129435100D01*
X123687015Y-129574481D01*
X123568481Y-129693015D01*
X123429100Y-129786147D01*
X123274228Y-129850297D01*
X123109816Y-129883000D01*
X122942184Y-129883000D01*
X122777772Y-129850297D01*
X122622900Y-129786147D01*
X122483519Y-129693015D01*
X122364985Y-129574481D01*
X122271853Y-129435100D01*
X122207703Y-129280228D01*
X122175000Y-129115816D01*
X122175000Y-128948184D01*
X122207703Y-128783772D01*
X122271853Y-128628900D01*
X122364985Y-128489519D01*
X122483519Y-128370985D01*
X122622900Y-128277853D01*
X122777772Y-128213703D01*
X122942184Y-128181000D01*
X123109816Y-128181000D01*
X123274228Y-128213703D01*
X123274228Y-128213703D01*
G37*
G36*
X90169000Y-129756000D02*
X88467000Y-129756000D01*
X88467000Y-128054000D01*
X90169000Y-128054000D01*
X90169000Y-129756000D01*
X90169000Y-129756000D01*
G37*
G36*
X97366228Y-128086703D02*
X97521100Y-128150853D01*
X97660481Y-128243985D01*
X97779015Y-128362519D01*
X97872147Y-128501900D01*
X97936297Y-128656772D01*
X97969000Y-128821184D01*
X97969000Y-128988816D01*
X97936297Y-129153228D01*
X97872147Y-129308100D01*
X97779015Y-129447481D01*
X97660481Y-129566015D01*
X97521100Y-129659147D01*
X97366228Y-129723297D01*
X97201816Y-129756000D01*
X97034184Y-129756000D01*
X96869772Y-129723297D01*
X96714900Y-129659147D01*
X96575519Y-129566015D01*
X96456985Y-129447481D01*
X96363853Y-129308100D01*
X96299703Y-129153228D01*
X96267000Y-128988816D01*
X96267000Y-128821184D01*
X96299703Y-128656772D01*
X96363853Y-128501900D01*
X96456985Y-128362519D01*
X96575519Y-128243985D01*
X96714900Y-128150853D01*
X96869772Y-128086703D01*
X97034184Y-128054000D01*
X97201816Y-128054000D01*
X97366228Y-128086703D01*
X97366228Y-128086703D01*
G37*
G36*
X232409000Y-119088000D02*
X230707000Y-119088000D01*
X230707000Y-117386000D01*
X232409000Y-117386000D01*
X232409000Y-119088000D01*
X232409000Y-119088000D01*
G37*
G36*
X239606228Y-117418703D02*
X239761100Y-117482853D01*
X239900481Y-117575985D01*
X240019015Y-117694519D01*
X240112147Y-117833900D01*
X240176297Y-117988772D01*
X240209000Y-118153184D01*
X240209000Y-118320816D01*
X240176297Y-118485228D01*
X240112147Y-118640100D01*
X240019015Y-118779481D01*
X239900481Y-118898015D01*
X239761100Y-118991147D01*
X239606228Y-119055297D01*
X239441816Y-119088000D01*
X239274184Y-119088000D01*
X239109772Y-119055297D01*
X238954900Y-118991147D01*
X238815519Y-118898015D01*
X238696985Y-118779481D01*
X238603853Y-118640100D01*
X238539703Y-118485228D01*
X238507000Y-118320816D01*
X238507000Y-118153184D01*
X238539703Y-117988772D01*
X238603853Y-117833900D01*
X238696985Y-117694519D01*
X238815519Y-117575985D01*
X238954900Y-117482853D01*
X239109772Y-117418703D01*
X239274184Y-117386000D01*
X239441816Y-117386000D01*
X239606228Y-117418703D01*
X239606228Y-117418703D01*
G37*
G36*
X165946228Y-116910703D02*
X166101100Y-116974853D01*
X166240481Y-117067985D01*
X166359015Y-117186519D01*
X166452147Y-117325900D01*
X166516297Y-117480772D01*
X166549000Y-117645184D01*
X166549000Y-117812816D01*
X166516297Y-117977228D01*
X166452147Y-118132100D01*
X166359015Y-118271481D01*
X166240481Y-118390015D01*
X166101100Y-118483147D01*
X165946228Y-118547297D01*
X165781816Y-118580000D01*
X165614184Y-118580000D01*
X165449772Y-118547297D01*
X165294900Y-118483147D01*
X165155519Y-118390015D01*
X165036985Y-118271481D01*
X164943853Y-118132100D01*
X164879703Y-117977228D01*
X164847000Y-117812816D01*
X164847000Y-117645184D01*
X164879703Y-117480772D01*
X164943853Y-117325900D01*
X165036985Y-117186519D01*
X165155519Y-117067985D01*
X165294900Y-116974853D01*
X165449772Y-116910703D01*
X165614184Y-116878000D01*
X165781816Y-116878000D01*
X165946228Y-116910703D01*
X165946228Y-116910703D01*
G37*
G36*
X158749000Y-118580000D02*
X157047000Y-118580000D01*
X157047000Y-116878000D01*
X158749000Y-116878000D01*
X158749000Y-118580000D01*
X158749000Y-118580000D01*
G37*
G36*
X310228277Y-116199885D02*
X310445572Y-116289891D01*
X310641131Y-116420560D01*
X310807440Y-116586869D01*
X310938109Y-116782428D01*
X311028115Y-116999723D01*
X311074000Y-117230401D01*
X311074000Y-117465599D01*
X311028115Y-117696277D01*
X310938109Y-117913572D01*
X310807440Y-118109131D01*
X310641131Y-118275440D01*
X310445572Y-118406109D01*
X310259587Y-118483146D01*
X310228277Y-118496115D01*
X309997599Y-118542000D01*
X309762401Y-118542000D01*
X309531723Y-118496115D01*
X309500413Y-118483146D01*
X309314428Y-118406109D01*
X309118869Y-118275440D01*
X308952560Y-118109131D01*
X308821891Y-117913572D01*
X308731885Y-117696277D01*
X308686000Y-117465599D01*
X308686000Y-117230401D01*
X308731885Y-116999723D01*
X308821891Y-116782428D01*
X308952560Y-116586869D01*
X309118869Y-116420560D01*
X309314428Y-116289891D01*
X309531723Y-116199885D01*
X309762401Y-116154000D01*
X309997599Y-116154000D01*
X310228277Y-116199885D01*
X310228277Y-116199885D01*
G37*
G36*
X291305277Y-116199885D02*
X291522572Y-116289891D01*
X291718131Y-116420560D01*
X291884440Y-116586869D01*
X292015109Y-116782428D01*
X292105115Y-116999723D01*
X292151000Y-117230401D01*
X292151000Y-117465599D01*
X292105115Y-117696277D01*
X292015109Y-117913572D01*
X291884440Y-118109131D01*
X291718131Y-118275440D01*
X291522572Y-118406109D01*
X291336587Y-118483146D01*
X291305277Y-118496115D01*
X291074599Y-118542000D01*
X290839401Y-118542000D01*
X290608723Y-118496115D01*
X290577413Y-118483146D01*
X290391428Y-118406109D01*
X290195869Y-118275440D01*
X290029560Y-118109131D01*
X289898891Y-117913572D01*
X289808885Y-117696277D01*
X289763000Y-117465599D01*
X289763000Y-117230401D01*
X289808885Y-116999723D01*
X289898891Y-116782428D01*
X290029560Y-116586869D01*
X290195869Y-116420560D01*
X290391428Y-116289891D01*
X290608723Y-116199885D01*
X290839401Y-116154000D01*
X291074599Y-116154000D01*
X291305277Y-116199885D01*
X291305277Y-116199885D01*
G37*
G36*
X272255277Y-116199885D02*
X272472572Y-116289891D01*
X272668131Y-116420560D01*
X272834440Y-116586869D01*
X272965109Y-116782428D01*
X273055115Y-116999723D01*
X273101000Y-117230401D01*
X273101000Y-117465599D01*
X273055115Y-117696277D01*
X272965109Y-117913572D01*
X272834440Y-118109131D01*
X272668131Y-118275440D01*
X272472572Y-118406109D01*
X272286587Y-118483146D01*
X272255277Y-118496115D01*
X272024599Y-118542000D01*
X271789401Y-118542000D01*
X271558723Y-118496115D01*
X271527413Y-118483146D01*
X271341428Y-118406109D01*
X271145869Y-118275440D01*
X270979560Y-118109131D01*
X270848891Y-117913572D01*
X270758885Y-117696277D01*
X270713000Y-117465599D01*
X270713000Y-117230401D01*
X270758885Y-116999723D01*
X270848891Y-116782428D01*
X270979560Y-116586869D01*
X271145869Y-116420560D01*
X271341428Y-116289891D01*
X271558723Y-116199885D01*
X271789401Y-116154000D01*
X272024599Y-116154000D01*
X272255277Y-116199885D01*
X272255277Y-116199885D01*
G37*
G36*
X115537277Y-116199885D02*
X115754572Y-116289891D01*
X115950131Y-116420560D01*
X116116440Y-116586869D01*
X116247109Y-116782428D01*
X116337115Y-116999723D01*
X116383000Y-117230401D01*
X116383000Y-117465599D01*
X116337115Y-117696277D01*
X116247109Y-117913572D01*
X116116440Y-118109131D01*
X115950131Y-118275440D01*
X115754572Y-118406109D01*
X115537277Y-118496115D01*
X115306599Y-118542000D01*
X115071401Y-118542000D01*
X114840723Y-118496115D01*
X114623428Y-118406109D01*
X114427869Y-118275440D01*
X114261560Y-118109131D01*
X114130891Y-117913572D01*
X114040885Y-117696277D01*
X113995000Y-117465599D01*
X113995000Y-117230401D01*
X114040885Y-116999723D01*
X114130891Y-116782428D01*
X114261560Y-116586869D01*
X114427869Y-116420560D01*
X114623428Y-116289891D01*
X114840723Y-116199885D01*
X115071401Y-116154000D01*
X115306599Y-116154000D01*
X115537277Y-116199885D01*
X115537277Y-116199885D01*
G37*
G36*
X141572277Y-116199885D02*
X141789572Y-116289891D01*
X141985131Y-116420560D01*
X142151440Y-116586869D01*
X142282109Y-116782428D01*
X142372115Y-116999723D01*
X142418000Y-117230401D01*
X142418000Y-117465599D01*
X142372115Y-117696277D01*
X142282109Y-117913572D01*
X142151440Y-118109131D01*
X141985131Y-118275440D01*
X141789572Y-118406109D01*
X141572277Y-118496115D01*
X141341599Y-118542000D01*
X141106401Y-118542000D01*
X140875723Y-118496115D01*
X140658428Y-118406109D01*
X140462869Y-118275440D01*
X140296560Y-118109131D01*
X140165891Y-117913572D01*
X140075885Y-117696277D01*
X140030000Y-117465599D01*
X140030000Y-117230401D01*
X140075885Y-116999723D01*
X140165891Y-116782428D01*
X140296560Y-116586869D01*
X140462869Y-116420560D01*
X140658428Y-116289891D01*
X140875723Y-116199885D01*
X141106401Y-116154000D01*
X141341599Y-116154000D01*
X141572277Y-116199885D01*
X141572277Y-116199885D01*
G37*
G36*
X248506277Y-116199885D02*
X248723572Y-116289891D01*
X248919131Y-116420560D01*
X249085440Y-116586869D01*
X249216109Y-116782428D01*
X249306115Y-116999723D01*
X249352000Y-117230401D01*
X249352000Y-117465599D01*
X249306115Y-117696277D01*
X249216109Y-117913572D01*
X249085440Y-118109131D01*
X248919131Y-118275440D01*
X248723572Y-118406109D01*
X248537587Y-118483146D01*
X248506277Y-118496115D01*
X248275599Y-118542000D01*
X248040401Y-118542000D01*
X247809723Y-118496115D01*
X247778413Y-118483146D01*
X247592428Y-118406109D01*
X247396869Y-118275440D01*
X247230560Y-118109131D01*
X247099891Y-117913572D01*
X247009885Y-117696277D01*
X246964000Y-117465599D01*
X246964000Y-117230401D01*
X247009885Y-116999723D01*
X247099891Y-116782428D01*
X247230560Y-116586869D01*
X247396869Y-116420560D01*
X247592428Y-116289891D01*
X247809723Y-116199885D01*
X248040401Y-116154000D01*
X248275599Y-116154000D01*
X248506277Y-116199885D01*
X248506277Y-116199885D01*
G37*
G36*
X215232277Y-116199885D02*
X215449572Y-116289891D01*
X215645131Y-116420560D01*
X215811440Y-116586869D01*
X215942109Y-116782428D01*
X216032115Y-116999723D01*
X216078000Y-117230401D01*
X216078000Y-117465599D01*
X216032115Y-117696277D01*
X215942109Y-117913572D01*
X215811440Y-118109131D01*
X215645131Y-118275440D01*
X215449572Y-118406109D01*
X215263587Y-118483146D01*
X215232277Y-118496115D01*
X215001599Y-118542000D01*
X214766401Y-118542000D01*
X214535723Y-118496115D01*
X214504413Y-118483146D01*
X214318428Y-118406109D01*
X214122869Y-118275440D01*
X213956560Y-118109131D01*
X213825891Y-117913572D01*
X213735885Y-117696277D01*
X213690000Y-117465599D01*
X213690000Y-117230401D01*
X213735885Y-116999723D01*
X213825891Y-116782428D01*
X213956560Y-116586869D01*
X214122869Y-116420560D01*
X214318428Y-116289891D01*
X214535723Y-116199885D01*
X214766401Y-116154000D01*
X215001599Y-116154000D01*
X215232277Y-116199885D01*
X215232277Y-116199885D01*
G37*
G36*
X174846277Y-116199885D02*
X175063572Y-116289891D01*
X175259131Y-116420560D01*
X175425440Y-116586869D01*
X175556109Y-116782428D01*
X175646115Y-116999723D01*
X175692000Y-117230401D01*
X175692000Y-117465599D01*
X175646115Y-117696277D01*
X175556109Y-117913572D01*
X175425440Y-118109131D01*
X175259131Y-118275440D01*
X175063572Y-118406109D01*
X174846277Y-118496115D01*
X174615599Y-118542000D01*
X174380401Y-118542000D01*
X174149723Y-118496115D01*
X173932428Y-118406109D01*
X173736869Y-118275440D01*
X173570560Y-118109131D01*
X173439891Y-117913572D01*
X173349885Y-117696277D01*
X173304000Y-117465599D01*
X173304000Y-117230401D01*
X173349885Y-116999723D01*
X173439891Y-116782428D01*
X173570560Y-116586869D01*
X173736869Y-116420560D01*
X173932428Y-116289891D01*
X174149723Y-116199885D01*
X174380401Y-116154000D01*
X174615599Y-116154000D01*
X174846277Y-116199885D01*
X174846277Y-116199885D01*
G37*
G36*
X89375277Y-116072885D02*
X89592572Y-116162891D01*
X89788131Y-116293560D01*
X89954440Y-116459869D01*
X90085109Y-116655428D01*
X90175115Y-116872723D01*
X90221000Y-117103401D01*
X90221000Y-117338599D01*
X90175115Y-117569277D01*
X90085109Y-117786572D01*
X89954440Y-117982131D01*
X89788131Y-118148440D01*
X89592572Y-118279109D01*
X89375277Y-118369115D01*
X89144599Y-118415000D01*
X88909401Y-118415000D01*
X88678723Y-118369115D01*
X88461428Y-118279109D01*
X88265869Y-118148440D01*
X88099560Y-117982131D01*
X87968891Y-117786572D01*
X87878885Y-117569277D01*
X87833000Y-117338599D01*
X87833000Y-117103401D01*
X87878885Y-116872723D01*
X87968891Y-116655428D01*
X88099560Y-116459869D01*
X88265869Y-116293560D01*
X88461428Y-116162891D01*
X88678723Y-116072885D01*
X88909401Y-116027000D01*
X89144599Y-116027000D01*
X89375277Y-116072885D01*
X89375277Y-116072885D01*
G37*
G36*
X316578277Y-113659885D02*
X316795572Y-113749891D01*
X316991131Y-113880560D01*
X317157440Y-114046869D01*
X317288109Y-114242428D01*
X317378115Y-114459723D01*
X317424000Y-114690401D01*
X317424000Y-114925599D01*
X317378115Y-115156277D01*
X317288109Y-115373572D01*
X317157440Y-115569131D01*
X316991131Y-115735440D01*
X316795572Y-115866109D01*
X316578277Y-115956115D01*
X316347599Y-116002000D01*
X316112401Y-116002000D01*
X315881723Y-115956115D01*
X315664428Y-115866109D01*
X315468869Y-115735440D01*
X315302560Y-115569131D01*
X315171891Y-115373572D01*
X315081885Y-115156277D01*
X315036000Y-114925599D01*
X315036000Y-114690401D01*
X315081885Y-114459723D01*
X315171891Y-114242428D01*
X315302560Y-114046869D01*
X315468869Y-113880560D01*
X315664428Y-113749891D01*
X315881723Y-113659885D01*
X316112401Y-113614000D01*
X316347599Y-113614000D01*
X316578277Y-113659885D01*
X316578277Y-113659885D01*
G37*
G36*
X121887277Y-113659885D02*
X122104572Y-113749891D01*
X122300131Y-113880560D01*
X122466440Y-114046869D01*
X122597109Y-114242428D01*
X122687115Y-114459723D01*
X122733000Y-114690401D01*
X122733000Y-114925599D01*
X122687115Y-115156277D01*
X122597109Y-115373572D01*
X122466440Y-115569131D01*
X122300131Y-115735440D01*
X122104572Y-115866109D01*
X121887277Y-115956115D01*
X121656599Y-116002000D01*
X121421401Y-116002000D01*
X121190723Y-115956115D01*
X120973428Y-115866109D01*
X120777869Y-115735440D01*
X120611560Y-115569131D01*
X120480891Y-115373572D01*
X120390885Y-115156277D01*
X120345000Y-114925599D01*
X120345000Y-114690401D01*
X120390885Y-114459723D01*
X120480891Y-114242428D01*
X120611560Y-114046869D01*
X120777869Y-113880560D01*
X120973428Y-113749891D01*
X121190723Y-113659885D01*
X121421401Y-113614000D01*
X121656599Y-113614000D01*
X121887277Y-113659885D01*
X121887277Y-113659885D01*
G37*
G36*
X147922277Y-113659885D02*
X148139572Y-113749891D01*
X148335131Y-113880560D01*
X148501440Y-114046869D01*
X148632109Y-114242428D01*
X148722115Y-114459723D01*
X148768000Y-114690401D01*
X148768000Y-114925599D01*
X148722115Y-115156277D01*
X148632109Y-115373572D01*
X148501440Y-115569131D01*
X148335131Y-115735440D01*
X148139572Y-115866109D01*
X147922277Y-115956115D01*
X147691599Y-116002000D01*
X147456401Y-116002000D01*
X147225723Y-115956115D01*
X147008428Y-115866109D01*
X146812869Y-115735440D01*
X146646560Y-115569131D01*
X146515891Y-115373572D01*
X146425885Y-115156277D01*
X146380000Y-114925599D01*
X146380000Y-114690401D01*
X146425885Y-114459723D01*
X146515891Y-114242428D01*
X146646560Y-114046869D01*
X146812869Y-113880560D01*
X147008428Y-113749891D01*
X147225723Y-113659885D01*
X147456401Y-113614000D01*
X147691599Y-113614000D01*
X147922277Y-113659885D01*
X147922277Y-113659885D01*
G37*
G36*
X181196277Y-113659885D02*
X181413572Y-113749891D01*
X181609131Y-113880560D01*
X181775440Y-114046869D01*
X181906109Y-114242428D01*
X181996115Y-114459723D01*
X182042000Y-114690401D01*
X182042000Y-114925599D01*
X181996115Y-115156277D01*
X181906109Y-115373572D01*
X181775440Y-115569131D01*
X181609131Y-115735440D01*
X181413572Y-115866109D01*
X181196277Y-115956115D01*
X180965599Y-116002000D01*
X180730401Y-116002000D01*
X180499723Y-115956115D01*
X180282428Y-115866109D01*
X180086869Y-115735440D01*
X179920560Y-115569131D01*
X179789891Y-115373572D01*
X179699885Y-115156277D01*
X179654000Y-114925599D01*
X179654000Y-114690401D01*
X179699885Y-114459723D01*
X179789891Y-114242428D01*
X179920560Y-114046869D01*
X180086869Y-113880560D01*
X180282428Y-113749891D01*
X180499723Y-113659885D01*
X180730401Y-113614000D01*
X180965599Y-113614000D01*
X181196277Y-113659885D01*
X181196277Y-113659885D01*
G37*
G36*
X221582277Y-113659885D02*
X221799572Y-113749891D01*
X221995131Y-113880560D01*
X222161440Y-114046869D01*
X222292109Y-114242428D01*
X222382115Y-114459723D01*
X222428000Y-114690401D01*
X222428000Y-114925599D01*
X222382115Y-115156277D01*
X222292109Y-115373572D01*
X222161440Y-115569131D01*
X221995131Y-115735440D01*
X221799572Y-115866109D01*
X221582277Y-115956115D01*
X221351599Y-116002000D01*
X221116401Y-116002000D01*
X220885723Y-115956115D01*
X220668428Y-115866109D01*
X220472869Y-115735440D01*
X220306560Y-115569131D01*
X220175891Y-115373572D01*
X220085885Y-115156277D01*
X220040000Y-114925599D01*
X220040000Y-114690401D01*
X220085885Y-114459723D01*
X220175891Y-114242428D01*
X220306560Y-114046869D01*
X220472869Y-113880560D01*
X220668428Y-113749891D01*
X220885723Y-113659885D01*
X221116401Y-113614000D01*
X221351599Y-113614000D01*
X221582277Y-113659885D01*
X221582277Y-113659885D01*
G37*
G36*
X254856277Y-113659885D02*
X255073572Y-113749891D01*
X255269131Y-113880560D01*
X255435440Y-114046869D01*
X255566109Y-114242428D01*
X255656115Y-114459723D01*
X255702000Y-114690401D01*
X255702000Y-114925599D01*
X255656115Y-115156277D01*
X255566109Y-115373572D01*
X255435440Y-115569131D01*
X255269131Y-115735440D01*
X255073572Y-115866109D01*
X254856277Y-115956115D01*
X254625599Y-116002000D01*
X254390401Y-116002000D01*
X254159723Y-115956115D01*
X253942428Y-115866109D01*
X253746869Y-115735440D01*
X253580560Y-115569131D01*
X253449891Y-115373572D01*
X253359885Y-115156277D01*
X253314000Y-114925599D01*
X253314000Y-114690401D01*
X253359885Y-114459723D01*
X253449891Y-114242428D01*
X253580560Y-114046869D01*
X253746869Y-113880560D01*
X253942428Y-113749891D01*
X254159723Y-113659885D01*
X254390401Y-113614000D01*
X254625599Y-113614000D01*
X254856277Y-113659885D01*
X254856277Y-113659885D01*
G37*
G36*
X278605277Y-113659885D02*
X278822572Y-113749891D01*
X279018131Y-113880560D01*
X279184440Y-114046869D01*
X279315109Y-114242428D01*
X279405115Y-114459723D01*
X279451000Y-114690401D01*
X279451000Y-114925599D01*
X279405115Y-115156277D01*
X279315109Y-115373572D01*
X279184440Y-115569131D01*
X279018131Y-115735440D01*
X278822572Y-115866109D01*
X278605277Y-115956115D01*
X278374599Y-116002000D01*
X278139401Y-116002000D01*
X277908723Y-115956115D01*
X277691428Y-115866109D01*
X277495869Y-115735440D01*
X277329560Y-115569131D01*
X277198891Y-115373572D01*
X277108885Y-115156277D01*
X277063000Y-114925599D01*
X277063000Y-114690401D01*
X277108885Y-114459723D01*
X277198891Y-114242428D01*
X277329560Y-114046869D01*
X277495869Y-113880560D01*
X277691428Y-113749891D01*
X277908723Y-113659885D01*
X278139401Y-113614000D01*
X278374599Y-113614000D01*
X278605277Y-113659885D01*
X278605277Y-113659885D01*
G37*
G36*
X297655277Y-113659885D02*
X297872572Y-113749891D01*
X298068131Y-113880560D01*
X298234440Y-114046869D01*
X298365109Y-114242428D01*
X298455115Y-114459723D01*
X298501000Y-114690401D01*
X298501000Y-114925599D01*
X298455115Y-115156277D01*
X298365109Y-115373572D01*
X298234440Y-115569131D01*
X298068131Y-115735440D01*
X297872572Y-115866109D01*
X297655277Y-115956115D01*
X297424599Y-116002000D01*
X297189401Y-116002000D01*
X296958723Y-115956115D01*
X296741428Y-115866109D01*
X296545869Y-115735440D01*
X296379560Y-115569131D01*
X296248891Y-115373572D01*
X296158885Y-115156277D01*
X296113000Y-114925599D01*
X296113000Y-114690401D01*
X296158885Y-114459723D01*
X296248891Y-114242428D01*
X296379560Y-114046869D01*
X296545869Y-113880560D01*
X296741428Y-113749891D01*
X296958723Y-113659885D01*
X297189401Y-113614000D01*
X297424599Y-113614000D01*
X297655277Y-113659885D01*
X297655277Y-113659885D01*
G37*
G36*
X95725277Y-113532885D02*
X95942572Y-113622891D01*
X96138131Y-113753560D01*
X96304440Y-113919869D01*
X96435109Y-114115428D01*
X96525115Y-114332723D01*
X96571000Y-114563401D01*
X96571000Y-114798599D01*
X96525115Y-115029277D01*
X96435109Y-115246572D01*
X96304440Y-115442131D01*
X96138131Y-115608440D01*
X95942572Y-115739109D01*
X95725277Y-115829115D01*
X95494599Y-115875000D01*
X95259401Y-115875000D01*
X95028723Y-115829115D01*
X94811428Y-115739109D01*
X94615869Y-115608440D01*
X94449560Y-115442131D01*
X94318891Y-115246572D01*
X94228885Y-115029277D01*
X94183000Y-114798599D01*
X94183000Y-114563401D01*
X94228885Y-114332723D01*
X94318891Y-114115428D01*
X94449560Y-113919869D01*
X94615869Y-113753560D01*
X94811428Y-113622891D01*
X95028723Y-113532885D01*
X95259401Y-113487000D01*
X95494599Y-113487000D01*
X95725277Y-113532885D01*
X95725277Y-113532885D01*
G37*
G36*
X120903000Y-111214000D02*
X119201000Y-111214000D01*
X119201000Y-109512000D01*
X120903000Y-109512000D01*
X120903000Y-111214000D01*
X120903000Y-111214000D01*
G37*
G36*
X128100228Y-109544703D02*
X128255100Y-109608853D01*
X128394481Y-109701985D01*
X128513015Y-109820519D01*
X128606147Y-109959900D01*
X128670297Y-110114772D01*
X128703000Y-110279184D01*
X128703000Y-110446816D01*
X128670297Y-110611228D01*
X128606147Y-110766100D01*
X128513015Y-110905481D01*
X128394481Y-111024015D01*
X128255100Y-111117147D01*
X128100228Y-111181297D01*
X127935816Y-111214000D01*
X127768184Y-111214000D01*
X127603772Y-111181297D01*
X127448900Y-111117147D01*
X127309519Y-111024015D01*
X127190985Y-110905481D01*
X127097853Y-110766100D01*
X127033703Y-110611228D01*
X127001000Y-110446816D01*
X127001000Y-110279184D01*
X127033703Y-110114772D01*
X127097853Y-109959900D01*
X127190985Y-109820519D01*
X127309519Y-109701985D01*
X127448900Y-109608853D01*
X127603772Y-109544703D01*
X127768184Y-109512000D01*
X127935816Y-109512000D01*
X128100228Y-109544703D01*
X128100228Y-109544703D01*
G37*
G36*
X101684228Y-109417703D02*
X101839100Y-109481853D01*
X101978481Y-109574985D01*
X102097015Y-109693519D01*
X102190147Y-109832900D01*
X102254297Y-109987772D01*
X102287000Y-110152184D01*
X102287000Y-110319816D01*
X102254297Y-110484228D01*
X102190147Y-110639100D01*
X102097015Y-110778481D01*
X101978481Y-110897015D01*
X101839100Y-110990147D01*
X101684228Y-111054297D01*
X101519816Y-111087000D01*
X101352184Y-111087000D01*
X101187772Y-111054297D01*
X101032900Y-110990147D01*
X100893519Y-110897015D01*
X100774985Y-110778481D01*
X100681853Y-110639100D01*
X100617703Y-110484228D01*
X100585000Y-110319816D01*
X100585000Y-110152184D01*
X100617703Y-109987772D01*
X100681853Y-109832900D01*
X100774985Y-109693519D01*
X100893519Y-109574985D01*
X101032900Y-109481853D01*
X101187772Y-109417703D01*
X101352184Y-109385000D01*
X101519816Y-109385000D01*
X101684228Y-109417703D01*
X101684228Y-109417703D01*
G37*
G36*
X94487000Y-111087000D02*
X92785000Y-111087000D01*
X92785000Y-109385000D01*
X94487000Y-109385000D01*
X94487000Y-111087000D01*
X94487000Y-111087000D01*
G37*
G36*
X310895000Y-111087000D02*
X309193000Y-111087000D01*
X309193000Y-109385000D01*
X310895000Y-109385000D01*
X310895000Y-111087000D01*
X310895000Y-111087000D01*
G37*
G36*
X292353000Y-111087000D02*
X290651000Y-111087000D01*
X290651000Y-109385000D01*
X292353000Y-109385000D01*
X292353000Y-111087000D01*
X292353000Y-111087000D01*
G37*
G36*
X140080000Y-111087000D02*
X138378000Y-111087000D01*
X138378000Y-109385000D01*
X140080000Y-109385000D01*
X140080000Y-111087000D01*
X140080000Y-111087000D01*
G37*
G36*
X147277228Y-109417703D02*
X147432100Y-109481853D01*
X147571481Y-109574985D01*
X147690015Y-109693519D01*
X147783147Y-109832900D01*
X147847297Y-109987772D01*
X147880000Y-110152184D01*
X147880000Y-110319816D01*
X147847297Y-110484228D01*
X147783147Y-110639100D01*
X147690015Y-110778481D01*
X147571481Y-110897015D01*
X147432100Y-110990147D01*
X147277228Y-111054297D01*
X147112816Y-111087000D01*
X146945184Y-111087000D01*
X146780772Y-111054297D01*
X146625900Y-110990147D01*
X146486519Y-110897015D01*
X146367985Y-110778481D01*
X146274853Y-110639100D01*
X146210703Y-110484228D01*
X146178000Y-110319816D01*
X146178000Y-110152184D01*
X146210703Y-109987772D01*
X146274853Y-109832900D01*
X146367985Y-109693519D01*
X146486519Y-109574985D01*
X146625900Y-109481853D01*
X146780772Y-109417703D01*
X146945184Y-109385000D01*
X147112816Y-109385000D01*
X147277228Y-109417703D01*
X147277228Y-109417703D01*
G37*
G36*
X159257000Y-111087000D02*
X157555000Y-111087000D01*
X157555000Y-109385000D01*
X159257000Y-109385000D01*
X159257000Y-111087000D01*
X159257000Y-111087000D01*
G37*
G36*
X166454228Y-109417703D02*
X166609100Y-109481853D01*
X166748481Y-109574985D01*
X166867015Y-109693519D01*
X166960147Y-109832900D01*
X167024297Y-109987772D01*
X167057000Y-110152184D01*
X167057000Y-110319816D01*
X167024297Y-110484228D01*
X166960147Y-110639100D01*
X166867015Y-110778481D01*
X166748481Y-110897015D01*
X166609100Y-110990147D01*
X166454228Y-111054297D01*
X166289816Y-111087000D01*
X166122184Y-111087000D01*
X165957772Y-111054297D01*
X165802900Y-110990147D01*
X165663519Y-110897015D01*
X165544985Y-110778481D01*
X165451853Y-110639100D01*
X165387703Y-110484228D01*
X165355000Y-110319816D01*
X165355000Y-110152184D01*
X165387703Y-109987772D01*
X165451853Y-109832900D01*
X165544985Y-109693519D01*
X165663519Y-109574985D01*
X165802900Y-109481853D01*
X165957772Y-109417703D01*
X166122184Y-109385000D01*
X166289816Y-109385000D01*
X166454228Y-109417703D01*
X166454228Y-109417703D01*
G37*
G36*
X318092228Y-109417703D02*
X318247100Y-109481853D01*
X318386481Y-109574985D01*
X318505015Y-109693519D01*
X318598147Y-109832900D01*
X318662297Y-109987772D01*
X318695000Y-110152184D01*
X318695000Y-110319816D01*
X318662297Y-110484228D01*
X318598147Y-110639100D01*
X318505015Y-110778481D01*
X318386481Y-110897015D01*
X318247100Y-110990147D01*
X318092228Y-111054297D01*
X317927816Y-111087000D01*
X317760184Y-111087000D01*
X317595772Y-111054297D01*
X317440900Y-110990147D01*
X317301519Y-110897015D01*
X317182985Y-110778481D01*
X317089853Y-110639100D01*
X317025703Y-110484228D01*
X316993000Y-110319816D01*
X316993000Y-110152184D01*
X317025703Y-109987772D01*
X317089853Y-109832900D01*
X317182985Y-109693519D01*
X317301519Y-109574985D01*
X317440900Y-109481853D01*
X317595772Y-109417703D01*
X317760184Y-109385000D01*
X317927816Y-109385000D01*
X318092228Y-109417703D01*
X318092228Y-109417703D01*
G37*
G36*
X299550228Y-109417703D02*
X299705100Y-109481853D01*
X299844481Y-109574985D01*
X299963015Y-109693519D01*
X300056147Y-109832900D01*
X300120297Y-109987772D01*
X300153000Y-110152184D01*
X300153000Y-110319816D01*
X300120297Y-110484228D01*
X300056147Y-110639100D01*
X299963015Y-110778481D01*
X299844481Y-110897015D01*
X299705100Y-110990147D01*
X299550228Y-111054297D01*
X299385816Y-111087000D01*
X299218184Y-111087000D01*
X299053772Y-111054297D01*
X298898900Y-110990147D01*
X298759519Y-110897015D01*
X298640985Y-110778481D01*
X298547853Y-110639100D01*
X298483703Y-110484228D01*
X298451000Y-110319816D01*
X298451000Y-110152184D01*
X298483703Y-109987772D01*
X298547853Y-109832900D01*
X298640985Y-109693519D01*
X298759519Y-109574985D01*
X298898900Y-109481853D01*
X299053772Y-109417703D01*
X299218184Y-109385000D01*
X299385816Y-109385000D01*
X299550228Y-109417703D01*
X299550228Y-109417703D01*
G37*
G36*
X196849000Y-110960000D02*
X195147000Y-110960000D01*
X195147000Y-109258000D01*
X196849000Y-109258000D01*
X196849000Y-110960000D01*
X196849000Y-110960000D01*
G37*
G36*
X204046228Y-109290703D02*
X204201100Y-109354853D01*
X204340481Y-109447985D01*
X204459015Y-109566519D01*
X204552147Y-109705900D01*
X204616297Y-109860772D01*
X204649000Y-110025184D01*
X204649000Y-110192816D01*
X204616297Y-110357228D01*
X204552147Y-110512100D01*
X204459015Y-110651481D01*
X204340481Y-110770015D01*
X204201100Y-110863147D01*
X204046228Y-110927297D01*
X203881816Y-110960000D01*
X203714184Y-110960000D01*
X203549772Y-110927297D01*
X203394900Y-110863147D01*
X203255519Y-110770015D01*
X203136985Y-110651481D01*
X203043853Y-110512100D01*
X202979703Y-110357228D01*
X202947000Y-110192816D01*
X202947000Y-110025184D01*
X202979703Y-109860772D01*
X203043853Y-109705900D01*
X203136985Y-109566519D01*
X203255519Y-109447985D01*
X203394900Y-109354853D01*
X203549772Y-109290703D01*
X203714184Y-109258000D01*
X203881816Y-109258000D01*
X204046228Y-109290703D01*
X204046228Y-109290703D01*
G37*
G36*
X242400228Y-109163703D02*
X242555100Y-109227853D01*
X242694481Y-109320985D01*
X242813015Y-109439519D01*
X242906147Y-109578900D01*
X242970297Y-109733772D01*
X243003000Y-109898184D01*
X243003000Y-110065816D01*
X242970297Y-110230228D01*
X242906147Y-110385100D01*
X242813015Y-110524481D01*
X242694481Y-110643015D01*
X242555100Y-110736147D01*
X242400228Y-110800297D01*
X242235816Y-110833000D01*
X242068184Y-110833000D01*
X241903772Y-110800297D01*
X241748900Y-110736147D01*
X241609519Y-110643015D01*
X241490985Y-110524481D01*
X241397853Y-110385100D01*
X241333703Y-110230228D01*
X241301000Y-110065816D01*
X241301000Y-109898184D01*
X241333703Y-109733772D01*
X241397853Y-109578900D01*
X241490985Y-109439519D01*
X241609519Y-109320985D01*
X241748900Y-109227853D01*
X241903772Y-109163703D01*
X242068184Y-109131000D01*
X242235816Y-109131000D01*
X242400228Y-109163703D01*
X242400228Y-109163703D01*
G37*
G36*
X253618000Y-110833000D02*
X251916000Y-110833000D01*
X251916000Y-109131000D01*
X253618000Y-109131000D01*
X253618000Y-110833000D01*
X253618000Y-110833000D01*
G37*
G36*
X260815228Y-109163703D02*
X260970100Y-109227853D01*
X261109481Y-109320985D01*
X261228015Y-109439519D01*
X261321147Y-109578900D01*
X261385297Y-109733772D01*
X261418000Y-109898184D01*
X261418000Y-110065816D01*
X261385297Y-110230228D01*
X261321147Y-110385100D01*
X261228015Y-110524481D01*
X261109481Y-110643015D01*
X260970100Y-110736147D01*
X260815228Y-110800297D01*
X260650816Y-110833000D01*
X260483184Y-110833000D01*
X260318772Y-110800297D01*
X260163900Y-110736147D01*
X260024519Y-110643015D01*
X259905985Y-110524481D01*
X259812853Y-110385100D01*
X259748703Y-110230228D01*
X259716000Y-110065816D01*
X259716000Y-109898184D01*
X259748703Y-109733772D01*
X259812853Y-109578900D01*
X259905985Y-109439519D01*
X260024519Y-109320985D01*
X260163900Y-109227853D01*
X260318772Y-109163703D01*
X260483184Y-109131000D01*
X260650816Y-109131000D01*
X260815228Y-109163703D01*
X260815228Y-109163703D01*
G37*
G36*
X235203000Y-110833000D02*
X233501000Y-110833000D01*
X233501000Y-109131000D01*
X235203000Y-109131000D01*
X235203000Y-110833000D01*
X235203000Y-110833000D01*
G37*
G36*
X185250228Y-109163703D02*
X185405100Y-109227853D01*
X185544481Y-109320985D01*
X185663015Y-109439519D01*
X185756147Y-109578900D01*
X185820297Y-109733772D01*
X185853000Y-109898184D01*
X185853000Y-110065816D01*
X185820297Y-110230228D01*
X185756147Y-110385100D01*
X185663015Y-110524481D01*
X185544481Y-110643015D01*
X185405100Y-110736147D01*
X185250228Y-110800297D01*
X185085816Y-110833000D01*
X184918184Y-110833000D01*
X184753772Y-110800297D01*
X184598900Y-110736147D01*
X184459519Y-110643015D01*
X184340985Y-110524481D01*
X184247853Y-110385100D01*
X184183703Y-110230228D01*
X184151000Y-110065816D01*
X184151000Y-109898184D01*
X184183703Y-109733772D01*
X184247853Y-109578900D01*
X184340985Y-109439519D01*
X184459519Y-109320985D01*
X184598900Y-109227853D01*
X184753772Y-109163703D01*
X184918184Y-109131000D01*
X185085816Y-109131000D01*
X185250228Y-109163703D01*
X185250228Y-109163703D01*
G37*
G36*
X178053000Y-110833000D02*
X176351000Y-110833000D01*
X176351000Y-109131000D01*
X178053000Y-109131000D01*
X178053000Y-110833000D01*
X178053000Y-110833000D01*
G37*
G36*
X280500228Y-109036703D02*
X280655100Y-109100853D01*
X280794481Y-109193985D01*
X280913015Y-109312519D01*
X281006147Y-109451900D01*
X281070297Y-109606772D01*
X281103000Y-109771184D01*
X281103000Y-109938816D01*
X281070297Y-110103228D01*
X281006147Y-110258100D01*
X280913015Y-110397481D01*
X280794481Y-110516015D01*
X280655100Y-110609147D01*
X280500228Y-110673297D01*
X280335816Y-110706000D01*
X280168184Y-110706000D01*
X280003772Y-110673297D01*
X279848900Y-110609147D01*
X279709519Y-110516015D01*
X279590985Y-110397481D01*
X279497853Y-110258100D01*
X279433703Y-110103228D01*
X279401000Y-109938816D01*
X279401000Y-109771184D01*
X279433703Y-109606772D01*
X279497853Y-109451900D01*
X279590985Y-109312519D01*
X279709519Y-109193985D01*
X279848900Y-109100853D01*
X280003772Y-109036703D01*
X280168184Y-109004000D01*
X280335816Y-109004000D01*
X280500228Y-109036703D01*
X280500228Y-109036703D01*
G37*
G36*
X273303000Y-110706000D02*
X271601000Y-110706000D01*
X271601000Y-109004000D01*
X273303000Y-109004000D01*
X273303000Y-110706000D01*
X273303000Y-110706000D01*
G37*
G36*
X222588228Y-108909703D02*
X222743100Y-108973853D01*
X222882481Y-109066985D01*
X223001015Y-109185519D01*
X223094147Y-109324900D01*
X223158297Y-109479772D01*
X223191000Y-109644184D01*
X223191000Y-109811816D01*
X223158297Y-109976228D01*
X223094147Y-110131100D01*
X223001015Y-110270481D01*
X222882481Y-110389015D01*
X222743100Y-110482147D01*
X222588228Y-110546297D01*
X222423816Y-110579000D01*
X222256184Y-110579000D01*
X222091772Y-110546297D01*
X221936900Y-110482147D01*
X221797519Y-110389015D01*
X221678985Y-110270481D01*
X221585853Y-110131100D01*
X221521703Y-109976228D01*
X221489000Y-109811816D01*
X221489000Y-109644184D01*
X221521703Y-109479772D01*
X221585853Y-109324900D01*
X221678985Y-109185519D01*
X221797519Y-109066985D01*
X221936900Y-108973853D01*
X222091772Y-108909703D01*
X222256184Y-108877000D01*
X222423816Y-108877000D01*
X222588228Y-108909703D01*
X222588228Y-108909703D01*
G37*
G36*
X215391000Y-110579000D02*
X213689000Y-110579000D01*
X213689000Y-108877000D01*
X215391000Y-108877000D01*
X215391000Y-110579000D01*
X215391000Y-110579000D01*
G37*
G36*
X94074277Y-97276885D02*
X94291572Y-97366891D01*
X94487131Y-97497560D01*
X94653440Y-97663869D01*
X94784109Y-97859428D01*
X94874115Y-98076723D01*
X94920000Y-98307401D01*
X94920000Y-98542599D01*
X94874115Y-98773277D01*
X94784109Y-98990572D01*
X94653440Y-99186131D01*
X94487131Y-99352440D01*
X94291572Y-99483109D01*
X94074277Y-99573115D01*
X93843599Y-99619000D01*
X93608401Y-99619000D01*
X93377723Y-99573115D01*
X93160428Y-99483109D01*
X92964869Y-99352440D01*
X92798560Y-99186131D01*
X92667891Y-98990572D01*
X92577885Y-98773277D01*
X92532000Y-98542599D01*
X92532000Y-98307401D01*
X92577885Y-98076723D01*
X92667891Y-97859428D01*
X92798560Y-97663869D01*
X92964869Y-97497560D01*
X93160428Y-97366891D01*
X93377723Y-97276885D01*
X93608401Y-97231000D01*
X93843599Y-97231000D01*
X94074277Y-97276885D01*
X94074277Y-97276885D01*
G37*
G36*
X310228277Y-97149885D02*
X310445572Y-97239891D01*
X310641131Y-97370560D01*
X310807440Y-97536869D01*
X310938109Y-97732428D01*
X311028115Y-97949723D01*
X311074000Y-98180401D01*
X311074000Y-98415599D01*
X311028115Y-98646277D01*
X310938109Y-98863572D01*
X310807440Y-99059131D01*
X310641131Y-99225440D01*
X310445572Y-99356109D01*
X310228277Y-99446115D01*
X309997599Y-99492000D01*
X309762401Y-99492000D01*
X309531723Y-99446115D01*
X309314428Y-99356109D01*
X309118869Y-99225440D01*
X308952560Y-99059131D01*
X308821891Y-98863572D01*
X308731885Y-98646277D01*
X308686000Y-98415599D01*
X308686000Y-98180401D01*
X308731885Y-97949723D01*
X308821891Y-97732428D01*
X308952560Y-97536869D01*
X309118869Y-97370560D01*
X309314428Y-97239891D01*
X309531723Y-97149885D01*
X309762401Y-97104000D01*
X309997599Y-97104000D01*
X310228277Y-97149885D01*
X310228277Y-97149885D01*
G37*
G36*
X291305277Y-97149885D02*
X291522572Y-97239891D01*
X291718131Y-97370560D01*
X291884440Y-97536869D01*
X292015109Y-97732428D01*
X292105115Y-97949723D01*
X292151000Y-98180401D01*
X292151000Y-98415599D01*
X292105115Y-98646277D01*
X292015109Y-98863572D01*
X291884440Y-99059131D01*
X291718131Y-99225440D01*
X291522572Y-99356109D01*
X291305277Y-99446115D01*
X291074599Y-99492000D01*
X290839401Y-99492000D01*
X290608723Y-99446115D01*
X290391428Y-99356109D01*
X290195869Y-99225440D01*
X290029560Y-99059131D01*
X289898891Y-98863572D01*
X289808885Y-98646277D01*
X289763000Y-98415599D01*
X289763000Y-98180401D01*
X289808885Y-97949723D01*
X289898891Y-97732428D01*
X290029560Y-97536869D01*
X290195869Y-97370560D01*
X290391428Y-97239891D01*
X290608723Y-97149885D01*
X290839401Y-97104000D01*
X291074599Y-97104000D01*
X291305277Y-97149885D01*
X291305277Y-97149885D01*
G37*
G36*
X272255277Y-97149885D02*
X272472572Y-97239891D01*
X272668131Y-97370560D01*
X272834440Y-97536869D01*
X272965109Y-97732428D01*
X273055115Y-97949723D01*
X273101000Y-98180401D01*
X273101000Y-98415599D01*
X273055115Y-98646277D01*
X272965109Y-98863572D01*
X272834440Y-99059131D01*
X272668131Y-99225440D01*
X272472572Y-99356109D01*
X272255277Y-99446115D01*
X272024599Y-99492000D01*
X271789401Y-99492000D01*
X271558723Y-99446115D01*
X271341428Y-99356109D01*
X271145869Y-99225440D01*
X270979560Y-99059131D01*
X270848891Y-98863572D01*
X270758885Y-98646277D01*
X270713000Y-98415599D01*
X270713000Y-98180401D01*
X270758885Y-97949723D01*
X270848891Y-97732428D01*
X270979560Y-97536869D01*
X271145869Y-97370560D01*
X271341428Y-97239891D01*
X271558723Y-97149885D01*
X271789401Y-97104000D01*
X272024599Y-97104000D01*
X272255277Y-97149885D01*
X272255277Y-97149885D01*
G37*
G36*
X253332277Y-97149885D02*
X253549572Y-97239891D01*
X253745131Y-97370560D01*
X253911440Y-97536869D01*
X254042109Y-97732428D01*
X254132115Y-97949723D01*
X254178000Y-98180401D01*
X254178000Y-98415599D01*
X254132115Y-98646277D01*
X254042109Y-98863572D01*
X253911440Y-99059131D01*
X253745131Y-99225440D01*
X253549572Y-99356109D01*
X253332277Y-99446115D01*
X253101599Y-99492000D01*
X252866401Y-99492000D01*
X252635723Y-99446115D01*
X252418428Y-99356109D01*
X252222869Y-99225440D01*
X252056560Y-99059131D01*
X251925891Y-98863572D01*
X251835885Y-98646277D01*
X251790000Y-98415599D01*
X251790000Y-98180401D01*
X251835885Y-97949723D01*
X251925891Y-97732428D01*
X252056560Y-97536869D01*
X252222869Y-97370560D01*
X252418428Y-97239891D01*
X252635723Y-97149885D01*
X252866401Y-97104000D01*
X253101599Y-97104000D01*
X253332277Y-97149885D01*
X253332277Y-97149885D01*
G37*
G36*
X234282277Y-97149885D02*
X234499572Y-97239891D01*
X234695131Y-97370560D01*
X234861440Y-97536869D01*
X234992109Y-97732428D01*
X235082115Y-97949723D01*
X235128000Y-98180401D01*
X235128000Y-98415599D01*
X235082115Y-98646277D01*
X234992109Y-98863572D01*
X234861440Y-99059131D01*
X234695131Y-99225440D01*
X234499572Y-99356109D01*
X234282277Y-99446115D01*
X234051599Y-99492000D01*
X233816401Y-99492000D01*
X233585723Y-99446115D01*
X233368428Y-99356109D01*
X233172869Y-99225440D01*
X233006560Y-99059131D01*
X232875891Y-98863572D01*
X232785885Y-98646277D01*
X232740000Y-98415599D01*
X232740000Y-98180401D01*
X232785885Y-97949723D01*
X232875891Y-97732428D01*
X233006560Y-97536869D01*
X233172869Y-97370560D01*
X233368428Y-97239891D01*
X233585723Y-97149885D01*
X233816401Y-97104000D01*
X234051599Y-97104000D01*
X234282277Y-97149885D01*
X234282277Y-97149885D01*
G37*
G36*
X215232277Y-97149885D02*
X215449572Y-97239891D01*
X215645131Y-97370560D01*
X215811440Y-97536869D01*
X215942109Y-97732428D01*
X216032115Y-97949723D01*
X216078000Y-98180401D01*
X216078000Y-98415599D01*
X216032115Y-98646277D01*
X215942109Y-98863572D01*
X215811440Y-99059131D01*
X215645131Y-99225440D01*
X215449572Y-99356109D01*
X215232277Y-99446115D01*
X215001599Y-99492000D01*
X214766401Y-99492000D01*
X214535723Y-99446115D01*
X214318428Y-99356109D01*
X214122869Y-99225440D01*
X213956560Y-99059131D01*
X213825891Y-98863572D01*
X213735885Y-98646277D01*
X213690000Y-98415599D01*
X213690000Y-98180401D01*
X213735885Y-97949723D01*
X213825891Y-97732428D01*
X213956560Y-97536869D01*
X214122869Y-97370560D01*
X214318428Y-97239891D01*
X214535723Y-97149885D01*
X214766401Y-97104000D01*
X215001599Y-97104000D01*
X215232277Y-97149885D01*
X215232277Y-97149885D01*
G37*
G36*
X196182277Y-97149885D02*
X196399572Y-97239891D01*
X196595131Y-97370560D01*
X196761440Y-97536869D01*
X196892109Y-97732428D01*
X196982115Y-97949723D01*
X197028000Y-98180401D01*
X197028000Y-98415599D01*
X196982115Y-98646277D01*
X196892109Y-98863572D01*
X196761440Y-99059131D01*
X196595131Y-99225440D01*
X196399572Y-99356109D01*
X196182277Y-99446115D01*
X195951599Y-99492000D01*
X195716401Y-99492000D01*
X195485723Y-99446115D01*
X195268428Y-99356109D01*
X195072869Y-99225440D01*
X194906560Y-99059131D01*
X194775891Y-98863572D01*
X194685885Y-98646277D01*
X194640000Y-98415599D01*
X194640000Y-98180401D01*
X194685885Y-97949723D01*
X194775891Y-97732428D01*
X194906560Y-97536869D01*
X195072869Y-97370560D01*
X195268428Y-97239891D01*
X195485723Y-97149885D01*
X195716401Y-97104000D01*
X195951599Y-97104000D01*
X196182277Y-97149885D01*
X196182277Y-97149885D01*
G37*
G36*
X177259277Y-97149885D02*
X177476572Y-97239891D01*
X177672131Y-97370560D01*
X177838440Y-97536869D01*
X177969109Y-97732428D01*
X178059115Y-97949723D01*
X178105000Y-98180401D01*
X178105000Y-98415599D01*
X178059115Y-98646277D01*
X177969109Y-98863572D01*
X177838440Y-99059131D01*
X177672131Y-99225440D01*
X177476572Y-99356109D01*
X177259277Y-99446115D01*
X177028599Y-99492000D01*
X176793401Y-99492000D01*
X176562723Y-99446115D01*
X176345428Y-99356109D01*
X176149869Y-99225440D01*
X175983560Y-99059131D01*
X175852891Y-98863572D01*
X175762885Y-98646277D01*
X175717000Y-98415599D01*
X175717000Y-98180401D01*
X175762885Y-97949723D01*
X175852891Y-97732428D01*
X175983560Y-97536869D01*
X176149869Y-97370560D01*
X176345428Y-97239891D01*
X176562723Y-97149885D01*
X176793401Y-97104000D01*
X177028599Y-97104000D01*
X177259277Y-97149885D01*
X177259277Y-97149885D01*
G37*
G36*
X158209277Y-97149885D02*
X158426572Y-97239891D01*
X158622131Y-97370560D01*
X158788440Y-97536869D01*
X158919109Y-97732428D01*
X159009115Y-97949723D01*
X159055000Y-98180401D01*
X159055000Y-98415599D01*
X159009115Y-98646277D01*
X158919109Y-98863572D01*
X158788440Y-99059131D01*
X158622131Y-99225440D01*
X158426572Y-99356109D01*
X158209277Y-99446115D01*
X157978599Y-99492000D01*
X157743401Y-99492000D01*
X157512723Y-99446115D01*
X157295428Y-99356109D01*
X157099869Y-99225440D01*
X156933560Y-99059131D01*
X156802891Y-98863572D01*
X156712885Y-98646277D01*
X156667000Y-98415599D01*
X156667000Y-98180401D01*
X156712885Y-97949723D01*
X156802891Y-97732428D01*
X156933560Y-97536869D01*
X157099869Y-97370560D01*
X157295428Y-97239891D01*
X157512723Y-97149885D01*
X157743401Y-97104000D01*
X157978599Y-97104000D01*
X158209277Y-97149885D01*
X158209277Y-97149885D01*
G37*
G36*
X139286277Y-97149885D02*
X139503572Y-97239891D01*
X139699131Y-97370560D01*
X139865440Y-97536869D01*
X139996109Y-97732428D01*
X140086115Y-97949723D01*
X140132000Y-98180401D01*
X140132000Y-98415599D01*
X140086115Y-98646277D01*
X139996109Y-98863572D01*
X139865440Y-99059131D01*
X139699131Y-99225440D01*
X139503572Y-99356109D01*
X139286277Y-99446115D01*
X139055599Y-99492000D01*
X138820401Y-99492000D01*
X138589723Y-99446115D01*
X138372428Y-99356109D01*
X138176869Y-99225440D01*
X138010560Y-99059131D01*
X137879891Y-98863572D01*
X137789885Y-98646277D01*
X137744000Y-98415599D01*
X137744000Y-98180401D01*
X137789885Y-97949723D01*
X137879891Y-97732428D01*
X138010560Y-97536869D01*
X138176869Y-97370560D01*
X138372428Y-97239891D01*
X138589723Y-97149885D01*
X138820401Y-97104000D01*
X139055599Y-97104000D01*
X139286277Y-97149885D01*
X139286277Y-97149885D01*
G37*
G36*
X120236277Y-97149885D02*
X120453572Y-97239891D01*
X120649131Y-97370560D01*
X120815440Y-97536869D01*
X120946109Y-97732428D01*
X121036115Y-97949723D01*
X121082000Y-98180401D01*
X121082000Y-98415599D01*
X121036115Y-98646277D01*
X120946109Y-98863572D01*
X120815440Y-99059131D01*
X120649131Y-99225440D01*
X120453572Y-99356109D01*
X120236277Y-99446115D01*
X120005599Y-99492000D01*
X119770401Y-99492000D01*
X119539723Y-99446115D01*
X119322428Y-99356109D01*
X119126869Y-99225440D01*
X118960560Y-99059131D01*
X118829891Y-98863572D01*
X118739885Y-98646277D01*
X118694000Y-98415599D01*
X118694000Y-98180401D01*
X118739885Y-97949723D01*
X118829891Y-97732428D01*
X118960560Y-97536869D01*
X119126869Y-97370560D01*
X119322428Y-97239891D01*
X119539723Y-97149885D01*
X119770401Y-97104000D01*
X120005599Y-97104000D01*
X120236277Y-97149885D01*
X120236277Y-97149885D01*
G37*
G36*
X100424277Y-94736885D02*
X100641572Y-94826891D01*
X100837131Y-94957560D01*
X101003440Y-95123869D01*
X101134109Y-95319428D01*
X101224115Y-95536723D01*
X101270000Y-95767401D01*
X101270000Y-96002599D01*
X101224115Y-96233277D01*
X101134109Y-96450572D01*
X101003440Y-96646131D01*
X100837131Y-96812440D01*
X100641572Y-96943109D01*
X100424277Y-97033115D01*
X100193599Y-97079000D01*
X99958401Y-97079000D01*
X99727723Y-97033115D01*
X99510428Y-96943109D01*
X99314869Y-96812440D01*
X99148560Y-96646131D01*
X99017891Y-96450572D01*
X98927885Y-96233277D01*
X98882000Y-96002599D01*
X98882000Y-95767401D01*
X98927885Y-95536723D01*
X99017891Y-95319428D01*
X99148560Y-95123869D01*
X99314869Y-94957560D01*
X99510428Y-94826891D01*
X99727723Y-94736885D01*
X99958401Y-94691000D01*
X100193599Y-94691000D01*
X100424277Y-94736885D01*
X100424277Y-94736885D01*
G37*
G36*
X240632277Y-94609885D02*
X240849572Y-94699891D01*
X241045131Y-94830560D01*
X241211440Y-94996869D01*
X241342109Y-95192428D01*
X241432115Y-95409723D01*
X241478000Y-95640401D01*
X241478000Y-95875599D01*
X241432115Y-96106277D01*
X241342109Y-96323572D01*
X241211440Y-96519131D01*
X241045131Y-96685440D01*
X240849572Y-96816109D01*
X240632277Y-96906115D01*
X240401599Y-96952000D01*
X240166401Y-96952000D01*
X239935723Y-96906115D01*
X239718428Y-96816109D01*
X239522869Y-96685440D01*
X239356560Y-96519131D01*
X239225891Y-96323572D01*
X239135885Y-96106277D01*
X239090000Y-95875599D01*
X239090000Y-95640401D01*
X239135885Y-95409723D01*
X239225891Y-95192428D01*
X239356560Y-94996869D01*
X239522869Y-94830560D01*
X239718428Y-94699891D01*
X239935723Y-94609885D01*
X240166401Y-94564000D01*
X240401599Y-94564000D01*
X240632277Y-94609885D01*
X240632277Y-94609885D01*
G37*
G36*
X221582277Y-94609885D02*
X221799572Y-94699891D01*
X221995131Y-94830560D01*
X222161440Y-94996869D01*
X222292109Y-95192428D01*
X222382115Y-95409723D01*
X222428000Y-95640401D01*
X222428000Y-95875599D01*
X222382115Y-96106277D01*
X222292109Y-96323572D01*
X222161440Y-96519131D01*
X221995131Y-96685440D01*
X221799572Y-96816109D01*
X221582277Y-96906115D01*
X221351599Y-96952000D01*
X221116401Y-96952000D01*
X220885723Y-96906115D01*
X220668428Y-96816109D01*
X220472869Y-96685440D01*
X220306560Y-96519131D01*
X220175891Y-96323572D01*
X220085885Y-96106277D01*
X220040000Y-95875599D01*
X220040000Y-95640401D01*
X220085885Y-95409723D01*
X220175891Y-95192428D01*
X220306560Y-94996869D01*
X220472869Y-94830560D01*
X220668428Y-94699891D01*
X220885723Y-94609885D01*
X221116401Y-94564000D01*
X221351599Y-94564000D01*
X221582277Y-94609885D01*
X221582277Y-94609885D01*
G37*
G36*
X316578277Y-94609885D02*
X316795572Y-94699891D01*
X316991131Y-94830560D01*
X317157440Y-94996869D01*
X317288109Y-95192428D01*
X317378115Y-95409723D01*
X317424000Y-95640401D01*
X317424000Y-95875599D01*
X317378115Y-96106277D01*
X317288109Y-96323572D01*
X317157440Y-96519131D01*
X316991131Y-96685440D01*
X316795572Y-96816109D01*
X316578277Y-96906115D01*
X316347599Y-96952000D01*
X316112401Y-96952000D01*
X315881723Y-96906115D01*
X315664428Y-96816109D01*
X315468869Y-96685440D01*
X315302560Y-96519131D01*
X315171891Y-96323572D01*
X315081885Y-96106277D01*
X315036000Y-95875599D01*
X315036000Y-95640401D01*
X315081885Y-95409723D01*
X315171891Y-95192428D01*
X315302560Y-94996869D01*
X315468869Y-94830560D01*
X315664428Y-94699891D01*
X315881723Y-94609885D01*
X316112401Y-94564000D01*
X316347599Y-94564000D01*
X316578277Y-94609885D01*
X316578277Y-94609885D01*
G37*
G36*
X183609277Y-94609885D02*
X183826572Y-94699891D01*
X184022131Y-94830560D01*
X184188440Y-94996869D01*
X184319109Y-95192428D01*
X184409115Y-95409723D01*
X184455000Y-95640401D01*
X184455000Y-95875599D01*
X184409115Y-96106277D01*
X184319109Y-96323572D01*
X184188440Y-96519131D01*
X184022131Y-96685440D01*
X183826572Y-96816109D01*
X183609277Y-96906115D01*
X183378599Y-96952000D01*
X183143401Y-96952000D01*
X182912723Y-96906115D01*
X182695428Y-96816109D01*
X182499869Y-96685440D01*
X182333560Y-96519131D01*
X182202891Y-96323572D01*
X182112885Y-96106277D01*
X182067000Y-95875599D01*
X182067000Y-95640401D01*
X182112885Y-95409723D01*
X182202891Y-95192428D01*
X182333560Y-94996869D01*
X182499869Y-94830560D01*
X182695428Y-94699891D01*
X182912723Y-94609885D01*
X183143401Y-94564000D01*
X183378599Y-94564000D01*
X183609277Y-94609885D01*
X183609277Y-94609885D01*
G37*
G36*
X164559277Y-94609885D02*
X164776572Y-94699891D01*
X164972131Y-94830560D01*
X165138440Y-94996869D01*
X165269109Y-95192428D01*
X165359115Y-95409723D01*
X165405000Y-95640401D01*
X165405000Y-95875599D01*
X165359115Y-96106277D01*
X165269109Y-96323572D01*
X165138440Y-96519131D01*
X164972131Y-96685440D01*
X164776572Y-96816109D01*
X164559277Y-96906115D01*
X164328599Y-96952000D01*
X164093401Y-96952000D01*
X163862723Y-96906115D01*
X163645428Y-96816109D01*
X163449869Y-96685440D01*
X163283560Y-96519131D01*
X163152891Y-96323572D01*
X163062885Y-96106277D01*
X163017000Y-95875599D01*
X163017000Y-95640401D01*
X163062885Y-95409723D01*
X163152891Y-95192428D01*
X163283560Y-94996869D01*
X163449869Y-94830560D01*
X163645428Y-94699891D01*
X163862723Y-94609885D01*
X164093401Y-94564000D01*
X164328599Y-94564000D01*
X164559277Y-94609885D01*
X164559277Y-94609885D01*
G37*
G36*
X145636277Y-94609885D02*
X145853572Y-94699891D01*
X146049131Y-94830560D01*
X146215440Y-94996869D01*
X146346109Y-95192428D01*
X146436115Y-95409723D01*
X146482000Y-95640401D01*
X146482000Y-95875599D01*
X146436115Y-96106277D01*
X146346109Y-96323572D01*
X146215440Y-96519131D01*
X146049131Y-96685440D01*
X145853572Y-96816109D01*
X145636277Y-96906115D01*
X145405599Y-96952000D01*
X145170401Y-96952000D01*
X144939723Y-96906115D01*
X144722428Y-96816109D01*
X144526869Y-96685440D01*
X144360560Y-96519131D01*
X144229891Y-96323572D01*
X144139885Y-96106277D01*
X144094000Y-95875599D01*
X144094000Y-95640401D01*
X144139885Y-95409723D01*
X144229891Y-95192428D01*
X144360560Y-94996869D01*
X144526869Y-94830560D01*
X144722428Y-94699891D01*
X144939723Y-94609885D01*
X145170401Y-94564000D01*
X145405599Y-94564000D01*
X145636277Y-94609885D01*
X145636277Y-94609885D01*
G37*
G36*
X126586277Y-94609885D02*
X126803572Y-94699891D01*
X126999131Y-94830560D01*
X127165440Y-94996869D01*
X127296109Y-95192428D01*
X127386115Y-95409723D01*
X127432000Y-95640401D01*
X127432000Y-95875599D01*
X127386115Y-96106277D01*
X127296109Y-96323572D01*
X127165440Y-96519131D01*
X126999131Y-96685440D01*
X126803572Y-96816109D01*
X126586277Y-96906115D01*
X126355599Y-96952000D01*
X126120401Y-96952000D01*
X125889723Y-96906115D01*
X125672428Y-96816109D01*
X125476869Y-96685440D01*
X125310560Y-96519131D01*
X125179891Y-96323572D01*
X125089885Y-96106277D01*
X125044000Y-95875599D01*
X125044000Y-95640401D01*
X125089885Y-95409723D01*
X125179891Y-95192428D01*
X125310560Y-94996869D01*
X125476869Y-94830560D01*
X125672428Y-94699891D01*
X125889723Y-94609885D01*
X126120401Y-94564000D01*
X126355599Y-94564000D01*
X126586277Y-94609885D01*
X126586277Y-94609885D01*
G37*
G36*
X202532277Y-94609885D02*
X202749572Y-94699891D01*
X202945131Y-94830560D01*
X203111440Y-94996869D01*
X203242109Y-95192428D01*
X203332115Y-95409723D01*
X203378000Y-95640401D01*
X203378000Y-95875599D01*
X203332115Y-96106277D01*
X203242109Y-96323572D01*
X203111440Y-96519131D01*
X202945131Y-96685440D01*
X202749572Y-96816109D01*
X202532277Y-96906115D01*
X202301599Y-96952000D01*
X202066401Y-96952000D01*
X201835723Y-96906115D01*
X201618428Y-96816109D01*
X201422869Y-96685440D01*
X201256560Y-96519131D01*
X201125891Y-96323572D01*
X201035885Y-96106277D01*
X200990000Y-95875599D01*
X200990000Y-95640401D01*
X201035885Y-95409723D01*
X201125891Y-95192428D01*
X201256560Y-94996869D01*
X201422869Y-94830560D01*
X201618428Y-94699891D01*
X201835723Y-94609885D01*
X202066401Y-94564000D01*
X202301599Y-94564000D01*
X202532277Y-94609885D01*
X202532277Y-94609885D01*
G37*
G36*
X259682277Y-94609885D02*
X259899572Y-94699891D01*
X260095131Y-94830560D01*
X260261440Y-94996869D01*
X260392109Y-95192428D01*
X260482115Y-95409723D01*
X260528000Y-95640401D01*
X260528000Y-95875599D01*
X260482115Y-96106277D01*
X260392109Y-96323572D01*
X260261440Y-96519131D01*
X260095131Y-96685440D01*
X259899572Y-96816109D01*
X259682277Y-96906115D01*
X259451599Y-96952000D01*
X259216401Y-96952000D01*
X258985723Y-96906115D01*
X258768428Y-96816109D01*
X258572869Y-96685440D01*
X258406560Y-96519131D01*
X258275891Y-96323572D01*
X258185885Y-96106277D01*
X258140000Y-95875599D01*
X258140000Y-95640401D01*
X258185885Y-95409723D01*
X258275891Y-95192428D01*
X258406560Y-94996869D01*
X258572869Y-94830560D01*
X258768428Y-94699891D01*
X258985723Y-94609885D01*
X259216401Y-94564000D01*
X259451599Y-94564000D01*
X259682277Y-94609885D01*
X259682277Y-94609885D01*
G37*
G36*
X278605277Y-94609885D02*
X278822572Y-94699891D01*
X279018131Y-94830560D01*
X279184440Y-94996869D01*
X279315109Y-95192428D01*
X279405115Y-95409723D01*
X279451000Y-95640401D01*
X279451000Y-95875599D01*
X279405115Y-96106277D01*
X279315109Y-96323572D01*
X279184440Y-96519131D01*
X279018131Y-96685440D01*
X278822572Y-96816109D01*
X278605277Y-96906115D01*
X278374599Y-96952000D01*
X278139401Y-96952000D01*
X277908723Y-96906115D01*
X277691428Y-96816109D01*
X277495869Y-96685440D01*
X277329560Y-96519131D01*
X277198891Y-96323572D01*
X277108885Y-96106277D01*
X277063000Y-95875599D01*
X277063000Y-95640401D01*
X277108885Y-95409723D01*
X277198891Y-95192428D01*
X277329560Y-94996869D01*
X277495869Y-94830560D01*
X277691428Y-94699891D01*
X277908723Y-94609885D01*
X278139401Y-94564000D01*
X278374599Y-94564000D01*
X278605277Y-94609885D01*
X278605277Y-94609885D01*
G37*
G36*
X297655277Y-94609885D02*
X297872572Y-94699891D01*
X298068131Y-94830560D01*
X298234440Y-94996869D01*
X298365109Y-95192428D01*
X298455115Y-95409723D01*
X298501000Y-95640401D01*
X298501000Y-95875599D01*
X298455115Y-96106277D01*
X298365109Y-96323572D01*
X298234440Y-96519131D01*
X298068131Y-96685440D01*
X297872572Y-96816109D01*
X297655277Y-96906115D01*
X297424599Y-96952000D01*
X297189401Y-96952000D01*
X296958723Y-96906115D01*
X296741428Y-96816109D01*
X296545869Y-96685440D01*
X296379560Y-96519131D01*
X296248891Y-96323572D01*
X296158885Y-96106277D01*
X296113000Y-95875599D01*
X296113000Y-95640401D01*
X296158885Y-95409723D01*
X296248891Y-95192428D01*
X296379560Y-94996869D01*
X296545869Y-94830560D01*
X296741428Y-94699891D01*
X296958723Y-94609885D01*
X297189401Y-94564000D01*
X297424599Y-94564000D01*
X297655277Y-94609885D01*
X297655277Y-94609885D01*
G37*
G36*
X282447000Y-92545000D02*
X280745000Y-92545000D01*
X280745000Y-90843000D01*
X282447000Y-90843000D01*
X282447000Y-92545000D01*
X282447000Y-92545000D01*
G37*
G36*
X289644228Y-90875703D02*
X289799100Y-90939853D01*
X289938481Y-91032985D01*
X290057015Y-91151519D01*
X290150147Y-91290900D01*
X290214297Y-91445772D01*
X290247000Y-91610184D01*
X290247000Y-91777816D01*
X290214297Y-91942228D01*
X290150147Y-92097100D01*
X290057015Y-92236481D01*
X289938481Y-92355015D01*
X289799100Y-92448147D01*
X289644228Y-92512297D01*
X289479816Y-92545000D01*
X289312184Y-92545000D01*
X289147772Y-92512297D01*
X288992900Y-92448147D01*
X288853519Y-92355015D01*
X288734985Y-92236481D01*
X288641853Y-92097100D01*
X288577703Y-91942228D01*
X288545000Y-91777816D01*
X288545000Y-91610184D01*
X288577703Y-91445772D01*
X288641853Y-91290900D01*
X288734985Y-91151519D01*
X288853519Y-91032985D01*
X288992900Y-90939853D01*
X289147772Y-90875703D01*
X289312184Y-90843000D01*
X289479816Y-90843000D01*
X289644228Y-90875703D01*
X289644228Y-90875703D01*
G37*
G36*
X213571228Y-90748703D02*
X213726100Y-90812853D01*
X213865481Y-90905985D01*
X213984015Y-91024519D01*
X214077147Y-91163900D01*
X214141297Y-91318772D01*
X214174000Y-91483184D01*
X214174000Y-91650816D01*
X214141297Y-91815228D01*
X214077147Y-91970100D01*
X213984015Y-92109481D01*
X213865481Y-92228015D01*
X213726100Y-92321147D01*
X213571228Y-92385297D01*
X213406816Y-92418000D01*
X213239184Y-92418000D01*
X213074772Y-92385297D01*
X212919900Y-92321147D01*
X212780519Y-92228015D01*
X212661985Y-92109481D01*
X212568853Y-91970100D01*
X212504703Y-91815228D01*
X212472000Y-91650816D01*
X212472000Y-91483184D01*
X212504703Y-91318772D01*
X212568853Y-91163900D01*
X212661985Y-91024519D01*
X212780519Y-90905985D01*
X212919900Y-90812853D01*
X213074772Y-90748703D01*
X213239184Y-90716000D01*
X213406816Y-90716000D01*
X213571228Y-90748703D01*
X213571228Y-90748703D01*
G37*
G36*
X206374000Y-92418000D02*
X204672000Y-92418000D01*
X204672000Y-90716000D01*
X206374000Y-90716000D01*
X206374000Y-92418000D01*
X206374000Y-92418000D01*
G37*
G36*
X225297000Y-92418000D02*
X223595000Y-92418000D01*
X223595000Y-90716000D01*
X225297000Y-90716000D01*
X225297000Y-92418000D01*
X225297000Y-92418000D01*
G37*
G36*
X232494228Y-90748703D02*
X232649100Y-90812853D01*
X232788481Y-90905985D01*
X232907015Y-91024519D01*
X233000147Y-91163900D01*
X233064297Y-91318772D01*
X233097000Y-91483184D01*
X233097000Y-91650816D01*
X233064297Y-91815228D01*
X233000147Y-91970100D01*
X232907015Y-92109481D01*
X232788481Y-92228015D01*
X232649100Y-92321147D01*
X232494228Y-92385297D01*
X232329816Y-92418000D01*
X232162184Y-92418000D01*
X231997772Y-92385297D01*
X231842900Y-92321147D01*
X231703519Y-92228015D01*
X231584985Y-92109481D01*
X231491853Y-91970100D01*
X231427703Y-91815228D01*
X231395000Y-91650816D01*
X231395000Y-91483184D01*
X231427703Y-91318772D01*
X231491853Y-91163900D01*
X231584985Y-91024519D01*
X231703519Y-90905985D01*
X231842900Y-90812853D01*
X231997772Y-90748703D01*
X232162184Y-90716000D01*
X232329816Y-90716000D01*
X232494228Y-90748703D01*
X232494228Y-90748703D01*
G37*
G36*
X270467228Y-90748703D02*
X270622100Y-90812853D01*
X270761481Y-90905985D01*
X270880015Y-91024519D01*
X270973147Y-91163900D01*
X271037297Y-91318772D01*
X271070000Y-91483184D01*
X271070000Y-91650816D01*
X271037297Y-91815228D01*
X270973147Y-91970100D01*
X270880015Y-92109481D01*
X270761481Y-92228015D01*
X270622100Y-92321147D01*
X270467228Y-92385297D01*
X270302816Y-92418000D01*
X270135184Y-92418000D01*
X269970772Y-92385297D01*
X269815900Y-92321147D01*
X269676519Y-92228015D01*
X269557985Y-92109481D01*
X269464853Y-91970100D01*
X269400703Y-91815228D01*
X269368000Y-91650816D01*
X269368000Y-91483184D01*
X269400703Y-91318772D01*
X269464853Y-91163900D01*
X269557985Y-91024519D01*
X269676519Y-90905985D01*
X269815900Y-90812853D01*
X269970772Y-90748703D01*
X270135184Y-90716000D01*
X270302816Y-90716000D01*
X270467228Y-90748703D01*
X270467228Y-90748703D01*
G37*
G36*
X263270000Y-92418000D02*
X261568000Y-92418000D01*
X261568000Y-90716000D01*
X263270000Y-90716000D01*
X263270000Y-92418000D01*
X263270000Y-92418000D01*
G37*
G36*
X156421228Y-90621703D02*
X156576100Y-90685853D01*
X156715481Y-90778985D01*
X156834015Y-90897519D01*
X156927147Y-91036900D01*
X156991297Y-91191772D01*
X157024000Y-91356184D01*
X157024000Y-91523816D01*
X156991297Y-91688228D01*
X156927147Y-91843100D01*
X156834015Y-91982481D01*
X156715481Y-92101015D01*
X156576100Y-92194147D01*
X156421228Y-92258297D01*
X156256816Y-92291000D01*
X156089184Y-92291000D01*
X155924772Y-92258297D01*
X155769900Y-92194147D01*
X155630519Y-92101015D01*
X155511985Y-91982481D01*
X155418853Y-91843100D01*
X155354703Y-91688228D01*
X155322000Y-91523816D01*
X155322000Y-91356184D01*
X155354703Y-91191772D01*
X155418853Y-91036900D01*
X155511985Y-90897519D01*
X155630519Y-90778985D01*
X155769900Y-90685853D01*
X155924772Y-90621703D01*
X156089184Y-90589000D01*
X156256816Y-90589000D01*
X156421228Y-90621703D01*
X156421228Y-90621703D01*
G37*
G36*
X149224000Y-92291000D02*
X147522000Y-92291000D01*
X147522000Y-90589000D01*
X149224000Y-90589000D01*
X149224000Y-92291000D01*
X149224000Y-92291000D01*
G37*
G36*
X251417228Y-90621703D02*
X251572100Y-90685853D01*
X251711481Y-90778985D01*
X251830015Y-90897519D01*
X251923147Y-91036900D01*
X251987297Y-91191772D01*
X252020000Y-91356184D01*
X252020000Y-91523816D01*
X251987297Y-91688228D01*
X251923147Y-91843100D01*
X251830015Y-91982481D01*
X251711481Y-92101015D01*
X251572100Y-92194147D01*
X251417228Y-92258297D01*
X251252816Y-92291000D01*
X251085184Y-92291000D01*
X250920772Y-92258297D01*
X250765900Y-92194147D01*
X250626519Y-92101015D01*
X250507985Y-91982481D01*
X250414853Y-91843100D01*
X250350703Y-91688228D01*
X250318000Y-91523816D01*
X250318000Y-91356184D01*
X250350703Y-91191772D01*
X250414853Y-91036900D01*
X250507985Y-90897519D01*
X250626519Y-90778985D01*
X250765900Y-90685853D01*
X250920772Y-90621703D01*
X251085184Y-90589000D01*
X251252816Y-90589000D01*
X251417228Y-90621703D01*
X251417228Y-90621703D01*
G37*
G36*
X244220000Y-92291000D02*
X242518000Y-92291000D01*
X242518000Y-90589000D01*
X244220000Y-90589000D01*
X244220000Y-92291000D01*
X244220000Y-92291000D01*
G37*
G36*
X313647228Y-90494703D02*
X313802100Y-90558853D01*
X313941481Y-90651985D01*
X314060015Y-90770519D01*
X314153147Y-90909900D01*
X314217297Y-91064772D01*
X314250000Y-91229184D01*
X314250000Y-91396816D01*
X314217297Y-91561228D01*
X314153147Y-91716100D01*
X314060015Y-91855481D01*
X313941481Y-91974015D01*
X313802100Y-92067147D01*
X313647228Y-92131297D01*
X313482816Y-92164000D01*
X313315184Y-92164000D01*
X313150772Y-92131297D01*
X312995900Y-92067147D01*
X312856519Y-91974015D01*
X312737985Y-91855481D01*
X312644853Y-91716100D01*
X312580703Y-91561228D01*
X312548000Y-91396816D01*
X312548000Y-91229184D01*
X312580703Y-91064772D01*
X312644853Y-90909900D01*
X312737985Y-90770519D01*
X312856519Y-90651985D01*
X312995900Y-90558853D01*
X313150772Y-90494703D01*
X313315184Y-90462000D01*
X313482816Y-90462000D01*
X313647228Y-90494703D01*
X313647228Y-90494703D01*
G37*
G36*
X306450000Y-92164000D02*
X304748000Y-92164000D01*
X304748000Y-90462000D01*
X306450000Y-90462000D01*
X306450000Y-92164000D01*
X306450000Y-92164000D01*
G37*
G36*
X130174000Y-92164000D02*
X128472000Y-92164000D01*
X128472000Y-90462000D01*
X130174000Y-90462000D01*
X130174000Y-92164000D01*
X130174000Y-92164000D01*
G37*
G36*
X137371228Y-90494703D02*
X137526100Y-90558853D01*
X137665481Y-90651985D01*
X137784015Y-90770519D01*
X137877147Y-90909900D01*
X137941297Y-91064772D01*
X137974000Y-91229184D01*
X137974000Y-91396816D01*
X137941297Y-91561228D01*
X137877147Y-91716100D01*
X137784015Y-91855481D01*
X137665481Y-91974015D01*
X137526100Y-92067147D01*
X137371228Y-92131297D01*
X137206816Y-92164000D01*
X137039184Y-92164000D01*
X136874772Y-92131297D01*
X136719900Y-92067147D01*
X136580519Y-91974015D01*
X136461985Y-91855481D01*
X136368853Y-91716100D01*
X136304703Y-91561228D01*
X136272000Y-91396816D01*
X136272000Y-91229184D01*
X136304703Y-91064772D01*
X136368853Y-90909900D01*
X136461985Y-90770519D01*
X136580519Y-90651985D01*
X136719900Y-90558853D01*
X136874772Y-90494703D01*
X137039184Y-90462000D01*
X137206816Y-90462000D01*
X137371228Y-90494703D01*
X137371228Y-90494703D01*
G37*
G36*
X175598228Y-90494703D02*
X175753100Y-90558853D01*
X175892481Y-90651985D01*
X176011015Y-90770519D01*
X176104147Y-90909900D01*
X176168297Y-91064772D01*
X176201000Y-91229184D01*
X176201000Y-91396816D01*
X176168297Y-91561228D01*
X176104147Y-91716100D01*
X176011015Y-91855481D01*
X175892481Y-91974015D01*
X175753100Y-92067147D01*
X175598228Y-92131297D01*
X175433816Y-92164000D01*
X175266184Y-92164000D01*
X175101772Y-92131297D01*
X174946900Y-92067147D01*
X174807519Y-91974015D01*
X174688985Y-91855481D01*
X174595853Y-91716100D01*
X174531703Y-91561228D01*
X174499000Y-91396816D01*
X174499000Y-91229184D01*
X174531703Y-91064772D01*
X174595853Y-90909900D01*
X174688985Y-90770519D01*
X174807519Y-90651985D01*
X174946900Y-90558853D01*
X175101772Y-90494703D01*
X175266184Y-90462000D01*
X175433816Y-90462000D01*
X175598228Y-90494703D01*
X175598228Y-90494703D01*
G37*
G36*
X168401000Y-92164000D02*
X166699000Y-92164000D01*
X166699000Y-90462000D01*
X168401000Y-90462000D01*
X168401000Y-92164000D01*
X168401000Y-92164000D01*
G37*
G36*
X194267228Y-90367703D02*
X194422100Y-90431853D01*
X194561481Y-90524985D01*
X194680015Y-90643519D01*
X194773147Y-90782900D01*
X194837297Y-90937772D01*
X194870000Y-91102184D01*
X194870000Y-91269816D01*
X194837297Y-91434228D01*
X194773147Y-91589100D01*
X194680015Y-91728481D01*
X194561481Y-91847015D01*
X194422100Y-91940147D01*
X194267228Y-92004297D01*
X194102816Y-92037000D01*
X193935184Y-92037000D01*
X193770772Y-92004297D01*
X193615900Y-91940147D01*
X193476519Y-91847015D01*
X193357985Y-91728481D01*
X193264853Y-91589100D01*
X193200703Y-91434228D01*
X193168000Y-91269816D01*
X193168000Y-91102184D01*
X193200703Y-90937772D01*
X193264853Y-90782900D01*
X193357985Y-90643519D01*
X193476519Y-90524985D01*
X193615900Y-90431853D01*
X193770772Y-90367703D01*
X193935184Y-90335000D01*
X194102816Y-90335000D01*
X194267228Y-90367703D01*
X194267228Y-90367703D01*
G37*
G36*
X187070000Y-92037000D02*
X185368000Y-92037000D01*
X185368000Y-90335000D01*
X187070000Y-90335000D01*
X187070000Y-92037000D01*
X187070000Y-92037000D01*
G37*
G36*
X118448228Y-90367703D02*
X118603100Y-90431853D01*
X118742481Y-90524985D01*
X118861015Y-90643519D01*
X118954147Y-90782900D01*
X119018297Y-90937772D01*
X119051000Y-91102184D01*
X119051000Y-91269816D01*
X119018297Y-91434228D01*
X118954147Y-91589100D01*
X118861015Y-91728481D01*
X118742481Y-91847015D01*
X118603100Y-91940147D01*
X118448228Y-92004297D01*
X118283816Y-92037000D01*
X118116184Y-92037000D01*
X117951772Y-92004297D01*
X117796900Y-91940147D01*
X117657519Y-91847015D01*
X117538985Y-91728481D01*
X117445853Y-91589100D01*
X117381703Y-91434228D01*
X117349000Y-91269816D01*
X117349000Y-91102184D01*
X117381703Y-90937772D01*
X117445853Y-90782900D01*
X117538985Y-90643519D01*
X117657519Y-90524985D01*
X117796900Y-90431853D01*
X117951772Y-90367703D01*
X118116184Y-90335000D01*
X118283816Y-90335000D01*
X118448228Y-90367703D01*
X118448228Y-90367703D01*
G37*
G36*
X111251000Y-92037000D02*
X109549000Y-92037000D01*
X109549000Y-90335000D01*
X111251000Y-90335000D01*
X111251000Y-92037000D01*
X111251000Y-92037000D01*
G37*
G36*
X96985228Y-90367703D02*
X97140100Y-90431853D01*
X97279481Y-90524985D01*
X97398015Y-90643519D01*
X97491147Y-90782900D01*
X97555297Y-90937772D01*
X97588000Y-91102184D01*
X97588000Y-91269816D01*
X97555297Y-91434228D01*
X97491147Y-91589100D01*
X97398015Y-91728481D01*
X97279481Y-91847015D01*
X97140100Y-91940147D01*
X96985228Y-92004297D01*
X96820816Y-92037000D01*
X96653184Y-92037000D01*
X96488772Y-92004297D01*
X96333900Y-91940147D01*
X96194519Y-91847015D01*
X96075985Y-91728481D01*
X95982853Y-91589100D01*
X95918703Y-91434228D01*
X95886000Y-91269816D01*
X95886000Y-91102184D01*
X95918703Y-90937772D01*
X95982853Y-90782900D01*
X96075985Y-90643519D01*
X96194519Y-90524985D01*
X96333900Y-90431853D01*
X96488772Y-90367703D01*
X96653184Y-90335000D01*
X96820816Y-90335000D01*
X96985228Y-90367703D01*
X96985228Y-90367703D01*
G37*
G36*
X89788000Y-92037000D02*
X88086000Y-92037000D01*
X88086000Y-90335000D01*
X89788000Y-90335000D01*
X89788000Y-92037000D01*
X89788000Y-92037000D01*
G37*
G36*
X205580277Y-78226885D02*
X205797572Y-78316891D01*
X205993131Y-78447560D01*
X206159440Y-78613869D01*
X206290109Y-78809428D01*
X206380115Y-79026723D01*
X206426000Y-79257401D01*
X206426000Y-79492599D01*
X206380115Y-79723277D01*
X206290109Y-79940572D01*
X206159440Y-80136131D01*
X205993131Y-80302440D01*
X205797572Y-80433109D01*
X205580277Y-80523115D01*
X205349599Y-80569000D01*
X205114401Y-80569000D01*
X204883723Y-80523115D01*
X204666428Y-80433109D01*
X204470869Y-80302440D01*
X204304560Y-80136131D01*
X204173891Y-79940572D01*
X204083885Y-79723277D01*
X204038000Y-79492599D01*
X204038000Y-79257401D01*
X204083885Y-79026723D01*
X204173891Y-78809428D01*
X204304560Y-78613869D01*
X204470869Y-78447560D01*
X204666428Y-78316891D01*
X204883723Y-78226885D01*
X205114401Y-78181000D01*
X205349599Y-78181000D01*
X205580277Y-78226885D01*
X205580277Y-78226885D01*
G37*
G36*
X89502277Y-78226885D02*
X89719572Y-78316891D01*
X89915131Y-78447560D01*
X90081440Y-78613869D01*
X90212109Y-78809428D01*
X90302115Y-79026723D01*
X90348000Y-79257401D01*
X90348000Y-79492599D01*
X90302115Y-79723277D01*
X90212109Y-79940572D01*
X90081440Y-80136131D01*
X89915131Y-80302440D01*
X89719572Y-80433109D01*
X89502277Y-80523115D01*
X89271599Y-80569000D01*
X89036401Y-80569000D01*
X88805723Y-80523115D01*
X88588428Y-80433109D01*
X88392869Y-80302440D01*
X88226560Y-80136131D01*
X88095891Y-79940572D01*
X88005885Y-79723277D01*
X87960000Y-79492599D01*
X87960000Y-79257401D01*
X88005885Y-79026723D01*
X88095891Y-78809428D01*
X88226560Y-78613869D01*
X88392869Y-78447560D01*
X88588428Y-78316891D01*
X88805723Y-78226885D01*
X89036401Y-78181000D01*
X89271599Y-78181000D01*
X89502277Y-78226885D01*
X89502277Y-78226885D01*
G37*
G36*
X110584277Y-78226885D02*
X110801572Y-78316891D01*
X110997131Y-78447560D01*
X111163440Y-78613869D01*
X111294109Y-78809428D01*
X111384115Y-79026723D01*
X111430000Y-79257401D01*
X111430000Y-79492599D01*
X111384115Y-79723277D01*
X111294109Y-79940572D01*
X111163440Y-80136131D01*
X110997131Y-80302440D01*
X110801572Y-80433109D01*
X110584277Y-80523115D01*
X110353599Y-80569000D01*
X110118401Y-80569000D01*
X109887723Y-80523115D01*
X109670428Y-80433109D01*
X109474869Y-80302440D01*
X109308560Y-80136131D01*
X109177891Y-79940572D01*
X109087885Y-79723277D01*
X109042000Y-79492599D01*
X109042000Y-79257401D01*
X109087885Y-79026723D01*
X109177891Y-78809428D01*
X109308560Y-78613869D01*
X109474869Y-78447560D01*
X109670428Y-78316891D01*
X109887723Y-78226885D01*
X110118401Y-78181000D01*
X110353599Y-78181000D01*
X110584277Y-78226885D01*
X110584277Y-78226885D01*
G37*
G36*
X186530277Y-78226885D02*
X186747572Y-78316891D01*
X186943131Y-78447560D01*
X187109440Y-78613869D01*
X187240109Y-78809428D01*
X187330115Y-79026723D01*
X187376000Y-79257401D01*
X187376000Y-79492599D01*
X187330115Y-79723277D01*
X187240109Y-79940572D01*
X187109440Y-80136131D01*
X186943131Y-80302440D01*
X186747572Y-80433109D01*
X186530277Y-80523115D01*
X186299599Y-80569000D01*
X186064401Y-80569000D01*
X185833723Y-80523115D01*
X185616428Y-80433109D01*
X185420869Y-80302440D01*
X185254560Y-80136131D01*
X185123891Y-79940572D01*
X185033885Y-79723277D01*
X184988000Y-79492599D01*
X184988000Y-79257401D01*
X185033885Y-79026723D01*
X185123891Y-78809428D01*
X185254560Y-78613869D01*
X185420869Y-78447560D01*
X185616428Y-78316891D01*
X185833723Y-78226885D01*
X186064401Y-78181000D01*
X186299599Y-78181000D01*
X186530277Y-78226885D01*
X186530277Y-78226885D01*
G37*
G36*
X167734277Y-78226885D02*
X167951572Y-78316891D01*
X168147131Y-78447560D01*
X168313440Y-78613869D01*
X168444109Y-78809428D01*
X168534115Y-79026723D01*
X168580000Y-79257401D01*
X168580000Y-79492599D01*
X168534115Y-79723277D01*
X168444109Y-79940572D01*
X168313440Y-80136131D01*
X168147131Y-80302440D01*
X167951572Y-80433109D01*
X167734277Y-80523115D01*
X167503599Y-80569000D01*
X167268401Y-80569000D01*
X167037723Y-80523115D01*
X166820428Y-80433109D01*
X166624869Y-80302440D01*
X166458560Y-80136131D01*
X166327891Y-79940572D01*
X166237885Y-79723277D01*
X166192000Y-79492599D01*
X166192000Y-79257401D01*
X166237885Y-79026723D01*
X166327891Y-78809428D01*
X166458560Y-78613869D01*
X166624869Y-78447560D01*
X166820428Y-78316891D01*
X167037723Y-78226885D01*
X167268401Y-78181000D01*
X167503599Y-78181000D01*
X167734277Y-78226885D01*
X167734277Y-78226885D01*
G37*
G36*
X129634277Y-78226885D02*
X129851572Y-78316891D01*
X130047131Y-78447560D01*
X130213440Y-78613869D01*
X130344109Y-78809428D01*
X130434115Y-79026723D01*
X130480000Y-79257401D01*
X130480000Y-79492599D01*
X130434115Y-79723277D01*
X130344109Y-79940572D01*
X130213440Y-80136131D01*
X130047131Y-80302440D01*
X129851572Y-80433109D01*
X129634277Y-80523115D01*
X129403599Y-80569000D01*
X129168401Y-80569000D01*
X128937723Y-80523115D01*
X128720428Y-80433109D01*
X128524869Y-80302440D01*
X128358560Y-80136131D01*
X128227891Y-79940572D01*
X128137885Y-79723277D01*
X128092000Y-79492599D01*
X128092000Y-79257401D01*
X128137885Y-79026723D01*
X128227891Y-78809428D01*
X128358560Y-78613869D01*
X128524869Y-78447560D01*
X128720428Y-78316891D01*
X128937723Y-78226885D01*
X129168401Y-78181000D01*
X129403599Y-78181000D01*
X129634277Y-78226885D01*
X129634277Y-78226885D01*
G37*
G36*
X148684277Y-78226885D02*
X148901572Y-78316891D01*
X149097131Y-78447560D01*
X149263440Y-78613869D01*
X149394109Y-78809428D01*
X149484115Y-79026723D01*
X149530000Y-79257401D01*
X149530000Y-79492599D01*
X149484115Y-79723277D01*
X149394109Y-79940572D01*
X149263440Y-80136131D01*
X149097131Y-80302440D01*
X148901572Y-80433109D01*
X148684277Y-80523115D01*
X148453599Y-80569000D01*
X148218401Y-80569000D01*
X147987723Y-80523115D01*
X147770428Y-80433109D01*
X147574869Y-80302440D01*
X147408560Y-80136131D01*
X147277891Y-79940572D01*
X147187885Y-79723277D01*
X147142000Y-79492599D01*
X147142000Y-79257401D01*
X147187885Y-79026723D01*
X147277891Y-78809428D01*
X147408560Y-78613869D01*
X147574869Y-78447560D01*
X147770428Y-78316891D01*
X147987723Y-78226885D01*
X148218401Y-78181000D01*
X148453599Y-78181000D01*
X148684277Y-78226885D01*
X148684277Y-78226885D01*
G37*
G36*
X305656277Y-78226885D02*
X305873572Y-78316891D01*
X306069131Y-78447560D01*
X306235440Y-78613869D01*
X306366109Y-78809428D01*
X306456115Y-79026723D01*
X306502000Y-79257401D01*
X306502000Y-79492599D01*
X306456115Y-79723277D01*
X306366109Y-79940572D01*
X306235440Y-80136131D01*
X306069131Y-80302440D01*
X305873572Y-80433109D01*
X305656277Y-80523115D01*
X305425599Y-80569000D01*
X305190401Y-80569000D01*
X304959723Y-80523115D01*
X304742428Y-80433109D01*
X304546869Y-80302440D01*
X304380560Y-80136131D01*
X304249891Y-79940572D01*
X304159885Y-79723277D01*
X304114000Y-79492599D01*
X304114000Y-79257401D01*
X304159885Y-79026723D01*
X304249891Y-78809428D01*
X304380560Y-78613869D01*
X304546869Y-78447560D01*
X304742428Y-78316891D01*
X304959723Y-78226885D01*
X305190401Y-78181000D01*
X305425599Y-78181000D01*
X305656277Y-78226885D01*
X305656277Y-78226885D01*
G37*
G36*
X281780277Y-78226885D02*
X281997572Y-78316891D01*
X282193131Y-78447560D01*
X282359440Y-78613869D01*
X282490109Y-78809428D01*
X282580115Y-79026723D01*
X282626000Y-79257401D01*
X282626000Y-79492599D01*
X282580115Y-79723277D01*
X282490109Y-79940572D01*
X282359440Y-80136131D01*
X282193131Y-80302440D01*
X281997572Y-80433109D01*
X281780277Y-80523115D01*
X281549599Y-80569000D01*
X281314401Y-80569000D01*
X281083723Y-80523115D01*
X280866428Y-80433109D01*
X280670869Y-80302440D01*
X280504560Y-80136131D01*
X280373891Y-79940572D01*
X280283885Y-79723277D01*
X280238000Y-79492599D01*
X280238000Y-79257401D01*
X280283885Y-79026723D01*
X280373891Y-78809428D01*
X280504560Y-78613869D01*
X280670869Y-78447560D01*
X280866428Y-78316891D01*
X281083723Y-78226885D01*
X281314401Y-78181000D01*
X281549599Y-78181000D01*
X281780277Y-78226885D01*
X281780277Y-78226885D01*
G37*
G36*
X262730277Y-78226885D02*
X262947572Y-78316891D01*
X263143131Y-78447560D01*
X263309440Y-78613869D01*
X263440109Y-78809428D01*
X263530115Y-79026723D01*
X263576000Y-79257401D01*
X263576000Y-79492599D01*
X263530115Y-79723277D01*
X263440109Y-79940572D01*
X263309440Y-80136131D01*
X263143131Y-80302440D01*
X262947572Y-80433109D01*
X262730277Y-80523115D01*
X262499599Y-80569000D01*
X262264401Y-80569000D01*
X262033723Y-80523115D01*
X261816428Y-80433109D01*
X261620869Y-80302440D01*
X261454560Y-80136131D01*
X261323891Y-79940572D01*
X261233885Y-79723277D01*
X261188000Y-79492599D01*
X261188000Y-79257401D01*
X261233885Y-79026723D01*
X261323891Y-78809428D01*
X261454560Y-78613869D01*
X261620869Y-78447560D01*
X261816428Y-78316891D01*
X262033723Y-78226885D01*
X262264401Y-78181000D01*
X262499599Y-78181000D01*
X262730277Y-78226885D01*
X262730277Y-78226885D01*
G37*
G36*
X243680277Y-78226885D02*
X243897572Y-78316891D01*
X244093131Y-78447560D01*
X244259440Y-78613869D01*
X244390109Y-78809428D01*
X244480115Y-79026723D01*
X244526000Y-79257401D01*
X244526000Y-79492599D01*
X244480115Y-79723277D01*
X244390109Y-79940572D01*
X244259440Y-80136131D01*
X244093131Y-80302440D01*
X243897572Y-80433109D01*
X243680277Y-80523115D01*
X243449599Y-80569000D01*
X243214401Y-80569000D01*
X242983723Y-80523115D01*
X242766428Y-80433109D01*
X242570869Y-80302440D01*
X242404560Y-80136131D01*
X242273891Y-79940572D01*
X242183885Y-79723277D01*
X242138000Y-79492599D01*
X242138000Y-79257401D01*
X242183885Y-79026723D01*
X242273891Y-78809428D01*
X242404560Y-78613869D01*
X242570869Y-78447560D01*
X242766428Y-78316891D01*
X242983723Y-78226885D01*
X243214401Y-78181000D01*
X243449599Y-78181000D01*
X243680277Y-78226885D01*
X243680277Y-78226885D01*
G37*
G36*
X224630277Y-78226885D02*
X224847572Y-78316891D01*
X225043131Y-78447560D01*
X225209440Y-78613869D01*
X225340109Y-78809428D01*
X225430115Y-79026723D01*
X225476000Y-79257401D01*
X225476000Y-79492599D01*
X225430115Y-79723277D01*
X225340109Y-79940572D01*
X225209440Y-80136131D01*
X225043131Y-80302440D01*
X224847572Y-80433109D01*
X224630277Y-80523115D01*
X224399599Y-80569000D01*
X224164401Y-80569000D01*
X223933723Y-80523115D01*
X223716428Y-80433109D01*
X223520869Y-80302440D01*
X223354560Y-80136131D01*
X223223891Y-79940572D01*
X223133885Y-79723277D01*
X223088000Y-79492599D01*
X223088000Y-79257401D01*
X223133885Y-79026723D01*
X223223891Y-78809428D01*
X223354560Y-78613869D01*
X223520869Y-78447560D01*
X223716428Y-78316891D01*
X223933723Y-78226885D01*
X224164401Y-78181000D01*
X224399599Y-78181000D01*
X224630277Y-78226885D01*
X224630277Y-78226885D01*
G37*
G36*
X116934277Y-75686885D02*
X117151572Y-75776891D01*
X117347131Y-75907560D01*
X117513440Y-76073869D01*
X117644109Y-76269428D01*
X117734115Y-76486723D01*
X117780000Y-76717401D01*
X117780000Y-76952599D01*
X117734115Y-77183277D01*
X117644109Y-77400572D01*
X117513440Y-77596131D01*
X117347131Y-77762440D01*
X117151572Y-77893109D01*
X116934277Y-77983115D01*
X116703599Y-78029000D01*
X116468401Y-78029000D01*
X116237723Y-77983115D01*
X116020428Y-77893109D01*
X115824869Y-77762440D01*
X115658560Y-77596131D01*
X115527891Y-77400572D01*
X115437885Y-77183277D01*
X115392000Y-76952599D01*
X115392000Y-76717401D01*
X115437885Y-76486723D01*
X115527891Y-76269428D01*
X115658560Y-76073869D01*
X115824869Y-75907560D01*
X116020428Y-75776891D01*
X116237723Y-75686885D01*
X116468401Y-75641000D01*
X116703599Y-75641000D01*
X116934277Y-75686885D01*
X116934277Y-75686885D01*
G37*
G36*
X135984277Y-75686885D02*
X136201572Y-75776891D01*
X136397131Y-75907560D01*
X136563440Y-76073869D01*
X136694109Y-76269428D01*
X136784115Y-76486723D01*
X136830000Y-76717401D01*
X136830000Y-76952599D01*
X136784115Y-77183277D01*
X136694109Y-77400572D01*
X136563440Y-77596131D01*
X136397131Y-77762440D01*
X136201572Y-77893109D01*
X135984277Y-77983115D01*
X135753599Y-78029000D01*
X135518401Y-78029000D01*
X135287723Y-77983115D01*
X135070428Y-77893109D01*
X134874869Y-77762440D01*
X134708560Y-77596131D01*
X134577891Y-77400572D01*
X134487885Y-77183277D01*
X134442000Y-76952599D01*
X134442000Y-76717401D01*
X134487885Y-76486723D01*
X134577891Y-76269428D01*
X134708560Y-76073869D01*
X134874869Y-75907560D01*
X135070428Y-75776891D01*
X135287723Y-75686885D01*
X135518401Y-75641000D01*
X135753599Y-75641000D01*
X135984277Y-75686885D01*
X135984277Y-75686885D01*
G37*
G36*
X95852277Y-75686885D02*
X96069572Y-75776891D01*
X96265131Y-75907560D01*
X96431440Y-76073869D01*
X96562109Y-76269428D01*
X96652115Y-76486723D01*
X96698000Y-76717401D01*
X96698000Y-76952599D01*
X96652115Y-77183277D01*
X96562109Y-77400572D01*
X96431440Y-77596131D01*
X96265131Y-77762440D01*
X96069572Y-77893109D01*
X95852277Y-77983115D01*
X95621599Y-78029000D01*
X95386401Y-78029000D01*
X95155723Y-77983115D01*
X94938428Y-77893109D01*
X94742869Y-77762440D01*
X94576560Y-77596131D01*
X94445891Y-77400572D01*
X94355885Y-77183277D01*
X94310000Y-76952599D01*
X94310000Y-76717401D01*
X94355885Y-76486723D01*
X94445891Y-76269428D01*
X94576560Y-76073869D01*
X94742869Y-75907560D01*
X94938428Y-75776891D01*
X95155723Y-75686885D01*
X95386401Y-75641000D01*
X95621599Y-75641000D01*
X95852277Y-75686885D01*
X95852277Y-75686885D01*
G37*
G36*
X155034277Y-75686885D02*
X155251572Y-75776891D01*
X155447131Y-75907560D01*
X155613440Y-76073869D01*
X155744109Y-76269428D01*
X155834115Y-76486723D01*
X155880000Y-76717401D01*
X155880000Y-76952599D01*
X155834115Y-77183277D01*
X155744109Y-77400572D01*
X155613440Y-77596131D01*
X155447131Y-77762440D01*
X155251572Y-77893109D01*
X155034277Y-77983115D01*
X154803599Y-78029000D01*
X154568401Y-78029000D01*
X154337723Y-77983115D01*
X154120428Y-77893109D01*
X153924869Y-77762440D01*
X153758560Y-77596131D01*
X153627891Y-77400572D01*
X153537885Y-77183277D01*
X153492000Y-76952599D01*
X153492000Y-76717401D01*
X153537885Y-76486723D01*
X153627891Y-76269428D01*
X153758560Y-76073869D01*
X153924869Y-75907560D01*
X154120428Y-75776891D01*
X154337723Y-75686885D01*
X154568401Y-75641000D01*
X154803599Y-75641000D01*
X155034277Y-75686885D01*
X155034277Y-75686885D01*
G37*
G36*
X312006277Y-75686885D02*
X312223572Y-75776891D01*
X312419131Y-75907560D01*
X312585440Y-76073869D01*
X312716109Y-76269428D01*
X312806115Y-76486723D01*
X312852000Y-76717401D01*
X312852000Y-76952599D01*
X312806115Y-77183277D01*
X312716109Y-77400572D01*
X312585440Y-77596131D01*
X312419131Y-77762440D01*
X312223572Y-77893109D01*
X312006277Y-77983115D01*
X311775599Y-78029000D01*
X311540401Y-78029000D01*
X311309723Y-77983115D01*
X311092428Y-77893109D01*
X310896869Y-77762440D01*
X310730560Y-77596131D01*
X310599891Y-77400572D01*
X310509885Y-77183277D01*
X310464000Y-76952599D01*
X310464000Y-76717401D01*
X310509885Y-76486723D01*
X310599891Y-76269428D01*
X310730560Y-76073869D01*
X310896869Y-75907560D01*
X311092428Y-75776891D01*
X311309723Y-75686885D01*
X311540401Y-75641000D01*
X311775599Y-75641000D01*
X312006277Y-75686885D01*
X312006277Y-75686885D01*
G37*
G36*
X288130277Y-75686885D02*
X288347572Y-75776891D01*
X288543131Y-75907560D01*
X288709440Y-76073869D01*
X288840109Y-76269428D01*
X288930115Y-76486723D01*
X288976000Y-76717401D01*
X288976000Y-76952599D01*
X288930115Y-77183277D01*
X288840109Y-77400572D01*
X288709440Y-77596131D01*
X288543131Y-77762440D01*
X288347572Y-77893109D01*
X288130277Y-77983115D01*
X287899599Y-78029000D01*
X287664401Y-78029000D01*
X287433723Y-77983115D01*
X287216428Y-77893109D01*
X287020869Y-77762440D01*
X286854560Y-77596131D01*
X286723891Y-77400572D01*
X286633885Y-77183277D01*
X286588000Y-76952599D01*
X286588000Y-76717401D01*
X286633885Y-76486723D01*
X286723891Y-76269428D01*
X286854560Y-76073869D01*
X287020869Y-75907560D01*
X287216428Y-75776891D01*
X287433723Y-75686885D01*
X287664401Y-75641000D01*
X287899599Y-75641000D01*
X288130277Y-75686885D01*
X288130277Y-75686885D01*
G37*
G36*
X269080277Y-75686885D02*
X269297572Y-75776891D01*
X269493131Y-75907560D01*
X269659440Y-76073869D01*
X269790109Y-76269428D01*
X269880115Y-76486723D01*
X269926000Y-76717401D01*
X269926000Y-76952599D01*
X269880115Y-77183277D01*
X269790109Y-77400572D01*
X269659440Y-77596131D01*
X269493131Y-77762440D01*
X269297572Y-77893109D01*
X269080277Y-77983115D01*
X268849599Y-78029000D01*
X268614401Y-78029000D01*
X268383723Y-77983115D01*
X268166428Y-77893109D01*
X267970869Y-77762440D01*
X267804560Y-77596131D01*
X267673891Y-77400572D01*
X267583885Y-77183277D01*
X267538000Y-76952599D01*
X267538000Y-76717401D01*
X267583885Y-76486723D01*
X267673891Y-76269428D01*
X267804560Y-76073869D01*
X267970869Y-75907560D01*
X268166428Y-75776891D01*
X268383723Y-75686885D01*
X268614401Y-75641000D01*
X268849599Y-75641000D01*
X269080277Y-75686885D01*
X269080277Y-75686885D01*
G37*
G36*
X250030277Y-75686885D02*
X250247572Y-75776891D01*
X250443131Y-75907560D01*
X250609440Y-76073869D01*
X250740109Y-76269428D01*
X250830115Y-76486723D01*
X250876000Y-76717401D01*
X250876000Y-76952599D01*
X250830115Y-77183277D01*
X250740109Y-77400572D01*
X250609440Y-77596131D01*
X250443131Y-77762440D01*
X250247572Y-77893109D01*
X250030277Y-77983115D01*
X249799599Y-78029000D01*
X249564401Y-78029000D01*
X249333723Y-77983115D01*
X249116428Y-77893109D01*
X248920869Y-77762440D01*
X248754560Y-77596131D01*
X248623891Y-77400572D01*
X248533885Y-77183277D01*
X248488000Y-76952599D01*
X248488000Y-76717401D01*
X248533885Y-76486723D01*
X248623891Y-76269428D01*
X248754560Y-76073869D01*
X248920869Y-75907560D01*
X249116428Y-75776891D01*
X249333723Y-75686885D01*
X249564401Y-75641000D01*
X249799599Y-75641000D01*
X250030277Y-75686885D01*
X250030277Y-75686885D01*
G37*
G36*
X230980277Y-75686885D02*
X231197572Y-75776891D01*
X231393131Y-75907560D01*
X231559440Y-76073869D01*
X231690109Y-76269428D01*
X231780115Y-76486723D01*
X231826000Y-76717401D01*
X231826000Y-76952599D01*
X231780115Y-77183277D01*
X231690109Y-77400572D01*
X231559440Y-77596131D01*
X231393131Y-77762440D01*
X231197572Y-77893109D01*
X230980277Y-77983115D01*
X230749599Y-78029000D01*
X230514401Y-78029000D01*
X230283723Y-77983115D01*
X230066428Y-77893109D01*
X229870869Y-77762440D01*
X229704560Y-77596131D01*
X229573891Y-77400572D01*
X229483885Y-77183277D01*
X229438000Y-76952599D01*
X229438000Y-76717401D01*
X229483885Y-76486723D01*
X229573891Y-76269428D01*
X229704560Y-76073869D01*
X229870869Y-75907560D01*
X230066428Y-75776891D01*
X230283723Y-75686885D01*
X230514401Y-75641000D01*
X230749599Y-75641000D01*
X230980277Y-75686885D01*
X230980277Y-75686885D01*
G37*
G36*
X211930277Y-75686885D02*
X212147572Y-75776891D01*
X212343131Y-75907560D01*
X212509440Y-76073869D01*
X212640109Y-76269428D01*
X212730115Y-76486723D01*
X212776000Y-76717401D01*
X212776000Y-76952599D01*
X212730115Y-77183277D01*
X212640109Y-77400572D01*
X212509440Y-77596131D01*
X212343131Y-77762440D01*
X212147572Y-77893109D01*
X211930277Y-77983115D01*
X211699599Y-78029000D01*
X211464401Y-78029000D01*
X211233723Y-77983115D01*
X211016428Y-77893109D01*
X210820869Y-77762440D01*
X210654560Y-77596131D01*
X210523891Y-77400572D01*
X210433885Y-77183277D01*
X210388000Y-76952599D01*
X210388000Y-76717401D01*
X210433885Y-76486723D01*
X210523891Y-76269428D01*
X210654560Y-76073869D01*
X210820869Y-75907560D01*
X211016428Y-75776891D01*
X211233723Y-75686885D01*
X211464401Y-75641000D01*
X211699599Y-75641000D01*
X211930277Y-75686885D01*
X211930277Y-75686885D01*
G37*
G36*
X192880277Y-75686885D02*
X193097572Y-75776891D01*
X193293131Y-75907560D01*
X193459440Y-76073869D01*
X193590109Y-76269428D01*
X193680115Y-76486723D01*
X193726000Y-76717401D01*
X193726000Y-76952599D01*
X193680115Y-77183277D01*
X193590109Y-77400572D01*
X193459440Y-77596131D01*
X193293131Y-77762440D01*
X193097572Y-77893109D01*
X192880277Y-77983115D01*
X192649599Y-78029000D01*
X192414401Y-78029000D01*
X192183723Y-77983115D01*
X191966428Y-77893109D01*
X191770869Y-77762440D01*
X191604560Y-77596131D01*
X191473891Y-77400572D01*
X191383885Y-77183277D01*
X191338000Y-76952599D01*
X191338000Y-76717401D01*
X191383885Y-76486723D01*
X191473891Y-76269428D01*
X191604560Y-76073869D01*
X191770869Y-75907560D01*
X191966428Y-75776891D01*
X192183723Y-75686885D01*
X192414401Y-75641000D01*
X192649599Y-75641000D01*
X192880277Y-75686885D01*
X192880277Y-75686885D01*
G37*
G36*
X174084277Y-75686885D02*
X174301572Y-75776891D01*
X174497131Y-75907560D01*
X174663440Y-76073869D01*
X174794109Y-76269428D01*
X174884115Y-76486723D01*
X174930000Y-76717401D01*
X174930000Y-76952599D01*
X174884115Y-77183277D01*
X174794109Y-77400572D01*
X174663440Y-77596131D01*
X174497131Y-77762440D01*
X174301572Y-77893109D01*
X174084277Y-77983115D01*
X173853599Y-78029000D01*
X173618401Y-78029000D01*
X173387723Y-77983115D01*
X173170428Y-77893109D01*
X172974869Y-77762440D01*
X172808560Y-77596131D01*
X172677891Y-77400572D01*
X172587885Y-77183277D01*
X172542000Y-76952599D01*
X172542000Y-76717401D01*
X172587885Y-76486723D01*
X172677891Y-76269428D01*
X172808560Y-76073869D01*
X172974869Y-75907560D01*
X173170428Y-75776891D01*
X173387723Y-75686885D01*
X173618401Y-75641000D01*
X173853599Y-75641000D01*
X174084277Y-75686885D01*
X174084277Y-75686885D01*
G37*
G36*
X151468228Y-71698703D02*
X151623100Y-71762853D01*
X151762481Y-71855985D01*
X151881015Y-71974519D01*
X151974147Y-72113900D01*
X152038297Y-72268772D01*
X152071000Y-72433184D01*
X152071000Y-72600816D01*
X152038297Y-72765228D01*
X151974147Y-72920100D01*
X151881015Y-73059481D01*
X151762481Y-73178015D01*
X151623100Y-73271147D01*
X151468228Y-73335297D01*
X151303816Y-73368000D01*
X151136184Y-73368000D01*
X150971772Y-73335297D01*
X150816900Y-73271147D01*
X150677519Y-73178015D01*
X150558985Y-73059481D01*
X150465853Y-72920100D01*
X150401703Y-72765228D01*
X150369000Y-72600816D01*
X150369000Y-72433184D01*
X150401703Y-72268772D01*
X150465853Y-72113900D01*
X150558985Y-71974519D01*
X150677519Y-71855985D01*
X150816900Y-71762853D01*
X150971772Y-71698703D01*
X151136184Y-71666000D01*
X151303816Y-71666000D01*
X151468228Y-71698703D01*
X151468228Y-71698703D01*
G37*
G36*
X144271000Y-73368000D02*
X142569000Y-73368000D01*
X142569000Y-71666000D01*
X144271000Y-71666000D01*
X144271000Y-73368000D01*
X144271000Y-73368000D01*
G37*
G36*
X163956000Y-73241000D02*
X162254000Y-73241000D01*
X162254000Y-71539000D01*
X163956000Y-71539000D01*
X163956000Y-73241000D01*
X163956000Y-73241000D01*
G37*
G36*
X171153228Y-71571703D02*
X171308100Y-71635853D01*
X171447481Y-71728985D01*
X171566015Y-71847519D01*
X171659147Y-71986900D01*
X171723297Y-72141772D01*
X171756000Y-72306184D01*
X171756000Y-72473816D01*
X171723297Y-72638228D01*
X171659147Y-72793100D01*
X171566015Y-72932481D01*
X171447481Y-73051015D01*
X171308100Y-73144147D01*
X171153228Y-73208297D01*
X170988816Y-73241000D01*
X170821184Y-73241000D01*
X170656772Y-73208297D01*
X170501900Y-73144147D01*
X170362519Y-73051015D01*
X170243985Y-72932481D01*
X170150853Y-72793100D01*
X170086703Y-72638228D01*
X170054000Y-72473816D01*
X170054000Y-72306184D01*
X170086703Y-72141772D01*
X170150853Y-71986900D01*
X170243985Y-71847519D01*
X170362519Y-71728985D01*
X170501900Y-71635853D01*
X170656772Y-71571703D01*
X170821184Y-71539000D01*
X170988816Y-71539000D01*
X171153228Y-71571703D01*
X171153228Y-71571703D01*
G37*
G36*
X182879000Y-73241000D02*
X181177000Y-73241000D01*
X181177000Y-71539000D01*
X182879000Y-71539000D01*
X182879000Y-73241000D01*
X182879000Y-73241000D01*
G37*
G36*
X133815228Y-71571703D02*
X133970100Y-71635853D01*
X134109481Y-71728985D01*
X134228015Y-71847519D01*
X134321147Y-71986900D01*
X134385297Y-72141772D01*
X134418000Y-72306184D01*
X134418000Y-72473816D01*
X134385297Y-72638228D01*
X134321147Y-72793100D01*
X134228015Y-72932481D01*
X134109481Y-73051015D01*
X133970100Y-73144147D01*
X133815228Y-73208297D01*
X133650816Y-73241000D01*
X133483184Y-73241000D01*
X133318772Y-73208297D01*
X133163900Y-73144147D01*
X133024519Y-73051015D01*
X132905985Y-72932481D01*
X132812853Y-72793100D01*
X132748703Y-72638228D01*
X132716000Y-72473816D01*
X132716000Y-72306184D01*
X132748703Y-72141772D01*
X132812853Y-71986900D01*
X132905985Y-71847519D01*
X133024519Y-71728985D01*
X133163900Y-71635853D01*
X133318772Y-71571703D01*
X133483184Y-71539000D01*
X133650816Y-71539000D01*
X133815228Y-71571703D01*
X133815228Y-71571703D01*
G37*
G36*
X228557228Y-71571703D02*
X228712100Y-71635853D01*
X228851481Y-71728985D01*
X228970015Y-71847519D01*
X229063147Y-71986900D01*
X229127297Y-72141772D01*
X229160000Y-72306184D01*
X229160000Y-72473816D01*
X229127297Y-72638228D01*
X229063147Y-72793100D01*
X228970015Y-72932481D01*
X228851481Y-73051015D01*
X228712100Y-73144147D01*
X228557228Y-73208297D01*
X228392816Y-73241000D01*
X228225184Y-73241000D01*
X228060772Y-73208297D01*
X227905900Y-73144147D01*
X227766519Y-73051015D01*
X227647985Y-72932481D01*
X227554853Y-72793100D01*
X227490703Y-72638228D01*
X227458000Y-72473816D01*
X227458000Y-72306184D01*
X227490703Y-72141772D01*
X227554853Y-71986900D01*
X227647985Y-71847519D01*
X227766519Y-71728985D01*
X227905900Y-71635853D01*
X228060772Y-71571703D01*
X228225184Y-71539000D01*
X228392816Y-71539000D01*
X228557228Y-71571703D01*
X228557228Y-71571703D01*
G37*
G36*
X258444000Y-73241000D02*
X256742000Y-73241000D01*
X256742000Y-71539000D01*
X258444000Y-71539000D01*
X258444000Y-73241000D01*
X258444000Y-73241000D01*
G37*
G36*
X265641228Y-71571703D02*
X265796100Y-71635853D01*
X265935481Y-71728985D01*
X266054015Y-71847519D01*
X266147147Y-71986900D01*
X266211297Y-72141772D01*
X266244000Y-72306184D01*
X266244000Y-72473816D01*
X266211297Y-72638228D01*
X266147147Y-72793100D01*
X266054015Y-72932481D01*
X265935481Y-73051015D01*
X265796100Y-73144147D01*
X265641228Y-73208297D01*
X265476816Y-73241000D01*
X265309184Y-73241000D01*
X265144772Y-73208297D01*
X264989900Y-73144147D01*
X264850519Y-73051015D01*
X264731985Y-72932481D01*
X264638853Y-72793100D01*
X264574703Y-72638228D01*
X264542000Y-72473816D01*
X264542000Y-72306184D01*
X264574703Y-72141772D01*
X264638853Y-71986900D01*
X264731985Y-71847519D01*
X264850519Y-71728985D01*
X264989900Y-71635853D01*
X265144772Y-71571703D01*
X265309184Y-71539000D01*
X265476816Y-71539000D01*
X265641228Y-71571703D01*
X265641228Y-71571703D01*
G37*
G36*
X277240000Y-73241000D02*
X275538000Y-73241000D01*
X275538000Y-71539000D01*
X277240000Y-71539000D01*
X277240000Y-73241000D01*
X277240000Y-73241000D01*
G37*
G36*
X126618000Y-73241000D02*
X124916000Y-73241000D01*
X124916000Y-71539000D01*
X126618000Y-71539000D01*
X126618000Y-73241000D01*
X126618000Y-73241000D01*
G37*
G36*
X190076228Y-71571703D02*
X190231100Y-71635853D01*
X190370481Y-71728985D01*
X190489015Y-71847519D01*
X190582147Y-71986900D01*
X190646297Y-72141772D01*
X190679000Y-72306184D01*
X190679000Y-72473816D01*
X190646297Y-72638228D01*
X190582147Y-72793100D01*
X190489015Y-72932481D01*
X190370481Y-73051015D01*
X190231100Y-73144147D01*
X190076228Y-73208297D01*
X189911816Y-73241000D01*
X189744184Y-73241000D01*
X189579772Y-73208297D01*
X189424900Y-73144147D01*
X189285519Y-73051015D01*
X189166985Y-72932481D01*
X189073853Y-72793100D01*
X189009703Y-72638228D01*
X188977000Y-72473816D01*
X188977000Y-72306184D01*
X189009703Y-72141772D01*
X189073853Y-71986900D01*
X189166985Y-71847519D01*
X189285519Y-71728985D01*
X189424900Y-71635853D01*
X189579772Y-71571703D01*
X189744184Y-71539000D01*
X189911816Y-71539000D01*
X190076228Y-71571703D01*
X190076228Y-71571703D01*
G37*
G36*
X284437228Y-71571703D02*
X284592100Y-71635853D01*
X284731481Y-71728985D01*
X284850015Y-71847519D01*
X284943147Y-71986900D01*
X285007297Y-72141772D01*
X285040000Y-72306184D01*
X285040000Y-72473816D01*
X285007297Y-72638228D01*
X284943147Y-72793100D01*
X284850015Y-72932481D01*
X284731481Y-73051015D01*
X284592100Y-73144147D01*
X284437228Y-73208297D01*
X284272816Y-73241000D01*
X284105184Y-73241000D01*
X283940772Y-73208297D01*
X283785900Y-73144147D01*
X283646519Y-73051015D01*
X283527985Y-72932481D01*
X283434853Y-72793100D01*
X283370703Y-72638228D01*
X283338000Y-72473816D01*
X283338000Y-72306184D01*
X283370703Y-72141772D01*
X283434853Y-71986900D01*
X283527985Y-71847519D01*
X283646519Y-71728985D01*
X283785900Y-71635853D01*
X283940772Y-71571703D01*
X284105184Y-71539000D01*
X284272816Y-71539000D01*
X284437228Y-71571703D01*
X284437228Y-71571703D01*
G37*
G36*
X304037000Y-73241000D02*
X302335000Y-73241000D01*
X302335000Y-71539000D01*
X304037000Y-71539000D01*
X304037000Y-73241000D01*
X304037000Y-73241000D01*
G37*
G36*
X311234228Y-71571703D02*
X311389100Y-71635853D01*
X311528481Y-71728985D01*
X311647015Y-71847519D01*
X311740147Y-71986900D01*
X311804297Y-72141772D01*
X311837000Y-72306184D01*
X311837000Y-72473816D01*
X311804297Y-72638228D01*
X311740147Y-72793100D01*
X311647015Y-72932481D01*
X311528481Y-73051015D01*
X311389100Y-73144147D01*
X311234228Y-73208297D01*
X311069816Y-73241000D01*
X310902184Y-73241000D01*
X310737772Y-73208297D01*
X310582900Y-73144147D01*
X310443519Y-73051015D01*
X310324985Y-72932481D01*
X310231853Y-72793100D01*
X310167703Y-72638228D01*
X310135000Y-72473816D01*
X310135000Y-72306184D01*
X310167703Y-72141772D01*
X310231853Y-71986900D01*
X310324985Y-71847519D01*
X310443519Y-71728985D01*
X310582900Y-71635853D01*
X310737772Y-71571703D01*
X310902184Y-71539000D01*
X311069816Y-71539000D01*
X311234228Y-71571703D01*
X311234228Y-71571703D01*
G37*
G36*
X221360000Y-73241000D02*
X219658000Y-73241000D01*
X219658000Y-71539000D01*
X221360000Y-71539000D01*
X221360000Y-73241000D01*
X221360000Y-73241000D01*
G37*
G36*
X209253228Y-71444703D02*
X209408100Y-71508853D01*
X209547481Y-71601985D01*
X209666015Y-71720519D01*
X209759147Y-71859900D01*
X209823297Y-72014772D01*
X209856000Y-72179184D01*
X209856000Y-72346816D01*
X209823297Y-72511228D01*
X209759147Y-72666100D01*
X209666015Y-72805481D01*
X209547481Y-72924015D01*
X209408100Y-73017147D01*
X209253228Y-73081297D01*
X209088816Y-73114000D01*
X208921184Y-73114000D01*
X208756772Y-73081297D01*
X208601900Y-73017147D01*
X208462519Y-72924015D01*
X208343985Y-72805481D01*
X208250853Y-72666100D01*
X208186703Y-72511228D01*
X208154000Y-72346816D01*
X208154000Y-72179184D01*
X208186703Y-72014772D01*
X208250853Y-71859900D01*
X208343985Y-71720519D01*
X208462519Y-71601985D01*
X208601900Y-71508853D01*
X208756772Y-71444703D01*
X208921184Y-71412000D01*
X209088816Y-71412000D01*
X209253228Y-71444703D01*
X209253228Y-71444703D01*
G37*
G36*
X239648000Y-73114000D02*
X237946000Y-73114000D01*
X237946000Y-71412000D01*
X239648000Y-71412000D01*
X239648000Y-73114000D01*
X239648000Y-73114000D01*
G37*
G36*
X202056000Y-73114000D02*
X200354000Y-73114000D01*
X200354000Y-71412000D01*
X202056000Y-71412000D01*
X202056000Y-73114000D01*
X202056000Y-73114000D01*
G37*
G36*
X246845228Y-71444703D02*
X247000100Y-71508853D01*
X247139481Y-71601985D01*
X247258015Y-71720519D01*
X247351147Y-71859900D01*
X247415297Y-72014772D01*
X247448000Y-72179184D01*
X247448000Y-72346816D01*
X247415297Y-72511228D01*
X247351147Y-72666100D01*
X247258015Y-72805481D01*
X247139481Y-72924015D01*
X247000100Y-73017147D01*
X246845228Y-73081297D01*
X246680816Y-73114000D01*
X246513184Y-73114000D01*
X246348772Y-73081297D01*
X246193900Y-73017147D01*
X246054519Y-72924015D01*
X245935985Y-72805481D01*
X245842853Y-72666100D01*
X245778703Y-72511228D01*
X245746000Y-72346816D01*
X245746000Y-72179184D01*
X245778703Y-72014772D01*
X245842853Y-71859900D01*
X245935985Y-71720519D01*
X246054519Y-71601985D01*
X246193900Y-71508853D01*
X246348772Y-71444703D01*
X246513184Y-71412000D01*
X246680816Y-71412000D01*
X246845228Y-71444703D01*
X246845228Y-71444703D01*
G37*
G36*
X106293228Y-68142703D02*
X106448100Y-68206853D01*
X106587481Y-68299985D01*
X106706015Y-68418519D01*
X106799147Y-68557900D01*
X106863297Y-68712772D01*
X106896000Y-68877184D01*
X106896000Y-69044816D01*
X106863297Y-69209228D01*
X106799147Y-69364100D01*
X106706015Y-69503481D01*
X106587481Y-69622015D01*
X106448100Y-69715147D01*
X106293228Y-69779297D01*
X106128816Y-69812000D01*
X105961184Y-69812000D01*
X105796772Y-69779297D01*
X105641900Y-69715147D01*
X105502519Y-69622015D01*
X105383985Y-69503481D01*
X105290853Y-69364100D01*
X105226703Y-69209228D01*
X105194000Y-69044816D01*
X105194000Y-68877184D01*
X105226703Y-68712772D01*
X105290853Y-68557900D01*
X105383985Y-68418519D01*
X105502519Y-68299985D01*
X105641900Y-68206853D01*
X105796772Y-68142703D01*
X105961184Y-68110000D01*
X106128816Y-68110000D01*
X106293228Y-68142703D01*
X106293228Y-68142703D01*
G37*
G36*
X113913228Y-68142703D02*
X114068100Y-68206853D01*
X114207481Y-68299985D01*
X114326015Y-68418519D01*
X114419147Y-68557900D01*
X114483297Y-68712772D01*
X114516000Y-68877184D01*
X114516000Y-69044816D01*
X114483297Y-69209228D01*
X114419147Y-69364100D01*
X114326015Y-69503481D01*
X114207481Y-69622015D01*
X114068100Y-69715147D01*
X113913228Y-69779297D01*
X113748816Y-69812000D01*
X113581184Y-69812000D01*
X113416772Y-69779297D01*
X113261900Y-69715147D01*
X113122519Y-69622015D01*
X113003985Y-69503481D01*
X112910853Y-69364100D01*
X112846703Y-69209228D01*
X112814000Y-69044816D01*
X112814000Y-68877184D01*
X112846703Y-68712772D01*
X112910853Y-68557900D01*
X113003985Y-68418519D01*
X113122519Y-68299985D01*
X113261900Y-68206853D01*
X113416772Y-68142703D01*
X113581184Y-68110000D01*
X113748816Y-68110000D01*
X113913228Y-68142703D01*
X113913228Y-68142703D01*
G37*
G36*
X101213228Y-68142703D02*
X101368100Y-68206853D01*
X101507481Y-68299985D01*
X101626015Y-68418519D01*
X101719147Y-68557900D01*
X101783297Y-68712772D01*
X101816000Y-68877184D01*
X101816000Y-69044816D01*
X101783297Y-69209228D01*
X101719147Y-69364100D01*
X101626015Y-69503481D01*
X101507481Y-69622015D01*
X101368100Y-69715147D01*
X101213228Y-69779297D01*
X101048816Y-69812000D01*
X100881184Y-69812000D01*
X100716772Y-69779297D01*
X100561900Y-69715147D01*
X100422519Y-69622015D01*
X100303985Y-69503481D01*
X100210853Y-69364100D01*
X100146703Y-69209228D01*
X100114000Y-69044816D01*
X100114000Y-68877184D01*
X100146703Y-68712772D01*
X100210853Y-68557900D01*
X100303985Y-68418519D01*
X100422519Y-68299985D01*
X100561900Y-68206853D01*
X100716772Y-68142703D01*
X100881184Y-68110000D01*
X101048816Y-68110000D01*
X101213228Y-68142703D01*
X101213228Y-68142703D01*
G37*
G36*
X98673228Y-68142703D02*
X98828100Y-68206853D01*
X98967481Y-68299985D01*
X99086015Y-68418519D01*
X99179147Y-68557900D01*
X99243297Y-68712772D01*
X99276000Y-68877184D01*
X99276000Y-69044816D01*
X99243297Y-69209228D01*
X99179147Y-69364100D01*
X99086015Y-69503481D01*
X98967481Y-69622015D01*
X98828100Y-69715147D01*
X98673228Y-69779297D01*
X98508816Y-69812000D01*
X98341184Y-69812000D01*
X98176772Y-69779297D01*
X98021900Y-69715147D01*
X97882519Y-69622015D01*
X97763985Y-69503481D01*
X97670853Y-69364100D01*
X97606703Y-69209228D01*
X97574000Y-69044816D01*
X97574000Y-68877184D01*
X97606703Y-68712772D01*
X97670853Y-68557900D01*
X97763985Y-68418519D01*
X97882519Y-68299985D01*
X98021900Y-68206853D01*
X98176772Y-68142703D01*
X98341184Y-68110000D01*
X98508816Y-68110000D01*
X98673228Y-68142703D01*
X98673228Y-68142703D01*
G37*
G36*
X84036000Y-69812000D02*
X82334000Y-69812000D01*
X82334000Y-68110000D01*
X84036000Y-68110000D01*
X84036000Y-69812000D01*
X84036000Y-69812000D01*
G37*
G36*
X85973228Y-68142703D02*
X86128100Y-68206853D01*
X86267481Y-68299985D01*
X86386015Y-68418519D01*
X86479147Y-68557900D01*
X86543297Y-68712772D01*
X86576000Y-68877184D01*
X86576000Y-69044816D01*
X86543297Y-69209228D01*
X86479147Y-69364100D01*
X86386015Y-69503481D01*
X86267481Y-69622015D01*
X86128100Y-69715147D01*
X85973228Y-69779297D01*
X85808816Y-69812000D01*
X85641184Y-69812000D01*
X85476772Y-69779297D01*
X85321900Y-69715147D01*
X85182519Y-69622015D01*
X85063985Y-69503481D01*
X84970853Y-69364100D01*
X84906703Y-69209228D01*
X84874000Y-69044816D01*
X84874000Y-68877184D01*
X84906703Y-68712772D01*
X84970853Y-68557900D01*
X85063985Y-68418519D01*
X85182519Y-68299985D01*
X85321900Y-68206853D01*
X85476772Y-68142703D01*
X85641184Y-68110000D01*
X85808816Y-68110000D01*
X85973228Y-68142703D01*
X85973228Y-68142703D01*
G37*
G36*
X88513228Y-68142703D02*
X88668100Y-68206853D01*
X88807481Y-68299985D01*
X88926015Y-68418519D01*
X89019147Y-68557900D01*
X89083297Y-68712772D01*
X89116000Y-68877184D01*
X89116000Y-69044816D01*
X89083297Y-69209228D01*
X89019147Y-69364100D01*
X88926015Y-69503481D01*
X88807481Y-69622015D01*
X88668100Y-69715147D01*
X88513228Y-69779297D01*
X88348816Y-69812000D01*
X88181184Y-69812000D01*
X88016772Y-69779297D01*
X87861900Y-69715147D01*
X87722519Y-69622015D01*
X87603985Y-69503481D01*
X87510853Y-69364100D01*
X87446703Y-69209228D01*
X87414000Y-69044816D01*
X87414000Y-68877184D01*
X87446703Y-68712772D01*
X87510853Y-68557900D01*
X87603985Y-68418519D01*
X87722519Y-68299985D01*
X87861900Y-68206853D01*
X88016772Y-68142703D01*
X88181184Y-68110000D01*
X88348816Y-68110000D01*
X88513228Y-68142703D01*
X88513228Y-68142703D01*
G37*
G36*
X91053228Y-68142703D02*
X91208100Y-68206853D01*
X91347481Y-68299985D01*
X91466015Y-68418519D01*
X91559147Y-68557900D01*
X91623297Y-68712772D01*
X91656000Y-68877184D01*
X91656000Y-69044816D01*
X91623297Y-69209228D01*
X91559147Y-69364100D01*
X91466015Y-69503481D01*
X91347481Y-69622015D01*
X91208100Y-69715147D01*
X91053228Y-69779297D01*
X90888816Y-69812000D01*
X90721184Y-69812000D01*
X90556772Y-69779297D01*
X90401900Y-69715147D01*
X90262519Y-69622015D01*
X90143985Y-69503481D01*
X90050853Y-69364100D01*
X89986703Y-69209228D01*
X89954000Y-69044816D01*
X89954000Y-68877184D01*
X89986703Y-68712772D01*
X90050853Y-68557900D01*
X90143985Y-68418519D01*
X90262519Y-68299985D01*
X90401900Y-68206853D01*
X90556772Y-68142703D01*
X90721184Y-68110000D01*
X90888816Y-68110000D01*
X91053228Y-68142703D01*
X91053228Y-68142703D01*
G37*
G36*
X93593228Y-68142703D02*
X93748100Y-68206853D01*
X93887481Y-68299985D01*
X94006015Y-68418519D01*
X94099147Y-68557900D01*
X94163297Y-68712772D01*
X94196000Y-68877184D01*
X94196000Y-69044816D01*
X94163297Y-69209228D01*
X94099147Y-69364100D01*
X94006015Y-69503481D01*
X93887481Y-69622015D01*
X93748100Y-69715147D01*
X93593228Y-69779297D01*
X93428816Y-69812000D01*
X93261184Y-69812000D01*
X93096772Y-69779297D01*
X92941900Y-69715147D01*
X92802519Y-69622015D01*
X92683985Y-69503481D01*
X92590853Y-69364100D01*
X92526703Y-69209228D01*
X92494000Y-69044816D01*
X92494000Y-68877184D01*
X92526703Y-68712772D01*
X92590853Y-68557900D01*
X92683985Y-68418519D01*
X92802519Y-68299985D01*
X92941900Y-68206853D01*
X93096772Y-68142703D01*
X93261184Y-68110000D01*
X93428816Y-68110000D01*
X93593228Y-68142703D01*
X93593228Y-68142703D01*
G37*
G36*
X96133228Y-68142703D02*
X96288100Y-68206853D01*
X96427481Y-68299985D01*
X96546015Y-68418519D01*
X96639147Y-68557900D01*
X96703297Y-68712772D01*
X96736000Y-68877184D01*
X96736000Y-69044816D01*
X96703297Y-69209228D01*
X96639147Y-69364100D01*
X96546015Y-69503481D01*
X96427481Y-69622015D01*
X96288100Y-69715147D01*
X96133228Y-69779297D01*
X95968816Y-69812000D01*
X95801184Y-69812000D01*
X95636772Y-69779297D01*
X95481900Y-69715147D01*
X95342519Y-69622015D01*
X95223985Y-69503481D01*
X95130853Y-69364100D01*
X95066703Y-69209228D01*
X95034000Y-69044816D01*
X95034000Y-68877184D01*
X95066703Y-68712772D01*
X95130853Y-68557900D01*
X95223985Y-68418519D01*
X95342519Y-68299985D01*
X95481900Y-68206853D01*
X95636772Y-68142703D01*
X95801184Y-68110000D01*
X95968816Y-68110000D01*
X96133228Y-68142703D01*
X96133228Y-68142703D01*
G37*
G36*
X103753228Y-68142703D02*
X103908100Y-68206853D01*
X104047481Y-68299985D01*
X104166015Y-68418519D01*
X104259147Y-68557900D01*
X104323297Y-68712772D01*
X104356000Y-68877184D01*
X104356000Y-69044816D01*
X104323297Y-69209228D01*
X104259147Y-69364100D01*
X104166015Y-69503481D01*
X104047481Y-69622015D01*
X103908100Y-69715147D01*
X103753228Y-69779297D01*
X103588816Y-69812000D01*
X103421184Y-69812000D01*
X103256772Y-69779297D01*
X103101900Y-69715147D01*
X102962519Y-69622015D01*
X102843985Y-69503481D01*
X102750853Y-69364100D01*
X102686703Y-69209228D01*
X102654000Y-69044816D01*
X102654000Y-68877184D01*
X102686703Y-68712772D01*
X102750853Y-68557900D01*
X102843985Y-68418519D01*
X102962519Y-68299985D01*
X103101900Y-68206853D01*
X103256772Y-68142703D01*
X103421184Y-68110000D01*
X103588816Y-68110000D01*
X103753228Y-68142703D01*
X103753228Y-68142703D01*
G37*
G36*
X108833228Y-68142703D02*
X108988100Y-68206853D01*
X109127481Y-68299985D01*
X109246015Y-68418519D01*
X109339147Y-68557900D01*
X109403297Y-68712772D01*
X109436000Y-68877184D01*
X109436000Y-69044816D01*
X109403297Y-69209228D01*
X109339147Y-69364100D01*
X109246015Y-69503481D01*
X109127481Y-69622015D01*
X108988100Y-69715147D01*
X108833228Y-69779297D01*
X108668816Y-69812000D01*
X108501184Y-69812000D01*
X108336772Y-69779297D01*
X108181900Y-69715147D01*
X108042519Y-69622015D01*
X107923985Y-69503481D01*
X107830853Y-69364100D01*
X107766703Y-69209228D01*
X107734000Y-69044816D01*
X107734000Y-68877184D01*
X107766703Y-68712772D01*
X107830853Y-68557900D01*
X107923985Y-68418519D01*
X108042519Y-68299985D01*
X108181900Y-68206853D01*
X108336772Y-68142703D01*
X108501184Y-68110000D01*
X108668816Y-68110000D01*
X108833228Y-68142703D01*
X108833228Y-68142703D01*
G37*
G36*
X111373228Y-68142703D02*
X111528100Y-68206853D01*
X111667481Y-68299985D01*
X111786015Y-68418519D01*
X111879147Y-68557900D01*
X111943297Y-68712772D01*
X111976000Y-68877184D01*
X111976000Y-69044816D01*
X111943297Y-69209228D01*
X111879147Y-69364100D01*
X111786015Y-69503481D01*
X111667481Y-69622015D01*
X111528100Y-69715147D01*
X111373228Y-69779297D01*
X111208816Y-69812000D01*
X111041184Y-69812000D01*
X110876772Y-69779297D01*
X110721900Y-69715147D01*
X110582519Y-69622015D01*
X110463985Y-69503481D01*
X110370853Y-69364100D01*
X110306703Y-69209228D01*
X110274000Y-69044816D01*
X110274000Y-68877184D01*
X110306703Y-68712772D01*
X110370853Y-68557900D01*
X110463985Y-68418519D01*
X110582519Y-68299985D01*
X110721900Y-68206853D01*
X110876772Y-68142703D01*
X111041184Y-68110000D01*
X111208816Y-68110000D01*
X111373228Y-68142703D01*
X111373228Y-68142703D01*
G37*
G36*
X116453228Y-68142703D02*
X116608100Y-68206853D01*
X116747481Y-68299985D01*
X116866015Y-68418519D01*
X116959147Y-68557900D01*
X117023297Y-68712772D01*
X117056000Y-68877184D01*
X117056000Y-69044816D01*
X117023297Y-69209228D01*
X116959147Y-69364100D01*
X116866015Y-69503481D01*
X116747481Y-69622015D01*
X116608100Y-69715147D01*
X116453228Y-69779297D01*
X116288816Y-69812000D01*
X116121184Y-69812000D01*
X115956772Y-69779297D01*
X115801900Y-69715147D01*
X115662519Y-69622015D01*
X115543985Y-69503481D01*
X115450853Y-69364100D01*
X115386703Y-69209228D01*
X115354000Y-69044816D01*
X115354000Y-68877184D01*
X115386703Y-68712772D01*
X115450853Y-68557900D01*
X115543985Y-68418519D01*
X115662519Y-68299985D01*
X115801900Y-68206853D01*
X115956772Y-68142703D01*
X116121184Y-68110000D01*
X116288816Y-68110000D01*
X116453228Y-68142703D01*
X116453228Y-68142703D01*
G37*
G36*
X119850000Y-66473000D02*
X118148000Y-66473000D01*
X118148000Y-64771000D01*
X119850000Y-64771000D01*
X119850000Y-66473000D01*
X119850000Y-66473000D01*
G37*
G36*
X100800000Y-65838000D02*
X99098000Y-65838000D01*
X99098000Y-64136000D01*
X100800000Y-64136000D01*
X100800000Y-65838000D01*
X100800000Y-65838000D01*
G37*
G36*
X181958277Y-59176885D02*
X182175572Y-59266891D01*
X182371131Y-59397560D01*
X182537440Y-59563869D01*
X182668109Y-59759428D01*
X182758115Y-59976723D01*
X182804000Y-60207401D01*
X182804000Y-60442599D01*
X182758115Y-60673277D01*
X182668109Y-60890572D01*
X182537440Y-61086131D01*
X182371131Y-61252440D01*
X182175572Y-61383109D01*
X181958277Y-61473115D01*
X181727599Y-61519000D01*
X181492401Y-61519000D01*
X181261723Y-61473115D01*
X181044428Y-61383109D01*
X180848869Y-61252440D01*
X180682560Y-61086131D01*
X180551891Y-60890572D01*
X180461885Y-60673277D01*
X180416000Y-60442599D01*
X180416000Y-60207401D01*
X180461885Y-59976723D01*
X180551891Y-59759428D01*
X180682560Y-59563869D01*
X180848869Y-59397560D01*
X181044428Y-59266891D01*
X181261723Y-59176885D01*
X181492401Y-59131000D01*
X181727599Y-59131000D01*
X181958277Y-59176885D01*
X181958277Y-59176885D01*
G37*
G36*
X303116277Y-59176885D02*
X303333572Y-59266891D01*
X303529131Y-59397560D01*
X303695440Y-59563869D01*
X303826109Y-59759428D01*
X303916115Y-59976723D01*
X303962000Y-60207401D01*
X303962000Y-60442599D01*
X303916115Y-60673277D01*
X303826109Y-60890572D01*
X303695440Y-61086131D01*
X303529131Y-61252440D01*
X303333572Y-61383109D01*
X303116277Y-61473115D01*
X302885599Y-61519000D01*
X302650401Y-61519000D01*
X302419723Y-61473115D01*
X302202428Y-61383109D01*
X302006869Y-61252440D01*
X301840560Y-61086131D01*
X301709891Y-60890572D01*
X301619885Y-60673277D01*
X301574000Y-60442599D01*
X301574000Y-60207401D01*
X301619885Y-59976723D01*
X301709891Y-59759428D01*
X301840560Y-59563869D01*
X302006869Y-59397560D01*
X302202428Y-59266891D01*
X302419723Y-59176885D01*
X302650401Y-59131000D01*
X302885599Y-59131000D01*
X303116277Y-59176885D01*
X303116277Y-59176885D01*
G37*
G36*
X106012277Y-59176885D02*
X106229572Y-59266891D01*
X106425131Y-59397560D01*
X106591440Y-59563869D01*
X106722109Y-59759428D01*
X106812115Y-59976723D01*
X106858000Y-60207401D01*
X106858000Y-60442599D01*
X106812115Y-60673277D01*
X106722109Y-60890572D01*
X106591440Y-61086131D01*
X106425131Y-61252440D01*
X106229572Y-61383109D01*
X106012277Y-61473115D01*
X105781599Y-61519000D01*
X105546401Y-61519000D01*
X105315723Y-61473115D01*
X105098428Y-61383109D01*
X104902869Y-61252440D01*
X104736560Y-61086131D01*
X104605891Y-60890572D01*
X104515885Y-60673277D01*
X104470000Y-60442599D01*
X104470000Y-60207401D01*
X104515885Y-59976723D01*
X104605891Y-59759428D01*
X104736560Y-59563869D01*
X104902869Y-59397560D01*
X105098428Y-59266891D01*
X105315723Y-59176885D01*
X105546401Y-59131000D01*
X105781599Y-59131000D01*
X106012277Y-59176885D01*
X106012277Y-59176885D01*
G37*
G36*
X201008277Y-59176885D02*
X201225572Y-59266891D01*
X201421131Y-59397560D01*
X201587440Y-59563869D01*
X201718109Y-59759428D01*
X201808115Y-59976723D01*
X201854000Y-60207401D01*
X201854000Y-60442599D01*
X201808115Y-60673277D01*
X201718109Y-60890572D01*
X201587440Y-61086131D01*
X201421131Y-61252440D01*
X201225572Y-61383109D01*
X201008277Y-61473115D01*
X200777599Y-61519000D01*
X200542401Y-61519000D01*
X200311723Y-61473115D01*
X200094428Y-61383109D01*
X199898869Y-61252440D01*
X199732560Y-61086131D01*
X199601891Y-60890572D01*
X199511885Y-60673277D01*
X199466000Y-60442599D01*
X199466000Y-60207401D01*
X199511885Y-59976723D01*
X199601891Y-59759428D01*
X199732560Y-59563869D01*
X199898869Y-59397560D01*
X200094428Y-59266891D01*
X200311723Y-59176885D01*
X200542401Y-59131000D01*
X200777599Y-59131000D01*
X201008277Y-59176885D01*
X201008277Y-59176885D01*
G37*
G36*
X125062277Y-59176885D02*
X125279572Y-59266891D01*
X125475131Y-59397560D01*
X125641440Y-59563869D01*
X125772109Y-59759428D01*
X125862115Y-59976723D01*
X125908000Y-60207401D01*
X125908000Y-60442599D01*
X125862115Y-60673277D01*
X125772109Y-60890572D01*
X125641440Y-61086131D01*
X125475131Y-61252440D01*
X125279572Y-61383109D01*
X125062277Y-61473115D01*
X124831599Y-61519000D01*
X124596401Y-61519000D01*
X124365723Y-61473115D01*
X124148428Y-61383109D01*
X123952869Y-61252440D01*
X123786560Y-61086131D01*
X123655891Y-60890572D01*
X123565885Y-60673277D01*
X123520000Y-60442599D01*
X123520000Y-60207401D01*
X123565885Y-59976723D01*
X123655891Y-59759428D01*
X123786560Y-59563869D01*
X123952869Y-59397560D01*
X124148428Y-59266891D01*
X124365723Y-59176885D01*
X124596401Y-59131000D01*
X124831599Y-59131000D01*
X125062277Y-59176885D01*
X125062277Y-59176885D01*
G37*
G36*
X220058277Y-59176885D02*
X220275572Y-59266891D01*
X220471131Y-59397560D01*
X220637440Y-59563869D01*
X220768109Y-59759428D01*
X220858115Y-59976723D01*
X220904000Y-60207401D01*
X220904000Y-60442599D01*
X220858115Y-60673277D01*
X220768109Y-60890572D01*
X220637440Y-61086131D01*
X220471131Y-61252440D01*
X220275572Y-61383109D01*
X220058277Y-61473115D01*
X219827599Y-61519000D01*
X219592401Y-61519000D01*
X219361723Y-61473115D01*
X219144428Y-61383109D01*
X218948869Y-61252440D01*
X218782560Y-61086131D01*
X218651891Y-60890572D01*
X218561885Y-60673277D01*
X218516000Y-60442599D01*
X218516000Y-60207401D01*
X218561885Y-59976723D01*
X218651891Y-59759428D01*
X218782560Y-59563869D01*
X218948869Y-59397560D01*
X219144428Y-59266891D01*
X219361723Y-59176885D01*
X219592401Y-59131000D01*
X219827599Y-59131000D01*
X220058277Y-59176885D01*
X220058277Y-59176885D01*
G37*
G36*
X239108277Y-59176885D02*
X239325572Y-59266891D01*
X239521131Y-59397560D01*
X239687440Y-59563869D01*
X239818109Y-59759428D01*
X239908115Y-59976723D01*
X239954000Y-60207401D01*
X239954000Y-60442599D01*
X239908115Y-60673277D01*
X239818109Y-60890572D01*
X239687440Y-61086131D01*
X239521131Y-61252440D01*
X239325572Y-61383109D01*
X239108277Y-61473115D01*
X238877599Y-61519000D01*
X238642401Y-61519000D01*
X238411723Y-61473115D01*
X238194428Y-61383109D01*
X237998869Y-61252440D01*
X237832560Y-61086131D01*
X237701891Y-60890572D01*
X237611885Y-60673277D01*
X237566000Y-60442599D01*
X237566000Y-60207401D01*
X237611885Y-59976723D01*
X237701891Y-59759428D01*
X237832560Y-59563869D01*
X237998869Y-59397560D01*
X238194428Y-59266891D01*
X238411723Y-59176885D01*
X238642401Y-59131000D01*
X238877599Y-59131000D01*
X239108277Y-59176885D01*
X239108277Y-59176885D01*
G37*
G36*
X144112277Y-59176885D02*
X144329572Y-59266891D01*
X144525131Y-59397560D01*
X144691440Y-59563869D01*
X144822109Y-59759428D01*
X144912115Y-59976723D01*
X144958000Y-60207401D01*
X144958000Y-60442599D01*
X144912115Y-60673277D01*
X144822109Y-60890572D01*
X144691440Y-61086131D01*
X144525131Y-61252440D01*
X144329572Y-61383109D01*
X144112277Y-61473115D01*
X143881599Y-61519000D01*
X143646401Y-61519000D01*
X143415723Y-61473115D01*
X143198428Y-61383109D01*
X143002869Y-61252440D01*
X142836560Y-61086131D01*
X142705891Y-60890572D01*
X142615885Y-60673277D01*
X142570000Y-60442599D01*
X142570000Y-60207401D01*
X142615885Y-59976723D01*
X142705891Y-59759428D01*
X142836560Y-59563869D01*
X143002869Y-59397560D01*
X143198428Y-59266891D01*
X143415723Y-59176885D01*
X143646401Y-59131000D01*
X143881599Y-59131000D01*
X144112277Y-59176885D01*
X144112277Y-59176885D01*
G37*
G36*
X258158277Y-59176885D02*
X258375572Y-59266891D01*
X258571131Y-59397560D01*
X258737440Y-59563869D01*
X258868109Y-59759428D01*
X258958115Y-59976723D01*
X259004000Y-60207401D01*
X259004000Y-60442599D01*
X258958115Y-60673277D01*
X258868109Y-60890572D01*
X258737440Y-61086131D01*
X258571131Y-61252440D01*
X258375572Y-61383109D01*
X258158277Y-61473115D01*
X257927599Y-61519000D01*
X257692401Y-61519000D01*
X257461723Y-61473115D01*
X257244428Y-61383109D01*
X257048869Y-61252440D01*
X256882560Y-61086131D01*
X256751891Y-60890572D01*
X256661885Y-60673277D01*
X256616000Y-60442599D01*
X256616000Y-60207401D01*
X256661885Y-59976723D01*
X256751891Y-59759428D01*
X256882560Y-59563869D01*
X257048869Y-59397560D01*
X257244428Y-59266891D01*
X257461723Y-59176885D01*
X257692401Y-59131000D01*
X257927599Y-59131000D01*
X258158277Y-59176885D01*
X258158277Y-59176885D01*
G37*
G36*
X163162277Y-59176885D02*
X163379572Y-59266891D01*
X163575131Y-59397560D01*
X163741440Y-59563869D01*
X163872109Y-59759428D01*
X163962115Y-59976723D01*
X164008000Y-60207401D01*
X164008000Y-60442599D01*
X163962115Y-60673277D01*
X163872109Y-60890572D01*
X163741440Y-61086131D01*
X163575131Y-61252440D01*
X163379572Y-61383109D01*
X163162277Y-61473115D01*
X162931599Y-61519000D01*
X162696401Y-61519000D01*
X162465723Y-61473115D01*
X162248428Y-61383109D01*
X162052869Y-61252440D01*
X161886560Y-61086131D01*
X161755891Y-60890572D01*
X161665885Y-60673277D01*
X161620000Y-60442599D01*
X161620000Y-60207401D01*
X161665885Y-59976723D01*
X161755891Y-59759428D01*
X161886560Y-59563869D01*
X162052869Y-59397560D01*
X162248428Y-59266891D01*
X162465723Y-59176885D01*
X162696401Y-59131000D01*
X162931599Y-59131000D01*
X163162277Y-59176885D01*
X163162277Y-59176885D01*
G37*
G36*
X86962277Y-59176885D02*
X87179572Y-59266891D01*
X87375131Y-59397560D01*
X87541440Y-59563869D01*
X87672109Y-59759428D01*
X87762115Y-59976723D01*
X87808000Y-60207401D01*
X87808000Y-60442599D01*
X87762115Y-60673277D01*
X87672109Y-60890572D01*
X87541440Y-61086131D01*
X87375131Y-61252440D01*
X87179572Y-61383109D01*
X86962277Y-61473115D01*
X86731599Y-61519000D01*
X86496401Y-61519000D01*
X86265723Y-61473115D01*
X86048428Y-61383109D01*
X85852869Y-61252440D01*
X85686560Y-61086131D01*
X85555891Y-60890572D01*
X85465885Y-60673277D01*
X85420000Y-60442599D01*
X85420000Y-60207401D01*
X85465885Y-59976723D01*
X85555891Y-59759428D01*
X85686560Y-59563869D01*
X85852869Y-59397560D01*
X86048428Y-59266891D01*
X86265723Y-59176885D01*
X86496401Y-59131000D01*
X86731599Y-59131000D01*
X86962277Y-59176885D01*
X86962277Y-59176885D01*
G37*
G36*
X277208277Y-59176885D02*
X277425572Y-59266891D01*
X277621131Y-59397560D01*
X277787440Y-59563869D01*
X277918109Y-59759428D01*
X278008115Y-59976723D01*
X278054000Y-60207401D01*
X278054000Y-60442599D01*
X278008115Y-60673277D01*
X277918109Y-60890572D01*
X277787440Y-61086131D01*
X277621131Y-61252440D01*
X277425572Y-61383109D01*
X277208277Y-61473115D01*
X276977599Y-61519000D01*
X276742401Y-61519000D01*
X276511723Y-61473115D01*
X276294428Y-61383109D01*
X276098869Y-61252440D01*
X275932560Y-61086131D01*
X275801891Y-60890572D01*
X275711885Y-60673277D01*
X275666000Y-60442599D01*
X275666000Y-60207401D01*
X275711885Y-59976723D01*
X275801891Y-59759428D01*
X275932560Y-59563869D01*
X276098869Y-59397560D01*
X276294428Y-59266891D01*
X276511723Y-59176885D01*
X276742401Y-59131000D01*
X276977599Y-59131000D01*
X277208277Y-59176885D01*
X277208277Y-59176885D01*
G37*
G36*
X188308277Y-56636885D02*
X188525572Y-56726891D01*
X188721131Y-56857560D01*
X188887440Y-57023869D01*
X189018109Y-57219428D01*
X189108115Y-57436723D01*
X189154000Y-57667401D01*
X189154000Y-57902599D01*
X189108115Y-58133277D01*
X189018109Y-58350572D01*
X188887440Y-58546131D01*
X188721131Y-58712440D01*
X188525572Y-58843109D01*
X188308277Y-58933115D01*
X188077599Y-58979000D01*
X187842401Y-58979000D01*
X187611723Y-58933115D01*
X187394428Y-58843109D01*
X187198869Y-58712440D01*
X187032560Y-58546131D01*
X186901891Y-58350572D01*
X186811885Y-58133277D01*
X186766000Y-57902599D01*
X186766000Y-57667401D01*
X186811885Y-57436723D01*
X186901891Y-57219428D01*
X187032560Y-57023869D01*
X187198869Y-56857560D01*
X187394428Y-56726891D01*
X187611723Y-56636885D01*
X187842401Y-56591000D01*
X188077599Y-56591000D01*
X188308277Y-56636885D01*
X188308277Y-56636885D01*
G37*
G36*
X93312277Y-56636885D02*
X93529572Y-56726891D01*
X93725131Y-56857560D01*
X93891440Y-57023869D01*
X94022109Y-57219428D01*
X94112115Y-57436723D01*
X94158000Y-57667401D01*
X94158000Y-57902599D01*
X94112115Y-58133277D01*
X94022109Y-58350572D01*
X93891440Y-58546131D01*
X93725131Y-58712440D01*
X93529572Y-58843109D01*
X93312277Y-58933115D01*
X93081599Y-58979000D01*
X92846401Y-58979000D01*
X92615723Y-58933115D01*
X92398428Y-58843109D01*
X92202869Y-58712440D01*
X92036560Y-58546131D01*
X91905891Y-58350572D01*
X91815885Y-58133277D01*
X91770000Y-57902599D01*
X91770000Y-57667401D01*
X91815885Y-57436723D01*
X91905891Y-57219428D01*
X92036560Y-57023869D01*
X92202869Y-56857560D01*
X92398428Y-56726891D01*
X92615723Y-56636885D01*
X92846401Y-56591000D01*
X93081599Y-56591000D01*
X93312277Y-56636885D01*
X93312277Y-56636885D01*
G37*
G36*
X112362277Y-56636885D02*
X112579572Y-56726891D01*
X112775131Y-56857560D01*
X112941440Y-57023869D01*
X113072109Y-57219428D01*
X113162115Y-57436723D01*
X113208000Y-57667401D01*
X113208000Y-57902599D01*
X113162115Y-58133277D01*
X113072109Y-58350572D01*
X112941440Y-58546131D01*
X112775131Y-58712440D01*
X112579572Y-58843109D01*
X112362277Y-58933115D01*
X112131599Y-58979000D01*
X111896401Y-58979000D01*
X111665723Y-58933115D01*
X111448428Y-58843109D01*
X111252869Y-58712440D01*
X111086560Y-58546131D01*
X110955891Y-58350572D01*
X110865885Y-58133277D01*
X110820000Y-57902599D01*
X110820000Y-57667401D01*
X110865885Y-57436723D01*
X110955891Y-57219428D01*
X111086560Y-57023869D01*
X111252869Y-56857560D01*
X111448428Y-56726891D01*
X111665723Y-56636885D01*
X111896401Y-56591000D01*
X112131599Y-56591000D01*
X112362277Y-56636885D01*
X112362277Y-56636885D01*
G37*
G36*
X131412277Y-56636885D02*
X131629572Y-56726891D01*
X131825131Y-56857560D01*
X131991440Y-57023869D01*
X132122109Y-57219428D01*
X132212115Y-57436723D01*
X132258000Y-57667401D01*
X132258000Y-57902599D01*
X132212115Y-58133277D01*
X132122109Y-58350572D01*
X131991440Y-58546131D01*
X131825131Y-58712440D01*
X131629572Y-58843109D01*
X131412277Y-58933115D01*
X131181599Y-58979000D01*
X130946401Y-58979000D01*
X130715723Y-58933115D01*
X130498428Y-58843109D01*
X130302869Y-58712440D01*
X130136560Y-58546131D01*
X130005891Y-58350572D01*
X129915885Y-58133277D01*
X129870000Y-57902599D01*
X129870000Y-57667401D01*
X129915885Y-57436723D01*
X130005891Y-57219428D01*
X130136560Y-57023869D01*
X130302869Y-56857560D01*
X130498428Y-56726891D01*
X130715723Y-56636885D01*
X130946401Y-56591000D01*
X131181599Y-56591000D01*
X131412277Y-56636885D01*
X131412277Y-56636885D01*
G37*
G36*
X150462277Y-56636885D02*
X150679572Y-56726891D01*
X150875131Y-56857560D01*
X151041440Y-57023869D01*
X151172109Y-57219428D01*
X151262115Y-57436723D01*
X151308000Y-57667401D01*
X151308000Y-57902599D01*
X151262115Y-58133277D01*
X151172109Y-58350572D01*
X151041440Y-58546131D01*
X150875131Y-58712440D01*
X150679572Y-58843109D01*
X150462277Y-58933115D01*
X150231599Y-58979000D01*
X149996401Y-58979000D01*
X149765723Y-58933115D01*
X149548428Y-58843109D01*
X149352869Y-58712440D01*
X149186560Y-58546131D01*
X149055891Y-58350572D01*
X148965885Y-58133277D01*
X148920000Y-57902599D01*
X148920000Y-57667401D01*
X148965885Y-57436723D01*
X149055891Y-57219428D01*
X149186560Y-57023869D01*
X149352869Y-56857560D01*
X149548428Y-56726891D01*
X149765723Y-56636885D01*
X149996401Y-56591000D01*
X150231599Y-56591000D01*
X150462277Y-56636885D01*
X150462277Y-56636885D01*
G37*
G36*
X169512277Y-56636885D02*
X169729572Y-56726891D01*
X169925131Y-56857560D01*
X170091440Y-57023869D01*
X170222109Y-57219428D01*
X170312115Y-57436723D01*
X170358000Y-57667401D01*
X170358000Y-57902599D01*
X170312115Y-58133277D01*
X170222109Y-58350572D01*
X170091440Y-58546131D01*
X169925131Y-58712440D01*
X169729572Y-58843109D01*
X169512277Y-58933115D01*
X169281599Y-58979000D01*
X169046401Y-58979000D01*
X168815723Y-58933115D01*
X168598428Y-58843109D01*
X168402869Y-58712440D01*
X168236560Y-58546131D01*
X168105891Y-58350572D01*
X168015885Y-58133277D01*
X167970000Y-57902599D01*
X167970000Y-57667401D01*
X168015885Y-57436723D01*
X168105891Y-57219428D01*
X168236560Y-57023869D01*
X168402869Y-56857560D01*
X168598428Y-56726891D01*
X168815723Y-56636885D01*
X169046401Y-56591000D01*
X169281599Y-56591000D01*
X169512277Y-56636885D01*
X169512277Y-56636885D01*
G37*
G36*
X309466277Y-56636885D02*
X309683572Y-56726891D01*
X309879131Y-56857560D01*
X310045440Y-57023869D01*
X310176109Y-57219428D01*
X310266115Y-57436723D01*
X310312000Y-57667401D01*
X310312000Y-57902599D01*
X310266115Y-58133277D01*
X310176109Y-58350572D01*
X310045440Y-58546131D01*
X309879131Y-58712440D01*
X309683572Y-58843109D01*
X309466277Y-58933115D01*
X309235599Y-58979000D01*
X309000401Y-58979000D01*
X308769723Y-58933115D01*
X308552428Y-58843109D01*
X308356869Y-58712440D01*
X308190560Y-58546131D01*
X308059891Y-58350572D01*
X307969885Y-58133277D01*
X307924000Y-57902599D01*
X307924000Y-57667401D01*
X307969885Y-57436723D01*
X308059891Y-57219428D01*
X308190560Y-57023869D01*
X308356869Y-56857560D01*
X308552428Y-56726891D01*
X308769723Y-56636885D01*
X309000401Y-56591000D01*
X309235599Y-56591000D01*
X309466277Y-56636885D01*
X309466277Y-56636885D01*
G37*
G36*
X264508277Y-56636885D02*
X264725572Y-56726891D01*
X264921131Y-56857560D01*
X265087440Y-57023869D01*
X265218109Y-57219428D01*
X265308115Y-57436723D01*
X265354000Y-57667401D01*
X265354000Y-57902599D01*
X265308115Y-58133277D01*
X265218109Y-58350572D01*
X265087440Y-58546131D01*
X264921131Y-58712440D01*
X264725572Y-58843109D01*
X264508277Y-58933115D01*
X264277599Y-58979000D01*
X264042401Y-58979000D01*
X263811723Y-58933115D01*
X263594428Y-58843109D01*
X263398869Y-58712440D01*
X263232560Y-58546131D01*
X263101891Y-58350572D01*
X263011885Y-58133277D01*
X262966000Y-57902599D01*
X262966000Y-57667401D01*
X263011885Y-57436723D01*
X263101891Y-57219428D01*
X263232560Y-57023869D01*
X263398869Y-56857560D01*
X263594428Y-56726891D01*
X263811723Y-56636885D01*
X264042401Y-56591000D01*
X264277599Y-56591000D01*
X264508277Y-56636885D01*
X264508277Y-56636885D01*
G37*
G36*
X245458277Y-56636885D02*
X245675572Y-56726891D01*
X245871131Y-56857560D01*
X246037440Y-57023869D01*
X246168109Y-57219428D01*
X246258115Y-57436723D01*
X246304000Y-57667401D01*
X246304000Y-57902599D01*
X246258115Y-58133277D01*
X246168109Y-58350572D01*
X246037440Y-58546131D01*
X245871131Y-58712440D01*
X245675572Y-58843109D01*
X245458277Y-58933115D01*
X245227599Y-58979000D01*
X244992401Y-58979000D01*
X244761723Y-58933115D01*
X244544428Y-58843109D01*
X244348869Y-58712440D01*
X244182560Y-58546131D01*
X244051891Y-58350572D01*
X243961885Y-58133277D01*
X243916000Y-57902599D01*
X243916000Y-57667401D01*
X243961885Y-57436723D01*
X244051891Y-57219428D01*
X244182560Y-57023869D01*
X244348869Y-56857560D01*
X244544428Y-56726891D01*
X244761723Y-56636885D01*
X244992401Y-56591000D01*
X245227599Y-56591000D01*
X245458277Y-56636885D01*
X245458277Y-56636885D01*
G37*
G36*
X226408277Y-56636885D02*
X226625572Y-56726891D01*
X226821131Y-56857560D01*
X226987440Y-57023869D01*
X227118109Y-57219428D01*
X227208115Y-57436723D01*
X227254000Y-57667401D01*
X227254000Y-57902599D01*
X227208115Y-58133277D01*
X227118109Y-58350572D01*
X226987440Y-58546131D01*
X226821131Y-58712440D01*
X226625572Y-58843109D01*
X226408277Y-58933115D01*
X226177599Y-58979000D01*
X225942401Y-58979000D01*
X225711723Y-58933115D01*
X225494428Y-58843109D01*
X225298869Y-58712440D01*
X225132560Y-58546131D01*
X225001891Y-58350572D01*
X224911885Y-58133277D01*
X224866000Y-57902599D01*
X224866000Y-57667401D01*
X224911885Y-57436723D01*
X225001891Y-57219428D01*
X225132560Y-57023869D01*
X225298869Y-56857560D01*
X225494428Y-56726891D01*
X225711723Y-56636885D01*
X225942401Y-56591000D01*
X226177599Y-56591000D01*
X226408277Y-56636885D01*
X226408277Y-56636885D01*
G37*
G36*
X207358277Y-56636885D02*
X207575572Y-56726891D01*
X207771131Y-56857560D01*
X207937440Y-57023869D01*
X208068109Y-57219428D01*
X208158115Y-57436723D01*
X208204000Y-57667401D01*
X208204000Y-57902599D01*
X208158115Y-58133277D01*
X208068109Y-58350572D01*
X207937440Y-58546131D01*
X207771131Y-58712440D01*
X207575572Y-58843109D01*
X207358277Y-58933115D01*
X207127599Y-58979000D01*
X206892401Y-58979000D01*
X206661723Y-58933115D01*
X206444428Y-58843109D01*
X206248869Y-58712440D01*
X206082560Y-58546131D01*
X205951891Y-58350572D01*
X205861885Y-58133277D01*
X205816000Y-57902599D01*
X205816000Y-57667401D01*
X205861885Y-57436723D01*
X205951891Y-57219428D01*
X206082560Y-57023869D01*
X206248869Y-56857560D01*
X206444428Y-56726891D01*
X206661723Y-56636885D01*
X206892401Y-56591000D01*
X207127599Y-56591000D01*
X207358277Y-56636885D01*
X207358277Y-56636885D01*
G37*
G36*
X283558277Y-56636885D02*
X283775572Y-56726891D01*
X283971131Y-56857560D01*
X284137440Y-57023869D01*
X284268109Y-57219428D01*
X284358115Y-57436723D01*
X284404000Y-57667401D01*
X284404000Y-57902599D01*
X284358115Y-58133277D01*
X284268109Y-58350572D01*
X284137440Y-58546131D01*
X283971131Y-58712440D01*
X283775572Y-58843109D01*
X283558277Y-58933115D01*
X283327599Y-58979000D01*
X283092401Y-58979000D01*
X282861723Y-58933115D01*
X282644428Y-58843109D01*
X282448869Y-58712440D01*
X282282560Y-58546131D01*
X282151891Y-58350572D01*
X282061885Y-58133277D01*
X282016000Y-57902599D01*
X282016000Y-57667401D01*
X282061885Y-57436723D01*
X282151891Y-57219428D01*
X282282560Y-57023869D01*
X282448869Y-56857560D01*
X282644428Y-56726891D01*
X282861723Y-56636885D01*
X283092401Y-56591000D01*
X283327599Y-56591000D01*
X283558277Y-56636885D01*
X283558277Y-56636885D01*
G37*
G36*
X119247228Y-57003703D02*
X119402100Y-57067853D01*
X119541481Y-57160985D01*
X119660015Y-57279519D01*
X119753147Y-57418900D01*
X119817297Y-57573772D01*
X119850000Y-57738184D01*
X119850000Y-57905816D01*
X119817297Y-58070228D01*
X119753147Y-58225100D01*
X119660015Y-58364481D01*
X119541481Y-58483015D01*
X119402100Y-58576147D01*
X119247228Y-58640297D01*
X119082816Y-58673000D01*
X118915184Y-58673000D01*
X118750772Y-58640297D01*
X118595900Y-58576147D01*
X118456519Y-58483015D01*
X118337985Y-58364481D01*
X118244853Y-58225100D01*
X118180703Y-58070228D01*
X118148000Y-57905816D01*
X118148000Y-57738184D01*
X118180703Y-57573772D01*
X118244853Y-57418900D01*
X118337985Y-57279519D01*
X118456519Y-57160985D01*
X118595900Y-57067853D01*
X118750772Y-57003703D01*
X118915184Y-56971000D01*
X119082816Y-56971000D01*
X119247228Y-57003703D01*
X119247228Y-57003703D01*
G37*
G36*
X100197228Y-56368703D02*
X100352100Y-56432853D01*
X100491481Y-56525985D01*
X100610015Y-56644519D01*
X100703147Y-56783900D01*
X100767297Y-56938772D01*
X100800000Y-57103184D01*
X100800000Y-57270816D01*
X100767297Y-57435228D01*
X100703147Y-57590100D01*
X100610015Y-57729481D01*
X100491481Y-57848015D01*
X100352100Y-57941147D01*
X100197228Y-58005297D01*
X100032816Y-58038000D01*
X99865184Y-58038000D01*
X99700772Y-58005297D01*
X99545900Y-57941147D01*
X99406519Y-57848015D01*
X99287985Y-57729481D01*
X99194853Y-57590100D01*
X99130703Y-57435228D01*
X99098000Y-57270816D01*
X99098000Y-57103184D01*
X99130703Y-56938772D01*
X99194853Y-56783900D01*
X99287985Y-56644519D01*
X99406519Y-56525985D01*
X99545900Y-56432853D01*
X99700772Y-56368703D01*
X99865184Y-56336000D01*
X100032816Y-56336000D01*
X100197228Y-56368703D01*
X100197228Y-56368703D01*
G37*
G36*
X116453228Y-52902703D02*
X116608100Y-52966853D01*
X116747481Y-53059985D01*
X116866015Y-53178519D01*
X116959147Y-53317900D01*
X117023297Y-53472772D01*
X117056000Y-53637184D01*
X117056000Y-53804816D01*
X117023297Y-53969228D01*
X116959147Y-54124100D01*
X116866015Y-54263481D01*
X116747481Y-54382015D01*
X116608100Y-54475147D01*
X116453228Y-54539297D01*
X116288816Y-54572000D01*
X116121184Y-54572000D01*
X115956772Y-54539297D01*
X115801900Y-54475147D01*
X115662519Y-54382015D01*
X115543985Y-54263481D01*
X115450853Y-54124100D01*
X115386703Y-53969228D01*
X115354000Y-53804816D01*
X115354000Y-53637184D01*
X115386703Y-53472772D01*
X115450853Y-53317900D01*
X115543985Y-53178519D01*
X115662519Y-53059985D01*
X115801900Y-52966853D01*
X115956772Y-52902703D01*
X116121184Y-52870000D01*
X116288816Y-52870000D01*
X116453228Y-52902703D01*
X116453228Y-52902703D01*
G37*
G36*
X113913228Y-52902703D02*
X114068100Y-52966853D01*
X114207481Y-53059985D01*
X114326015Y-53178519D01*
X114419147Y-53317900D01*
X114483297Y-53472772D01*
X114516000Y-53637184D01*
X114516000Y-53804816D01*
X114483297Y-53969228D01*
X114419147Y-54124100D01*
X114326015Y-54263481D01*
X114207481Y-54382015D01*
X114068100Y-54475147D01*
X113913228Y-54539297D01*
X113748816Y-54572000D01*
X113581184Y-54572000D01*
X113416772Y-54539297D01*
X113261900Y-54475147D01*
X113122519Y-54382015D01*
X113003985Y-54263481D01*
X112910853Y-54124100D01*
X112846703Y-53969228D01*
X112814000Y-53804816D01*
X112814000Y-53637184D01*
X112846703Y-53472772D01*
X112910853Y-53317900D01*
X113003985Y-53178519D01*
X113122519Y-53059985D01*
X113261900Y-52966853D01*
X113416772Y-52902703D01*
X113581184Y-52870000D01*
X113748816Y-52870000D01*
X113913228Y-52902703D01*
X113913228Y-52902703D01*
G37*
G36*
X111373228Y-52902703D02*
X111528100Y-52966853D01*
X111667481Y-53059985D01*
X111786015Y-53178519D01*
X111879147Y-53317900D01*
X111943297Y-53472772D01*
X111976000Y-53637184D01*
X111976000Y-53804816D01*
X111943297Y-53969228D01*
X111879147Y-54124100D01*
X111786015Y-54263481D01*
X111667481Y-54382015D01*
X111528100Y-54475147D01*
X111373228Y-54539297D01*
X111208816Y-54572000D01*
X111041184Y-54572000D01*
X110876772Y-54539297D01*
X110721900Y-54475147D01*
X110582519Y-54382015D01*
X110463985Y-54263481D01*
X110370853Y-54124100D01*
X110306703Y-53969228D01*
X110274000Y-53804816D01*
X110274000Y-53637184D01*
X110306703Y-53472772D01*
X110370853Y-53317900D01*
X110463985Y-53178519D01*
X110582519Y-53059985D01*
X110721900Y-52966853D01*
X110876772Y-52902703D01*
X111041184Y-52870000D01*
X111208816Y-52870000D01*
X111373228Y-52902703D01*
X111373228Y-52902703D01*
G37*
G36*
X108833228Y-52902703D02*
X108988100Y-52966853D01*
X109127481Y-53059985D01*
X109246015Y-53178519D01*
X109339147Y-53317900D01*
X109403297Y-53472772D01*
X109436000Y-53637184D01*
X109436000Y-53804816D01*
X109403297Y-53969228D01*
X109339147Y-54124100D01*
X109246015Y-54263481D01*
X109127481Y-54382015D01*
X108988100Y-54475147D01*
X108833228Y-54539297D01*
X108668816Y-54572000D01*
X108501184Y-54572000D01*
X108336772Y-54539297D01*
X108181900Y-54475147D01*
X108042519Y-54382015D01*
X107923985Y-54263481D01*
X107830853Y-54124100D01*
X107766703Y-53969228D01*
X107734000Y-53804816D01*
X107734000Y-53637184D01*
X107766703Y-53472772D01*
X107830853Y-53317900D01*
X107923985Y-53178519D01*
X108042519Y-53059985D01*
X108181900Y-52966853D01*
X108336772Y-52902703D01*
X108501184Y-52870000D01*
X108668816Y-52870000D01*
X108833228Y-52902703D01*
X108833228Y-52902703D01*
G37*
G36*
X106293228Y-52902703D02*
X106448100Y-52966853D01*
X106587481Y-53059985D01*
X106706015Y-53178519D01*
X106799147Y-53317900D01*
X106863297Y-53472772D01*
X106896000Y-53637184D01*
X106896000Y-53804816D01*
X106863297Y-53969228D01*
X106799147Y-54124100D01*
X106706015Y-54263481D01*
X106587481Y-54382015D01*
X106448100Y-54475147D01*
X106293228Y-54539297D01*
X106128816Y-54572000D01*
X105961184Y-54572000D01*
X105796772Y-54539297D01*
X105641900Y-54475147D01*
X105502519Y-54382015D01*
X105383985Y-54263481D01*
X105290853Y-54124100D01*
X105226703Y-53969228D01*
X105194000Y-53804816D01*
X105194000Y-53637184D01*
X105226703Y-53472772D01*
X105290853Y-53317900D01*
X105383985Y-53178519D01*
X105502519Y-53059985D01*
X105641900Y-52966853D01*
X105796772Y-52902703D01*
X105961184Y-52870000D01*
X106128816Y-52870000D01*
X106293228Y-52902703D01*
X106293228Y-52902703D01*
G37*
G36*
X103753228Y-52902703D02*
X103908100Y-52966853D01*
X104047481Y-53059985D01*
X104166015Y-53178519D01*
X104259147Y-53317900D01*
X104323297Y-53472772D01*
X104356000Y-53637184D01*
X104356000Y-53804816D01*
X104323297Y-53969228D01*
X104259147Y-54124100D01*
X104166015Y-54263481D01*
X104047481Y-54382015D01*
X103908100Y-54475147D01*
X103753228Y-54539297D01*
X103588816Y-54572000D01*
X103421184Y-54572000D01*
X103256772Y-54539297D01*
X103101900Y-54475147D01*
X102962519Y-54382015D01*
X102843985Y-54263481D01*
X102750853Y-54124100D01*
X102686703Y-53969228D01*
X102654000Y-53804816D01*
X102654000Y-53637184D01*
X102686703Y-53472772D01*
X102750853Y-53317900D01*
X102843985Y-53178519D01*
X102962519Y-53059985D01*
X103101900Y-52966853D01*
X103256772Y-52902703D01*
X103421184Y-52870000D01*
X103588816Y-52870000D01*
X103753228Y-52902703D01*
X103753228Y-52902703D01*
G37*
G36*
X101213228Y-52902703D02*
X101368100Y-52966853D01*
X101507481Y-53059985D01*
X101626015Y-53178519D01*
X101719147Y-53317900D01*
X101783297Y-53472772D01*
X101816000Y-53637184D01*
X101816000Y-53804816D01*
X101783297Y-53969228D01*
X101719147Y-54124100D01*
X101626015Y-54263481D01*
X101507481Y-54382015D01*
X101368100Y-54475147D01*
X101213228Y-54539297D01*
X101048816Y-54572000D01*
X100881184Y-54572000D01*
X100716772Y-54539297D01*
X100561900Y-54475147D01*
X100422519Y-54382015D01*
X100303985Y-54263481D01*
X100210853Y-54124100D01*
X100146703Y-53969228D01*
X100114000Y-53804816D01*
X100114000Y-53637184D01*
X100146703Y-53472772D01*
X100210853Y-53317900D01*
X100303985Y-53178519D01*
X100422519Y-53059985D01*
X100561900Y-52966853D01*
X100716772Y-52902703D01*
X100881184Y-52870000D01*
X101048816Y-52870000D01*
X101213228Y-52902703D01*
X101213228Y-52902703D01*
G37*
G36*
X98673228Y-52902703D02*
X98828100Y-52966853D01*
X98967481Y-53059985D01*
X99086015Y-53178519D01*
X99179147Y-53317900D01*
X99243297Y-53472772D01*
X99276000Y-53637184D01*
X99276000Y-53804816D01*
X99243297Y-53969228D01*
X99179147Y-54124100D01*
X99086015Y-54263481D01*
X98967481Y-54382015D01*
X98828100Y-54475147D01*
X98673228Y-54539297D01*
X98508816Y-54572000D01*
X98341184Y-54572000D01*
X98176772Y-54539297D01*
X98021900Y-54475147D01*
X97882519Y-54382015D01*
X97763985Y-54263481D01*
X97670853Y-54124100D01*
X97606703Y-53969228D01*
X97574000Y-53804816D01*
X97574000Y-53637184D01*
X97606703Y-53472772D01*
X97670853Y-53317900D01*
X97763985Y-53178519D01*
X97882519Y-53059985D01*
X98021900Y-52966853D01*
X98176772Y-52902703D01*
X98341184Y-52870000D01*
X98508816Y-52870000D01*
X98673228Y-52902703D01*
X98673228Y-52902703D01*
G37*
G36*
X96133228Y-52902703D02*
X96288100Y-52966853D01*
X96427481Y-53059985D01*
X96546015Y-53178519D01*
X96639147Y-53317900D01*
X96703297Y-53472772D01*
X96736000Y-53637184D01*
X96736000Y-53804816D01*
X96703297Y-53969228D01*
X96639147Y-54124100D01*
X96546015Y-54263481D01*
X96427481Y-54382015D01*
X96288100Y-54475147D01*
X96133228Y-54539297D01*
X95968816Y-54572000D01*
X95801184Y-54572000D01*
X95636772Y-54539297D01*
X95481900Y-54475147D01*
X95342519Y-54382015D01*
X95223985Y-54263481D01*
X95130853Y-54124100D01*
X95066703Y-53969228D01*
X95034000Y-53804816D01*
X95034000Y-53637184D01*
X95066703Y-53472772D01*
X95130853Y-53317900D01*
X95223985Y-53178519D01*
X95342519Y-53059985D01*
X95481900Y-52966853D01*
X95636772Y-52902703D01*
X95801184Y-52870000D01*
X95968816Y-52870000D01*
X96133228Y-52902703D01*
X96133228Y-52902703D01*
G37*
G36*
X93593228Y-52902703D02*
X93748100Y-52966853D01*
X93887481Y-53059985D01*
X94006015Y-53178519D01*
X94099147Y-53317900D01*
X94163297Y-53472772D01*
X94196000Y-53637184D01*
X94196000Y-53804816D01*
X94163297Y-53969228D01*
X94099147Y-54124100D01*
X94006015Y-54263481D01*
X93887481Y-54382015D01*
X93748100Y-54475147D01*
X93593228Y-54539297D01*
X93428816Y-54572000D01*
X93261184Y-54572000D01*
X93096772Y-54539297D01*
X92941900Y-54475147D01*
X92802519Y-54382015D01*
X92683985Y-54263481D01*
X92590853Y-54124100D01*
X92526703Y-53969228D01*
X92494000Y-53804816D01*
X92494000Y-53637184D01*
X92526703Y-53472772D01*
X92590853Y-53317900D01*
X92683985Y-53178519D01*
X92802519Y-53059985D01*
X92941900Y-52966853D01*
X93096772Y-52902703D01*
X93261184Y-52870000D01*
X93428816Y-52870000D01*
X93593228Y-52902703D01*
X93593228Y-52902703D01*
G37*
G36*
X91053228Y-52902703D02*
X91208100Y-52966853D01*
X91347481Y-53059985D01*
X91466015Y-53178519D01*
X91559147Y-53317900D01*
X91623297Y-53472772D01*
X91656000Y-53637184D01*
X91656000Y-53804816D01*
X91623297Y-53969228D01*
X91559147Y-54124100D01*
X91466015Y-54263481D01*
X91347481Y-54382015D01*
X91208100Y-54475147D01*
X91053228Y-54539297D01*
X90888816Y-54572000D01*
X90721184Y-54572000D01*
X90556772Y-54539297D01*
X90401900Y-54475147D01*
X90262519Y-54382015D01*
X90143985Y-54263481D01*
X90050853Y-54124100D01*
X89986703Y-53969228D01*
X89954000Y-53804816D01*
X89954000Y-53637184D01*
X89986703Y-53472772D01*
X90050853Y-53317900D01*
X90143985Y-53178519D01*
X90262519Y-53059985D01*
X90401900Y-52966853D01*
X90556772Y-52902703D01*
X90721184Y-52870000D01*
X90888816Y-52870000D01*
X91053228Y-52902703D01*
X91053228Y-52902703D01*
G37*
G36*
X88513228Y-52902703D02*
X88668100Y-52966853D01*
X88807481Y-53059985D01*
X88926015Y-53178519D01*
X89019147Y-53317900D01*
X89083297Y-53472772D01*
X89116000Y-53637184D01*
X89116000Y-53804816D01*
X89083297Y-53969228D01*
X89019147Y-54124100D01*
X88926015Y-54263481D01*
X88807481Y-54382015D01*
X88668100Y-54475147D01*
X88513228Y-54539297D01*
X88348816Y-54572000D01*
X88181184Y-54572000D01*
X88016772Y-54539297D01*
X87861900Y-54475147D01*
X87722519Y-54382015D01*
X87603985Y-54263481D01*
X87510853Y-54124100D01*
X87446703Y-53969228D01*
X87414000Y-53804816D01*
X87414000Y-53637184D01*
X87446703Y-53472772D01*
X87510853Y-53317900D01*
X87603985Y-53178519D01*
X87722519Y-53059985D01*
X87861900Y-52966853D01*
X88016772Y-52902703D01*
X88181184Y-52870000D01*
X88348816Y-52870000D01*
X88513228Y-52902703D01*
X88513228Y-52902703D01*
G37*
G36*
X85973228Y-52902703D02*
X86128100Y-52966853D01*
X86267481Y-53059985D01*
X86386015Y-53178519D01*
X86479147Y-53317900D01*
X86543297Y-53472772D01*
X86576000Y-53637184D01*
X86576000Y-53804816D01*
X86543297Y-53969228D01*
X86479147Y-54124100D01*
X86386015Y-54263481D01*
X86267481Y-54382015D01*
X86128100Y-54475147D01*
X85973228Y-54539297D01*
X85808816Y-54572000D01*
X85641184Y-54572000D01*
X85476772Y-54539297D01*
X85321900Y-54475147D01*
X85182519Y-54382015D01*
X85063985Y-54263481D01*
X84970853Y-54124100D01*
X84906703Y-53969228D01*
X84874000Y-53804816D01*
X84874000Y-53637184D01*
X84906703Y-53472772D01*
X84970853Y-53317900D01*
X85063985Y-53178519D01*
X85182519Y-53059985D01*
X85321900Y-52966853D01*
X85476772Y-52902703D01*
X85641184Y-52870000D01*
X85808816Y-52870000D01*
X85973228Y-52902703D01*
X85973228Y-52902703D01*
G37*
G36*
X83433228Y-52902703D02*
X83588100Y-52966853D01*
X83727481Y-53059985D01*
X83846015Y-53178519D01*
X83939147Y-53317900D01*
X84003297Y-53472772D01*
X84036000Y-53637184D01*
X84036000Y-53804816D01*
X84003297Y-53969228D01*
X83939147Y-54124100D01*
X83846015Y-54263481D01*
X83727481Y-54382015D01*
X83588100Y-54475147D01*
X83433228Y-54539297D01*
X83268816Y-54572000D01*
X83101184Y-54572000D01*
X82936772Y-54539297D01*
X82781900Y-54475147D01*
X82642519Y-54382015D01*
X82523985Y-54263481D01*
X82430853Y-54124100D01*
X82366703Y-53969228D01*
X82334000Y-53804816D01*
X82334000Y-53637184D01*
X82366703Y-53472772D01*
X82430853Y-53317900D01*
X82523985Y-53178519D01*
X82642519Y-53059985D01*
X82781900Y-52966853D01*
X82936772Y-52902703D01*
X83101184Y-52870000D01*
X83268816Y-52870000D01*
X83433228Y-52902703D01*
X83433228Y-52902703D01*
G37*
M02*
