M48
;DRILL file {KiCad (5.0.1-3-g963ef8bb5)} date Saturday, December 22, 2018 at 11:57:13 PM
;FORMAT={-:-/ absolute / inch / decimal}
FMAT,2
INCH,TZ
T1C0.0157
T2C0.0276
T3C0.0433
T4C0.0590
T5C0.0984
%
G90
G05
M72
T1
X6.8171Y-2.9353
X7.8467Y-3.4423
T2
X3.935Y-2.2515
X3.935Y-2.5585
X6.4215Y-2.85
X6.7285Y-2.85
X7.9215Y-2.845
X8.2285Y-2.845
X4.685Y-2.2765
X4.685Y-2.5835
X8.6815Y-2.85
X8.9885Y-2.85
X9.9515Y-4.33
X10.2585Y-4.33
X10.7265Y-4.325
X11.0335Y-4.325
X3.6865Y-4.34
X3.9935Y-4.34
X6.9765Y-4.33
X7.2835Y-4.33
X5.5665Y-5.095
X5.8735Y-5.095
X12.2215Y-5.095
X12.5285Y-5.095
X4.7265Y-4.345
X5.0335Y-4.345
X11.0865Y-3.61
X11.3935Y-3.61
X7.3315Y-3.59
X7.6385Y-3.59
X10.8815Y-2.85
X11.1885Y-2.85
X5.8415Y-3.6
X6.1485Y-3.6
X6.5965Y-3.595
X6.9035Y-3.595
X3.5015Y-3.59
X3.8085Y-3.59
X5.6465Y-2.855
X5.9535Y-2.855
X7.1665Y-2.85
X7.4735Y-2.85
X8.4465Y-4.32
X8.7535Y-4.32
X9.2265Y-4.33
X9.5335Y-4.33
X12.2065Y-4.34
X12.5135Y-4.34
X9.7715Y-5.095
X10.0785Y-5.095
X3.5165Y-5.075
X3.8235Y-5.075
X6.2365Y-4.34
X6.5435Y-4.34
X4.5365Y-5.08
X4.8435Y-5.08
X11.4615Y-5.09
X11.7685Y-5.09
X9.5815Y-3.6
X9.8885Y-3.6
X10.3315Y-3.605
X10.6385Y-3.605
X10.1415Y-2.85
X10.4485Y-2.85
X5.0915Y-3.595
X5.3985Y-3.595
X4.9515Y-2.85
X5.2585Y-2.85
X9.4015Y-2.845
X9.7085Y-2.845
X7.7165Y-4.335
X8.0235Y-4.335
X6.2165Y-4.635
X6.5235Y-4.635
X11.4765Y-4.34
X11.7835Y-4.34
X9.1165Y-4.655
X9.4235Y-4.655
X5.4815Y-4.34
X5.7885Y-4.34
X10.7215Y-5.095
X11.0285Y-5.095
X12.0315Y-3.595
X12.3385Y-3.595
X8.0915Y-3.605
X8.3985Y-3.605
X11.9365Y-2.85
X12.2435Y-2.85
X8.8365Y-3.605
X9.1435Y-3.605
X4.3465Y-3.59
X4.6535Y-3.59
T3
X3.275Y-2.115
X3.275Y-2.715
X3.375Y-2.115
X3.375Y-2.715
X3.475Y-2.115
X3.475Y-2.715
X3.575Y-2.115
X3.575Y-2.715
X3.675Y-2.115
X3.675Y-2.715
X3.775Y-2.115
X3.775Y-2.715
X3.875Y-2.115
X3.875Y-2.715
X3.975Y-2.115
X3.975Y-2.715
X4.075Y-2.115
X4.075Y-2.715
X4.175Y-2.115
X4.175Y-2.715
X4.275Y-2.115
X4.275Y-2.715
X4.375Y-2.115
X4.375Y-2.715
X4.475Y-2.115
X4.475Y-2.715
X4.575Y-2.115
X4.575Y-2.715
T4
X10.33Y-3.125
X10.58Y-3.025
X7.15Y-2.375
X7.4Y-2.275
X6.965Y-3.87
X7.215Y-3.77
X5.47Y-3.87
X5.72Y-3.77
X4.535Y-4.62
X4.785Y-4.52
X4.16Y-2.375
X4.41Y-2.275
X10.705Y-3.87
X10.955Y-3.77
X10.705Y-4.62
X10.955Y-4.52
X9.58Y-3.125
X9.83Y-3.025
X6.41Y-2.375
X6.66Y-2.275
X4.72Y-3.87
X4.97Y-3.77
X10.15Y-2.375
X10.4Y-2.275
X12.02Y-3.125
X12.27Y-3.025
X9.96Y-3.87
X10.21Y-3.77
X3.41Y-2.375
X3.66Y-2.275
X9.77Y-4.62
X10.02Y-4.52
X5.66Y-2.375
X5.91Y-2.275
X3.69Y-3.875
X3.94Y-3.775
X9.4Y-2.375
X9.65Y-2.275
X11.08Y-3.125
X11.33Y-3.025
X9.21Y-3.87
X9.46Y-3.77
X5.84Y-3.125
X6.09Y-3.025
X12.2Y-4.62
X12.45Y-4.52
X4.34Y-3.125
X4.59Y-3.025
X8.46Y-4.62
X8.71Y-4.52
X5.56Y-4.62
X5.81Y-4.52
X8.08Y-3.125
X8.33Y-3.025
X4.91Y-2.375
X5.16Y-2.275
X3.505Y-4.615
X3.755Y-4.515
X8.65Y-2.375
X8.9Y-2.275
X8.46Y-3.87
X8.71Y-3.77
X5.09Y-3.125
X5.34Y-3.025
X3.51Y-3.125
X3.76Y-3.025
X10.9Y-2.375
X11.15Y-2.275
X6.87Y-4.62
X7.12Y-4.52
X8.83Y-3.125
X9.08Y-3.025
X7.33Y-3.125
X7.58Y-3.025
X12.2Y-3.87
X12.45Y-3.77
X7.9Y-2.375
X8.15Y-2.275
X7.71Y-3.87
X7.96Y-3.77
X6.215Y-3.87
X6.465Y-3.77
X11.92Y-2.375
X12.17Y-2.275
X6.59Y-3.125
X6.84Y-3.025
X11.455Y-3.87
X11.705Y-3.77
X11.455Y-4.62
X11.705Y-4.52
T5
X3.03Y-1.905
X3.03Y-5.305
X3.03Y-5.79
X3.03Y-9.19
X12.88Y-1.905
X12.88Y-5.305
X12.88Y-5.79
X12.88Y-9.19
T0
M30
